%TF.GenerationSoftware,KiCad,Pcbnew,9.0.4*%
%TF.CreationDate,2025-10-08T21:43:02+01:00*%
%TF.ProjectId,DashcamPower,44617368-6361-46d5-906f-7765722e6b69,rev?*%
%TF.SameCoordinates,Original*%
%TF.FileFunction,Paste,Bot*%
%TF.FilePolarity,Positive*%
%FSLAX46Y46*%
G04 Gerber Fmt 4.6, Leading zero omitted, Abs format (unit mm)*
G04 Created by KiCad (PCBNEW 9.0.4) date 2025-10-08 21:43:02*
%MOMM*%
%LPD*%
G01*
G04 APERTURE LIST*
G04 Aperture macros list*
%AMRoundRect*
0 Rectangle with rounded corners*
0 $1 Rounding radius*
0 $2 $3 $4 $5 $6 $7 $8 $9 X,Y pos of 4 corners*
0 Add a 4 corners polygon primitive as box body*
4,1,4,$2,$3,$4,$5,$6,$7,$8,$9,$2,$3,0*
0 Add four circle primitives for the rounded corners*
1,1,$1+$1,$2,$3*
1,1,$1+$1,$4,$5*
1,1,$1+$1,$6,$7*
1,1,$1+$1,$8,$9*
0 Add four rect primitives between the rounded corners*
20,1,$1+$1,$2,$3,$4,$5,0*
20,1,$1+$1,$4,$5,$6,$7,0*
20,1,$1+$1,$6,$7,$8,$9,0*
20,1,$1+$1,$8,$9,$2,$3,0*%
G04 Aperture macros list end*
%ADD10RoundRect,0.225000X-0.225000X-0.250000X0.225000X-0.250000X0.225000X0.250000X-0.225000X0.250000X0*%
%ADD11RoundRect,0.150000X-0.587500X-0.150000X0.587500X-0.150000X0.587500X0.150000X-0.587500X0.150000X0*%
%ADD12RoundRect,0.200000X0.275000X-0.200000X0.275000X0.200000X-0.275000X0.200000X-0.275000X-0.200000X0*%
%ADD13RoundRect,0.200000X-0.200000X-0.275000X0.200000X-0.275000X0.200000X0.275000X-0.200000X0.275000X0*%
%ADD14RoundRect,0.200000X0.200000X0.275000X-0.200000X0.275000X-0.200000X-0.275000X0.200000X-0.275000X0*%
%ADD15RoundRect,0.200000X-0.275000X0.200000X-0.275000X-0.200000X0.275000X-0.200000X0.275000X0.200000X0*%
%ADD16RoundRect,0.225000X-0.250000X0.225000X-0.250000X-0.225000X0.250000X-0.225000X0.250000X0.225000X0*%
%ADD17RoundRect,0.225000X0.225000X0.250000X-0.225000X0.250000X-0.225000X-0.250000X0.225000X-0.250000X0*%
%ADD18RoundRect,0.225000X0.250000X-0.225000X0.250000X0.225000X-0.250000X0.225000X-0.250000X-0.225000X0*%
%ADD19RoundRect,0.162500X-0.650000X-0.162500X0.650000X-0.162500X0.650000X0.162500X-0.650000X0.162500X0*%
G04 APERTURE END LIST*
D10*
%TO.C,C17*%
X90200000Y-95450000D03*
X91750000Y-95450000D03*
%TD*%
D11*
%TO.C,Q3*%
X99000000Y-95400000D03*
X99000000Y-93500000D03*
X100875000Y-94450000D03*
%TD*%
D12*
%TO.C,R21*%
X93500000Y-103825000D03*
X93500000Y-102175000D03*
%TD*%
D10*
%TO.C,C7*%
X87225000Y-103000000D03*
X88775000Y-103000000D03*
%TD*%
D13*
%TO.C,R8*%
X75675000Y-99500000D03*
X77325000Y-99500000D03*
%TD*%
D14*
%TO.C,R9*%
X77325000Y-101000000D03*
X75675000Y-101000000D03*
%TD*%
D15*
%TO.C,R13*%
X108000000Y-99675000D03*
X108000000Y-101325000D03*
%TD*%
D16*
%TO.C,C14*%
X95000000Y-102225000D03*
X95000000Y-103775000D03*
%TD*%
D15*
%TO.C,R11*%
X113450000Y-97125000D03*
X113450000Y-98775000D03*
%TD*%
D13*
%TO.C,R19*%
X95000000Y-94500000D03*
X96650000Y-94500000D03*
%TD*%
D12*
%TO.C,R18*%
X102500000Y-99650000D03*
X102500000Y-98000000D03*
%TD*%
D17*
%TO.C,C15*%
X105275000Y-107000000D03*
X103725000Y-107000000D03*
%TD*%
D18*
%TO.C,C10*%
X91000000Y-100775000D03*
X91000000Y-99225000D03*
%TD*%
D19*
%TO.C,U4*%
X81412500Y-100905000D03*
X81412500Y-99635000D03*
X81412500Y-98365000D03*
X81412500Y-97095000D03*
X88587500Y-97095000D03*
X88587500Y-98365000D03*
X88587500Y-99635000D03*
X88587500Y-100905000D03*
%TD*%
D10*
%TO.C,C16*%
X87225000Y-104600000D03*
X88775000Y-104600000D03*
%TD*%
D14*
%TO.C,R1*%
X70325000Y-101500000D03*
X68675000Y-101500000D03*
%TD*%
D17*
%TO.C,C8*%
X77275000Y-104500000D03*
X75725000Y-104500000D03*
%TD*%
D13*
%TO.C,R12*%
X104375000Y-102150000D03*
X106025000Y-102150000D03*
%TD*%
D10*
%TO.C,C13*%
X104450000Y-98000000D03*
X106000000Y-98000000D03*
%TD*%
D13*
%TO.C,R2*%
X75675000Y-97700000D03*
X77325000Y-97700000D03*
%TD*%
M02*
