%TF.GenerationSoftware,KiCad,Pcbnew,9.0.4*%
%TF.CreationDate,2025-10-08T21:43:01+01:00*%
%TF.ProjectId,DashcamPower,44617368-6361-46d5-906f-7765722e6b69,rev?*%
%TF.SameCoordinates,Original*%
%TF.FileFunction,Copper,L3,Inr*%
%TF.FilePolarity,Positive*%
%FSLAX46Y46*%
G04 Gerber Fmt 4.6, Leading zero omitted, Abs format (unit mm)*
G04 Created by KiCad (PCBNEW 9.0.4) date 2025-10-08 21:43:01*
%MOMM*%
%LPD*%
G01*
G04 APERTURE LIST*
G04 Aperture macros list*
%AMRoundRect*
0 Rectangle with rounded corners*
0 $1 Rounding radius*
0 $2 $3 $4 $5 $6 $7 $8 $9 X,Y pos of 4 corners*
0 Add a 4 corners polygon primitive as box body*
4,1,4,$2,$3,$4,$5,$6,$7,$8,$9,$2,$3,0*
0 Add four circle primitives for the rounded corners*
1,1,$1+$1,$2,$3*
1,1,$1+$1,$4,$5*
1,1,$1+$1,$6,$7*
1,1,$1+$1,$8,$9*
0 Add four rect primitives between the rounded corners*
20,1,$1+$1,$2,$3,$4,$5,0*
20,1,$1+$1,$4,$5,$6,$7,0*
20,1,$1+$1,$6,$7,$8,$9,0*
20,1,$1+$1,$8,$9,$2,$3,0*%
G04 Aperture macros list end*
%TA.AperFunction,ComponentPad*%
%ADD10C,0.700000*%
%TD*%
%TA.AperFunction,ComponentPad*%
%ADD11O,2.400000X0.900000*%
%TD*%
%TA.AperFunction,ComponentPad*%
%ADD12O,1.700000X0.900000*%
%TD*%
%TA.AperFunction,ComponentPad*%
%ADD13R,1.700000X1.700000*%
%TD*%
%TA.AperFunction,ComponentPad*%
%ADD14C,1.700000*%
%TD*%
%TA.AperFunction,ComponentPad*%
%ADD15RoundRect,0.250000X0.550000X0.550000X-0.550000X0.550000X-0.550000X-0.550000X0.550000X-0.550000X0*%
%TD*%
%TA.AperFunction,ComponentPad*%
%ADD16C,1.600000*%
%TD*%
%TA.AperFunction,ViaPad*%
%ADD17C,0.600000*%
%TD*%
G04 APERTURE END LIST*
D10*
%TO.N,GND*%
%TO.C,J2*%
X109650000Y-102975000D03*
%TO.N,/USB_VOUT*%
X109650000Y-102125000D03*
%TO.N,Net-(J2-CC1)*%
X109650000Y-101275000D03*
%TO.N,Net-(J2-D+-PadA6)*%
X109650000Y-100425000D03*
%TO.N,Net-(J2-D--PadA7)*%
X109650000Y-99575000D03*
%TO.N,unconnected-(J2-SBU1-PadA8)*%
X109650000Y-98725000D03*
%TO.N,/USB_VOUT*%
X109650000Y-97875000D03*
%TO.N,GND*%
X109650000Y-97025000D03*
X111000000Y-97025000D03*
%TO.N,/USB_VOUT*%
X111000000Y-97875000D03*
%TO.N,Net-(J2-CC2)*%
X111000000Y-98725000D03*
%TO.N,Net-(J2-D+-PadA6)*%
X111000000Y-99575000D03*
%TO.N,Net-(J2-D--PadA7)*%
X111000000Y-100425000D03*
%TO.N,unconnected-(J2-SBU2-PadB8)*%
X111000000Y-101275000D03*
%TO.N,/USB_VOUT*%
X111000000Y-102125000D03*
%TO.N,GND*%
X111000000Y-102975000D03*
D11*
X110630000Y-104325000D03*
D12*
X114010000Y-104325000D03*
D11*
X110630000Y-95675000D03*
D12*
X114010000Y-95675000D03*
%TD*%
D13*
%TO.N,/SWD*%
%TO.C,J4*%
X82540000Y-107500000D03*
D14*
%TO.N,GND*%
X80000000Y-107500000D03*
%TO.N,/SWC*%
X77460000Y-107500000D03*
%TO.N,/UTX*%
X74920000Y-107500000D03*
%TO.N,/URX*%
X72380000Y-107500000D03*
%TO.N,+3.3V*%
X69840000Y-107500000D03*
%TD*%
D15*
%TO.N,Net-(LS1-Pad1)*%
%TO.C,LS1*%
X108100000Y-93500000D03*
D16*
%TO.N,Net-(Q3-C)*%
X104500000Y-93500000D03*
%TD*%
D10*
%TO.N,GND*%
%TO.C,J1*%
X73525000Y-97200000D03*
%TO.N,+5V*%
X73525000Y-98050000D03*
%TO.N,Net-(J1-CC1)*%
X73525000Y-98900000D03*
%TO.N,/USB_D_P*%
X73525000Y-99750000D03*
%TO.N,/USB_D_N*%
X73525000Y-100600000D03*
%TO.N,unconnected-(J1-SBU1-PadA8)*%
X73525000Y-101450000D03*
%TO.N,+5V*%
X73525000Y-102300000D03*
%TO.N,GND*%
X73525000Y-103150000D03*
X72175000Y-103150000D03*
%TO.N,+5V*%
X72175000Y-102300000D03*
%TO.N,Net-(J1-CC2)*%
X72175000Y-101450000D03*
%TO.N,/USB_D_P*%
X72175000Y-100600000D03*
%TO.N,/USB_D_N*%
X72175000Y-99750000D03*
%TO.N,unconnected-(J1-SBU2-PadB8)*%
X72175000Y-98900000D03*
%TO.N,+5V*%
X72175000Y-98050000D03*
%TO.N,GND*%
X72175000Y-97200000D03*
D11*
X72545000Y-95850000D03*
D12*
X69165000Y-95850000D03*
D11*
X72545000Y-104500000D03*
D12*
X69165000Y-104500000D03*
%TD*%
D17*
%TO.N,GND*%
X92250000Y-96350000D03*
%TO.N,+5V*%
X75000000Y-93500000D03*
X103450000Y-107950000D03*
X114200000Y-93500000D03*
X105749997Y-107950000D03*
X73950000Y-94800000D03*
X76999000Y-94450000D03*
X101600000Y-107850000D03*
%TO.N,GND*%
X73000000Y-93500000D03*
X88150122Y-105975000D03*
X82750000Y-95800000D03*
X91250000Y-94000000D03*
X78500000Y-105100000D03*
X86450000Y-101000000D03*
X78350000Y-97700000D03*
X87000000Y-93900000D03*
X97650000Y-93400000D03*
X97950000Y-107700000D03*
X89888167Y-102492598D03*
X107000000Y-102650000D03*
X86500000Y-100000000D03*
X106900000Y-98000000D03*
X93500000Y-93000000D03*
X114550000Y-106500000D03*
X68300000Y-100050000D03*
X93450000Y-108250000D03*
X89750000Y-108500000D03*
X82800000Y-97100000D03*
X85000000Y-93900000D03*
X75150000Y-95650000D03*
X87411725Y-98888275D03*
X108450000Y-96000000D03*
X89399998Y-106900000D03*
X86950000Y-105750000D03*
X80150000Y-102950000D03*
X96150000Y-103800000D03*
X71100000Y-93500000D03*
X75800000Y-103400000D03*
X90000000Y-99250000D03*
%TO.N,+3.3V*%
X93500000Y-104850000D03*
X87843800Y-95587988D03*
X91500000Y-96700000D03*
X85050000Y-101000000D03*
X78500000Y-94400000D03*
X89900000Y-100905000D03*
X79400000Y-104900000D03*
X79950000Y-99950000D03*
X80300000Y-97850000D03*
X77800000Y-103500000D03*
X100137500Y-93500748D03*
X78800000Y-95637500D03*
X90850000Y-96300000D03*
X85013075Y-95641883D03*
X87200000Y-102200000D03*
%TO.N,/VCORE*%
X88000000Y-102250000D03*
X86950000Y-95650000D03*
X89256200Y-95500000D03*
%TO.N,/BTN*%
X101250000Y-98000000D03*
%TO.N,Net-(U3-RUN)*%
X92200000Y-103400000D03*
%TO.N,Net-(D1-K)*%
X93500000Y-97550000D03*
X93500000Y-95000000D03*
%TO.N,Net-(D2-K)*%
X96450000Y-96800000D03*
X95538275Y-97711725D03*
%TO.N,/SWC*%
X89223608Y-102047215D03*
%TO.N,/URX*%
X91975000Y-100776200D03*
%TO.N,/UTX*%
X92002616Y-101575726D03*
%TO.N,/SWD*%
X89100000Y-105799998D03*
%TO.N,Net-(Q1-G)*%
X106100000Y-106050000D03*
%TO.N,/USB_RES_D_N*%
X88718301Y-93145685D03*
%TO.N,/USB_RES_D_P*%
X89470701Y-93145685D03*
%TO.N,Net-(R17-Pad2)*%
X103500000Y-100650000D03*
%TO.N,/BUZZER*%
X85600000Y-102250000D03*
%TO.N,/QSPI_SD1*%
X85253400Y-99350000D03*
%TO.N,/QSPI_SD2*%
X85850000Y-97850000D03*
%TO.N,/QSPI_CLK*%
X89611196Y-97815792D03*
%TO.N,/QSPI_SS*%
X85100000Y-100200000D03*
%TO.N,/USB_VOUT*%
X110550000Y-106850000D03*
X103800000Y-104000000D03*
X107950000Y-107000000D03*
X106450000Y-107950000D03*
%TO.N,/QSPI_SD0*%
X87081022Y-97999998D03*
%TO.N,/QSPI_SD3*%
X86150000Y-95600000D03*
%TD*%
%TA.AperFunction,Conductor*%
%TO.N,+5V*%
G36*
X88575544Y-92518513D02*
G01*
X88593557Y-92562000D01*
X88575544Y-92605487D01*
X88547975Y-92621404D01*
X88505820Y-92632699D01*
X88505816Y-92632701D01*
X88380287Y-92705175D01*
X88380282Y-92705179D01*
X88277795Y-92807666D01*
X88277791Y-92807671D01*
X88205317Y-92933200D01*
X88205315Y-92933204D01*
X88167801Y-93073207D01*
X88167801Y-93218162D01*
X88205315Y-93358165D01*
X88205316Y-93358167D01*
X88205317Y-93358170D01*
X88277792Y-93483700D01*
X88380286Y-93586194D01*
X88505816Y-93658669D01*
X88505820Y-93658670D01*
X88645824Y-93696185D01*
X88645826Y-93696185D01*
X88790777Y-93696185D01*
X88852507Y-93679643D01*
X88930786Y-93658669D01*
X89056316Y-93586194D01*
X89056324Y-93586185D01*
X89057057Y-93585625D01*
X89057511Y-93585503D01*
X89059807Y-93584178D01*
X89060161Y-93584792D01*
X89102522Y-93573437D01*
X89129051Y-93584426D01*
X89129195Y-93584178D01*
X89131082Y-93585267D01*
X89131945Y-93585625D01*
X89132680Y-93586188D01*
X89132686Y-93586194D01*
X89258216Y-93658669D01*
X89258220Y-93658670D01*
X89398224Y-93696185D01*
X89398226Y-93696185D01*
X89543177Y-93696185D01*
X89604907Y-93679643D01*
X89683186Y-93658669D01*
X89808716Y-93586194D01*
X89911210Y-93483700D01*
X89983685Y-93358170D01*
X90002617Y-93287515D01*
X90021201Y-93218162D01*
X90021201Y-93073207D01*
X89983686Y-92933204D01*
X89983685Y-92933200D01*
X89911210Y-92807670D01*
X89808716Y-92705176D01*
X89683186Y-92632701D01*
X89683183Y-92632700D01*
X89683181Y-92632699D01*
X89641027Y-92621404D01*
X89603684Y-92592750D01*
X89597541Y-92546082D01*
X89626195Y-92508739D01*
X89656945Y-92500500D01*
X93072502Y-92500500D01*
X93115989Y-92518513D01*
X93134002Y-92562000D01*
X93115989Y-92605487D01*
X93059494Y-92661981D01*
X93059490Y-92661986D01*
X92987016Y-92787515D01*
X92987014Y-92787519D01*
X92949500Y-92927522D01*
X92949500Y-93072477D01*
X92987014Y-93212480D01*
X92987015Y-93212482D01*
X92987016Y-93212485D01*
X93059491Y-93338015D01*
X93161985Y-93440509D01*
X93287515Y-93512984D01*
X93287519Y-93512985D01*
X93427523Y-93550500D01*
X93427525Y-93550500D01*
X93572476Y-93550500D01*
X93634206Y-93533958D01*
X93712485Y-93512984D01*
X93838015Y-93440509D01*
X93940509Y-93338015D01*
X93946567Y-93327522D01*
X97099500Y-93327522D01*
X97099500Y-93472477D01*
X97137014Y-93612480D01*
X97137015Y-93612482D01*
X97137016Y-93612485D01*
X97209491Y-93738015D01*
X97311985Y-93840509D01*
X97437515Y-93912984D01*
X97437519Y-93912985D01*
X97577523Y-93950500D01*
X97577525Y-93950500D01*
X97722476Y-93950500D01*
X97784206Y-93933958D01*
X97862485Y-93912984D01*
X97988015Y-93840509D01*
X98090509Y-93738015D01*
X98162984Y-93612485D01*
X98179593Y-93550500D01*
X98200500Y-93472477D01*
X98200500Y-93428270D01*
X99587000Y-93428270D01*
X99587000Y-93573225D01*
X99624514Y-93713228D01*
X99624515Y-93713230D01*
X99624516Y-93713233D01*
X99696991Y-93838763D01*
X99799485Y-93941257D01*
X99925015Y-94013732D01*
X99925019Y-94013733D01*
X100065023Y-94051248D01*
X100065025Y-94051248D01*
X100209976Y-94051248D01*
X100271706Y-94034706D01*
X100349985Y-94013732D01*
X100475515Y-93941257D01*
X100578009Y-93838763D01*
X100650484Y-93713233D01*
X100679897Y-93603465D01*
X100688000Y-93573225D01*
X100688000Y-93428270D01*
X100650485Y-93288267D01*
X100650484Y-93288263D01*
X100578009Y-93162733D01*
X100475515Y-93060239D01*
X100349985Y-92987764D01*
X100349982Y-92987763D01*
X100349980Y-92987762D01*
X100209977Y-92950248D01*
X100209975Y-92950248D01*
X100065025Y-92950248D01*
X100065023Y-92950248D01*
X99925019Y-92987762D01*
X99925015Y-92987764D01*
X99799486Y-93060238D01*
X99799481Y-93060242D01*
X99696994Y-93162729D01*
X99696990Y-93162734D01*
X99624516Y-93288263D01*
X99624514Y-93288267D01*
X99587000Y-93428270D01*
X98200500Y-93428270D01*
X98200500Y-93327522D01*
X98162985Y-93187519D01*
X98162984Y-93187515D01*
X98090509Y-93061985D01*
X97988015Y-92959491D01*
X97862485Y-92887016D01*
X97862482Y-92887015D01*
X97862480Y-92887014D01*
X97722477Y-92849500D01*
X97722475Y-92849500D01*
X97577525Y-92849500D01*
X97577523Y-92849500D01*
X97437519Y-92887014D01*
X97437515Y-92887016D01*
X97311986Y-92959490D01*
X97311981Y-92959494D01*
X97209494Y-93061981D01*
X97209490Y-93061986D01*
X97137016Y-93187515D01*
X97137014Y-93187519D01*
X97099500Y-93327522D01*
X93946567Y-93327522D01*
X94012984Y-93212485D01*
X94027540Y-93158158D01*
X94050500Y-93072477D01*
X94050500Y-92927522D01*
X94012985Y-92787519D01*
X94012984Y-92787515D01*
X93940509Y-92661985D01*
X93884011Y-92605487D01*
X93865998Y-92562000D01*
X93884011Y-92518513D01*
X93927498Y-92500500D01*
X103902269Y-92500500D01*
X103945756Y-92518513D01*
X103963769Y-92562000D01*
X103945756Y-92605487D01*
X103936436Y-92613136D01*
X103830345Y-92684022D01*
X103684022Y-92830345D01*
X103569060Y-93002400D01*
X103569056Y-93002408D01*
X103489873Y-93193569D01*
X103489868Y-93193585D01*
X103449500Y-93396531D01*
X103449500Y-93603468D01*
X103489868Y-93806414D01*
X103489873Y-93806430D01*
X103558653Y-93972477D01*
X103569059Y-93997598D01*
X103579840Y-94013733D01*
X103684022Y-94169654D01*
X103830345Y-94315977D01*
X103830344Y-94315977D01*
X103916664Y-94373653D01*
X104002402Y-94430941D01*
X104091466Y-94467832D01*
X104193569Y-94510126D01*
X104193574Y-94510127D01*
X104193580Y-94510130D01*
X104396531Y-94550499D01*
X104396532Y-94550500D01*
X104396535Y-94550500D01*
X104603468Y-94550500D01*
X104603468Y-94550499D01*
X104806420Y-94510130D01*
X104997598Y-94430941D01*
X105169655Y-94315977D01*
X105315977Y-94169655D01*
X105430941Y-93997598D01*
X105510130Y-93806420D01*
X105550499Y-93603468D01*
X105550500Y-93603468D01*
X105550500Y-93396532D01*
X105550499Y-93396531D01*
X105548606Y-93387016D01*
X105510130Y-93193580D01*
X105510127Y-93193574D01*
X105510126Y-93193569D01*
X105460271Y-93073210D01*
X105430941Y-93002402D01*
X105315977Y-92830345D01*
X105169655Y-92684023D01*
X105169654Y-92684022D01*
X105169655Y-92684022D01*
X105063564Y-92613136D01*
X105037413Y-92573998D01*
X105046595Y-92527833D01*
X105085733Y-92501682D01*
X105097731Y-92500500D01*
X107138429Y-92500500D01*
X107181916Y-92518513D01*
X107199929Y-92562000D01*
X107187662Y-92598854D01*
X107170782Y-92621404D01*
X107106205Y-92707666D01*
X107106203Y-92707671D01*
X107055910Y-92842512D01*
X107055910Y-92842514D01*
X107055909Y-92842517D01*
X107051125Y-92887014D01*
X107049500Y-92902128D01*
X107049500Y-94097872D01*
X107055908Y-94157481D01*
X107055909Y-94157485D01*
X107099287Y-94273786D01*
X107106204Y-94292331D01*
X107192454Y-94407546D01*
X107307669Y-94493796D01*
X107442517Y-94544091D01*
X107502127Y-94550500D01*
X108697872Y-94550499D01*
X108757483Y-94544091D01*
X108892331Y-94493796D01*
X109007546Y-94407546D01*
X109093796Y-94292331D01*
X109144091Y-94157483D01*
X109150500Y-94097873D01*
X109150499Y-92902128D01*
X109144091Y-92842517D01*
X109093796Y-92707669D01*
X109093253Y-92706944D01*
X109029218Y-92621404D01*
X109012337Y-92598854D01*
X109000697Y-92553248D01*
X109024715Y-92512767D01*
X109061571Y-92500500D01*
X114938000Y-92500500D01*
X114981487Y-92518513D01*
X114999500Y-92562000D01*
X114999500Y-95125370D01*
X114981487Y-95168857D01*
X114938000Y-95186870D01*
X114894513Y-95168857D01*
X114856541Y-95130885D01*
X114856535Y-95130880D01*
X114741820Y-95054230D01*
X114741813Y-95054226D01*
X114741811Y-95054225D01*
X114741804Y-95054222D01*
X114614338Y-95001423D01*
X114614321Y-95001418D01*
X114478996Y-94974500D01*
X114478993Y-94974500D01*
X113541007Y-94974500D01*
X113541004Y-94974500D01*
X113405678Y-95001418D01*
X113405661Y-95001423D01*
X113278195Y-95054222D01*
X113278179Y-95054230D01*
X113163464Y-95130880D01*
X113163458Y-95130885D01*
X113065885Y-95228458D01*
X113065880Y-95228464D01*
X112989230Y-95343179D01*
X112989222Y-95343195D01*
X112936423Y-95470661D01*
X112936418Y-95470678D01*
X112909500Y-95606003D01*
X112909500Y-95743996D01*
X112936418Y-95879321D01*
X112936423Y-95879338D01*
X112989222Y-96006804D01*
X112989225Y-96006811D01*
X112989226Y-96006813D01*
X112989230Y-96006820D01*
X113065880Y-96121535D01*
X113065885Y-96121541D01*
X113163458Y-96219114D01*
X113163464Y-96219119D01*
X113278179Y-96295769D01*
X113278183Y-96295771D01*
X113278189Y-96295775D01*
X113315694Y-96311310D01*
X113364875Y-96331682D01*
X113398159Y-96364965D01*
X113398158Y-96412035D01*
X113364875Y-96445319D01*
X113341340Y-96450000D01*
X111648660Y-96450000D01*
X111605173Y-96431987D01*
X111587160Y-96388500D01*
X111605173Y-96345013D01*
X111625125Y-96331682D01*
X111670262Y-96312985D01*
X111711811Y-96295775D01*
X111739124Y-96277525D01*
X111826535Y-96219119D01*
X111826536Y-96219117D01*
X111826542Y-96219114D01*
X111924114Y-96121542D01*
X111944853Y-96090505D01*
X112000769Y-96006820D01*
X112000769Y-96006819D01*
X112000775Y-96006811D01*
X112053580Y-95879328D01*
X112080499Y-95743996D01*
X112080500Y-95743996D01*
X112080500Y-95606004D01*
X112080499Y-95606003D01*
X112076821Y-95587515D01*
X112053580Y-95470672D01*
X112053577Y-95470665D01*
X112053576Y-95470661D01*
X112025375Y-95402580D01*
X112000775Y-95343189D01*
X112000771Y-95343183D01*
X112000769Y-95343179D01*
X111924119Y-95228464D01*
X111924114Y-95228458D01*
X111826541Y-95130885D01*
X111826535Y-95130880D01*
X111711820Y-95054230D01*
X111711813Y-95054226D01*
X111711811Y-95054225D01*
X111711804Y-95054222D01*
X111584338Y-95001423D01*
X111584321Y-95001418D01*
X111448996Y-94974500D01*
X111448993Y-94974500D01*
X109811007Y-94974500D01*
X109811004Y-94974500D01*
X109675678Y-95001418D01*
X109675661Y-95001423D01*
X109548195Y-95054222D01*
X109548179Y-95054230D01*
X109433464Y-95130880D01*
X109433458Y-95130885D01*
X109335885Y-95228458D01*
X109335880Y-95228464D01*
X109259230Y-95343179D01*
X109259222Y-95343195D01*
X109206423Y-95470661D01*
X109206418Y-95470678D01*
X109179500Y-95606003D01*
X109179500Y-95743996D01*
X109206418Y-95879321D01*
X109206423Y-95879338D01*
X109259222Y-96006804D01*
X109259225Y-96006811D01*
X109259226Y-96006813D01*
X109259230Y-96006820D01*
X109335880Y-96121535D01*
X109335885Y-96121541D01*
X109433458Y-96219114D01*
X109433464Y-96219119D01*
X109548179Y-96295769D01*
X109548182Y-96295770D01*
X109548189Y-96295775D01*
X109574529Y-96306685D01*
X109578446Y-96308308D01*
X109581448Y-96311310D01*
X109585659Y-96311865D01*
X109597719Y-96327581D01*
X109611729Y-96341592D01*
X109611728Y-96345839D01*
X109614314Y-96349208D01*
X109611728Y-96368850D01*
X109611728Y-96388662D01*
X109608725Y-96391664D01*
X109608171Y-96395875D01*
X109592454Y-96407935D01*
X109578444Y-96421945D01*
X109570828Y-96424530D01*
X109511196Y-96440509D01*
X109483596Y-96447904D01*
X109467681Y-96450000D01*
X108926998Y-96450000D01*
X108883511Y-96431987D01*
X108865498Y-96388500D01*
X108883511Y-96345013D01*
X108886932Y-96341592D01*
X108890509Y-96338015D01*
X108962984Y-96212485D01*
X108982137Y-96141006D01*
X109000500Y-96072477D01*
X109000500Y-95927522D01*
X108962985Y-95787519D01*
X108962984Y-95787515D01*
X108890509Y-95661985D01*
X108788015Y-95559491D01*
X108662485Y-95487016D01*
X108662482Y-95487015D01*
X108662480Y-95487014D01*
X108522477Y-95449500D01*
X108522475Y-95449500D01*
X108377525Y-95449500D01*
X108377523Y-95449500D01*
X108237519Y-95487014D01*
X108237515Y-95487016D01*
X108111986Y-95559490D01*
X108111981Y-95559494D01*
X108009494Y-95661981D01*
X108009490Y-95661986D01*
X107937016Y-95787515D01*
X107937014Y-95787519D01*
X107899500Y-95927522D01*
X107899500Y-96072477D01*
X107937014Y-96212480D01*
X107937015Y-96212482D01*
X107937016Y-96212485D01*
X108009491Y-96338015D01*
X108009494Y-96338018D01*
X108016489Y-96345013D01*
X108034502Y-96388500D01*
X108016489Y-96431987D01*
X107973002Y-96450000D01*
X106450000Y-96450000D01*
X106450000Y-97661943D01*
X106441761Y-97692693D01*
X106387016Y-97787514D01*
X106387014Y-97787519D01*
X106349500Y-97927522D01*
X106349500Y-98072477D01*
X106387014Y-98212480D01*
X106387015Y-98212482D01*
X106387016Y-98212485D01*
X106437543Y-98300000D01*
X106441761Y-98307305D01*
X106450000Y-98338055D01*
X106450000Y-102569695D01*
X106449500Y-102577334D01*
X106449500Y-102722673D01*
X106450000Y-102730304D01*
X106450000Y-105509889D01*
X106431987Y-105553376D01*
X106388500Y-105571389D01*
X106357750Y-105563150D01*
X106340821Y-105553376D01*
X106312485Y-105537016D01*
X106312482Y-105537015D01*
X106312480Y-105537014D01*
X106172477Y-105499500D01*
X106172475Y-105499500D01*
X106027525Y-105499500D01*
X106027523Y-105499500D01*
X105887519Y-105537014D01*
X105887515Y-105537016D01*
X105761986Y-105609490D01*
X105761981Y-105609494D01*
X105659494Y-105711981D01*
X105659490Y-105711986D01*
X105587016Y-105837515D01*
X105587014Y-105837519D01*
X105549500Y-105977522D01*
X105549500Y-106122477D01*
X105587014Y-106262480D01*
X105587015Y-106262482D01*
X105587016Y-106262485D01*
X105659491Y-106388015D01*
X105761985Y-106490509D01*
X105887515Y-106562984D01*
X105887519Y-106562985D01*
X106027523Y-106600500D01*
X106027525Y-106600500D01*
X106172476Y-106600500D01*
X106234206Y-106583958D01*
X106312485Y-106562984D01*
X106357750Y-106536849D01*
X106404417Y-106530705D01*
X106441760Y-106559359D01*
X106450000Y-106590110D01*
X106450000Y-107338000D01*
X106431987Y-107381487D01*
X106388500Y-107399500D01*
X106377523Y-107399500D01*
X106237519Y-107437014D01*
X106237515Y-107437016D01*
X106111986Y-107509490D01*
X106111981Y-107509494D01*
X106009494Y-107611981D01*
X106009490Y-107611986D01*
X105937016Y-107737515D01*
X105937014Y-107737519D01*
X105899500Y-107877522D01*
X105899500Y-108022477D01*
X105937014Y-108162480D01*
X105937015Y-108162482D01*
X105937016Y-108162485D01*
X106009491Y-108288015D01*
X106111985Y-108390509D01*
X106237515Y-108462984D01*
X106237519Y-108462985D01*
X106377523Y-108500500D01*
X106388500Y-108500500D01*
X106431987Y-108518513D01*
X106450000Y-108562000D01*
X106450000Y-108938000D01*
X106431987Y-108981487D01*
X106388500Y-108999500D01*
X90177498Y-108999500D01*
X90134011Y-108981487D01*
X90115998Y-108938000D01*
X90134011Y-108894513D01*
X90190509Y-108838015D01*
X90262984Y-108712485D01*
X90292991Y-108600499D01*
X90300500Y-108572477D01*
X90300500Y-108427522D01*
X90262985Y-108287519D01*
X90262984Y-108287515D01*
X90214906Y-108204241D01*
X90199480Y-108177522D01*
X92899500Y-108177522D01*
X92899500Y-108322477D01*
X92937014Y-108462480D01*
X92937015Y-108462482D01*
X92937016Y-108462485D01*
X93009491Y-108588015D01*
X93111985Y-108690509D01*
X93237515Y-108762984D01*
X93237519Y-108762985D01*
X93377523Y-108800500D01*
X93377525Y-108800500D01*
X93522476Y-108800500D01*
X93584206Y-108783958D01*
X93662485Y-108762984D01*
X93788015Y-108690509D01*
X93890509Y-108588015D01*
X93962984Y-108462485D01*
X93982271Y-108390505D01*
X94000500Y-108322477D01*
X94000500Y-108177522D01*
X93962985Y-108037519D01*
X93962984Y-108037515D01*
X93890509Y-107911985D01*
X93788015Y-107809491D01*
X93662485Y-107737016D01*
X93662482Y-107737015D01*
X93662480Y-107737014D01*
X93522477Y-107699500D01*
X93522475Y-107699500D01*
X93377525Y-107699500D01*
X93377523Y-107699500D01*
X93237519Y-107737014D01*
X93237515Y-107737016D01*
X93111986Y-107809490D01*
X93111981Y-107809494D01*
X93009494Y-107911981D01*
X93009490Y-107911986D01*
X92937016Y-108037515D01*
X92937014Y-108037519D01*
X92899500Y-108177522D01*
X90199480Y-108177522D01*
X90190513Y-108161991D01*
X90190511Y-108161988D01*
X90190509Y-108161985D01*
X90088015Y-108059491D01*
X89962485Y-107987016D01*
X89962482Y-107987015D01*
X89962480Y-107987014D01*
X89822477Y-107949500D01*
X89822475Y-107949500D01*
X89677525Y-107949500D01*
X89677523Y-107949500D01*
X89537519Y-107987014D01*
X89537515Y-107987016D01*
X89411986Y-108059490D01*
X89411981Y-108059494D01*
X89309494Y-108161981D01*
X89309490Y-108161986D01*
X89237016Y-108287515D01*
X89237014Y-108287519D01*
X89199500Y-108427522D01*
X89199500Y-108572477D01*
X89237014Y-108712480D01*
X89237015Y-108712482D01*
X89237016Y-108712485D01*
X89309491Y-108838015D01*
X89309494Y-108838018D01*
X89365989Y-108894513D01*
X89384002Y-108938000D01*
X89365989Y-108981487D01*
X89322502Y-108999500D01*
X68062000Y-108999500D01*
X68018513Y-108981487D01*
X68000500Y-108938000D01*
X68000500Y-107413385D01*
X68739500Y-107413385D01*
X68739500Y-107586614D01*
X68766598Y-107757703D01*
X68820127Y-107922446D01*
X68898769Y-108076790D01*
X69000584Y-108216926D01*
X69123073Y-108339415D01*
X69193398Y-108390509D01*
X69263212Y-108441232D01*
X69417555Y-108519873D01*
X69582296Y-108573401D01*
X69582299Y-108573402D01*
X69753389Y-108600500D01*
X69753393Y-108600500D01*
X69926607Y-108600500D01*
X69926611Y-108600500D01*
X70097701Y-108573402D01*
X70262445Y-108519873D01*
X70416788Y-108441232D01*
X70556928Y-108339414D01*
X70679414Y-108216928D01*
X70781232Y-108076788D01*
X70859873Y-107922445D01*
X70913402Y-107757701D01*
X70940500Y-107586611D01*
X70940500Y-107413389D01*
X70940499Y-107413385D01*
X71279500Y-107413385D01*
X71279500Y-107586614D01*
X71306598Y-107757703D01*
X71360127Y-107922446D01*
X71438769Y-108076790D01*
X71540584Y-108216926D01*
X71663073Y-108339415D01*
X71733398Y-108390509D01*
X71803212Y-108441232D01*
X71957555Y-108519873D01*
X72122296Y-108573401D01*
X72122299Y-108573402D01*
X72293389Y-108600500D01*
X72293393Y-108600500D01*
X72466607Y-108600500D01*
X72466611Y-108600500D01*
X72637701Y-108573402D01*
X72802445Y-108519873D01*
X72956788Y-108441232D01*
X73096928Y-108339414D01*
X73219414Y-108216928D01*
X73321232Y-108076788D01*
X73399873Y-107922445D01*
X73453402Y-107757701D01*
X73480500Y-107586611D01*
X73480500Y-107413389D01*
X73480499Y-107413385D01*
X73819500Y-107413385D01*
X73819500Y-107586614D01*
X73846598Y-107757703D01*
X73900127Y-107922446D01*
X73978769Y-108076790D01*
X74080584Y-108216926D01*
X74203073Y-108339415D01*
X74273398Y-108390509D01*
X74343212Y-108441232D01*
X74497555Y-108519873D01*
X74662296Y-108573401D01*
X74662299Y-108573402D01*
X74833389Y-108600500D01*
X74833393Y-108600500D01*
X75006607Y-108600500D01*
X75006611Y-108600500D01*
X75177701Y-108573402D01*
X75342445Y-108519873D01*
X75496788Y-108441232D01*
X75636928Y-108339414D01*
X75759414Y-108216928D01*
X75861232Y-108076788D01*
X75939873Y-107922445D01*
X75993402Y-107757701D01*
X76020500Y-107586611D01*
X76020500Y-107413389D01*
X76020499Y-107413385D01*
X76359500Y-107413385D01*
X76359500Y-107586614D01*
X76386598Y-107757703D01*
X76440127Y-107922446D01*
X76518769Y-108076790D01*
X76620584Y-108216926D01*
X76743073Y-108339415D01*
X76813398Y-108390509D01*
X76883212Y-108441232D01*
X77037555Y-108519873D01*
X77202296Y-108573401D01*
X77202299Y-108573402D01*
X77373389Y-108600500D01*
X77373393Y-108600500D01*
X77546607Y-108600500D01*
X77546611Y-108600500D01*
X77717701Y-108573402D01*
X77882445Y-108519873D01*
X78036788Y-108441232D01*
X78176928Y-108339414D01*
X78299414Y-108216928D01*
X78401232Y-108076788D01*
X78479873Y-107922445D01*
X78533402Y-107757701D01*
X78560500Y-107586611D01*
X78560500Y-107413389D01*
X78560499Y-107413385D01*
X78899500Y-107413385D01*
X78899500Y-107586614D01*
X78926598Y-107757703D01*
X78980127Y-107922446D01*
X79058769Y-108076790D01*
X79160584Y-108216926D01*
X79283073Y-108339415D01*
X79353398Y-108390509D01*
X79423212Y-108441232D01*
X79577555Y-108519873D01*
X79742296Y-108573401D01*
X79742299Y-108573402D01*
X79913389Y-108600500D01*
X79913393Y-108600500D01*
X80086607Y-108600500D01*
X80086611Y-108600500D01*
X80257701Y-108573402D01*
X80422445Y-108519873D01*
X80576788Y-108441232D01*
X80716928Y-108339414D01*
X80839414Y-108216928D01*
X80941232Y-108076788D01*
X81019873Y-107922445D01*
X81073402Y-107757701D01*
X81100500Y-107586611D01*
X81100500Y-107413389D01*
X81073402Y-107242299D01*
X81019873Y-107077555D01*
X80941232Y-106923212D01*
X80839414Y-106783072D01*
X80716928Y-106660586D01*
X80716927Y-106660585D01*
X80716926Y-106660584D01*
X80668392Y-106625322D01*
X81439500Y-106625322D01*
X81439500Y-108374677D01*
X81454032Y-108447738D01*
X81464220Y-108462985D01*
X81509399Y-108530601D01*
X81556392Y-108562000D01*
X81592261Y-108585967D01*
X81650473Y-108597545D01*
X81665322Y-108600499D01*
X81665323Y-108600500D01*
X81665326Y-108600500D01*
X83414677Y-108600500D01*
X83414677Y-108600499D01*
X83443980Y-108594670D01*
X83487738Y-108585967D01*
X83487739Y-108585966D01*
X83487740Y-108585966D01*
X83570601Y-108530601D01*
X83625966Y-108447740D01*
X83625966Y-108447739D01*
X83625967Y-108447738D01*
X83640499Y-108374677D01*
X83640500Y-108374677D01*
X83640500Y-107627522D01*
X97399500Y-107627522D01*
X97399500Y-107772477D01*
X97437014Y-107912480D01*
X97437015Y-107912482D01*
X97437016Y-107912485D01*
X97509491Y-108038015D01*
X97611985Y-108140509D01*
X97737515Y-108212984D01*
X97737519Y-108212985D01*
X97877523Y-108250500D01*
X97877525Y-108250500D01*
X98022476Y-108250500D01*
X98084206Y-108233958D01*
X98162485Y-108212984D01*
X98288015Y-108140509D01*
X98390509Y-108038015D01*
X98462984Y-107912485D01*
X98490581Y-107809494D01*
X98500500Y-107772477D01*
X98500500Y-107627522D01*
X98462985Y-107487519D01*
X98462984Y-107487515D01*
X98390509Y-107361985D01*
X98288015Y-107259491D01*
X98162485Y-107187016D01*
X98162482Y-107187015D01*
X98162480Y-107187014D01*
X98022477Y-107149500D01*
X98022475Y-107149500D01*
X97877525Y-107149500D01*
X97877523Y-107149500D01*
X97737519Y-107187014D01*
X97737515Y-107187016D01*
X97611986Y-107259490D01*
X97611981Y-107259494D01*
X97509494Y-107361981D01*
X97509490Y-107361986D01*
X97437016Y-107487515D01*
X97437014Y-107487519D01*
X97399500Y-107627522D01*
X83640500Y-107627522D01*
X83640500Y-106625323D01*
X83640499Y-106625322D01*
X83625967Y-106552261D01*
X83608086Y-106525500D01*
X83570601Y-106469399D01*
X83529028Y-106441621D01*
X83487738Y-106414032D01*
X83414677Y-106399500D01*
X83414674Y-106399500D01*
X81665326Y-106399500D01*
X81665323Y-106399500D01*
X81592261Y-106414032D01*
X81509399Y-106469399D01*
X81454032Y-106552261D01*
X81439500Y-106625322D01*
X80668392Y-106625322D01*
X80576790Y-106558769D01*
X80422446Y-106480127D01*
X80257702Y-106426598D01*
X80257704Y-106426598D01*
X80086614Y-106399500D01*
X80086611Y-106399500D01*
X79913389Y-106399500D01*
X79913385Y-106399500D01*
X79742296Y-106426598D01*
X79577553Y-106480127D01*
X79423209Y-106558769D01*
X79283073Y-106660584D01*
X79283073Y-106660585D01*
X79283072Y-106660586D01*
X79160586Y-106783072D01*
X79160585Y-106783073D01*
X79160584Y-106783073D01*
X79058769Y-106923209D01*
X78980127Y-107077553D01*
X78926598Y-107242296D01*
X78899500Y-107413385D01*
X78560499Y-107413385D01*
X78533402Y-107242299D01*
X78479873Y-107077555D01*
X78401232Y-106923212D01*
X78299414Y-106783072D01*
X78176928Y-106660586D01*
X78176927Y-106660585D01*
X78176926Y-106660584D01*
X78036790Y-106558769D01*
X77882446Y-106480127D01*
X77717702Y-106426598D01*
X77717704Y-106426598D01*
X77546614Y-106399500D01*
X77546611Y-106399500D01*
X77373389Y-106399500D01*
X77373385Y-106399500D01*
X77202296Y-106426598D01*
X77037553Y-106480127D01*
X76883209Y-106558769D01*
X76743073Y-106660584D01*
X76743073Y-106660585D01*
X76743072Y-106660586D01*
X76620586Y-106783072D01*
X76620585Y-106783073D01*
X76620584Y-106783073D01*
X76518769Y-106923209D01*
X76440127Y-107077553D01*
X76386598Y-107242296D01*
X76359500Y-107413385D01*
X76020499Y-107413385D01*
X75993402Y-107242299D01*
X75939873Y-107077555D01*
X75861232Y-106923212D01*
X75759414Y-106783072D01*
X75636928Y-106660586D01*
X75636927Y-106660585D01*
X75636926Y-106660584D01*
X75496790Y-106558769D01*
X75342446Y-106480127D01*
X75177702Y-106426598D01*
X75177704Y-106426598D01*
X75006614Y-106399500D01*
X75006611Y-106399500D01*
X74833389Y-106399500D01*
X74833385Y-106399500D01*
X74662296Y-106426598D01*
X74497553Y-106480127D01*
X74343209Y-106558769D01*
X74203073Y-106660584D01*
X74203073Y-106660585D01*
X74203072Y-106660586D01*
X74080586Y-106783072D01*
X74080585Y-106783073D01*
X74080584Y-106783073D01*
X73978769Y-106923209D01*
X73900127Y-107077553D01*
X73846598Y-107242296D01*
X73819500Y-107413385D01*
X73480499Y-107413385D01*
X73453402Y-107242299D01*
X73399873Y-107077555D01*
X73321232Y-106923212D01*
X73219414Y-106783072D01*
X73096928Y-106660586D01*
X73096927Y-106660585D01*
X73096926Y-106660584D01*
X72956790Y-106558769D01*
X72802446Y-106480127D01*
X72637702Y-106426598D01*
X72637704Y-106426598D01*
X72466614Y-106399500D01*
X72466611Y-106399500D01*
X72293389Y-106399500D01*
X72293385Y-106399500D01*
X72122296Y-106426598D01*
X71957553Y-106480127D01*
X71803209Y-106558769D01*
X71663073Y-106660584D01*
X71663073Y-106660585D01*
X71663072Y-106660586D01*
X71540586Y-106783072D01*
X71540585Y-106783073D01*
X71540584Y-106783073D01*
X71438769Y-106923209D01*
X71360127Y-107077553D01*
X71306598Y-107242296D01*
X71279500Y-107413385D01*
X70940499Y-107413385D01*
X70913402Y-107242299D01*
X70859873Y-107077555D01*
X70781232Y-106923212D01*
X70679414Y-106783072D01*
X70556928Y-106660586D01*
X70556927Y-106660585D01*
X70556926Y-106660584D01*
X70416790Y-106558769D01*
X70262446Y-106480127D01*
X70097702Y-106426598D01*
X70097704Y-106426598D01*
X69926614Y-106399500D01*
X69926611Y-106399500D01*
X69753389Y-106399500D01*
X69753385Y-106399500D01*
X69582296Y-106426598D01*
X69417553Y-106480127D01*
X69263209Y-106558769D01*
X69123073Y-106660584D01*
X69123073Y-106660585D01*
X69123072Y-106660586D01*
X69000586Y-106783072D01*
X69000585Y-106783073D01*
X69000584Y-106783073D01*
X68898769Y-106923209D01*
X68820127Y-107077553D01*
X68766598Y-107242296D01*
X68739500Y-107413385D01*
X68000500Y-107413385D01*
X68000500Y-105677522D01*
X86399500Y-105677522D01*
X86399500Y-105822477D01*
X86437014Y-105962480D01*
X86437015Y-105962482D01*
X86437016Y-105962485D01*
X86509491Y-106088015D01*
X86611985Y-106190509D01*
X86737515Y-106262984D01*
X86737519Y-106262985D01*
X86877523Y-106300500D01*
X86877525Y-106300500D01*
X87022476Y-106300500D01*
X87098806Y-106280047D01*
X87162485Y-106262984D01*
X87288015Y-106190509D01*
X87390509Y-106088015D01*
X87462984Y-105962485D01*
X87479050Y-105902525D01*
X87599622Y-105902525D01*
X87599622Y-105926035D01*
X87599622Y-106047477D01*
X87637136Y-106187480D01*
X87637137Y-106187482D01*
X87637138Y-106187485D01*
X87709613Y-106313015D01*
X87812107Y-106415509D01*
X87937637Y-106487984D01*
X87947060Y-106490509D01*
X88077645Y-106525500D01*
X88077647Y-106525500D01*
X88222598Y-106525500D01*
X88284328Y-106508958D01*
X88362607Y-106487984D01*
X88488137Y-106415509D01*
X88590631Y-106313015D01*
X88639817Y-106227821D01*
X88677160Y-106199169D01*
X88723827Y-106205312D01*
X88736564Y-106215086D01*
X88761985Y-106240507D01*
X88887515Y-106312982D01*
X88902313Y-106316947D01*
X89027519Y-106350497D01*
X89027523Y-106350497D01*
X89027525Y-106350498D01*
X89027527Y-106350498D01*
X89030964Y-106350950D01*
X89071732Y-106374479D01*
X89083921Y-106419943D01*
X89063511Y-106455319D01*
X89064833Y-106456641D01*
X88959492Y-106561981D01*
X88959488Y-106561986D01*
X88887014Y-106687515D01*
X88887012Y-106687519D01*
X88849498Y-106827522D01*
X88849498Y-106972477D01*
X88887012Y-107112480D01*
X88887013Y-107112482D01*
X88887014Y-107112485D01*
X88959489Y-107238015D01*
X89061983Y-107340509D01*
X89187513Y-107412984D01*
X89204060Y-107417417D01*
X89327521Y-107450500D01*
X89327523Y-107450500D01*
X89472474Y-107450500D01*
X89534204Y-107433958D01*
X89612483Y-107412984D01*
X89738013Y-107340509D01*
X89840507Y-107238015D01*
X89912982Y-107112485D01*
X89939644Y-107012984D01*
X89950498Y-106972477D01*
X89950498Y-106827522D01*
X89912983Y-106687519D01*
X89912982Y-106687515D01*
X89840507Y-106561985D01*
X89738013Y-106459491D01*
X89612483Y-106387016D01*
X89612480Y-106387015D01*
X89612478Y-106387014D01*
X89472474Y-106349499D01*
X89469026Y-106349046D01*
X89428261Y-106325513D01*
X89416077Y-106280047D01*
X89436491Y-106244683D01*
X89435165Y-106243357D01*
X89479353Y-106199169D01*
X89540509Y-106138013D01*
X89612984Y-106012483D01*
X89641668Y-105905435D01*
X89650500Y-105872475D01*
X89650500Y-105727520D01*
X89612985Y-105587517D01*
X89612984Y-105587513D01*
X89540509Y-105461983D01*
X89438015Y-105359489D01*
X89312485Y-105287014D01*
X89312482Y-105287013D01*
X89312480Y-105287012D01*
X89172477Y-105249498D01*
X89172475Y-105249498D01*
X89027525Y-105249498D01*
X89027523Y-105249498D01*
X88887519Y-105287012D01*
X88887515Y-105287014D01*
X88761986Y-105359488D01*
X88761981Y-105359492D01*
X88659494Y-105461979D01*
X88659488Y-105461987D01*
X88610304Y-105547175D01*
X88572961Y-105575829D01*
X88526293Y-105569684D01*
X88513557Y-105559911D01*
X88488140Y-105534494D01*
X88488137Y-105534491D01*
X88362607Y-105462016D01*
X88362604Y-105462015D01*
X88362602Y-105462014D01*
X88222599Y-105424500D01*
X88222597Y-105424500D01*
X88077647Y-105424500D01*
X88077645Y-105424500D01*
X87937641Y-105462014D01*
X87937637Y-105462016D01*
X87812108Y-105534490D01*
X87812103Y-105534494D01*
X87709616Y-105636981D01*
X87709612Y-105636986D01*
X87637138Y-105762515D01*
X87637136Y-105762519D01*
X87621851Y-105819563D01*
X87621847Y-105819577D01*
X87599622Y-105902525D01*
X87479050Y-105902525D01*
X87500500Y-105822475D01*
X87500500Y-105677525D01*
X87500500Y-105677522D01*
X87462985Y-105537519D01*
X87462984Y-105537515D01*
X87390509Y-105411985D01*
X87288015Y-105309491D01*
X87162485Y-105237016D01*
X87162482Y-105237015D01*
X87162480Y-105237014D01*
X87022477Y-105199500D01*
X87022475Y-105199500D01*
X86877525Y-105199500D01*
X86877523Y-105199500D01*
X86737519Y-105237014D01*
X86737515Y-105237016D01*
X86611986Y-105309490D01*
X86611981Y-105309494D01*
X86509494Y-105411981D01*
X86509490Y-105411986D01*
X86437016Y-105537515D01*
X86437014Y-105537519D01*
X86399500Y-105677522D01*
X68000500Y-105677522D01*
X68000500Y-104794009D01*
X68018513Y-104750522D01*
X68062000Y-104732509D01*
X68105487Y-104750522D01*
X68118818Y-104770474D01*
X68128567Y-104794009D01*
X68144225Y-104831811D01*
X68144226Y-104831813D01*
X68144230Y-104831820D01*
X68220880Y-104946535D01*
X68220885Y-104946541D01*
X68318458Y-105044114D01*
X68318464Y-105044119D01*
X68433179Y-105120769D01*
X68433183Y-105120771D01*
X68433189Y-105120775D01*
X68492580Y-105145375D01*
X68560661Y-105173576D01*
X68560665Y-105173577D01*
X68560672Y-105173580D01*
X68696003Y-105200499D01*
X68696004Y-105200500D01*
X68696007Y-105200500D01*
X69633996Y-105200500D01*
X69633996Y-105200499D01*
X69769328Y-105173580D01*
X69896811Y-105120775D01*
X69984048Y-105062485D01*
X70011535Y-105044119D01*
X70011536Y-105044117D01*
X70011542Y-105044114D01*
X70109114Y-104946542D01*
X70109627Y-104945775D01*
X70185769Y-104831820D01*
X70185769Y-104831819D01*
X70185775Y-104831811D01*
X70238580Y-104704328D01*
X70265499Y-104568996D01*
X70265500Y-104568996D01*
X70265500Y-104431004D01*
X70265499Y-104431003D01*
X71094500Y-104431003D01*
X71094500Y-104568996D01*
X71121418Y-104704321D01*
X71121423Y-104704338D01*
X71158567Y-104794009D01*
X71174225Y-104831811D01*
X71174226Y-104831813D01*
X71174230Y-104831820D01*
X71250880Y-104946535D01*
X71250885Y-104946541D01*
X71348458Y-105044114D01*
X71348464Y-105044119D01*
X71463179Y-105120769D01*
X71463183Y-105120771D01*
X71463189Y-105120775D01*
X71522580Y-105145375D01*
X71590661Y-105173576D01*
X71590665Y-105173577D01*
X71590672Y-105173580D01*
X71726003Y-105200499D01*
X71726004Y-105200500D01*
X71726007Y-105200500D01*
X73363996Y-105200500D01*
X73363996Y-105200499D01*
X73499328Y-105173580D01*
X73626811Y-105120775D01*
X73714048Y-105062485D01*
X73741535Y-105044119D01*
X73741536Y-105044117D01*
X73741542Y-105044114D01*
X73758134Y-105027522D01*
X77949500Y-105027522D01*
X77949500Y-105172477D01*
X77987014Y-105312480D01*
X77987015Y-105312482D01*
X77987016Y-105312485D01*
X78059491Y-105438015D01*
X78161985Y-105540509D01*
X78287515Y-105612984D01*
X78287519Y-105612985D01*
X78427523Y-105650500D01*
X78427525Y-105650500D01*
X78572476Y-105650500D01*
X78708358Y-105614090D01*
X78709682Y-105613734D01*
X78712485Y-105612984D01*
X78838015Y-105540509D01*
X78940509Y-105438015D01*
X78982350Y-105365544D01*
X79019691Y-105336891D01*
X79066358Y-105343034D01*
X79187515Y-105412984D01*
X79187519Y-105412985D01*
X79327523Y-105450500D01*
X79327525Y-105450500D01*
X79472476Y-105450500D01*
X79569507Y-105424500D01*
X79612485Y-105412984D01*
X79738015Y-105340509D01*
X79840509Y-105238015D01*
X79912984Y-105112485D01*
X79948482Y-104980007D01*
X79950500Y-104972477D01*
X79950500Y-104827522D01*
X79940288Y-104789412D01*
X79937102Y-104777522D01*
X92949500Y-104777522D01*
X92949500Y-104922477D01*
X92987014Y-105062480D01*
X92987015Y-105062482D01*
X92987016Y-105062485D01*
X93059491Y-105188015D01*
X93161985Y-105290509D01*
X93287515Y-105362984D01*
X93304062Y-105367417D01*
X93427523Y-105400500D01*
X93427525Y-105400500D01*
X93572476Y-105400500D01*
X93634206Y-105383958D01*
X93712485Y-105362984D01*
X93838015Y-105290509D01*
X93940509Y-105188015D01*
X94012984Y-105062485D01*
X94027540Y-105008158D01*
X94050500Y-104922477D01*
X94050500Y-104777522D01*
X94012985Y-104637519D01*
X94012984Y-104637515D01*
X93940509Y-104511985D01*
X93838015Y-104409491D01*
X93712485Y-104337016D01*
X93712482Y-104337015D01*
X93712480Y-104337014D01*
X93572477Y-104299500D01*
X93572475Y-104299500D01*
X93427525Y-104299500D01*
X93427523Y-104299500D01*
X93287519Y-104337014D01*
X93287515Y-104337016D01*
X93161986Y-104409490D01*
X93161981Y-104409494D01*
X93059494Y-104511981D01*
X93059490Y-104511986D01*
X92987016Y-104637515D01*
X92987014Y-104637519D01*
X92949500Y-104777522D01*
X79937102Y-104777522D01*
X79912985Y-104687519D01*
X79912984Y-104687515D01*
X79840509Y-104561985D01*
X79738015Y-104459491D01*
X79612485Y-104387016D01*
X79612482Y-104387015D01*
X79612480Y-104387014D01*
X79472477Y-104349500D01*
X79472475Y-104349500D01*
X79327525Y-104349500D01*
X79327523Y-104349500D01*
X79187519Y-104387014D01*
X79187515Y-104387016D01*
X79061986Y-104459490D01*
X79061981Y-104459494D01*
X78959494Y-104561981D01*
X78959486Y-104561991D01*
X78917650Y-104634454D01*
X78880307Y-104663109D01*
X78833640Y-104656965D01*
X78799958Y-104637519D01*
X78712485Y-104587016D01*
X78712482Y-104587015D01*
X78712480Y-104587014D01*
X78572477Y-104549500D01*
X78572475Y-104549500D01*
X78427525Y-104549500D01*
X78427523Y-104549500D01*
X78287519Y-104587014D01*
X78287515Y-104587016D01*
X78161986Y-104659490D01*
X78161981Y-104659494D01*
X78059494Y-104761981D01*
X78059490Y-104761986D01*
X77987016Y-104887515D01*
X77987014Y-104887519D01*
X77949500Y-105027522D01*
X73758134Y-105027522D01*
X73839114Y-104946542D01*
X73839627Y-104945775D01*
X73915769Y-104831820D01*
X73915769Y-104831819D01*
X73915775Y-104831811D01*
X73968580Y-104704328D01*
X73995499Y-104568996D01*
X73995500Y-104568996D01*
X73995500Y-104431004D01*
X73995499Y-104431003D01*
X73986749Y-104387016D01*
X73968580Y-104295672D01*
X73968577Y-104295665D01*
X73968576Y-104295661D01*
X73934123Y-104212485D01*
X73915775Y-104168189D01*
X73915771Y-104168183D01*
X73915769Y-104168179D01*
X73839119Y-104053464D01*
X73839114Y-104053458D01*
X73741541Y-103955885D01*
X73741535Y-103955880D01*
X73626820Y-103879230D01*
X73626811Y-103879225D01*
X73596552Y-103866691D01*
X73563270Y-103833406D01*
X73563271Y-103786336D01*
X73596556Y-103753054D01*
X73604155Y-103750473D01*
X73756784Y-103709577D01*
X73893716Y-103630520D01*
X74005520Y-103518716D01*
X74084577Y-103381784D01*
X74090550Y-103359494D01*
X74099117Y-103327522D01*
X75249500Y-103327522D01*
X75249500Y-103472477D01*
X75287014Y-103612480D01*
X75287015Y-103612482D01*
X75287016Y-103612485D01*
X75359491Y-103738015D01*
X75461985Y-103840509D01*
X75587515Y-103912984D01*
X75587519Y-103912985D01*
X75727523Y-103950500D01*
X75727525Y-103950500D01*
X75872476Y-103950500D01*
X75934206Y-103933958D01*
X76012485Y-103912984D01*
X76138015Y-103840509D01*
X76240509Y-103738015D01*
X76312984Y-103612485D01*
X76346604Y-103487016D01*
X76350500Y-103472477D01*
X76350500Y-103427522D01*
X77249500Y-103427522D01*
X77249500Y-103572477D01*
X77287014Y-103712480D01*
X77287015Y-103712482D01*
X77287016Y-103712485D01*
X77359491Y-103838015D01*
X77461985Y-103940509D01*
X77587515Y-104012984D01*
X77587519Y-104012985D01*
X77727523Y-104050500D01*
X77727525Y-104050500D01*
X77872476Y-104050500D01*
X77934206Y-104033958D01*
X78012485Y-104012984D01*
X78138015Y-103940509D01*
X78240509Y-103838015D01*
X78312984Y-103712485D01*
X78327540Y-103658158D01*
X78350500Y-103572477D01*
X78350500Y-103427522D01*
X78312985Y-103287519D01*
X78312984Y-103287515D01*
X78240509Y-103161985D01*
X78138015Y-103059491D01*
X78012485Y-102987016D01*
X78012482Y-102987015D01*
X78012480Y-102987014D01*
X77872477Y-102949500D01*
X77872475Y-102949500D01*
X77727525Y-102949500D01*
X77727523Y-102949500D01*
X77587519Y-102987014D01*
X77587515Y-102987016D01*
X77461986Y-103059490D01*
X77461981Y-103059494D01*
X77359494Y-103161981D01*
X77359490Y-103161986D01*
X77287016Y-103287515D01*
X77287014Y-103287519D01*
X77249500Y-103427522D01*
X76350500Y-103427522D01*
X76350500Y-103327522D01*
X76312985Y-103187519D01*
X76312984Y-103187515D01*
X76240509Y-103061985D01*
X76138015Y-102959491D01*
X76012485Y-102887016D01*
X76012482Y-102887015D01*
X76012480Y-102887014D01*
X75977056Y-102877522D01*
X79599500Y-102877522D01*
X79599500Y-103022477D01*
X79637014Y-103162480D01*
X79637015Y-103162482D01*
X79637016Y-103162485D01*
X79709491Y-103288015D01*
X79811985Y-103390509D01*
X79937515Y-103462984D01*
X79937519Y-103462985D01*
X80077523Y-103500500D01*
X80077525Y-103500500D01*
X80222476Y-103500500D01*
X80284206Y-103483958D01*
X80362485Y-103462984D01*
X80488015Y-103390509D01*
X80590509Y-103288015D01*
X80662984Y-103162485D01*
X80689913Y-103061985D01*
X80700500Y-103022477D01*
X80700500Y-102877522D01*
X80662985Y-102737519D01*
X80662984Y-102737515D01*
X80590509Y-102611985D01*
X80488015Y-102509491D01*
X80362485Y-102437016D01*
X80362482Y-102437015D01*
X80362480Y-102437014D01*
X80222477Y-102399500D01*
X80222475Y-102399500D01*
X80077525Y-102399500D01*
X80077523Y-102399500D01*
X79937519Y-102437014D01*
X79937515Y-102437016D01*
X79811986Y-102509490D01*
X79811981Y-102509494D01*
X79709494Y-102611981D01*
X79709490Y-102611986D01*
X79637016Y-102737515D01*
X79637014Y-102737519D01*
X79599500Y-102877522D01*
X75977056Y-102877522D01*
X75872477Y-102849500D01*
X75872475Y-102849500D01*
X75727525Y-102849500D01*
X75727523Y-102849500D01*
X75587519Y-102887014D01*
X75587515Y-102887016D01*
X75461986Y-102959490D01*
X75461981Y-102959494D01*
X75359494Y-103061981D01*
X75359490Y-103061986D01*
X75287016Y-103187515D01*
X75287014Y-103187519D01*
X75249500Y-103327522D01*
X74099117Y-103327522D01*
X74104461Y-103307577D01*
X74104461Y-103307576D01*
X74125500Y-103229059D01*
X74125500Y-103070940D01*
X74084578Y-102918220D01*
X74084577Y-102918216D01*
X74005520Y-102781284D01*
X73893716Y-102669480D01*
X73756784Y-102590423D01*
X73756781Y-102590422D01*
X73756779Y-102590421D01*
X73604059Y-102549500D01*
X73604057Y-102549500D01*
X73445943Y-102549500D01*
X73445941Y-102549500D01*
X73293220Y-102590421D01*
X73293216Y-102590423D01*
X73156285Y-102669479D01*
X73156280Y-102669483D01*
X73044483Y-102781280D01*
X73044479Y-102781285D01*
X72965423Y-102918216D01*
X72965421Y-102918220D01*
X72924500Y-103070940D01*
X72924500Y-103229059D01*
X72965421Y-103381779D01*
X72965422Y-103381781D01*
X72965423Y-103381784D01*
X73044480Y-103518716D01*
X73156284Y-103630520D01*
X73250196Y-103684740D01*
X73278850Y-103722082D01*
X73272707Y-103768750D01*
X73235364Y-103797404D01*
X73219446Y-103799500D01*
X72480554Y-103799500D01*
X72437067Y-103781487D01*
X72419054Y-103738000D01*
X72437067Y-103694513D01*
X72449800Y-103684741D01*
X72543716Y-103630520D01*
X72655520Y-103518716D01*
X72734577Y-103381784D01*
X72754461Y-103307576D01*
X72775500Y-103229059D01*
X72775500Y-103070940D01*
X72734578Y-102918220D01*
X72734577Y-102918216D01*
X72655520Y-102781284D01*
X72543716Y-102669480D01*
X72406784Y-102590423D01*
X72406781Y-102590422D01*
X72406779Y-102590421D01*
X72254059Y-102549500D01*
X72254057Y-102549500D01*
X72095943Y-102549500D01*
X72095941Y-102549500D01*
X71943220Y-102590421D01*
X71943216Y-102590423D01*
X71806285Y-102669479D01*
X71806280Y-102669483D01*
X71694483Y-102781280D01*
X71694479Y-102781285D01*
X71615423Y-102918216D01*
X71615421Y-102918220D01*
X71574500Y-103070940D01*
X71574500Y-103229059D01*
X71615421Y-103381779D01*
X71615422Y-103381781D01*
X71615423Y-103381784D01*
X71694480Y-103518716D01*
X71806284Y-103630520D01*
X71900196Y-103684740D01*
X71928850Y-103722082D01*
X71922707Y-103768750D01*
X71885364Y-103797404D01*
X71869446Y-103799500D01*
X71726004Y-103799500D01*
X71590678Y-103826418D01*
X71590661Y-103826423D01*
X71463195Y-103879222D01*
X71463179Y-103879230D01*
X71348464Y-103955880D01*
X71348458Y-103955885D01*
X71250885Y-104053458D01*
X71250880Y-104053464D01*
X71174230Y-104168179D01*
X71174222Y-104168195D01*
X71121423Y-104295661D01*
X71121418Y-104295678D01*
X71094500Y-104431003D01*
X70265499Y-104431003D01*
X70256749Y-104387016D01*
X70238580Y-104295672D01*
X70238577Y-104295665D01*
X70238576Y-104295661D01*
X70204123Y-104212485D01*
X70185775Y-104168189D01*
X70185771Y-104168183D01*
X70185769Y-104168179D01*
X70109119Y-104053464D01*
X70109114Y-104053458D01*
X70011541Y-103955885D01*
X70011535Y-103955880D01*
X69896820Y-103879230D01*
X69896813Y-103879226D01*
X69896811Y-103879225D01*
X69896804Y-103879222D01*
X69769338Y-103826423D01*
X69769321Y-103826418D01*
X69633996Y-103799500D01*
X69633993Y-103799500D01*
X68696007Y-103799500D01*
X68696004Y-103799500D01*
X68560678Y-103826418D01*
X68560661Y-103826423D01*
X68433195Y-103879222D01*
X68433179Y-103879230D01*
X68318464Y-103955880D01*
X68318458Y-103955885D01*
X68220885Y-104053458D01*
X68220880Y-104053464D01*
X68144230Y-104168179D01*
X68144224Y-104168191D01*
X68118818Y-104229526D01*
X68085534Y-104262809D01*
X68038464Y-104262808D01*
X68005181Y-104229524D01*
X68000500Y-104205990D01*
X68000500Y-100618982D01*
X68018513Y-100575495D01*
X68062000Y-100557482D01*
X68085538Y-100562165D01*
X68087515Y-100562984D01*
X68227523Y-100600500D01*
X68227525Y-100600500D01*
X68372476Y-100600500D01*
X68434206Y-100583958D01*
X68512485Y-100562984D01*
X68638015Y-100490509D01*
X68740509Y-100388015D01*
X68812984Y-100262485D01*
X68839320Y-100164200D01*
X68850500Y-100122477D01*
X68850500Y-99977522D01*
X68812985Y-99837519D01*
X68812984Y-99837515D01*
X68740509Y-99711985D01*
X68638015Y-99609491D01*
X68512485Y-99537016D01*
X68512482Y-99537015D01*
X68512480Y-99537014D01*
X68372477Y-99499500D01*
X68372475Y-99499500D01*
X68227525Y-99499500D01*
X68227523Y-99499500D01*
X68087513Y-99537016D01*
X68085529Y-99537838D01*
X68084447Y-99537837D01*
X68083622Y-99538059D01*
X68083562Y-99537837D01*
X68038459Y-99537833D01*
X68005179Y-99504546D01*
X68000500Y-99481017D01*
X68000500Y-98820940D01*
X71574500Y-98820940D01*
X71574500Y-98979059D01*
X71615421Y-99131779D01*
X71615422Y-99131781D01*
X71615423Y-99131784D01*
X71694480Y-99268716D01*
X71694483Y-99268719D01*
X71707277Y-99281513D01*
X71725290Y-99325000D01*
X71707277Y-99368487D01*
X71694483Y-99381280D01*
X71694479Y-99381285D01*
X71615423Y-99518216D01*
X71615421Y-99518220D01*
X71574500Y-99670940D01*
X71574500Y-99829059D01*
X71615421Y-99981779D01*
X71615422Y-99981781D01*
X71615423Y-99981784D01*
X71694480Y-100118716D01*
X71694483Y-100118719D01*
X71707277Y-100131513D01*
X71725290Y-100175000D01*
X71707277Y-100218487D01*
X71694483Y-100231280D01*
X71694479Y-100231285D01*
X71615423Y-100368216D01*
X71615421Y-100368220D01*
X71574500Y-100520940D01*
X71574500Y-100679059D01*
X71615421Y-100831779D01*
X71615422Y-100831781D01*
X71615423Y-100831784D01*
X71694480Y-100968716D01*
X71694483Y-100968719D01*
X71707277Y-100981513D01*
X71725290Y-101025000D01*
X71707277Y-101068487D01*
X71694483Y-101081280D01*
X71694479Y-101081285D01*
X71615423Y-101218216D01*
X71615421Y-101218220D01*
X71574500Y-101370940D01*
X71574500Y-101529059D01*
X71615421Y-101681779D01*
X71615422Y-101681781D01*
X71615423Y-101681784D01*
X71694480Y-101818716D01*
X71806284Y-101930520D01*
X71943216Y-102009577D01*
X71943220Y-102009578D01*
X72095941Y-102050500D01*
X72095943Y-102050500D01*
X72254058Y-102050500D01*
X72321397Y-102032456D01*
X72406784Y-102009577D01*
X72543716Y-101930520D01*
X72655520Y-101818716D01*
X72734577Y-101681784D01*
X72750455Y-101622524D01*
X72775500Y-101529059D01*
X72775500Y-101370940D01*
X72734578Y-101218220D01*
X72734577Y-101218216D01*
X72655520Y-101081284D01*
X72642723Y-101068487D01*
X72624710Y-101025000D01*
X72642723Y-100981513D01*
X72655520Y-100968716D01*
X72734577Y-100831784D01*
X72763866Y-100722475D01*
X72775500Y-100679059D01*
X72775500Y-100520940D01*
X72734578Y-100368220D01*
X72734577Y-100368216D01*
X72655520Y-100231284D01*
X72642723Y-100218487D01*
X72624710Y-100175000D01*
X72642723Y-100131513D01*
X72655520Y-100118716D01*
X72734577Y-99981784D01*
X72762514Y-99877522D01*
X72775500Y-99829059D01*
X72775500Y-99670940D01*
X72734578Y-99518220D01*
X72734577Y-99518216D01*
X72655520Y-99381284D01*
X72642723Y-99368487D01*
X72624710Y-99325000D01*
X72642723Y-99281513D01*
X72655520Y-99268716D01*
X72734577Y-99131784D01*
X72750455Y-99072524D01*
X72775500Y-98979059D01*
X72775500Y-98820940D01*
X72924500Y-98820940D01*
X72924500Y-98979059D01*
X72965421Y-99131779D01*
X72965422Y-99131781D01*
X72965423Y-99131784D01*
X73044480Y-99268716D01*
X73044483Y-99268719D01*
X73057277Y-99281513D01*
X73075290Y-99325000D01*
X73057277Y-99368487D01*
X73044483Y-99381280D01*
X73044479Y-99381285D01*
X72965423Y-99518216D01*
X72965421Y-99518220D01*
X72924500Y-99670940D01*
X72924500Y-99829059D01*
X72965421Y-99981779D01*
X72965422Y-99981781D01*
X72965423Y-99981784D01*
X73044480Y-100118716D01*
X73044483Y-100118719D01*
X73057277Y-100131513D01*
X73075290Y-100175000D01*
X73057277Y-100218487D01*
X73044483Y-100231280D01*
X73044479Y-100231285D01*
X72965423Y-100368216D01*
X72965421Y-100368220D01*
X72924500Y-100520940D01*
X72924500Y-100679059D01*
X72965421Y-100831779D01*
X72965422Y-100831781D01*
X72965423Y-100831784D01*
X73044480Y-100968716D01*
X73044483Y-100968719D01*
X73057277Y-100981513D01*
X73075290Y-101025000D01*
X73057277Y-101068487D01*
X73044483Y-101081280D01*
X73044479Y-101081285D01*
X72965423Y-101218216D01*
X72965421Y-101218220D01*
X72924500Y-101370940D01*
X72924500Y-101529059D01*
X72965421Y-101681779D01*
X72965422Y-101681781D01*
X72965423Y-101681784D01*
X73044480Y-101818716D01*
X73156284Y-101930520D01*
X73293216Y-102009577D01*
X73293220Y-102009578D01*
X73445941Y-102050500D01*
X73445943Y-102050500D01*
X73604058Y-102050500D01*
X73671397Y-102032456D01*
X73756784Y-102009577D01*
X73893716Y-101930520D01*
X74005520Y-101818716D01*
X74084577Y-101681784D01*
X74100455Y-101622524D01*
X74125500Y-101529059D01*
X74125500Y-101370940D01*
X74084578Y-101218220D01*
X74084577Y-101218216D01*
X74005520Y-101081284D01*
X73992723Y-101068487D01*
X73974710Y-101025000D01*
X73992723Y-100981513D01*
X74005520Y-100968716D01*
X74084577Y-100831784D01*
X74113866Y-100722475D01*
X74125500Y-100679059D01*
X74125500Y-100520940D01*
X74084578Y-100368220D01*
X74084577Y-100368216D01*
X74005520Y-100231284D01*
X73992723Y-100218487D01*
X73974710Y-100175000D01*
X73992723Y-100131513D01*
X74005520Y-100118716D01*
X74084577Y-99981784D01*
X74099157Y-99927370D01*
X74112514Y-99877522D01*
X79399500Y-99877522D01*
X79399500Y-100022477D01*
X79437014Y-100162480D01*
X79437015Y-100162482D01*
X79437016Y-100162485D01*
X79509491Y-100288015D01*
X79611985Y-100390509D01*
X79737515Y-100462984D01*
X79737519Y-100462985D01*
X79877523Y-100500500D01*
X79877525Y-100500500D01*
X80022476Y-100500500D01*
X80084206Y-100483958D01*
X80162485Y-100462984D01*
X80288015Y-100390509D01*
X80390509Y-100288015D01*
X80462984Y-100162485D01*
X80499768Y-100025207D01*
X80500500Y-100022477D01*
X80500500Y-99877522D01*
X80462985Y-99737519D01*
X80462984Y-99737515D01*
X80390509Y-99611985D01*
X80288015Y-99509491D01*
X80162485Y-99437016D01*
X80162482Y-99437015D01*
X80162480Y-99437014D01*
X80022477Y-99399500D01*
X80022475Y-99399500D01*
X79877525Y-99399500D01*
X79877523Y-99399500D01*
X79737519Y-99437014D01*
X79737515Y-99437016D01*
X79611986Y-99509490D01*
X79611981Y-99509494D01*
X79509494Y-99611981D01*
X79509490Y-99611986D01*
X79437016Y-99737515D01*
X79437014Y-99737519D01*
X79399500Y-99877522D01*
X74112514Y-99877522D01*
X74117859Y-99857576D01*
X74117859Y-99857575D01*
X74125499Y-99829061D01*
X74125500Y-99829059D01*
X74125500Y-99670940D01*
X74084578Y-99518220D01*
X74084577Y-99518216D01*
X74005520Y-99381284D01*
X73992723Y-99368487D01*
X73974710Y-99325000D01*
X73992723Y-99281513D01*
X74005520Y-99268716D01*
X74084577Y-99131784D01*
X74100455Y-99072524D01*
X74125500Y-98979059D01*
X74125500Y-98820940D01*
X74084578Y-98668220D01*
X74084577Y-98668216D01*
X74005520Y-98531284D01*
X73893716Y-98419480D01*
X73756784Y-98340423D01*
X73756781Y-98340422D01*
X73756779Y-98340421D01*
X73604059Y-98299500D01*
X73604057Y-98299500D01*
X73445943Y-98299500D01*
X73445941Y-98299500D01*
X73293220Y-98340421D01*
X73293216Y-98340423D01*
X73156285Y-98419479D01*
X73156280Y-98419483D01*
X73044483Y-98531280D01*
X73044479Y-98531285D01*
X72965423Y-98668216D01*
X72965421Y-98668220D01*
X72924500Y-98820940D01*
X72775500Y-98820940D01*
X72734578Y-98668220D01*
X72734577Y-98668216D01*
X72655520Y-98531284D01*
X72543716Y-98419480D01*
X72406784Y-98340423D01*
X72406781Y-98340422D01*
X72406779Y-98340421D01*
X72254059Y-98299500D01*
X72254057Y-98299500D01*
X72095943Y-98299500D01*
X72095941Y-98299500D01*
X71943220Y-98340421D01*
X71943216Y-98340423D01*
X71806285Y-98419479D01*
X71806280Y-98419483D01*
X71694483Y-98531280D01*
X71694479Y-98531285D01*
X71615423Y-98668216D01*
X71615421Y-98668220D01*
X71574500Y-98820940D01*
X68000500Y-98820940D01*
X68000500Y-96144009D01*
X68018513Y-96100522D01*
X68062000Y-96082509D01*
X68105487Y-96100522D01*
X68118818Y-96120474D01*
X68139932Y-96171447D01*
X68144225Y-96181811D01*
X68144226Y-96181813D01*
X68144230Y-96181820D01*
X68220880Y-96296535D01*
X68220885Y-96296541D01*
X68318458Y-96394114D01*
X68318464Y-96394119D01*
X68433179Y-96470769D01*
X68433183Y-96470771D01*
X68433189Y-96470775D01*
X68472034Y-96486865D01*
X68560661Y-96523576D01*
X68560665Y-96523577D01*
X68560672Y-96523580D01*
X68696003Y-96550499D01*
X68696004Y-96550500D01*
X68696007Y-96550500D01*
X69633996Y-96550500D01*
X69633996Y-96550499D01*
X69769328Y-96523580D01*
X69896811Y-96470775D01*
X69931040Y-96447904D01*
X70011535Y-96394119D01*
X70011536Y-96394117D01*
X70011542Y-96394114D01*
X70109114Y-96296542D01*
X70109627Y-96295775D01*
X70185769Y-96181820D01*
X70185769Y-96181819D01*
X70185775Y-96181811D01*
X70238580Y-96054328D01*
X70265499Y-95918996D01*
X70265500Y-95918996D01*
X70265500Y-95781004D01*
X70265499Y-95781003D01*
X71094500Y-95781003D01*
X71094500Y-95918996D01*
X71121418Y-96054321D01*
X71121423Y-96054338D01*
X71169932Y-96171447D01*
X71174225Y-96181811D01*
X71174226Y-96181813D01*
X71174230Y-96181820D01*
X71250880Y-96296535D01*
X71250885Y-96296541D01*
X71348458Y-96394114D01*
X71348464Y-96394119D01*
X71463179Y-96470769D01*
X71463183Y-96470771D01*
X71463189Y-96470775D01*
X71502034Y-96486865D01*
X71590661Y-96523576D01*
X71590665Y-96523577D01*
X71590672Y-96523580D01*
X71726003Y-96550499D01*
X71726004Y-96550500D01*
X71869446Y-96550500D01*
X71912933Y-96568513D01*
X71930946Y-96612000D01*
X71912933Y-96655487D01*
X71900199Y-96665258D01*
X71844358Y-96697497D01*
X71806285Y-96719479D01*
X71806280Y-96719483D01*
X71694483Y-96831280D01*
X71694479Y-96831285D01*
X71615423Y-96968216D01*
X71615421Y-96968220D01*
X71574500Y-97120940D01*
X71574500Y-97279059D01*
X71615421Y-97431779D01*
X71615422Y-97431781D01*
X71615423Y-97431784D01*
X71694480Y-97568716D01*
X71806284Y-97680520D01*
X71943216Y-97759577D01*
X71943220Y-97759578D01*
X72095941Y-97800500D01*
X72095943Y-97800500D01*
X72254058Y-97800500D01*
X72358640Y-97772477D01*
X72406784Y-97759577D01*
X72543716Y-97680520D01*
X72655520Y-97568716D01*
X72734577Y-97431784D01*
X72759970Y-97337016D01*
X72775500Y-97279059D01*
X72775500Y-97120940D01*
X72734578Y-96968220D01*
X72734577Y-96968216D01*
X72655520Y-96831284D01*
X72543716Y-96719480D01*
X72449803Y-96665259D01*
X72421150Y-96627918D01*
X72427293Y-96581250D01*
X72464636Y-96552596D01*
X72480554Y-96550500D01*
X73219446Y-96550500D01*
X73262933Y-96568513D01*
X73280946Y-96612000D01*
X73262933Y-96655487D01*
X73250199Y-96665258D01*
X73194358Y-96697497D01*
X73156285Y-96719479D01*
X73156280Y-96719483D01*
X73044483Y-96831280D01*
X73044479Y-96831285D01*
X72965423Y-96968216D01*
X72965421Y-96968220D01*
X72924500Y-97120940D01*
X72924500Y-97279059D01*
X72965421Y-97431779D01*
X72965422Y-97431781D01*
X72965423Y-97431784D01*
X73044480Y-97568716D01*
X73156284Y-97680520D01*
X73293216Y-97759577D01*
X73293220Y-97759578D01*
X73445941Y-97800500D01*
X73445943Y-97800500D01*
X73604058Y-97800500D01*
X73708640Y-97772477D01*
X73756784Y-97759577D01*
X73893716Y-97680520D01*
X73946714Y-97627522D01*
X77799500Y-97627522D01*
X77799500Y-97772477D01*
X77837014Y-97912480D01*
X77837015Y-97912482D01*
X77837016Y-97912485D01*
X77909491Y-98038015D01*
X78011985Y-98140509D01*
X78137515Y-98212984D01*
X78137519Y-98212985D01*
X78277523Y-98250500D01*
X78277525Y-98250500D01*
X78422476Y-98250500D01*
X78518727Y-98224709D01*
X78562485Y-98212984D01*
X78688015Y-98140509D01*
X78790509Y-98038015D01*
X78862984Y-97912485D01*
X78877540Y-97858158D01*
X78899148Y-97777522D01*
X79749500Y-97777522D01*
X79749500Y-97922477D01*
X79787014Y-98062480D01*
X79787015Y-98062482D01*
X79787016Y-98062485D01*
X79859491Y-98188015D01*
X79961985Y-98290509D01*
X80087515Y-98362984D01*
X80087519Y-98362985D01*
X80227523Y-98400500D01*
X80227525Y-98400500D01*
X80372476Y-98400500D01*
X80434206Y-98383958D01*
X80512485Y-98362984D01*
X80638015Y-98290509D01*
X80740509Y-98188015D01*
X80812984Y-98062485D01*
X80849148Y-97927522D01*
X80850500Y-97922477D01*
X80850500Y-97777522D01*
X80812985Y-97637519D01*
X80812984Y-97637515D01*
X80740509Y-97511985D01*
X80638015Y-97409491D01*
X80512485Y-97337016D01*
X80512482Y-97337015D01*
X80512480Y-97337014D01*
X80372477Y-97299500D01*
X80372475Y-97299500D01*
X80227525Y-97299500D01*
X80227523Y-97299500D01*
X80087519Y-97337014D01*
X80087515Y-97337016D01*
X79961986Y-97409490D01*
X79961981Y-97409494D01*
X79859494Y-97511981D01*
X79859490Y-97511986D01*
X79787016Y-97637515D01*
X79787014Y-97637519D01*
X79749500Y-97777522D01*
X78899148Y-97777522D01*
X78900500Y-97772477D01*
X78900500Y-97627522D01*
X78862985Y-97487519D01*
X78862984Y-97487515D01*
X78790509Y-97361985D01*
X78688015Y-97259491D01*
X78562485Y-97187016D01*
X78562482Y-97187015D01*
X78562480Y-97187014D01*
X78422477Y-97149500D01*
X78422475Y-97149500D01*
X78277525Y-97149500D01*
X78277523Y-97149500D01*
X78137519Y-97187014D01*
X78137515Y-97187016D01*
X78011986Y-97259490D01*
X78011981Y-97259494D01*
X77909494Y-97361981D01*
X77909490Y-97361986D01*
X77837016Y-97487515D01*
X77837014Y-97487519D01*
X77799500Y-97627522D01*
X73946714Y-97627522D01*
X74005520Y-97568716D01*
X74084577Y-97431784D01*
X74109970Y-97337016D01*
X74125500Y-97279059D01*
X74125500Y-97120940D01*
X74103654Y-97039412D01*
X74103654Y-97039411D01*
X74100468Y-97027522D01*
X82249500Y-97027522D01*
X82249500Y-97172477D01*
X82287014Y-97312480D01*
X82287015Y-97312482D01*
X82287016Y-97312485D01*
X82359491Y-97438015D01*
X82461985Y-97540509D01*
X82587515Y-97612984D01*
X82587519Y-97612985D01*
X82727523Y-97650500D01*
X82727525Y-97650500D01*
X82872476Y-97650500D01*
X82934206Y-97633958D01*
X83012485Y-97612984D01*
X83138015Y-97540509D01*
X83240509Y-97438015D01*
X83312984Y-97312485D01*
X83342760Y-97201361D01*
X84099055Y-97201361D01*
X84099055Y-97202470D01*
X84099055Y-99927370D01*
X84099787Y-99936141D01*
X84100000Y-99941256D01*
X84100000Y-101348254D01*
X84099374Y-101357008D01*
X84099055Y-101359223D01*
X84099055Y-103325999D01*
X84099648Y-103331515D01*
X84100000Y-103338089D01*
X84100000Y-103750000D01*
X91746002Y-103750000D01*
X91789489Y-103768013D01*
X91861985Y-103840509D01*
X91987515Y-103912984D01*
X91987519Y-103912985D01*
X92127523Y-103950500D01*
X92127525Y-103950500D01*
X92272476Y-103950500D01*
X92334206Y-103933958D01*
X92412485Y-103912984D01*
X92538015Y-103840509D01*
X92640509Y-103738015D01*
X92646567Y-103727522D01*
X95599500Y-103727522D01*
X95599500Y-103872477D01*
X95637014Y-104012480D01*
X95637015Y-104012482D01*
X95637016Y-104012485D01*
X95709491Y-104138015D01*
X95811985Y-104240509D01*
X95937515Y-104312984D01*
X95937519Y-104312985D01*
X96077523Y-104350500D01*
X96077525Y-104350500D01*
X96222476Y-104350500D01*
X96284206Y-104333958D01*
X96362485Y-104312984D01*
X96488015Y-104240509D01*
X96590509Y-104138015D01*
X96662984Y-104012485D01*
X96679593Y-103950500D01*
X96685750Y-103927522D01*
X103249500Y-103927522D01*
X103249500Y-104072477D01*
X103287014Y-104212480D01*
X103287015Y-104212482D01*
X103287016Y-104212485D01*
X103359491Y-104338015D01*
X103461985Y-104440509D01*
X103587515Y-104512984D01*
X103587519Y-104512985D01*
X103727523Y-104550500D01*
X103727525Y-104550500D01*
X103872476Y-104550500D01*
X103951489Y-104529328D01*
X104012485Y-104512984D01*
X104138015Y-104440509D01*
X104240509Y-104338015D01*
X104312984Y-104212485D01*
X104332938Y-104138018D01*
X104350500Y-104072477D01*
X104350500Y-103927522D01*
X104312985Y-103787519D01*
X104312984Y-103787515D01*
X104240509Y-103661985D01*
X104138015Y-103559491D01*
X104012485Y-103487016D01*
X104012482Y-103487015D01*
X104012480Y-103487014D01*
X103872477Y-103449500D01*
X103872475Y-103449500D01*
X103727525Y-103449500D01*
X103727523Y-103449500D01*
X103587519Y-103487014D01*
X103587515Y-103487016D01*
X103461986Y-103559490D01*
X103461981Y-103559494D01*
X103359494Y-103661981D01*
X103359490Y-103661986D01*
X103287016Y-103787515D01*
X103287014Y-103787519D01*
X103249500Y-103927522D01*
X96685750Y-103927522D01*
X96691095Y-103907576D01*
X96700500Y-103872477D01*
X96700500Y-103727522D01*
X96662985Y-103587519D01*
X96662984Y-103587515D01*
X96590509Y-103461985D01*
X96488015Y-103359491D01*
X96362485Y-103287016D01*
X96362482Y-103287015D01*
X96362480Y-103287014D01*
X96222477Y-103249500D01*
X96222475Y-103249500D01*
X96077525Y-103249500D01*
X96077523Y-103249500D01*
X95937519Y-103287014D01*
X95937515Y-103287016D01*
X95811986Y-103359490D01*
X95811981Y-103359494D01*
X95709494Y-103461981D01*
X95709490Y-103461986D01*
X95637016Y-103587515D01*
X95637014Y-103587519D01*
X95599500Y-103727522D01*
X92646567Y-103727522D01*
X92655249Y-103712485D01*
X92666645Y-103692747D01*
X92666646Y-103692744D01*
X92667740Y-103690849D01*
X92712984Y-103612485D01*
X92746604Y-103487016D01*
X92750500Y-103472477D01*
X92750500Y-103327522D01*
X92712985Y-103187519D01*
X92712984Y-103187515D01*
X92640509Y-103061985D01*
X92538015Y-102959491D01*
X92412485Y-102887016D01*
X92412482Y-102887015D01*
X92412480Y-102887014D01*
X92272477Y-102849500D01*
X92272475Y-102849500D01*
X92127525Y-102849500D01*
X92127522Y-102849500D01*
X92027417Y-102876323D01*
X91980750Y-102870180D01*
X91952096Y-102832836D01*
X91950000Y-102816919D01*
X91950000Y-102187726D01*
X91968013Y-102144239D01*
X92011500Y-102126226D01*
X92075092Y-102126226D01*
X92136822Y-102109684D01*
X92215101Y-102088710D01*
X92340631Y-102016235D01*
X92443125Y-101913741D01*
X92515600Y-101788211D01*
X92530156Y-101733884D01*
X92553116Y-101648203D01*
X92553116Y-101503248D01*
X92515601Y-101363245D01*
X92515600Y-101363241D01*
X92443125Y-101237711D01*
X92411056Y-101205642D01*
X92393043Y-101162155D01*
X92411056Y-101118668D01*
X92415509Y-101114215D01*
X92487984Y-100988685D01*
X92525145Y-100850000D01*
X92525500Y-100848677D01*
X92525500Y-100703722D01*
X92494870Y-100589412D01*
X92491684Y-100577522D01*
X102949500Y-100577522D01*
X102949500Y-100722477D01*
X102987014Y-100862480D01*
X102987015Y-100862482D01*
X102987016Y-100862485D01*
X103059491Y-100988015D01*
X103161985Y-101090509D01*
X103287515Y-101162984D01*
X103287519Y-101162985D01*
X103427523Y-101200500D01*
X103427525Y-101200500D01*
X103572476Y-101200500D01*
X103634206Y-101183958D01*
X103712485Y-101162984D01*
X103838015Y-101090509D01*
X103940509Y-100988015D01*
X104012984Y-100862485D01*
X104031411Y-100793716D01*
X104050500Y-100722477D01*
X104050500Y-100577522D01*
X104013164Y-100438186D01*
X104012984Y-100437515D01*
X103940509Y-100311985D01*
X103838015Y-100209491D01*
X103712485Y-100137016D01*
X103712482Y-100137015D01*
X103712480Y-100137014D01*
X103572477Y-100099500D01*
X103572475Y-100099500D01*
X103427525Y-100099500D01*
X103427523Y-100099500D01*
X103287519Y-100137014D01*
X103287515Y-100137016D01*
X103161986Y-100209490D01*
X103161981Y-100209494D01*
X103059494Y-100311981D01*
X103059490Y-100311986D01*
X102987016Y-100437515D01*
X102987014Y-100437519D01*
X102949500Y-100577522D01*
X92491684Y-100577522D01*
X92487985Y-100563719D01*
X92487984Y-100563715D01*
X92415509Y-100438185D01*
X92313015Y-100335691D01*
X92187485Y-100263216D01*
X92187482Y-100263215D01*
X92187480Y-100263214D01*
X92047477Y-100225700D01*
X92047475Y-100225700D01*
X92011500Y-100225700D01*
X91968013Y-100207687D01*
X91950000Y-100164200D01*
X91950000Y-97477522D01*
X92949500Y-97477522D01*
X92949500Y-97622477D01*
X92987014Y-97762480D01*
X92987015Y-97762482D01*
X92987016Y-97762485D01*
X93059491Y-97888015D01*
X93161985Y-97990509D01*
X93287515Y-98062984D01*
X93287519Y-98062985D01*
X93427523Y-98100500D01*
X93427525Y-98100500D01*
X93572476Y-98100500D01*
X93634206Y-98083958D01*
X93712485Y-98062984D01*
X93838015Y-97990509D01*
X93940509Y-97888015D01*
X94012984Y-97762485D01*
X94039914Y-97661981D01*
X94046006Y-97639247D01*
X94987775Y-97639247D01*
X94987775Y-97784202D01*
X95025289Y-97924205D01*
X95025290Y-97924207D01*
X95025291Y-97924210D01*
X95097766Y-98049740D01*
X95200260Y-98152234D01*
X95325790Y-98224709D01*
X95325794Y-98224710D01*
X95465798Y-98262225D01*
X95465800Y-98262225D01*
X95610751Y-98262225D01*
X95679826Y-98243716D01*
X95750760Y-98224709D01*
X95876290Y-98152234D01*
X95978784Y-98049740D01*
X96049347Y-97927522D01*
X100699500Y-97927522D01*
X100699500Y-98072477D01*
X100737014Y-98212480D01*
X100737015Y-98212482D01*
X100737016Y-98212485D01*
X100809491Y-98338015D01*
X100911985Y-98440509D01*
X101037515Y-98512984D01*
X101037519Y-98512985D01*
X101177523Y-98550500D01*
X101177525Y-98550500D01*
X101322476Y-98550500D01*
X101384206Y-98533958D01*
X101462485Y-98512984D01*
X101588015Y-98440509D01*
X101690509Y-98338015D01*
X101762984Y-98212485D01*
X101779128Y-98152234D01*
X101800500Y-98072477D01*
X101800500Y-97927522D01*
X101762985Y-97787519D01*
X101762984Y-97787515D01*
X101690509Y-97661985D01*
X101588015Y-97559491D01*
X101462485Y-97487016D01*
X101462482Y-97487015D01*
X101462480Y-97487014D01*
X101322477Y-97449500D01*
X101322475Y-97449500D01*
X101177525Y-97449500D01*
X101177523Y-97449500D01*
X101037519Y-97487014D01*
X101037515Y-97487016D01*
X100911986Y-97559490D01*
X100911981Y-97559494D01*
X100809494Y-97661981D01*
X100809490Y-97661986D01*
X100737016Y-97787515D01*
X100737014Y-97787519D01*
X100699500Y-97927522D01*
X96049347Y-97927522D01*
X96051259Y-97924210D01*
X96069564Y-97855893D01*
X96088775Y-97784202D01*
X96088775Y-97639247D01*
X96051260Y-97499244D01*
X96051259Y-97499240D01*
X95978784Y-97373710D01*
X95876290Y-97271216D01*
X95750760Y-97198741D01*
X95750757Y-97198740D01*
X95750755Y-97198739D01*
X95610752Y-97161225D01*
X95610750Y-97161225D01*
X95465800Y-97161225D01*
X95465798Y-97161225D01*
X95325794Y-97198739D01*
X95325790Y-97198741D01*
X95200261Y-97271215D01*
X95200256Y-97271219D01*
X95097769Y-97373706D01*
X95097765Y-97373711D01*
X95025291Y-97499240D01*
X95025289Y-97499244D01*
X94987775Y-97639247D01*
X94046006Y-97639247D01*
X94050500Y-97622476D01*
X94050500Y-97477522D01*
X94012985Y-97337519D01*
X94012984Y-97337515D01*
X93940509Y-97211985D01*
X93838015Y-97109491D01*
X93712485Y-97037016D01*
X93712482Y-97037015D01*
X93712480Y-97037014D01*
X93572477Y-96999500D01*
X93572475Y-96999500D01*
X93427525Y-96999500D01*
X93427523Y-96999500D01*
X93287519Y-97037014D01*
X93287515Y-97037016D01*
X93161986Y-97109490D01*
X93161981Y-97109494D01*
X93059494Y-97211981D01*
X93059490Y-97211986D01*
X92987016Y-97337515D01*
X92987014Y-97337519D01*
X92949500Y-97477522D01*
X91950000Y-97477522D01*
X91950000Y-97038055D01*
X91958080Y-97007584D01*
X91958211Y-97007353D01*
X92012984Y-96912485D01*
X92013567Y-96910307D01*
X92016649Y-96904905D01*
X92032418Y-96892673D01*
X92046531Y-96878559D01*
X92050990Y-96878266D01*
X92053842Y-96876055D01*
X92064390Y-96877387D01*
X92085986Y-96875972D01*
X92094548Y-96878266D01*
X92177523Y-96900500D01*
X92177525Y-96900500D01*
X92322476Y-96900500D01*
X92405452Y-96878266D01*
X92462485Y-96862984D01*
X92588015Y-96790509D01*
X92651002Y-96727522D01*
X95899500Y-96727522D01*
X95899500Y-96872477D01*
X95937014Y-97012480D01*
X95937015Y-97012482D01*
X95937016Y-97012485D01*
X96009491Y-97138015D01*
X96111985Y-97240509D01*
X96237515Y-97312984D01*
X96237519Y-97312985D01*
X96377523Y-97350500D01*
X96377525Y-97350500D01*
X96522476Y-97350500D01*
X96635603Y-97320187D01*
X96662485Y-97312984D01*
X96788015Y-97240509D01*
X96890509Y-97138015D01*
X96962984Y-97012485D01*
X96984277Y-96933019D01*
X97000500Y-96872477D01*
X97000500Y-96727522D01*
X96962985Y-96587519D01*
X96962984Y-96587515D01*
X96890509Y-96461985D01*
X96788015Y-96359491D01*
X96662485Y-96287016D01*
X96662482Y-96287015D01*
X96662480Y-96287014D01*
X96522477Y-96249500D01*
X96522475Y-96249500D01*
X96377525Y-96249500D01*
X96377523Y-96249500D01*
X96237519Y-96287014D01*
X96237515Y-96287016D01*
X96111986Y-96359490D01*
X96111981Y-96359494D01*
X96009494Y-96461981D01*
X96009490Y-96461986D01*
X95937016Y-96587515D01*
X95937014Y-96587519D01*
X95899500Y-96727522D01*
X92651002Y-96727522D01*
X92690509Y-96688015D01*
X92762984Y-96562485D01*
X92784200Y-96483307D01*
X92800500Y-96422477D01*
X92800500Y-96277522D01*
X92762985Y-96137519D01*
X92762984Y-96137515D01*
X92690509Y-96011985D01*
X92588015Y-95909491D01*
X92462485Y-95837016D01*
X92462482Y-95837015D01*
X92462480Y-95837014D01*
X92322477Y-95799500D01*
X92322475Y-95799500D01*
X92177525Y-95799500D01*
X92177523Y-95799500D01*
X92037519Y-95837014D01*
X92037515Y-95837016D01*
X91911986Y-95909490D01*
X91911981Y-95909494D01*
X91809494Y-96011981D01*
X91809490Y-96011986D01*
X91737010Y-96137525D01*
X91736743Y-96138171D01*
X91736494Y-96138419D01*
X91735001Y-96141006D01*
X91734307Y-96140605D01*
X91703452Y-96171447D01*
X91664012Y-96174027D01*
X91572477Y-96149500D01*
X91572475Y-96149500D01*
X91427525Y-96149500D01*
X91426783Y-96149500D01*
X91383296Y-96131487D01*
X91367379Y-96103919D01*
X91362984Y-96087515D01*
X91290509Y-95961985D01*
X91188015Y-95859491D01*
X91188011Y-95859488D01*
X91184816Y-95857037D01*
X91186023Y-95855463D01*
X91161332Y-95823290D01*
X91162483Y-95787647D01*
X91189203Y-95708741D01*
X91198271Y-95639463D01*
X91200134Y-95593957D01*
X91175983Y-95497235D01*
X91146157Y-95434051D01*
X91106069Y-95373374D01*
X91079229Y-95343179D01*
X90742494Y-94964352D01*
X90709756Y-94927522D01*
X92949500Y-94927522D01*
X92949500Y-95072477D01*
X92987014Y-95212480D01*
X92987015Y-95212482D01*
X92987016Y-95212485D01*
X93059491Y-95338015D01*
X93161985Y-95440509D01*
X93287515Y-95512984D01*
X93287519Y-95512985D01*
X93427523Y-95550500D01*
X93427525Y-95550500D01*
X93572476Y-95550500D01*
X93634206Y-95533958D01*
X93712485Y-95512984D01*
X93838015Y-95440509D01*
X93940509Y-95338015D01*
X94012984Y-95212485D01*
X94036327Y-95125370D01*
X94050500Y-95072477D01*
X94050500Y-94927522D01*
X94012985Y-94787519D01*
X94012984Y-94787515D01*
X93940509Y-94661985D01*
X93838015Y-94559491D01*
X93712485Y-94487016D01*
X93712482Y-94487015D01*
X93712480Y-94487014D01*
X93572477Y-94449500D01*
X93572475Y-94449500D01*
X93427525Y-94449500D01*
X93427523Y-94449500D01*
X93287519Y-94487014D01*
X93287515Y-94487016D01*
X93161986Y-94559490D01*
X93161981Y-94559494D01*
X93059494Y-94661981D01*
X93059490Y-94661986D01*
X92987016Y-94787515D01*
X92987014Y-94787519D01*
X92949500Y-94927522D01*
X90709756Y-94927522D01*
X90526959Y-94721875D01*
X90526950Y-94721866D01*
X90502084Y-94697468D01*
X90502081Y-94697465D01*
X90476443Y-94675533D01*
X90476400Y-94675496D01*
X90470680Y-94670746D01*
X90470670Y-94670740D01*
X90382347Y-94624538D01*
X90382344Y-94624537D01*
X90382340Y-94624535D01*
X90315301Y-94604850D01*
X90243322Y-94594500D01*
X90243316Y-94594500D01*
X88129342Y-94594500D01*
X88087128Y-94598024D01*
X88086959Y-94598039D01*
X88046432Y-94604854D01*
X88035141Y-94607100D01*
X88031509Y-94607823D01*
X87994324Y-94624538D01*
X87940586Y-94648693D01*
X87940578Y-94648697D01*
X87883664Y-94689225D01*
X87883662Y-94689227D01*
X87849070Y-94718843D01*
X87794675Y-94802383D01*
X87768707Y-94867248D01*
X87755614Y-94910874D01*
X87755614Y-94910875D01*
X87755225Y-94976221D01*
X87736953Y-95019600D01*
X87693359Y-95037353D01*
X87649980Y-95019081D01*
X87640285Y-95006289D01*
X87611177Y-94955172D01*
X87611176Y-94955170D01*
X87611176Y-94955169D01*
X87565429Y-94902375D01*
X87565417Y-94902363D01*
X87532647Y-94870742D01*
X87444315Y-94824536D01*
X87444314Y-94824535D01*
X87444313Y-94824535D01*
X87377274Y-94804850D01*
X87305295Y-94794500D01*
X87305289Y-94794500D01*
X86677886Y-94794500D01*
X86677880Y-94794500D01*
X86674237Y-94794565D01*
X86668765Y-94794663D01*
X86666560Y-94794741D01*
X86659920Y-94794978D01*
X86579756Y-94810924D01*
X86579741Y-94810928D01*
X86514303Y-94835336D01*
X86514279Y-94835346D01*
X86473207Y-94854996D01*
X86473202Y-94854999D01*
X86399043Y-94921611D01*
X86399038Y-94921616D01*
X86357167Y-94977549D01*
X86357156Y-94977565D01*
X86333226Y-95016303D01*
X86331473Y-95020333D01*
X86330300Y-95019822D01*
X86304453Y-95053089D01*
X86258109Y-95059048D01*
X86222475Y-95049500D01*
X86077525Y-95049500D01*
X86077523Y-95049500D01*
X85937519Y-95087014D01*
X85937515Y-95087016D01*
X85811986Y-95159490D01*
X85811981Y-95159494D01*
X85709494Y-95261981D01*
X85709490Y-95261986D01*
X85637016Y-95387515D01*
X85637015Y-95387518D01*
X85632606Y-95403971D01*
X85603950Y-95441314D01*
X85557283Y-95447456D01*
X85519941Y-95418802D01*
X85453584Y-95303868D01*
X85351090Y-95201374D01*
X85225560Y-95128899D01*
X85225557Y-95128898D01*
X85225555Y-95128897D01*
X85085552Y-95091383D01*
X85085550Y-95091383D01*
X84940600Y-95091383D01*
X84940598Y-95091383D01*
X84800594Y-95128897D01*
X84800590Y-95128899D01*
X84675061Y-95201373D01*
X84675056Y-95201377D01*
X84572569Y-95303864D01*
X84572565Y-95303869D01*
X84500091Y-95429398D01*
X84500089Y-95429402D01*
X84462575Y-95569405D01*
X84462575Y-95714360D01*
X84500089Y-95854363D01*
X84500090Y-95854365D01*
X84500091Y-95854368D01*
X84572566Y-95979898D01*
X84675060Y-96082392D01*
X84800590Y-96154867D01*
X84800594Y-96154868D01*
X84845784Y-96166977D01*
X84883127Y-96195631D01*
X84889270Y-96242299D01*
X84873353Y-96269868D01*
X84711235Y-96431987D01*
X84667748Y-96450000D01*
X84100000Y-96450000D01*
X84100000Y-97190388D01*
X84099552Y-97196649D01*
X84099647Y-97196972D01*
X84099530Y-97198053D01*
X84099055Y-97201361D01*
X83342760Y-97201361D01*
X83344023Y-97196649D01*
X83347614Y-97183247D01*
X83350500Y-97172477D01*
X83350500Y-97027522D01*
X83312985Y-96887519D01*
X83312984Y-96887515D01*
X83240509Y-96761985D01*
X83138015Y-96659491D01*
X83012485Y-96587016D01*
X83012482Y-96587015D01*
X83012480Y-96587014D01*
X82872477Y-96549500D01*
X82872475Y-96549500D01*
X82727525Y-96549500D01*
X82727523Y-96549500D01*
X82587519Y-96587014D01*
X82587515Y-96587016D01*
X82461986Y-96659490D01*
X82461981Y-96659494D01*
X82359494Y-96761981D01*
X82359490Y-96761986D01*
X82287016Y-96887515D01*
X82287014Y-96887519D01*
X82249500Y-97027522D01*
X74100468Y-97027522D01*
X74084579Y-96968222D01*
X74084578Y-96968220D01*
X74084577Y-96968216D01*
X74005520Y-96831284D01*
X73893716Y-96719480D01*
X73756784Y-96640423D01*
X73756781Y-96640422D01*
X73756777Y-96640420D01*
X73604172Y-96599530D01*
X73566828Y-96570876D01*
X73560685Y-96524209D01*
X73589339Y-96486865D01*
X73596543Y-96483312D01*
X73626811Y-96470775D01*
X73661040Y-96447904D01*
X73741535Y-96394119D01*
X73741536Y-96394117D01*
X73741542Y-96394114D01*
X73839114Y-96296542D01*
X73839627Y-96295775D01*
X73915769Y-96181820D01*
X73915769Y-96181819D01*
X73915775Y-96181811D01*
X73968580Y-96054328D01*
X73995499Y-95918996D01*
X73995500Y-95918996D01*
X73995500Y-95781004D01*
X73995499Y-95781003D01*
X73984861Y-95727525D01*
X73968580Y-95645672D01*
X73968577Y-95645665D01*
X73968576Y-95645661D01*
X73948433Y-95597032D01*
X73948431Y-95597029D01*
X73947157Y-95593953D01*
X73940351Y-95577522D01*
X74599500Y-95577522D01*
X74599500Y-95722477D01*
X74637014Y-95862480D01*
X74637015Y-95862482D01*
X74637016Y-95862485D01*
X74709491Y-95988015D01*
X74811985Y-96090509D01*
X74937515Y-96162984D01*
X74937519Y-96162985D01*
X75077523Y-96200500D01*
X75077525Y-96200500D01*
X75222476Y-96200500D01*
X75292222Y-96181811D01*
X75362485Y-96162984D01*
X75488015Y-96090509D01*
X75590509Y-95988015D01*
X75662984Y-95862485D01*
X75683071Y-95787519D01*
X75700500Y-95722477D01*
X75700500Y-95577524D01*
X75700337Y-95576916D01*
X75700337Y-95576914D01*
X75700336Y-95576912D01*
X75697150Y-95565022D01*
X78249500Y-95565022D01*
X78249500Y-95709977D01*
X78287014Y-95849980D01*
X78287015Y-95849982D01*
X78287016Y-95849985D01*
X78359491Y-95975515D01*
X78461985Y-96078009D01*
X78587515Y-96150484D01*
X78587519Y-96150485D01*
X78727523Y-96188000D01*
X78727525Y-96188000D01*
X78872476Y-96188000D01*
X78965831Y-96162985D01*
X79012485Y-96150484D01*
X79138015Y-96078009D01*
X79240509Y-95975515D01*
X79312984Y-95849985D01*
X79345798Y-95727522D01*
X82199500Y-95727522D01*
X82199500Y-95872477D01*
X82237014Y-96012480D01*
X82237015Y-96012482D01*
X82237016Y-96012485D01*
X82309491Y-96138015D01*
X82411985Y-96240509D01*
X82537515Y-96312984D01*
X82537519Y-96312985D01*
X82677523Y-96350500D01*
X82677525Y-96350500D01*
X82822476Y-96350500D01*
X82892704Y-96331682D01*
X82962485Y-96312984D01*
X83088015Y-96240509D01*
X83190509Y-96138015D01*
X83262984Y-96012485D01*
X83288035Y-95918996D01*
X83300500Y-95872477D01*
X83300500Y-95727522D01*
X83262985Y-95587519D01*
X83262984Y-95587515D01*
X83190509Y-95461985D01*
X83088015Y-95359491D01*
X82962485Y-95287016D01*
X82962482Y-95287015D01*
X82962480Y-95287014D01*
X82822477Y-95249500D01*
X82822475Y-95249500D01*
X82677525Y-95249500D01*
X82677523Y-95249500D01*
X82537519Y-95287014D01*
X82537515Y-95287016D01*
X82411986Y-95359490D01*
X82411981Y-95359494D01*
X82309494Y-95461981D01*
X82309490Y-95461986D01*
X82237016Y-95587515D01*
X82237014Y-95587519D01*
X82199500Y-95727522D01*
X79345798Y-95727522D01*
X79350500Y-95709975D01*
X79350500Y-95565025D01*
X79350500Y-95565022D01*
X79315404Y-95434047D01*
X79312984Y-95425015D01*
X79240509Y-95299485D01*
X79138015Y-95196991D01*
X79012485Y-95124516D01*
X79012482Y-95124515D01*
X79012480Y-95124514D01*
X78872477Y-95087000D01*
X78872475Y-95087000D01*
X78727525Y-95087000D01*
X78727523Y-95087000D01*
X78587519Y-95124514D01*
X78587515Y-95124516D01*
X78461986Y-95196990D01*
X78461981Y-95196994D01*
X78359494Y-95299481D01*
X78359490Y-95299486D01*
X78287016Y-95425015D01*
X78287014Y-95425019D01*
X78249500Y-95565022D01*
X75697150Y-95565022D01*
X75662985Y-95437519D01*
X75662984Y-95437515D01*
X75590509Y-95311985D01*
X75488015Y-95209491D01*
X75362485Y-95137016D01*
X75362482Y-95137015D01*
X75362480Y-95137014D01*
X75222477Y-95099500D01*
X75222475Y-95099500D01*
X75077525Y-95099500D01*
X75077523Y-95099500D01*
X74937519Y-95137014D01*
X74937515Y-95137016D01*
X74811986Y-95209490D01*
X74811981Y-95209494D01*
X74709494Y-95311981D01*
X74709490Y-95311986D01*
X74637016Y-95437515D01*
X74637014Y-95437519D01*
X74599500Y-95577522D01*
X73940351Y-95577522D01*
X73915775Y-95518189D01*
X73915773Y-95518186D01*
X73915769Y-95518179D01*
X73839119Y-95403464D01*
X73839114Y-95403458D01*
X73741541Y-95305885D01*
X73741535Y-95305880D01*
X73626820Y-95229230D01*
X73626813Y-95229226D01*
X73626811Y-95229225D01*
X73624974Y-95228464D01*
X73499338Y-95176423D01*
X73499321Y-95176418D01*
X73363996Y-95149500D01*
X73363993Y-95149500D01*
X71726007Y-95149500D01*
X71726004Y-95149500D01*
X71590678Y-95176418D01*
X71590661Y-95176423D01*
X71463195Y-95229222D01*
X71463179Y-95229230D01*
X71348464Y-95305880D01*
X71348458Y-95305885D01*
X71250885Y-95403458D01*
X71250880Y-95403464D01*
X71174230Y-95518179D01*
X71174222Y-95518195D01*
X71121423Y-95645661D01*
X71121418Y-95645678D01*
X71094500Y-95781003D01*
X70265499Y-95781003D01*
X70254861Y-95727525D01*
X70238580Y-95645672D01*
X70238577Y-95645665D01*
X70238576Y-95645661D01*
X70210099Y-95576912D01*
X70185775Y-95518189D01*
X70185771Y-95518183D01*
X70185769Y-95518179D01*
X70109119Y-95403464D01*
X70109114Y-95403458D01*
X70011541Y-95305885D01*
X70011535Y-95305880D01*
X69896820Y-95229230D01*
X69896813Y-95229226D01*
X69896811Y-95229225D01*
X69894974Y-95228464D01*
X69769338Y-95176423D01*
X69769321Y-95176418D01*
X69633996Y-95149500D01*
X69633993Y-95149500D01*
X68696007Y-95149500D01*
X68696004Y-95149500D01*
X68560678Y-95176418D01*
X68560661Y-95176423D01*
X68433195Y-95229222D01*
X68433179Y-95229230D01*
X68318464Y-95305880D01*
X68318458Y-95305885D01*
X68220885Y-95403458D01*
X68220880Y-95403464D01*
X68144230Y-95518179D01*
X68144224Y-95518191D01*
X68118818Y-95579526D01*
X68085534Y-95612809D01*
X68038464Y-95612808D01*
X68005181Y-95579524D01*
X68000500Y-95555990D01*
X68000500Y-94327522D01*
X77949500Y-94327522D01*
X77949500Y-94472477D01*
X77987014Y-94612480D01*
X77987015Y-94612482D01*
X77987016Y-94612485D01*
X78059491Y-94738015D01*
X78161985Y-94840509D01*
X78287515Y-94912984D01*
X78287519Y-94912985D01*
X78427523Y-94950500D01*
X78427525Y-94950500D01*
X78572476Y-94950500D01*
X78634206Y-94933958D01*
X78712485Y-94912984D01*
X78838015Y-94840509D01*
X78940509Y-94738015D01*
X79012984Y-94612485D01*
X79031311Y-94544089D01*
X79050500Y-94472477D01*
X79050500Y-94327522D01*
X79012985Y-94187519D01*
X79012984Y-94187515D01*
X78940509Y-94061985D01*
X78838015Y-93959491D01*
X78712485Y-93887016D01*
X78712482Y-93887015D01*
X78712478Y-93887013D01*
X78697118Y-93882898D01*
X78697117Y-93882898D01*
X78572477Y-93849500D01*
X78572475Y-93849500D01*
X78427525Y-93849500D01*
X78427523Y-93849500D01*
X78287519Y-93887014D01*
X78287515Y-93887016D01*
X78161986Y-93959490D01*
X78161981Y-93959494D01*
X78059494Y-94061981D01*
X78059490Y-94061986D01*
X77987016Y-94187515D01*
X77987014Y-94187519D01*
X77949500Y-94327522D01*
X68000500Y-94327522D01*
X68000500Y-93427522D01*
X70549500Y-93427522D01*
X70549500Y-93572477D01*
X70587014Y-93712480D01*
X70587015Y-93712482D01*
X70587016Y-93712485D01*
X70659491Y-93838015D01*
X70761985Y-93940509D01*
X70887515Y-94012984D01*
X70887519Y-94012985D01*
X71027523Y-94050500D01*
X71027525Y-94050500D01*
X71172476Y-94050500D01*
X71234206Y-94033958D01*
X71312485Y-94012984D01*
X71438015Y-93940509D01*
X71540509Y-93838015D01*
X71612984Y-93712485D01*
X71627540Y-93658158D01*
X71650500Y-93572477D01*
X71650500Y-93427522D01*
X72449500Y-93427522D01*
X72449500Y-93572477D01*
X72487014Y-93712480D01*
X72487015Y-93712482D01*
X72487016Y-93712485D01*
X72559491Y-93838015D01*
X72661985Y-93940509D01*
X72787515Y-94012984D01*
X72787519Y-94012985D01*
X72927523Y-94050500D01*
X72927525Y-94050500D01*
X73072476Y-94050500D01*
X73134206Y-94033958D01*
X73212485Y-94012984D01*
X73338015Y-93940509D01*
X73440509Y-93838015D01*
X73446567Y-93827522D01*
X84449500Y-93827522D01*
X84449500Y-93972477D01*
X84487014Y-94112480D01*
X84487015Y-94112482D01*
X84487016Y-94112485D01*
X84559491Y-94238015D01*
X84661985Y-94340509D01*
X84787515Y-94412984D01*
X84787519Y-94412985D01*
X84927523Y-94450500D01*
X84927525Y-94450500D01*
X85072476Y-94450500D01*
X85145477Y-94430939D01*
X85212485Y-94412984D01*
X85338015Y-94340509D01*
X85440509Y-94238015D01*
X85512984Y-94112485D01*
X85539445Y-94013732D01*
X85550500Y-93972477D01*
X85550500Y-93827522D01*
X86449500Y-93827522D01*
X86449500Y-93972477D01*
X86487014Y-94112480D01*
X86487015Y-94112482D01*
X86487016Y-94112485D01*
X86559491Y-94238015D01*
X86661985Y-94340509D01*
X86787515Y-94412984D01*
X86787519Y-94412985D01*
X86927523Y-94450500D01*
X86927525Y-94450500D01*
X87072476Y-94450500D01*
X87145477Y-94430939D01*
X87212485Y-94412984D01*
X87338015Y-94340509D01*
X87440509Y-94238015D01*
X87512984Y-94112485D01*
X87539445Y-94013732D01*
X87550500Y-93972477D01*
X87550500Y-93927522D01*
X90699500Y-93927522D01*
X90699500Y-94072477D01*
X90737014Y-94212480D01*
X90737015Y-94212482D01*
X90737016Y-94212485D01*
X90809491Y-94338015D01*
X90911985Y-94440509D01*
X91037515Y-94512984D01*
X91037519Y-94512985D01*
X91177523Y-94550500D01*
X91177525Y-94550500D01*
X91322476Y-94550500D01*
X91384206Y-94533958D01*
X91462485Y-94512984D01*
X91588015Y-94440509D01*
X91690509Y-94338015D01*
X91762984Y-94212485D01*
X91777722Y-94157481D01*
X91800500Y-94072477D01*
X91800500Y-93927522D01*
X91762985Y-93787519D01*
X91762984Y-93787515D01*
X91690509Y-93661985D01*
X91588015Y-93559491D01*
X91462485Y-93487016D01*
X91462482Y-93487015D01*
X91462480Y-93487014D01*
X91322477Y-93449500D01*
X91322475Y-93449500D01*
X91177525Y-93449500D01*
X91177523Y-93449500D01*
X91037519Y-93487014D01*
X91037515Y-93487016D01*
X90911986Y-93559490D01*
X90911981Y-93559494D01*
X90809494Y-93661981D01*
X90809490Y-93661986D01*
X90737016Y-93787515D01*
X90737014Y-93787519D01*
X90699500Y-93927522D01*
X87550500Y-93927522D01*
X87550500Y-93827522D01*
X87512985Y-93687519D01*
X87512984Y-93687515D01*
X87440509Y-93561985D01*
X87338015Y-93459491D01*
X87212485Y-93387016D01*
X87212482Y-93387015D01*
X87212480Y-93387014D01*
X87072477Y-93349500D01*
X87072475Y-93349500D01*
X86927525Y-93349500D01*
X86927523Y-93349500D01*
X86787519Y-93387014D01*
X86787515Y-93387016D01*
X86661986Y-93459490D01*
X86661981Y-93459494D01*
X86559494Y-93561981D01*
X86559490Y-93561986D01*
X86487016Y-93687515D01*
X86487014Y-93687519D01*
X86449500Y-93827522D01*
X85550500Y-93827522D01*
X85512985Y-93687519D01*
X85512984Y-93687515D01*
X85440509Y-93561985D01*
X85338015Y-93459491D01*
X85212485Y-93387016D01*
X85212482Y-93387015D01*
X85212480Y-93387014D01*
X85072477Y-93349500D01*
X85072475Y-93349500D01*
X84927525Y-93349500D01*
X84927523Y-93349500D01*
X84787519Y-93387014D01*
X84787515Y-93387016D01*
X84661986Y-93459490D01*
X84661981Y-93459494D01*
X84559494Y-93561981D01*
X84559490Y-93561986D01*
X84487016Y-93687515D01*
X84487014Y-93687519D01*
X84449500Y-93827522D01*
X73446567Y-93827522D01*
X73512984Y-93712485D01*
X73527540Y-93658158D01*
X73550500Y-93572477D01*
X73550500Y-93427522D01*
X73514385Y-93292744D01*
X73512984Y-93287515D01*
X73440509Y-93161985D01*
X73338015Y-93059491D01*
X73212485Y-92987016D01*
X73212482Y-92987015D01*
X73212480Y-92987014D01*
X73072477Y-92949500D01*
X73072475Y-92949500D01*
X72927525Y-92949500D01*
X72927523Y-92949500D01*
X72787519Y-92987014D01*
X72787515Y-92987016D01*
X72661986Y-93059490D01*
X72661981Y-93059494D01*
X72559494Y-93161981D01*
X72559490Y-93161986D01*
X72487016Y-93287515D01*
X72487014Y-93287519D01*
X72449500Y-93427522D01*
X71650500Y-93427522D01*
X71614385Y-93292744D01*
X71612984Y-93287515D01*
X71540509Y-93161985D01*
X71438015Y-93059491D01*
X71312485Y-92987016D01*
X71312482Y-92987015D01*
X71312480Y-92987014D01*
X71172477Y-92949500D01*
X71172475Y-92949500D01*
X71027525Y-92949500D01*
X71027523Y-92949500D01*
X70887519Y-92987014D01*
X70887515Y-92987016D01*
X70761986Y-93059490D01*
X70761981Y-93059494D01*
X70659494Y-93161981D01*
X70659490Y-93161986D01*
X70587016Y-93287515D01*
X70587014Y-93287519D01*
X70549500Y-93427522D01*
X68000500Y-93427522D01*
X68000500Y-92562000D01*
X68018513Y-92518513D01*
X68062000Y-92500500D01*
X88532057Y-92500500D01*
X88575544Y-92518513D01*
G37*
%TD.AperFunction*%
%TD*%
%TA.AperFunction,Conductor*%
%TO.N,/VCORE*%
G36*
X90310355Y-94869685D02*
G01*
X90335993Y-94891617D01*
X90776787Y-95387511D01*
X90915106Y-95543119D01*
X90944932Y-95606303D01*
X90935864Y-95675581D01*
X90890780Y-95728959D01*
X90823995Y-95749490D01*
X90822427Y-95749500D01*
X90777525Y-95749500D01*
X90648993Y-95783940D01*
X90637511Y-95787017D01*
X90511988Y-95859488D01*
X90511982Y-95859493D01*
X90409493Y-95961982D01*
X90409488Y-95961988D01*
X90337017Y-96087511D01*
X90337016Y-96087515D01*
X90299500Y-96227525D01*
X90299500Y-96372475D01*
X90312898Y-96422475D01*
X90337017Y-96512488D01*
X90409488Y-96638011D01*
X90409490Y-96638013D01*
X90409491Y-96638015D01*
X90511985Y-96740509D01*
X90511986Y-96740510D01*
X90511988Y-96740511D01*
X90637511Y-96812982D01*
X90637512Y-96812982D01*
X90637515Y-96812984D01*
X90777525Y-96850500D01*
X90777528Y-96850500D01*
X90879637Y-96850500D01*
X90946676Y-96870185D01*
X90987024Y-96912499D01*
X91059491Y-97038015D01*
X91161985Y-97140509D01*
X91161986Y-97140510D01*
X91161988Y-97140511D01*
X91287511Y-97212982D01*
X91287512Y-97212982D01*
X91287515Y-97212984D01*
X91427525Y-97250500D01*
X91427528Y-97250500D01*
X91530555Y-97250500D01*
X91597594Y-97270185D01*
X91643349Y-97322989D01*
X91654555Y-97374500D01*
X91654555Y-100266759D01*
X91634870Y-100333798D01*
X91618236Y-100354440D01*
X91534493Y-100438182D01*
X91534488Y-100438188D01*
X91462017Y-100563711D01*
X91462016Y-100563715D01*
X91424500Y-100703725D01*
X91424500Y-100848675D01*
X91459012Y-100977475D01*
X91462017Y-100988688D01*
X91534488Y-101114211D01*
X91539438Y-101120661D01*
X91536970Y-101122554D01*
X91563406Y-101170968D01*
X91558422Y-101240660D01*
X91549627Y-101259326D01*
X91489633Y-101363237D01*
X91489632Y-101363241D01*
X91452116Y-101503251D01*
X91452116Y-101648201D01*
X91481937Y-101759493D01*
X91489633Y-101788214D01*
X91562104Y-101913737D01*
X91562109Y-101913743D01*
X91618236Y-101969870D01*
X91651721Y-102031193D01*
X91654555Y-102057551D01*
X91654555Y-103292335D01*
X91653180Y-103310748D01*
X91652140Y-103317670D01*
X91649500Y-103327525D01*
X91649500Y-103335255D01*
X91648125Y-103344413D01*
X91637154Y-103368043D01*
X91629815Y-103393039D01*
X91622680Y-103399221D01*
X91618704Y-103407786D01*
X91596697Y-103421735D01*
X91577011Y-103438794D01*
X91566010Y-103441187D01*
X91559691Y-103445193D01*
X91547933Y-103445119D01*
X91525500Y-103450000D01*
X84478555Y-103450000D01*
X84411516Y-103430315D01*
X84365761Y-103377511D01*
X84354555Y-103326000D01*
X84354555Y-102177525D01*
X85049500Y-102177525D01*
X85049500Y-102322475D01*
X85075665Y-102420123D01*
X85087017Y-102462488D01*
X85159488Y-102588011D01*
X85159490Y-102588013D01*
X85159491Y-102588015D01*
X85261985Y-102690509D01*
X85261986Y-102690510D01*
X85261988Y-102690511D01*
X85387511Y-102762982D01*
X85387512Y-102762982D01*
X85387515Y-102762984D01*
X85527525Y-102800500D01*
X85527528Y-102800500D01*
X85672472Y-102800500D01*
X85672475Y-102800500D01*
X85812485Y-102762984D01*
X85938015Y-102690509D01*
X86040509Y-102588015D01*
X86112984Y-102462485D01*
X86150500Y-102322475D01*
X86150500Y-102177525D01*
X86137102Y-102127525D01*
X86649500Y-102127525D01*
X86649500Y-102272475D01*
X86687016Y-102412485D01*
X86687017Y-102412488D01*
X86759488Y-102538011D01*
X86759490Y-102538013D01*
X86759491Y-102538015D01*
X86861985Y-102640509D01*
X86861986Y-102640510D01*
X86861988Y-102640511D01*
X86987511Y-102712982D01*
X86987512Y-102712982D01*
X86987515Y-102712984D01*
X87127525Y-102750500D01*
X87127528Y-102750500D01*
X87272472Y-102750500D01*
X87272475Y-102750500D01*
X87412485Y-102712984D01*
X87538015Y-102640509D01*
X87640509Y-102538015D01*
X87712984Y-102412485D01*
X87750500Y-102272475D01*
X87750500Y-102127525D01*
X87712984Y-101987515D01*
X87708422Y-101979614D01*
X87705608Y-101974740D01*
X88673108Y-101974740D01*
X88673108Y-102119690D01*
X88688606Y-102177527D01*
X88710625Y-102259703D01*
X88783096Y-102385226D01*
X88783098Y-102385228D01*
X88783099Y-102385230D01*
X88885593Y-102487724D01*
X88885594Y-102487725D01*
X88885596Y-102487726D01*
X89011119Y-102560197D01*
X89011120Y-102560197D01*
X89011123Y-102560199D01*
X89151133Y-102597715D01*
X89151136Y-102597715D01*
X89251265Y-102597715D01*
X89318304Y-102617400D01*
X89364059Y-102670204D01*
X89371039Y-102689620D01*
X89375181Y-102705079D01*
X89375184Y-102705086D01*
X89447655Y-102830609D01*
X89447657Y-102830611D01*
X89447658Y-102830613D01*
X89550152Y-102933107D01*
X89550153Y-102933108D01*
X89550155Y-102933109D01*
X89675678Y-103005580D01*
X89675679Y-103005580D01*
X89675682Y-103005582D01*
X89815692Y-103043098D01*
X89815695Y-103043098D01*
X89960639Y-103043098D01*
X89960642Y-103043098D01*
X90100652Y-103005582D01*
X90226182Y-102933107D01*
X90328676Y-102830613D01*
X90401151Y-102705083D01*
X90438667Y-102565073D01*
X90438667Y-102420123D01*
X90401151Y-102280113D01*
X90396739Y-102272472D01*
X90328678Y-102154586D01*
X90328673Y-102154580D01*
X90226184Y-102052091D01*
X90226178Y-102052086D01*
X90100655Y-101979615D01*
X90100656Y-101979615D01*
X90064287Y-101969870D01*
X89960642Y-101942098D01*
X89860510Y-101942098D01*
X89793471Y-101922413D01*
X89747716Y-101869609D01*
X89740736Y-101850194D01*
X89736592Y-101834729D01*
X89736590Y-101834726D01*
X89664119Y-101709203D01*
X89664114Y-101709197D01*
X89584974Y-101630057D01*
X89551489Y-101568734D01*
X89556473Y-101499042D01*
X89598345Y-101443109D01*
X89663809Y-101418692D01*
X89704743Y-101422600D01*
X89827525Y-101455500D01*
X89827528Y-101455500D01*
X89972472Y-101455500D01*
X89972475Y-101455500D01*
X90112485Y-101417984D01*
X90238015Y-101345509D01*
X90340509Y-101243015D01*
X90412984Y-101117485D01*
X90450500Y-100977475D01*
X90450500Y-100832525D01*
X90412984Y-100692515D01*
X90395357Y-100661985D01*
X90340511Y-100566988D01*
X90340506Y-100566982D01*
X90238017Y-100464493D01*
X90238011Y-100464488D01*
X90112488Y-100392017D01*
X90112489Y-100392017D01*
X90094956Y-100387319D01*
X89972475Y-100354500D01*
X89827525Y-100354500D01*
X89705044Y-100387319D01*
X89687511Y-100392017D01*
X89561988Y-100464488D01*
X89561982Y-100464493D01*
X89459493Y-100566982D01*
X89459488Y-100566988D01*
X89387017Y-100692511D01*
X89387016Y-100692515D01*
X89349500Y-100832525D01*
X89349500Y-100977475D01*
X89386139Y-101114211D01*
X89387017Y-101117488D01*
X89459488Y-101243011D01*
X89459493Y-101243017D01*
X89538633Y-101322157D01*
X89572118Y-101383480D01*
X89567134Y-101453172D01*
X89525262Y-101509105D01*
X89459798Y-101533522D01*
X89418859Y-101529613D01*
X89356799Y-101512984D01*
X89296083Y-101496715D01*
X89151133Y-101496715D01*
X89022601Y-101531155D01*
X89011119Y-101534232D01*
X88885596Y-101606703D01*
X88885590Y-101606708D01*
X88783101Y-101709197D01*
X88783096Y-101709203D01*
X88710625Y-101834726D01*
X88710624Y-101834730D01*
X88673108Y-101974740D01*
X87705608Y-101974740D01*
X87640511Y-101861988D01*
X87640506Y-101861982D01*
X87538017Y-101759493D01*
X87538011Y-101759488D01*
X87412488Y-101687017D01*
X87412489Y-101687017D01*
X87401006Y-101683940D01*
X87272475Y-101649500D01*
X87127525Y-101649500D01*
X86998993Y-101683940D01*
X86987511Y-101687017D01*
X86861988Y-101759488D01*
X86861982Y-101759493D01*
X86759493Y-101861982D01*
X86759488Y-101861988D01*
X86687017Y-101987511D01*
X86687016Y-101987515D01*
X86649500Y-102127525D01*
X86137102Y-102127525D01*
X86112984Y-102037515D01*
X86084116Y-101987515D01*
X86040511Y-101911988D01*
X86040506Y-101911982D01*
X85938017Y-101809493D01*
X85938011Y-101809488D01*
X85812488Y-101737017D01*
X85812489Y-101737017D01*
X85801006Y-101733940D01*
X85672475Y-101699500D01*
X85527525Y-101699500D01*
X85398993Y-101733940D01*
X85387511Y-101737017D01*
X85261988Y-101809488D01*
X85261982Y-101809493D01*
X85159493Y-101911982D01*
X85159488Y-101911988D01*
X85087017Y-102037511D01*
X85087016Y-102037515D01*
X85049500Y-102177525D01*
X84354555Y-102177525D01*
X84354555Y-101359227D01*
X84374240Y-101292188D01*
X84427044Y-101246433D01*
X84496202Y-101236489D01*
X84559758Y-101265514D01*
X84585941Y-101297226D01*
X84609491Y-101338015D01*
X84711985Y-101440509D01*
X84711986Y-101440510D01*
X84711988Y-101440511D01*
X84837511Y-101512982D01*
X84837512Y-101512982D01*
X84837515Y-101512984D01*
X84977525Y-101550500D01*
X84977528Y-101550500D01*
X85122472Y-101550500D01*
X85122475Y-101550500D01*
X85262485Y-101512984D01*
X85388015Y-101440509D01*
X85490509Y-101338015D01*
X85562984Y-101212485D01*
X85600500Y-101072475D01*
X85600500Y-100927525D01*
X85899500Y-100927525D01*
X85899500Y-101072475D01*
X85930930Y-101189771D01*
X85937017Y-101212488D01*
X86009488Y-101338011D01*
X86009490Y-101338013D01*
X86009491Y-101338015D01*
X86111985Y-101440509D01*
X86111986Y-101440510D01*
X86111988Y-101440511D01*
X86237511Y-101512982D01*
X86237512Y-101512982D01*
X86237515Y-101512984D01*
X86377525Y-101550500D01*
X86377528Y-101550500D01*
X86522472Y-101550500D01*
X86522475Y-101550500D01*
X86662485Y-101512984D01*
X86788015Y-101440509D01*
X86890509Y-101338015D01*
X86962984Y-101212485D01*
X87000500Y-101072475D01*
X87000500Y-100927525D01*
X86962984Y-100787515D01*
X86911008Y-100697491D01*
X86890511Y-100661988D01*
X86890506Y-100661982D01*
X86841205Y-100612681D01*
X86807720Y-100551358D01*
X86812704Y-100481666D01*
X86841205Y-100437319D01*
X86886508Y-100392016D01*
X86940509Y-100338015D01*
X87012984Y-100212485D01*
X87050500Y-100072475D01*
X87050500Y-99927525D01*
X87012984Y-99787515D01*
X86996804Y-99759491D01*
X86940511Y-99661988D01*
X86940506Y-99661982D01*
X86838017Y-99559493D01*
X86838011Y-99559488D01*
X86712488Y-99487017D01*
X86712489Y-99487017D01*
X86701006Y-99483940D01*
X86572475Y-99449500D01*
X86427525Y-99449500D01*
X86298993Y-99483940D01*
X86287511Y-99487017D01*
X86161988Y-99559488D01*
X86161982Y-99559493D01*
X86059493Y-99661982D01*
X86059488Y-99661988D01*
X85987017Y-99787511D01*
X85987016Y-99787515D01*
X85949500Y-99927525D01*
X85949500Y-100072475D01*
X85987016Y-100212485D01*
X85987017Y-100212488D01*
X86059488Y-100338011D01*
X86059493Y-100338017D01*
X86108795Y-100387319D01*
X86142280Y-100448642D01*
X86137296Y-100518334D01*
X86108795Y-100562681D01*
X86009493Y-100661982D01*
X86009488Y-100661988D01*
X85937017Y-100787511D01*
X85937016Y-100787515D01*
X85899500Y-100927525D01*
X85600500Y-100927525D01*
X85562984Y-100787515D01*
X85511007Y-100697489D01*
X85494535Y-100629590D01*
X85517387Y-100563563D01*
X85530711Y-100547812D01*
X85540509Y-100538015D01*
X85612984Y-100412485D01*
X85650500Y-100272475D01*
X85650500Y-100127525D01*
X85612984Y-99987515D01*
X85580554Y-99931344D01*
X85564081Y-99863444D01*
X85586933Y-99797417D01*
X85600249Y-99781674D01*
X85693909Y-99688015D01*
X85766384Y-99562485D01*
X85803900Y-99422475D01*
X85803900Y-99277525D01*
X85766384Y-99137515D01*
X85748995Y-99107397D01*
X85693911Y-99011988D01*
X85693906Y-99011982D01*
X85591417Y-98909493D01*
X85591411Y-98909488D01*
X85465888Y-98837017D01*
X85465889Y-98837017D01*
X85454406Y-98833940D01*
X85325875Y-98799500D01*
X85180925Y-98799500D01*
X85052393Y-98833940D01*
X85040911Y-98837017D01*
X84915388Y-98909488D01*
X84915382Y-98909493D01*
X84812893Y-99011982D01*
X84812888Y-99011988D01*
X84740417Y-99137511D01*
X84740416Y-99137515D01*
X84702900Y-99277525D01*
X84702900Y-99422475D01*
X84740416Y-99562485D01*
X84755156Y-99588015D01*
X84772845Y-99618653D01*
X84789318Y-99686554D01*
X84766466Y-99752581D01*
X84753140Y-99768334D01*
X84659494Y-99861981D01*
X84659491Y-99861985D01*
X84585942Y-99989375D01*
X84535374Y-100037590D01*
X84466767Y-100050812D01*
X84401903Y-100024844D01*
X84361375Y-99967930D01*
X84354555Y-99927374D01*
X84354555Y-97777525D01*
X85299500Y-97777525D01*
X85299500Y-97922475D01*
X85327850Y-98028277D01*
X85337017Y-98062488D01*
X85409488Y-98188011D01*
X85409490Y-98188013D01*
X85409491Y-98188015D01*
X85511985Y-98290509D01*
X85511986Y-98290510D01*
X85511988Y-98290511D01*
X85637511Y-98362982D01*
X85637512Y-98362982D01*
X85637515Y-98362984D01*
X85777525Y-98400500D01*
X85777528Y-98400500D01*
X85922472Y-98400500D01*
X85922475Y-98400500D01*
X86062485Y-98362984D01*
X86188015Y-98290509D01*
X86290509Y-98188015D01*
X86325906Y-98126704D01*
X86376471Y-98078491D01*
X86445078Y-98065267D01*
X86509943Y-98091235D01*
X86550472Y-98148149D01*
X86553066Y-98156611D01*
X86568037Y-98212481D01*
X86568039Y-98212486D01*
X86640510Y-98338009D01*
X86640512Y-98338011D01*
X86640513Y-98338013D01*
X86743007Y-98440507D01*
X86854300Y-98504762D01*
X86902516Y-98555329D01*
X86915739Y-98623936D01*
X86901600Y-98668171D01*
X86901853Y-98668276D01*
X86900598Y-98671305D01*
X86899692Y-98674141D01*
X86898743Y-98675784D01*
X86898742Y-98675785D01*
X86898741Y-98675790D01*
X86861225Y-98815800D01*
X86861225Y-98960750D01*
X86898741Y-99100760D01*
X86898742Y-99100763D01*
X86971213Y-99226286D01*
X86971215Y-99226288D01*
X86971216Y-99226290D01*
X87073710Y-99328784D01*
X87073711Y-99328785D01*
X87073713Y-99328786D01*
X87199236Y-99401257D01*
X87199237Y-99401257D01*
X87199240Y-99401259D01*
X87339250Y-99438775D01*
X87339253Y-99438775D01*
X87484197Y-99438775D01*
X87484200Y-99438775D01*
X87624210Y-99401259D01*
X87749740Y-99328784D01*
X87852234Y-99226290D01*
X87880389Y-99177525D01*
X89449500Y-99177525D01*
X89449500Y-99322475D01*
X89480663Y-99438775D01*
X89487017Y-99462488D01*
X89559488Y-99588011D01*
X89559490Y-99588013D01*
X89559491Y-99588015D01*
X89661985Y-99690509D01*
X89661986Y-99690510D01*
X89661988Y-99690511D01*
X89787511Y-99762982D01*
X89787512Y-99762982D01*
X89787515Y-99762984D01*
X89927525Y-99800500D01*
X89927528Y-99800500D01*
X90072472Y-99800500D01*
X90072475Y-99800500D01*
X90212485Y-99762984D01*
X90338015Y-99690509D01*
X90440509Y-99588015D01*
X90512984Y-99462485D01*
X90550500Y-99322475D01*
X90550500Y-99177525D01*
X90512984Y-99037515D01*
X90498244Y-99011985D01*
X90440511Y-98911988D01*
X90440506Y-98911982D01*
X90338017Y-98809493D01*
X90338011Y-98809488D01*
X90212488Y-98737017D01*
X90212489Y-98737017D01*
X90201006Y-98733940D01*
X90072475Y-98699500D01*
X89927525Y-98699500D01*
X89798993Y-98733940D01*
X89787511Y-98737017D01*
X89661988Y-98809488D01*
X89661982Y-98809493D01*
X89559493Y-98911982D01*
X89559488Y-98911988D01*
X89487017Y-99037511D01*
X89487016Y-99037515D01*
X89449500Y-99177525D01*
X87880389Y-99177525D01*
X87920877Y-99107398D01*
X87920877Y-99107397D01*
X87924709Y-99100760D01*
X87962225Y-98960750D01*
X87962225Y-98815800D01*
X87924709Y-98675790D01*
X87852234Y-98550260D01*
X87749740Y-98447766D01*
X87638446Y-98383510D01*
X87590230Y-98332943D01*
X87577008Y-98264336D01*
X87591149Y-98220102D01*
X87590894Y-98219997D01*
X87592160Y-98216939D01*
X87593063Y-98214116D01*
X87594006Y-98212483D01*
X87631522Y-98072473D01*
X87631522Y-97927523D01*
X87594006Y-97787513D01*
X87588239Y-97777525D01*
X87568489Y-97743317D01*
X89060696Y-97743317D01*
X89060696Y-97888267D01*
X89098212Y-98028277D01*
X89098213Y-98028280D01*
X89170684Y-98153803D01*
X89170686Y-98153805D01*
X89170687Y-98153807D01*
X89273181Y-98256301D01*
X89273182Y-98256302D01*
X89273184Y-98256303D01*
X89398707Y-98328774D01*
X89398708Y-98328774D01*
X89398711Y-98328776D01*
X89538721Y-98366292D01*
X89538724Y-98366292D01*
X89683668Y-98366292D01*
X89683671Y-98366292D01*
X89823681Y-98328776D01*
X89949211Y-98256301D01*
X90051705Y-98153807D01*
X90124180Y-98028277D01*
X90161696Y-97888267D01*
X90161696Y-97743317D01*
X90124180Y-97603307D01*
X90071453Y-97511982D01*
X90051707Y-97477780D01*
X90051702Y-97477774D01*
X89949213Y-97375285D01*
X89949207Y-97375280D01*
X89823684Y-97302809D01*
X89823685Y-97302809D01*
X89812202Y-97299732D01*
X89683671Y-97265292D01*
X89538721Y-97265292D01*
X89410189Y-97299732D01*
X89398707Y-97302809D01*
X89273184Y-97375280D01*
X89273178Y-97375285D01*
X89170689Y-97477774D01*
X89170684Y-97477780D01*
X89098213Y-97603303D01*
X89098212Y-97603307D01*
X89060696Y-97743317D01*
X87568489Y-97743317D01*
X87521533Y-97661986D01*
X87521528Y-97661980D01*
X87419039Y-97559491D01*
X87419033Y-97559486D01*
X87293510Y-97487015D01*
X87293511Y-97487015D01*
X87282028Y-97483938D01*
X87153497Y-97449498D01*
X87008547Y-97449498D01*
X86880015Y-97483938D01*
X86868533Y-97487015D01*
X86743010Y-97559486D01*
X86743004Y-97559491D01*
X86640515Y-97661980D01*
X86640513Y-97661983D01*
X86605116Y-97723292D01*
X86554548Y-97771507D01*
X86485941Y-97784729D01*
X86421076Y-97758761D01*
X86380549Y-97701846D01*
X86377954Y-97693385D01*
X86362984Y-97637515D01*
X86290509Y-97511985D01*
X86188015Y-97409491D01*
X86188013Y-97409490D01*
X86188011Y-97409488D01*
X86062488Y-97337017D01*
X86062489Y-97337017D01*
X86051006Y-97333940D01*
X85922475Y-97299500D01*
X85777525Y-97299500D01*
X85648993Y-97333940D01*
X85637511Y-97337017D01*
X85511988Y-97409488D01*
X85511982Y-97409493D01*
X85409493Y-97511982D01*
X85409488Y-97511988D01*
X85337017Y-97637511D01*
X85337016Y-97637515D01*
X85299500Y-97777525D01*
X84354555Y-97777525D01*
X84354555Y-97201361D01*
X84374240Y-97134322D01*
X84390869Y-97113685D01*
X85550336Y-95954218D01*
X85611657Y-95920735D01*
X85681349Y-95925719D01*
X85725696Y-95954220D01*
X85811985Y-96040509D01*
X85811986Y-96040510D01*
X85811988Y-96040511D01*
X85937511Y-96112982D01*
X85937512Y-96112982D01*
X85937515Y-96112984D01*
X86077525Y-96150500D01*
X86077528Y-96150500D01*
X86222472Y-96150500D01*
X86222475Y-96150500D01*
X86362485Y-96112984D01*
X86488015Y-96040509D01*
X86590509Y-95938015D01*
X86662984Y-95812485D01*
X86700500Y-95672475D01*
X86700500Y-95527525D01*
X86662984Y-95387515D01*
X86614690Y-95303868D01*
X86590511Y-95261988D01*
X86590506Y-95261982D01*
X86590205Y-95261681D01*
X86590032Y-95261364D01*
X86585562Y-95255539D01*
X86586470Y-95254841D01*
X86556720Y-95200358D01*
X86561704Y-95130666D01*
X86603576Y-95074733D01*
X86669040Y-95050316D01*
X86677886Y-95050000D01*
X87305289Y-95050000D01*
X87372328Y-95069685D01*
X87418083Y-95122489D01*
X87428027Y-95191647D01*
X87406605Y-95242501D01*
X87407355Y-95242934D01*
X87403910Y-95248899D01*
X87403662Y-95249490D01*
X87403289Y-95249974D01*
X87330817Y-95375499D01*
X87330816Y-95375503D01*
X87293300Y-95515513D01*
X87293300Y-95660463D01*
X87330555Y-95799500D01*
X87330817Y-95800476D01*
X87403288Y-95925999D01*
X87403290Y-95926001D01*
X87403291Y-95926003D01*
X87505785Y-96028497D01*
X87505786Y-96028498D01*
X87505788Y-96028499D01*
X87631311Y-96100970D01*
X87631312Y-96100970D01*
X87631315Y-96100972D01*
X87771325Y-96138488D01*
X87771328Y-96138488D01*
X87916272Y-96138488D01*
X87916275Y-96138488D01*
X88056285Y-96100972D01*
X88181815Y-96028497D01*
X88284309Y-95926003D01*
X88356784Y-95800473D01*
X88394300Y-95660463D01*
X88394300Y-95515513D01*
X88356784Y-95375503D01*
X88315425Y-95303868D01*
X88284311Y-95249976D01*
X88284310Y-95249974D01*
X88284309Y-95249973D01*
X88181815Y-95147479D01*
X88084654Y-95091383D01*
X88067341Y-95081387D01*
X88019126Y-95030819D01*
X88005904Y-94962212D01*
X88031872Y-94897348D01*
X88088786Y-94856820D01*
X88129342Y-94850000D01*
X90243316Y-94850000D01*
X90310355Y-94869685D01*
G37*
%TD.AperFunction*%
%TD*%
M02*
