%TF.GenerationSoftware,KiCad,Pcbnew,9.0.4*%
%TF.CreationDate,2025-10-08T21:43:02+01:00*%
%TF.ProjectId,DashcamPower,44617368-6361-46d5-906f-7765722e6b69,rev?*%
%TF.SameCoordinates,Original*%
%TF.FileFunction,Legend,Bot*%
%TF.FilePolarity,Positive*%
%FSLAX46Y46*%
G04 Gerber Fmt 4.6, Leading zero omitted, Abs format (unit mm)*
G04 Created by KiCad (PCBNEW 9.0.4) date 2025-10-08 21:43:02*
%MOMM*%
%LPD*%
G01*
G04 APERTURE LIST*
%ADD10C,0.150000*%
%ADD11C,0.120000*%
G04 APERTURE END LIST*
D10*
X91642857Y-94109580D02*
X91690476Y-94157200D01*
X91690476Y-94157200D02*
X91833333Y-94204819D01*
X91833333Y-94204819D02*
X91928571Y-94204819D01*
X91928571Y-94204819D02*
X92071428Y-94157200D01*
X92071428Y-94157200D02*
X92166666Y-94061961D01*
X92166666Y-94061961D02*
X92214285Y-93966723D01*
X92214285Y-93966723D02*
X92261904Y-93776247D01*
X92261904Y-93776247D02*
X92261904Y-93633390D01*
X92261904Y-93633390D02*
X92214285Y-93442914D01*
X92214285Y-93442914D02*
X92166666Y-93347676D01*
X92166666Y-93347676D02*
X92071428Y-93252438D01*
X92071428Y-93252438D02*
X91928571Y-93204819D01*
X91928571Y-93204819D02*
X91833333Y-93204819D01*
X91833333Y-93204819D02*
X91690476Y-93252438D01*
X91690476Y-93252438D02*
X91642857Y-93300057D01*
X90690476Y-94204819D02*
X91261904Y-94204819D01*
X90976190Y-94204819D02*
X90976190Y-93204819D01*
X90976190Y-93204819D02*
X91071428Y-93347676D01*
X91071428Y-93347676D02*
X91166666Y-93442914D01*
X91166666Y-93442914D02*
X91261904Y-93490533D01*
X90357142Y-93204819D02*
X89690476Y-93204819D01*
X89690476Y-93204819D02*
X90119047Y-94204819D01*
X100295238Y-97500057D02*
X100390476Y-97452438D01*
X100390476Y-97452438D02*
X100485714Y-97357200D01*
X100485714Y-97357200D02*
X100628571Y-97214342D01*
X100628571Y-97214342D02*
X100723809Y-97166723D01*
X100723809Y-97166723D02*
X100819047Y-97166723D01*
X100771428Y-97404819D02*
X100866666Y-97357200D01*
X100866666Y-97357200D02*
X100961904Y-97261961D01*
X100961904Y-97261961D02*
X101009523Y-97071485D01*
X101009523Y-97071485D02*
X101009523Y-96738152D01*
X101009523Y-96738152D02*
X100961904Y-96547676D01*
X100961904Y-96547676D02*
X100866666Y-96452438D01*
X100866666Y-96452438D02*
X100771428Y-96404819D01*
X100771428Y-96404819D02*
X100580952Y-96404819D01*
X100580952Y-96404819D02*
X100485714Y-96452438D01*
X100485714Y-96452438D02*
X100390476Y-96547676D01*
X100390476Y-96547676D02*
X100342857Y-96738152D01*
X100342857Y-96738152D02*
X100342857Y-97071485D01*
X100342857Y-97071485D02*
X100390476Y-97261961D01*
X100390476Y-97261961D02*
X100485714Y-97357200D01*
X100485714Y-97357200D02*
X100580952Y-97404819D01*
X100580952Y-97404819D02*
X100771428Y-97404819D01*
X100009523Y-96404819D02*
X99390476Y-96404819D01*
X99390476Y-96404819D02*
X99723809Y-96785771D01*
X99723809Y-96785771D02*
X99580952Y-96785771D01*
X99580952Y-96785771D02*
X99485714Y-96833390D01*
X99485714Y-96833390D02*
X99438095Y-96881009D01*
X99438095Y-96881009D02*
X99390476Y-96976247D01*
X99390476Y-96976247D02*
X99390476Y-97214342D01*
X99390476Y-97214342D02*
X99438095Y-97309580D01*
X99438095Y-97309580D02*
X99485714Y-97357200D01*
X99485714Y-97357200D02*
X99580952Y-97404819D01*
X99580952Y-97404819D02*
X99866666Y-97404819D01*
X99866666Y-97404819D02*
X99961904Y-97357200D01*
X99961904Y-97357200D02*
X100009523Y-97309580D01*
X93954819Y-99182142D02*
X93478628Y-98848809D01*
X93954819Y-98610714D02*
X92954819Y-98610714D01*
X92954819Y-98610714D02*
X92954819Y-98991666D01*
X92954819Y-98991666D02*
X93002438Y-99086904D01*
X93002438Y-99086904D02*
X93050057Y-99134523D01*
X93050057Y-99134523D02*
X93145295Y-99182142D01*
X93145295Y-99182142D02*
X93288152Y-99182142D01*
X93288152Y-99182142D02*
X93383390Y-99134523D01*
X93383390Y-99134523D02*
X93431009Y-99086904D01*
X93431009Y-99086904D02*
X93478628Y-98991666D01*
X93478628Y-98991666D02*
X93478628Y-98610714D01*
X93050057Y-99563095D02*
X93002438Y-99610714D01*
X93002438Y-99610714D02*
X92954819Y-99705952D01*
X92954819Y-99705952D02*
X92954819Y-99944047D01*
X92954819Y-99944047D02*
X93002438Y-100039285D01*
X93002438Y-100039285D02*
X93050057Y-100086904D01*
X93050057Y-100086904D02*
X93145295Y-100134523D01*
X93145295Y-100134523D02*
X93240533Y-100134523D01*
X93240533Y-100134523D02*
X93383390Y-100086904D01*
X93383390Y-100086904D02*
X93954819Y-99515476D01*
X93954819Y-99515476D02*
X93954819Y-100134523D01*
X93954819Y-101086904D02*
X93954819Y-100515476D01*
X93954819Y-100801190D02*
X92954819Y-100801190D01*
X92954819Y-100801190D02*
X93097676Y-100705952D01*
X93097676Y-100705952D02*
X93192914Y-100610714D01*
X93192914Y-100610714D02*
X93240533Y-100515476D01*
X85666666Y-103359580D02*
X85714285Y-103407200D01*
X85714285Y-103407200D02*
X85857142Y-103454819D01*
X85857142Y-103454819D02*
X85952380Y-103454819D01*
X85952380Y-103454819D02*
X86095237Y-103407200D01*
X86095237Y-103407200D02*
X86190475Y-103311961D01*
X86190475Y-103311961D02*
X86238094Y-103216723D01*
X86238094Y-103216723D02*
X86285713Y-103026247D01*
X86285713Y-103026247D02*
X86285713Y-102883390D01*
X86285713Y-102883390D02*
X86238094Y-102692914D01*
X86238094Y-102692914D02*
X86190475Y-102597676D01*
X86190475Y-102597676D02*
X86095237Y-102502438D01*
X86095237Y-102502438D02*
X85952380Y-102454819D01*
X85952380Y-102454819D02*
X85857142Y-102454819D01*
X85857142Y-102454819D02*
X85714285Y-102502438D01*
X85714285Y-102502438D02*
X85666666Y-102550057D01*
X85333332Y-102454819D02*
X84666666Y-102454819D01*
X84666666Y-102454819D02*
X85095237Y-103454819D01*
X79266666Y-100004819D02*
X79599999Y-99528628D01*
X79838094Y-100004819D02*
X79838094Y-99004819D01*
X79838094Y-99004819D02*
X79457142Y-99004819D01*
X79457142Y-99004819D02*
X79361904Y-99052438D01*
X79361904Y-99052438D02*
X79314285Y-99100057D01*
X79314285Y-99100057D02*
X79266666Y-99195295D01*
X79266666Y-99195295D02*
X79266666Y-99338152D01*
X79266666Y-99338152D02*
X79314285Y-99433390D01*
X79314285Y-99433390D02*
X79361904Y-99481009D01*
X79361904Y-99481009D02*
X79457142Y-99528628D01*
X79457142Y-99528628D02*
X79838094Y-99528628D01*
X78695237Y-99433390D02*
X78790475Y-99385771D01*
X78790475Y-99385771D02*
X78838094Y-99338152D01*
X78838094Y-99338152D02*
X78885713Y-99242914D01*
X78885713Y-99242914D02*
X78885713Y-99195295D01*
X78885713Y-99195295D02*
X78838094Y-99100057D01*
X78838094Y-99100057D02*
X78790475Y-99052438D01*
X78790475Y-99052438D02*
X78695237Y-99004819D01*
X78695237Y-99004819D02*
X78504761Y-99004819D01*
X78504761Y-99004819D02*
X78409523Y-99052438D01*
X78409523Y-99052438D02*
X78361904Y-99100057D01*
X78361904Y-99100057D02*
X78314285Y-99195295D01*
X78314285Y-99195295D02*
X78314285Y-99242914D01*
X78314285Y-99242914D02*
X78361904Y-99338152D01*
X78361904Y-99338152D02*
X78409523Y-99385771D01*
X78409523Y-99385771D02*
X78504761Y-99433390D01*
X78504761Y-99433390D02*
X78695237Y-99433390D01*
X78695237Y-99433390D02*
X78790475Y-99481009D01*
X78790475Y-99481009D02*
X78838094Y-99528628D01*
X78838094Y-99528628D02*
X78885713Y-99623866D01*
X78885713Y-99623866D02*
X78885713Y-99814342D01*
X78885713Y-99814342D02*
X78838094Y-99909580D01*
X78838094Y-99909580D02*
X78790475Y-99957200D01*
X78790475Y-99957200D02*
X78695237Y-100004819D01*
X78695237Y-100004819D02*
X78504761Y-100004819D01*
X78504761Y-100004819D02*
X78409523Y-99957200D01*
X78409523Y-99957200D02*
X78361904Y-99909580D01*
X78361904Y-99909580D02*
X78314285Y-99814342D01*
X78314285Y-99814342D02*
X78314285Y-99623866D01*
X78314285Y-99623866D02*
X78361904Y-99528628D01*
X78361904Y-99528628D02*
X78409523Y-99481009D01*
X78409523Y-99481009D02*
X78504761Y-99433390D01*
X79166666Y-101454819D02*
X79499999Y-100978628D01*
X79738094Y-101454819D02*
X79738094Y-100454819D01*
X79738094Y-100454819D02*
X79357142Y-100454819D01*
X79357142Y-100454819D02*
X79261904Y-100502438D01*
X79261904Y-100502438D02*
X79214285Y-100550057D01*
X79214285Y-100550057D02*
X79166666Y-100645295D01*
X79166666Y-100645295D02*
X79166666Y-100788152D01*
X79166666Y-100788152D02*
X79214285Y-100883390D01*
X79214285Y-100883390D02*
X79261904Y-100931009D01*
X79261904Y-100931009D02*
X79357142Y-100978628D01*
X79357142Y-100978628D02*
X79738094Y-100978628D01*
X78690475Y-101454819D02*
X78499999Y-101454819D01*
X78499999Y-101454819D02*
X78404761Y-101407200D01*
X78404761Y-101407200D02*
X78357142Y-101359580D01*
X78357142Y-101359580D02*
X78261904Y-101216723D01*
X78261904Y-101216723D02*
X78214285Y-101026247D01*
X78214285Y-101026247D02*
X78214285Y-100645295D01*
X78214285Y-100645295D02*
X78261904Y-100550057D01*
X78261904Y-100550057D02*
X78309523Y-100502438D01*
X78309523Y-100502438D02*
X78404761Y-100454819D01*
X78404761Y-100454819D02*
X78595237Y-100454819D01*
X78595237Y-100454819D02*
X78690475Y-100502438D01*
X78690475Y-100502438D02*
X78738094Y-100550057D01*
X78738094Y-100550057D02*
X78785713Y-100645295D01*
X78785713Y-100645295D02*
X78785713Y-100883390D01*
X78785713Y-100883390D02*
X78738094Y-100978628D01*
X78738094Y-100978628D02*
X78690475Y-101026247D01*
X78690475Y-101026247D02*
X78595237Y-101073866D01*
X78595237Y-101073866D02*
X78404761Y-101073866D01*
X78404761Y-101073866D02*
X78309523Y-101026247D01*
X78309523Y-101026247D02*
X78261904Y-100978628D01*
X78261904Y-100978628D02*
X78214285Y-100883390D01*
X108454819Y-102857142D02*
X107978628Y-102523809D01*
X108454819Y-102285714D02*
X107454819Y-102285714D01*
X107454819Y-102285714D02*
X107454819Y-102666666D01*
X107454819Y-102666666D02*
X107502438Y-102761904D01*
X107502438Y-102761904D02*
X107550057Y-102809523D01*
X107550057Y-102809523D02*
X107645295Y-102857142D01*
X107645295Y-102857142D02*
X107788152Y-102857142D01*
X107788152Y-102857142D02*
X107883390Y-102809523D01*
X107883390Y-102809523D02*
X107931009Y-102761904D01*
X107931009Y-102761904D02*
X107978628Y-102666666D01*
X107978628Y-102666666D02*
X107978628Y-102285714D01*
X108454819Y-103809523D02*
X108454819Y-103238095D01*
X108454819Y-103523809D02*
X107454819Y-103523809D01*
X107454819Y-103523809D02*
X107597676Y-103428571D01*
X107597676Y-103428571D02*
X107692914Y-103333333D01*
X107692914Y-103333333D02*
X107740533Y-103238095D01*
X107454819Y-104142857D02*
X107454819Y-104761904D01*
X107454819Y-104761904D02*
X107835771Y-104428571D01*
X107835771Y-104428571D02*
X107835771Y-104571428D01*
X107835771Y-104571428D02*
X107883390Y-104666666D01*
X107883390Y-104666666D02*
X107931009Y-104714285D01*
X107931009Y-104714285D02*
X108026247Y-104761904D01*
X108026247Y-104761904D02*
X108264342Y-104761904D01*
X108264342Y-104761904D02*
X108359580Y-104714285D01*
X108359580Y-104714285D02*
X108407200Y-104666666D01*
X108407200Y-104666666D02*
X108454819Y-104571428D01*
X108454819Y-104571428D02*
X108454819Y-104285714D01*
X108454819Y-104285714D02*
X108407200Y-104190476D01*
X108407200Y-104190476D02*
X108359580Y-104142857D01*
X95359580Y-99082142D02*
X95407200Y-99034523D01*
X95407200Y-99034523D02*
X95454819Y-98891666D01*
X95454819Y-98891666D02*
X95454819Y-98796428D01*
X95454819Y-98796428D02*
X95407200Y-98653571D01*
X95407200Y-98653571D02*
X95311961Y-98558333D01*
X95311961Y-98558333D02*
X95216723Y-98510714D01*
X95216723Y-98510714D02*
X95026247Y-98463095D01*
X95026247Y-98463095D02*
X94883390Y-98463095D01*
X94883390Y-98463095D02*
X94692914Y-98510714D01*
X94692914Y-98510714D02*
X94597676Y-98558333D01*
X94597676Y-98558333D02*
X94502438Y-98653571D01*
X94502438Y-98653571D02*
X94454819Y-98796428D01*
X94454819Y-98796428D02*
X94454819Y-98891666D01*
X94454819Y-98891666D02*
X94502438Y-99034523D01*
X94502438Y-99034523D02*
X94550057Y-99082142D01*
X95454819Y-100034523D02*
X95454819Y-99463095D01*
X95454819Y-99748809D02*
X94454819Y-99748809D01*
X94454819Y-99748809D02*
X94597676Y-99653571D01*
X94597676Y-99653571D02*
X94692914Y-99558333D01*
X94692914Y-99558333D02*
X94740533Y-99463095D01*
X94788152Y-100891666D02*
X95454819Y-100891666D01*
X94407200Y-100653571D02*
X95121485Y-100415476D01*
X95121485Y-100415476D02*
X95121485Y-101034523D01*
X114004819Y-100307142D02*
X113528628Y-99973809D01*
X114004819Y-99735714D02*
X113004819Y-99735714D01*
X113004819Y-99735714D02*
X113004819Y-100116666D01*
X113004819Y-100116666D02*
X113052438Y-100211904D01*
X113052438Y-100211904D02*
X113100057Y-100259523D01*
X113100057Y-100259523D02*
X113195295Y-100307142D01*
X113195295Y-100307142D02*
X113338152Y-100307142D01*
X113338152Y-100307142D02*
X113433390Y-100259523D01*
X113433390Y-100259523D02*
X113481009Y-100211904D01*
X113481009Y-100211904D02*
X113528628Y-100116666D01*
X113528628Y-100116666D02*
X113528628Y-99735714D01*
X114004819Y-101259523D02*
X114004819Y-100688095D01*
X114004819Y-100973809D02*
X113004819Y-100973809D01*
X113004819Y-100973809D02*
X113147676Y-100878571D01*
X113147676Y-100878571D02*
X113242914Y-100783333D01*
X113242914Y-100783333D02*
X113290533Y-100688095D01*
X114004819Y-102211904D02*
X114004819Y-101640476D01*
X114004819Y-101926190D02*
X113004819Y-101926190D01*
X113004819Y-101926190D02*
X113147676Y-101830952D01*
X113147676Y-101830952D02*
X113242914Y-101735714D01*
X113242914Y-101735714D02*
X113290533Y-101640476D01*
X96467857Y-96384819D02*
X96801190Y-95908628D01*
X97039285Y-96384819D02*
X97039285Y-95384819D01*
X97039285Y-95384819D02*
X96658333Y-95384819D01*
X96658333Y-95384819D02*
X96563095Y-95432438D01*
X96563095Y-95432438D02*
X96515476Y-95480057D01*
X96515476Y-95480057D02*
X96467857Y-95575295D01*
X96467857Y-95575295D02*
X96467857Y-95718152D01*
X96467857Y-95718152D02*
X96515476Y-95813390D01*
X96515476Y-95813390D02*
X96563095Y-95861009D01*
X96563095Y-95861009D02*
X96658333Y-95908628D01*
X96658333Y-95908628D02*
X97039285Y-95908628D01*
X95515476Y-96384819D02*
X96086904Y-96384819D01*
X95801190Y-96384819D02*
X95801190Y-95384819D01*
X95801190Y-95384819D02*
X95896428Y-95527676D01*
X95896428Y-95527676D02*
X95991666Y-95622914D01*
X95991666Y-95622914D02*
X96086904Y-95670533D01*
X95039285Y-96384819D02*
X94848809Y-96384819D01*
X94848809Y-96384819D02*
X94753571Y-96337200D01*
X94753571Y-96337200D02*
X94705952Y-96289580D01*
X94705952Y-96289580D02*
X94610714Y-96146723D01*
X94610714Y-96146723D02*
X94563095Y-95956247D01*
X94563095Y-95956247D02*
X94563095Y-95575295D01*
X94563095Y-95575295D02*
X94610714Y-95480057D01*
X94610714Y-95480057D02*
X94658333Y-95432438D01*
X94658333Y-95432438D02*
X94753571Y-95384819D01*
X94753571Y-95384819D02*
X94944047Y-95384819D01*
X94944047Y-95384819D02*
X95039285Y-95432438D01*
X95039285Y-95432438D02*
X95086904Y-95480057D01*
X95086904Y-95480057D02*
X95134523Y-95575295D01*
X95134523Y-95575295D02*
X95134523Y-95813390D01*
X95134523Y-95813390D02*
X95086904Y-95908628D01*
X95086904Y-95908628D02*
X95039285Y-95956247D01*
X95039285Y-95956247D02*
X94944047Y-96003866D01*
X94944047Y-96003866D02*
X94753571Y-96003866D01*
X94753571Y-96003866D02*
X94658333Y-95956247D01*
X94658333Y-95956247D02*
X94610714Y-95908628D01*
X94610714Y-95908628D02*
X94563095Y-95813390D01*
X102954819Y-101207142D02*
X102478628Y-100873809D01*
X102954819Y-100635714D02*
X101954819Y-100635714D01*
X101954819Y-100635714D02*
X101954819Y-101016666D01*
X101954819Y-101016666D02*
X102002438Y-101111904D01*
X102002438Y-101111904D02*
X102050057Y-101159523D01*
X102050057Y-101159523D02*
X102145295Y-101207142D01*
X102145295Y-101207142D02*
X102288152Y-101207142D01*
X102288152Y-101207142D02*
X102383390Y-101159523D01*
X102383390Y-101159523D02*
X102431009Y-101111904D01*
X102431009Y-101111904D02*
X102478628Y-101016666D01*
X102478628Y-101016666D02*
X102478628Y-100635714D01*
X102954819Y-102159523D02*
X102954819Y-101588095D01*
X102954819Y-101873809D02*
X101954819Y-101873809D01*
X101954819Y-101873809D02*
X102097676Y-101778571D01*
X102097676Y-101778571D02*
X102192914Y-101683333D01*
X102192914Y-101683333D02*
X102240533Y-101588095D01*
X102383390Y-102730952D02*
X102335771Y-102635714D01*
X102335771Y-102635714D02*
X102288152Y-102588095D01*
X102288152Y-102588095D02*
X102192914Y-102540476D01*
X102192914Y-102540476D02*
X102145295Y-102540476D01*
X102145295Y-102540476D02*
X102050057Y-102588095D01*
X102050057Y-102588095D02*
X102002438Y-102635714D01*
X102002438Y-102635714D02*
X101954819Y-102730952D01*
X101954819Y-102730952D02*
X101954819Y-102921428D01*
X101954819Y-102921428D02*
X102002438Y-103016666D01*
X102002438Y-103016666D02*
X102050057Y-103064285D01*
X102050057Y-103064285D02*
X102145295Y-103111904D01*
X102145295Y-103111904D02*
X102192914Y-103111904D01*
X102192914Y-103111904D02*
X102288152Y-103064285D01*
X102288152Y-103064285D02*
X102335771Y-103016666D01*
X102335771Y-103016666D02*
X102383390Y-102921428D01*
X102383390Y-102921428D02*
X102383390Y-102730952D01*
X102383390Y-102730952D02*
X102431009Y-102635714D01*
X102431009Y-102635714D02*
X102478628Y-102588095D01*
X102478628Y-102588095D02*
X102573866Y-102540476D01*
X102573866Y-102540476D02*
X102764342Y-102540476D01*
X102764342Y-102540476D02*
X102859580Y-102588095D01*
X102859580Y-102588095D02*
X102907200Y-102635714D01*
X102907200Y-102635714D02*
X102954819Y-102730952D01*
X102954819Y-102730952D02*
X102954819Y-102921428D01*
X102954819Y-102921428D02*
X102907200Y-103016666D01*
X102907200Y-103016666D02*
X102859580Y-103064285D01*
X102859580Y-103064285D02*
X102764342Y-103111904D01*
X102764342Y-103111904D02*
X102573866Y-103111904D01*
X102573866Y-103111904D02*
X102478628Y-103064285D01*
X102478628Y-103064285D02*
X102431009Y-103016666D01*
X102431009Y-103016666D02*
X102383390Y-102921428D01*
X105142857Y-105929580D02*
X105190476Y-105977200D01*
X105190476Y-105977200D02*
X105333333Y-106024819D01*
X105333333Y-106024819D02*
X105428571Y-106024819D01*
X105428571Y-106024819D02*
X105571428Y-105977200D01*
X105571428Y-105977200D02*
X105666666Y-105881961D01*
X105666666Y-105881961D02*
X105714285Y-105786723D01*
X105714285Y-105786723D02*
X105761904Y-105596247D01*
X105761904Y-105596247D02*
X105761904Y-105453390D01*
X105761904Y-105453390D02*
X105714285Y-105262914D01*
X105714285Y-105262914D02*
X105666666Y-105167676D01*
X105666666Y-105167676D02*
X105571428Y-105072438D01*
X105571428Y-105072438D02*
X105428571Y-105024819D01*
X105428571Y-105024819D02*
X105333333Y-105024819D01*
X105333333Y-105024819D02*
X105190476Y-105072438D01*
X105190476Y-105072438D02*
X105142857Y-105120057D01*
X104190476Y-106024819D02*
X104761904Y-106024819D01*
X104476190Y-106024819D02*
X104476190Y-105024819D01*
X104476190Y-105024819D02*
X104571428Y-105167676D01*
X104571428Y-105167676D02*
X104666666Y-105262914D01*
X104666666Y-105262914D02*
X104761904Y-105310533D01*
X103285714Y-105024819D02*
X103761904Y-105024819D01*
X103761904Y-105024819D02*
X103809523Y-105501009D01*
X103809523Y-105501009D02*
X103761904Y-105453390D01*
X103761904Y-105453390D02*
X103666666Y-105405771D01*
X103666666Y-105405771D02*
X103428571Y-105405771D01*
X103428571Y-105405771D02*
X103333333Y-105453390D01*
X103333333Y-105453390D02*
X103285714Y-105501009D01*
X103285714Y-105501009D02*
X103238095Y-105596247D01*
X103238095Y-105596247D02*
X103238095Y-105834342D01*
X103238095Y-105834342D02*
X103285714Y-105929580D01*
X103285714Y-105929580D02*
X103333333Y-105977200D01*
X103333333Y-105977200D02*
X103428571Y-106024819D01*
X103428571Y-106024819D02*
X103666666Y-106024819D01*
X103666666Y-106024819D02*
X103761904Y-105977200D01*
X103761904Y-105977200D02*
X103809523Y-105929580D01*
X91359580Y-102357142D02*
X91407200Y-102309523D01*
X91407200Y-102309523D02*
X91454819Y-102166666D01*
X91454819Y-102166666D02*
X91454819Y-102071428D01*
X91454819Y-102071428D02*
X91407200Y-101928571D01*
X91407200Y-101928571D02*
X91311961Y-101833333D01*
X91311961Y-101833333D02*
X91216723Y-101785714D01*
X91216723Y-101785714D02*
X91026247Y-101738095D01*
X91026247Y-101738095D02*
X90883390Y-101738095D01*
X90883390Y-101738095D02*
X90692914Y-101785714D01*
X90692914Y-101785714D02*
X90597676Y-101833333D01*
X90597676Y-101833333D02*
X90502438Y-101928571D01*
X90502438Y-101928571D02*
X90454819Y-102071428D01*
X90454819Y-102071428D02*
X90454819Y-102166666D01*
X90454819Y-102166666D02*
X90502438Y-102309523D01*
X90502438Y-102309523D02*
X90550057Y-102357142D01*
X91454819Y-103309523D02*
X91454819Y-102738095D01*
X91454819Y-103023809D02*
X90454819Y-103023809D01*
X90454819Y-103023809D02*
X90597676Y-102928571D01*
X90597676Y-102928571D02*
X90692914Y-102833333D01*
X90692914Y-102833333D02*
X90740533Y-102738095D01*
X90454819Y-103928571D02*
X90454819Y-104023809D01*
X90454819Y-104023809D02*
X90502438Y-104119047D01*
X90502438Y-104119047D02*
X90550057Y-104166666D01*
X90550057Y-104166666D02*
X90645295Y-104214285D01*
X90645295Y-104214285D02*
X90835771Y-104261904D01*
X90835771Y-104261904D02*
X91073866Y-104261904D01*
X91073866Y-104261904D02*
X91264342Y-104214285D01*
X91264342Y-104214285D02*
X91359580Y-104166666D01*
X91359580Y-104166666D02*
X91407200Y-104119047D01*
X91407200Y-104119047D02*
X91454819Y-104023809D01*
X91454819Y-104023809D02*
X91454819Y-103928571D01*
X91454819Y-103928571D02*
X91407200Y-103833333D01*
X91407200Y-103833333D02*
X91359580Y-103785714D01*
X91359580Y-103785714D02*
X91264342Y-103738095D01*
X91264342Y-103738095D02*
X91073866Y-103690476D01*
X91073866Y-103690476D02*
X90835771Y-103690476D01*
X90835771Y-103690476D02*
X90645295Y-103738095D01*
X90645295Y-103738095D02*
X90550057Y-103785714D01*
X90550057Y-103785714D02*
X90502438Y-103833333D01*
X90502438Y-103833333D02*
X90454819Y-103928571D01*
X89261904Y-94954819D02*
X89261904Y-95764342D01*
X89261904Y-95764342D02*
X89214285Y-95859580D01*
X89214285Y-95859580D02*
X89166666Y-95907200D01*
X89166666Y-95907200D02*
X89071428Y-95954819D01*
X89071428Y-95954819D02*
X88880952Y-95954819D01*
X88880952Y-95954819D02*
X88785714Y-95907200D01*
X88785714Y-95907200D02*
X88738095Y-95859580D01*
X88738095Y-95859580D02*
X88690476Y-95764342D01*
X88690476Y-95764342D02*
X88690476Y-94954819D01*
X87785714Y-95288152D02*
X87785714Y-95954819D01*
X88023809Y-94907200D02*
X88261904Y-95621485D01*
X88261904Y-95621485D02*
X87642857Y-95621485D01*
X85642857Y-105109580D02*
X85690476Y-105157200D01*
X85690476Y-105157200D02*
X85833333Y-105204819D01*
X85833333Y-105204819D02*
X85928571Y-105204819D01*
X85928571Y-105204819D02*
X86071428Y-105157200D01*
X86071428Y-105157200D02*
X86166666Y-105061961D01*
X86166666Y-105061961D02*
X86214285Y-104966723D01*
X86214285Y-104966723D02*
X86261904Y-104776247D01*
X86261904Y-104776247D02*
X86261904Y-104633390D01*
X86261904Y-104633390D02*
X86214285Y-104442914D01*
X86214285Y-104442914D02*
X86166666Y-104347676D01*
X86166666Y-104347676D02*
X86071428Y-104252438D01*
X86071428Y-104252438D02*
X85928571Y-104204819D01*
X85928571Y-104204819D02*
X85833333Y-104204819D01*
X85833333Y-104204819D02*
X85690476Y-104252438D01*
X85690476Y-104252438D02*
X85642857Y-104300057D01*
X84690476Y-105204819D02*
X85261904Y-105204819D01*
X84976190Y-105204819D02*
X84976190Y-104204819D01*
X84976190Y-104204819D02*
X85071428Y-104347676D01*
X85071428Y-104347676D02*
X85166666Y-104442914D01*
X85166666Y-104442914D02*
X85261904Y-104490533D01*
X83833333Y-104204819D02*
X84023809Y-104204819D01*
X84023809Y-104204819D02*
X84119047Y-104252438D01*
X84119047Y-104252438D02*
X84166666Y-104300057D01*
X84166666Y-104300057D02*
X84261904Y-104442914D01*
X84261904Y-104442914D02*
X84309523Y-104633390D01*
X84309523Y-104633390D02*
X84309523Y-105014342D01*
X84309523Y-105014342D02*
X84261904Y-105109580D01*
X84261904Y-105109580D02*
X84214285Y-105157200D01*
X84214285Y-105157200D02*
X84119047Y-105204819D01*
X84119047Y-105204819D02*
X83928571Y-105204819D01*
X83928571Y-105204819D02*
X83833333Y-105157200D01*
X83833333Y-105157200D02*
X83785714Y-105109580D01*
X83785714Y-105109580D02*
X83738095Y-105014342D01*
X83738095Y-105014342D02*
X83738095Y-104776247D01*
X83738095Y-104776247D02*
X83785714Y-104681009D01*
X83785714Y-104681009D02*
X83833333Y-104633390D01*
X83833333Y-104633390D02*
X83928571Y-104585771D01*
X83928571Y-104585771D02*
X84119047Y-104585771D01*
X84119047Y-104585771D02*
X84214285Y-104633390D01*
X84214285Y-104633390D02*
X84261904Y-104681009D01*
X84261904Y-104681009D02*
X84309523Y-104776247D01*
X69666666Y-103454819D02*
X69999999Y-102978628D01*
X70238094Y-103454819D02*
X70238094Y-102454819D01*
X70238094Y-102454819D02*
X69857142Y-102454819D01*
X69857142Y-102454819D02*
X69761904Y-102502438D01*
X69761904Y-102502438D02*
X69714285Y-102550057D01*
X69714285Y-102550057D02*
X69666666Y-102645295D01*
X69666666Y-102645295D02*
X69666666Y-102788152D01*
X69666666Y-102788152D02*
X69714285Y-102883390D01*
X69714285Y-102883390D02*
X69761904Y-102931009D01*
X69761904Y-102931009D02*
X69857142Y-102978628D01*
X69857142Y-102978628D02*
X70238094Y-102978628D01*
X68714285Y-103454819D02*
X69285713Y-103454819D01*
X68999999Y-103454819D02*
X68999999Y-102454819D01*
X68999999Y-102454819D02*
X69095237Y-102597676D01*
X69095237Y-102597676D02*
X69190475Y-102692914D01*
X69190475Y-102692914D02*
X69285713Y-102740533D01*
X76666666Y-103429580D02*
X76714285Y-103477200D01*
X76714285Y-103477200D02*
X76857142Y-103524819D01*
X76857142Y-103524819D02*
X76952380Y-103524819D01*
X76952380Y-103524819D02*
X77095237Y-103477200D01*
X77095237Y-103477200D02*
X77190475Y-103381961D01*
X77190475Y-103381961D02*
X77238094Y-103286723D01*
X77238094Y-103286723D02*
X77285713Y-103096247D01*
X77285713Y-103096247D02*
X77285713Y-102953390D01*
X77285713Y-102953390D02*
X77238094Y-102762914D01*
X77238094Y-102762914D02*
X77190475Y-102667676D01*
X77190475Y-102667676D02*
X77095237Y-102572438D01*
X77095237Y-102572438D02*
X76952380Y-102524819D01*
X76952380Y-102524819D02*
X76857142Y-102524819D01*
X76857142Y-102524819D02*
X76714285Y-102572438D01*
X76714285Y-102572438D02*
X76666666Y-102620057D01*
X76095237Y-102953390D02*
X76190475Y-102905771D01*
X76190475Y-102905771D02*
X76238094Y-102858152D01*
X76238094Y-102858152D02*
X76285713Y-102762914D01*
X76285713Y-102762914D02*
X76285713Y-102715295D01*
X76285713Y-102715295D02*
X76238094Y-102620057D01*
X76238094Y-102620057D02*
X76190475Y-102572438D01*
X76190475Y-102572438D02*
X76095237Y-102524819D01*
X76095237Y-102524819D02*
X75904761Y-102524819D01*
X75904761Y-102524819D02*
X75809523Y-102572438D01*
X75809523Y-102572438D02*
X75761904Y-102620057D01*
X75761904Y-102620057D02*
X75714285Y-102715295D01*
X75714285Y-102715295D02*
X75714285Y-102762914D01*
X75714285Y-102762914D02*
X75761904Y-102858152D01*
X75761904Y-102858152D02*
X75809523Y-102905771D01*
X75809523Y-102905771D02*
X75904761Y-102953390D01*
X75904761Y-102953390D02*
X76095237Y-102953390D01*
X76095237Y-102953390D02*
X76190475Y-103001009D01*
X76190475Y-103001009D02*
X76238094Y-103048628D01*
X76238094Y-103048628D02*
X76285713Y-103143866D01*
X76285713Y-103143866D02*
X76285713Y-103334342D01*
X76285713Y-103334342D02*
X76238094Y-103429580D01*
X76238094Y-103429580D02*
X76190475Y-103477200D01*
X76190475Y-103477200D02*
X76095237Y-103524819D01*
X76095237Y-103524819D02*
X75904761Y-103524819D01*
X75904761Y-103524819D02*
X75809523Y-103477200D01*
X75809523Y-103477200D02*
X75761904Y-103429580D01*
X75761904Y-103429580D02*
X75714285Y-103334342D01*
X75714285Y-103334342D02*
X75714285Y-103143866D01*
X75714285Y-103143866D02*
X75761904Y-103048628D01*
X75761904Y-103048628D02*
X75809523Y-103001009D01*
X75809523Y-103001009D02*
X75904761Y-102953390D01*
X105842857Y-101104819D02*
X106176190Y-100628628D01*
X106414285Y-101104819D02*
X106414285Y-100104819D01*
X106414285Y-100104819D02*
X106033333Y-100104819D01*
X106033333Y-100104819D02*
X105938095Y-100152438D01*
X105938095Y-100152438D02*
X105890476Y-100200057D01*
X105890476Y-100200057D02*
X105842857Y-100295295D01*
X105842857Y-100295295D02*
X105842857Y-100438152D01*
X105842857Y-100438152D02*
X105890476Y-100533390D01*
X105890476Y-100533390D02*
X105938095Y-100581009D01*
X105938095Y-100581009D02*
X106033333Y-100628628D01*
X106033333Y-100628628D02*
X106414285Y-100628628D01*
X104890476Y-101104819D02*
X105461904Y-101104819D01*
X105176190Y-101104819D02*
X105176190Y-100104819D01*
X105176190Y-100104819D02*
X105271428Y-100247676D01*
X105271428Y-100247676D02*
X105366666Y-100342914D01*
X105366666Y-100342914D02*
X105461904Y-100390533D01*
X104509523Y-100200057D02*
X104461904Y-100152438D01*
X104461904Y-100152438D02*
X104366666Y-100104819D01*
X104366666Y-100104819D02*
X104128571Y-100104819D01*
X104128571Y-100104819D02*
X104033333Y-100152438D01*
X104033333Y-100152438D02*
X103985714Y-100200057D01*
X103985714Y-100200057D02*
X103938095Y-100295295D01*
X103938095Y-100295295D02*
X103938095Y-100390533D01*
X103938095Y-100390533D02*
X103985714Y-100533390D01*
X103985714Y-100533390D02*
X104557142Y-101104819D01*
X104557142Y-101104819D02*
X103938095Y-101104819D01*
X105892857Y-96809580D02*
X105940476Y-96857200D01*
X105940476Y-96857200D02*
X106083333Y-96904819D01*
X106083333Y-96904819D02*
X106178571Y-96904819D01*
X106178571Y-96904819D02*
X106321428Y-96857200D01*
X106321428Y-96857200D02*
X106416666Y-96761961D01*
X106416666Y-96761961D02*
X106464285Y-96666723D01*
X106464285Y-96666723D02*
X106511904Y-96476247D01*
X106511904Y-96476247D02*
X106511904Y-96333390D01*
X106511904Y-96333390D02*
X106464285Y-96142914D01*
X106464285Y-96142914D02*
X106416666Y-96047676D01*
X106416666Y-96047676D02*
X106321428Y-95952438D01*
X106321428Y-95952438D02*
X106178571Y-95904819D01*
X106178571Y-95904819D02*
X106083333Y-95904819D01*
X106083333Y-95904819D02*
X105940476Y-95952438D01*
X105940476Y-95952438D02*
X105892857Y-96000057D01*
X104940476Y-96904819D02*
X105511904Y-96904819D01*
X105226190Y-96904819D02*
X105226190Y-95904819D01*
X105226190Y-95904819D02*
X105321428Y-96047676D01*
X105321428Y-96047676D02*
X105416666Y-96142914D01*
X105416666Y-96142914D02*
X105511904Y-96190533D01*
X104607142Y-95904819D02*
X103988095Y-95904819D01*
X103988095Y-95904819D02*
X104321428Y-96285771D01*
X104321428Y-96285771D02*
X104178571Y-96285771D01*
X104178571Y-96285771D02*
X104083333Y-96333390D01*
X104083333Y-96333390D02*
X104035714Y-96381009D01*
X104035714Y-96381009D02*
X103988095Y-96476247D01*
X103988095Y-96476247D02*
X103988095Y-96714342D01*
X103988095Y-96714342D02*
X104035714Y-96809580D01*
X104035714Y-96809580D02*
X104083333Y-96857200D01*
X104083333Y-96857200D02*
X104178571Y-96904819D01*
X104178571Y-96904819D02*
X104464285Y-96904819D01*
X104464285Y-96904819D02*
X104559523Y-96857200D01*
X104559523Y-96857200D02*
X104607142Y-96809580D01*
X76716666Y-96704819D02*
X77049999Y-96228628D01*
X77288094Y-96704819D02*
X77288094Y-95704819D01*
X77288094Y-95704819D02*
X76907142Y-95704819D01*
X76907142Y-95704819D02*
X76811904Y-95752438D01*
X76811904Y-95752438D02*
X76764285Y-95800057D01*
X76764285Y-95800057D02*
X76716666Y-95895295D01*
X76716666Y-95895295D02*
X76716666Y-96038152D01*
X76716666Y-96038152D02*
X76764285Y-96133390D01*
X76764285Y-96133390D02*
X76811904Y-96181009D01*
X76811904Y-96181009D02*
X76907142Y-96228628D01*
X76907142Y-96228628D02*
X77288094Y-96228628D01*
X76335713Y-95800057D02*
X76288094Y-95752438D01*
X76288094Y-95752438D02*
X76192856Y-95704819D01*
X76192856Y-95704819D02*
X75954761Y-95704819D01*
X75954761Y-95704819D02*
X75859523Y-95752438D01*
X75859523Y-95752438D02*
X75811904Y-95800057D01*
X75811904Y-95800057D02*
X75764285Y-95895295D01*
X75764285Y-95895295D02*
X75764285Y-95990533D01*
X75764285Y-95990533D02*
X75811904Y-96133390D01*
X75811904Y-96133390D02*
X76383332Y-96704819D01*
X76383332Y-96704819D02*
X75764285Y-96704819D01*
D11*
%TO.C,C17*%
X90834420Y-95960000D02*
X91115580Y-95960000D01*
X90834420Y-94940000D02*
X91115580Y-94940000D01*
%TO.C,Q3*%
X99937500Y-92890000D02*
X99287500Y-92890000D01*
X99937500Y-92890000D02*
X100587500Y-92890000D01*
X99937500Y-96010000D02*
X99287500Y-96010000D01*
X99937500Y-96010000D02*
X100587500Y-96010000D01*
X99015000Y-96290000D02*
X98535000Y-96290000D01*
X98775000Y-95960000D01*
X99015000Y-96290000D01*
G36*
X99015000Y-96290000D02*
G01*
X98535000Y-96290000D01*
X98775000Y-95960000D01*
X99015000Y-96290000D01*
G37*
%TO.C,R21*%
X92977500Y-103237258D02*
X92977500Y-102762742D01*
X94022500Y-103237258D02*
X94022500Y-102762742D01*
%TO.C,C7*%
X87859420Y-102490000D02*
X88140580Y-102490000D01*
X87859420Y-103510000D02*
X88140580Y-103510000D01*
%TO.C,R8*%
X76262742Y-98977500D02*
X76737258Y-98977500D01*
X76262742Y-100022500D02*
X76737258Y-100022500D01*
%TO.C,R9*%
X76737258Y-100477500D02*
X76262742Y-100477500D01*
X76737258Y-101522500D02*
X76262742Y-101522500D01*
%TO.C,R13*%
X107477500Y-100262742D02*
X107477500Y-100737258D01*
X108522500Y-100262742D02*
X108522500Y-100737258D01*
%TO.C,C14*%
X94490000Y-102859420D02*
X94490000Y-103140580D01*
X95510000Y-102859420D02*
X95510000Y-103140580D01*
%TO.C,R11*%
X112927500Y-97712742D02*
X112927500Y-98187258D01*
X113972500Y-97712742D02*
X113972500Y-98187258D01*
%TO.C,R19*%
X95587742Y-93977500D02*
X96062258Y-93977500D01*
X95587742Y-95022500D02*
X96062258Y-95022500D01*
%TO.C,R18*%
X101977500Y-99062258D02*
X101977500Y-98587742D01*
X103022500Y-99062258D02*
X103022500Y-98587742D01*
%TO.C,C15*%
X104640580Y-106490000D02*
X104359420Y-106490000D01*
X104640580Y-107510000D02*
X104359420Y-107510000D01*
%TO.C,C10*%
X90490000Y-100140580D02*
X90490000Y-99859420D01*
X91510000Y-100140580D02*
X91510000Y-99859420D01*
%TO.C,U4*%
X82240000Y-96240000D02*
X82240000Y-96510000D01*
X82240000Y-101760000D02*
X82240000Y-101490000D01*
X85000000Y-96240000D02*
X82240000Y-96240000D01*
X85000000Y-96240000D02*
X87760000Y-96240000D01*
X85000000Y-101760000D02*
X82240000Y-101760000D01*
X85000000Y-101760000D02*
X87760000Y-101760000D01*
X87760000Y-96240000D02*
X87760000Y-96510000D01*
X87760000Y-101760000D02*
X87760000Y-101490000D01*
X81715000Y-101820000D02*
X81235000Y-101820000D01*
X81475000Y-101490000D01*
X81715000Y-101820000D01*
G36*
X81715000Y-101820000D02*
G01*
X81235000Y-101820000D01*
X81475000Y-101490000D01*
X81715000Y-101820000D01*
G37*
%TO.C,C16*%
X87859420Y-104090000D02*
X88140580Y-104090000D01*
X87859420Y-105110000D02*
X88140580Y-105110000D01*
%TO.C,R1*%
X69737258Y-100977500D02*
X69262742Y-100977500D01*
X69737258Y-102022500D02*
X69262742Y-102022500D01*
%TO.C,C8*%
X76640580Y-103990000D02*
X76359420Y-103990000D01*
X76640580Y-105010000D02*
X76359420Y-105010000D01*
%TO.C,R12*%
X104962742Y-101627500D02*
X105437258Y-101627500D01*
X104962742Y-102672500D02*
X105437258Y-102672500D01*
%TO.C,C13*%
X105084420Y-97490000D02*
X105365580Y-97490000D01*
X105084420Y-98510000D02*
X105365580Y-98510000D01*
%TO.C,R2*%
X76262742Y-97177500D02*
X76737258Y-97177500D01*
X76262742Y-98222500D02*
X76737258Y-98222500D01*
%TD*%
M02*
