%TF.GenerationSoftware,KiCad,Pcbnew,9.0.4*%
%TF.CreationDate,2025-10-08T21:43:02+01:00*%
%TF.ProjectId,DashcamPower,44617368-6361-46d5-906f-7765722e6b69,rev?*%
%TF.SameCoordinates,Original*%
%TF.FileFunction,Copper,L6,Bot*%
%TF.FilePolarity,Positive*%
%FSLAX46Y46*%
G04 Gerber Fmt 4.6, Leading zero omitted, Abs format (unit mm)*
G04 Created by KiCad (PCBNEW 9.0.4) date 2025-10-08 21:43:02*
%MOMM*%
%LPD*%
G01*
G04 APERTURE LIST*
G04 Aperture macros list*
%AMRoundRect*
0 Rectangle with rounded corners*
0 $1 Rounding radius*
0 $2 $3 $4 $5 $6 $7 $8 $9 X,Y pos of 4 corners*
0 Add a 4 corners polygon primitive as box body*
4,1,4,$2,$3,$4,$5,$6,$7,$8,$9,$2,$3,0*
0 Add four circle primitives for the rounded corners*
1,1,$1+$1,$2,$3*
1,1,$1+$1,$4,$5*
1,1,$1+$1,$6,$7*
1,1,$1+$1,$8,$9*
0 Add four rect primitives between the rounded corners*
20,1,$1+$1,$2,$3,$4,$5,0*
20,1,$1+$1,$4,$5,$6,$7,0*
20,1,$1+$1,$6,$7,$8,$9,0*
20,1,$1+$1,$8,$9,$2,$3,0*%
G04 Aperture macros list end*
%TA.AperFunction,SMDPad,CuDef*%
%ADD10RoundRect,0.225000X-0.225000X-0.250000X0.225000X-0.250000X0.225000X0.250000X-0.225000X0.250000X0*%
%TD*%
%TA.AperFunction,ComponentPad*%
%ADD11C,0.700000*%
%TD*%
%TA.AperFunction,ComponentPad*%
%ADD12O,2.400000X0.900000*%
%TD*%
%TA.AperFunction,ComponentPad*%
%ADD13O,1.700000X0.900000*%
%TD*%
%TA.AperFunction,ComponentPad*%
%ADD14R,1.700000X1.700000*%
%TD*%
%TA.AperFunction,ComponentPad*%
%ADD15C,1.700000*%
%TD*%
%TA.AperFunction,ComponentPad*%
%ADD16RoundRect,0.250000X0.550000X0.550000X-0.550000X0.550000X-0.550000X-0.550000X0.550000X-0.550000X0*%
%TD*%
%TA.AperFunction,ComponentPad*%
%ADD17C,1.600000*%
%TD*%
%TA.AperFunction,SMDPad,CuDef*%
%ADD18RoundRect,0.150000X-0.587500X-0.150000X0.587500X-0.150000X0.587500X0.150000X-0.587500X0.150000X0*%
%TD*%
%TA.AperFunction,SMDPad,CuDef*%
%ADD19RoundRect,0.200000X0.275000X-0.200000X0.275000X0.200000X-0.275000X0.200000X-0.275000X-0.200000X0*%
%TD*%
%TA.AperFunction,SMDPad,CuDef*%
%ADD20RoundRect,0.200000X-0.200000X-0.275000X0.200000X-0.275000X0.200000X0.275000X-0.200000X0.275000X0*%
%TD*%
%TA.AperFunction,SMDPad,CuDef*%
%ADD21RoundRect,0.200000X0.200000X0.275000X-0.200000X0.275000X-0.200000X-0.275000X0.200000X-0.275000X0*%
%TD*%
%TA.AperFunction,SMDPad,CuDef*%
%ADD22RoundRect,0.200000X-0.275000X0.200000X-0.275000X-0.200000X0.275000X-0.200000X0.275000X0.200000X0*%
%TD*%
%TA.AperFunction,SMDPad,CuDef*%
%ADD23RoundRect,0.225000X-0.250000X0.225000X-0.250000X-0.225000X0.250000X-0.225000X0.250000X0.225000X0*%
%TD*%
%TA.AperFunction,SMDPad,CuDef*%
%ADD24RoundRect,0.225000X0.225000X0.250000X-0.225000X0.250000X-0.225000X-0.250000X0.225000X-0.250000X0*%
%TD*%
%TA.AperFunction,SMDPad,CuDef*%
%ADD25RoundRect,0.225000X0.250000X-0.225000X0.250000X0.225000X-0.250000X0.225000X-0.250000X-0.225000X0*%
%TD*%
%TA.AperFunction,SMDPad,CuDef*%
%ADD26RoundRect,0.162500X-0.650000X-0.162500X0.650000X-0.162500X0.650000X0.162500X-0.650000X0.162500X0*%
%TD*%
%TA.AperFunction,ViaPad*%
%ADD27C,0.600000*%
%TD*%
%TA.AperFunction,Conductor*%
%ADD28C,0.152400*%
%TD*%
%TA.AperFunction,Conductor*%
%ADD29C,0.100000*%
%TD*%
%TA.AperFunction,Conductor*%
%ADD30C,0.170000*%
%TD*%
%TA.AperFunction,Conductor*%
%ADD31C,0.200000*%
%TD*%
%TA.AperFunction,Conductor*%
%ADD32C,0.350000*%
%TD*%
%TA.AperFunction,Conductor*%
%ADD33C,0.750000*%
%TD*%
G04 APERTURE END LIST*
D10*
%TO.P,C17,1*%
%TO.N,/VCORE*%
X90200000Y-95450000D03*
%TO.P,C17,2*%
%TO.N,GND*%
X91750000Y-95450000D03*
%TD*%
D11*
%TO.P,J2,A1,GND*%
%TO.N,GND*%
X109650000Y-102975000D03*
%TO.P,J2,A4,VBUS*%
%TO.N,/USB_VOUT*%
X109650000Y-102125000D03*
%TO.P,J2,A5,CC1*%
%TO.N,Net-(J2-CC1)*%
X109650000Y-101275000D03*
%TO.P,J2,A6,D+*%
%TO.N,Net-(J2-D+-PadA6)*%
X109650000Y-100425000D03*
%TO.P,J2,A7,D-*%
%TO.N,Net-(J2-D--PadA7)*%
X109650000Y-99575000D03*
%TO.P,J2,A8,SBU1*%
%TO.N,unconnected-(J2-SBU1-PadA8)*%
X109650000Y-98725000D03*
%TO.P,J2,A9,VBUS*%
%TO.N,/USB_VOUT*%
X109650000Y-97875000D03*
%TO.P,J2,A12,GND*%
%TO.N,GND*%
X109650000Y-97025000D03*
%TO.P,J2,B1,GND*%
X111000000Y-97025000D03*
%TO.P,J2,B4,VBUS*%
%TO.N,/USB_VOUT*%
X111000000Y-97875000D03*
%TO.P,J2,B5,CC2*%
%TO.N,Net-(J2-CC2)*%
X111000000Y-98725000D03*
%TO.P,J2,B6,D+*%
%TO.N,Net-(J2-D+-PadA6)*%
X111000000Y-99575000D03*
%TO.P,J2,B7,D-*%
%TO.N,Net-(J2-D--PadA7)*%
X111000000Y-100425000D03*
%TO.P,J2,B8,SBU2*%
%TO.N,unconnected-(J2-SBU2-PadB8)*%
X111000000Y-101275000D03*
%TO.P,J2,B9,VBUS*%
%TO.N,/USB_VOUT*%
X111000000Y-102125000D03*
%TO.P,J2,B12,GND*%
%TO.N,GND*%
X111000000Y-102975000D03*
D12*
%TO.P,J2,S1,SHIELD*%
X110630000Y-104325000D03*
D13*
X114010000Y-104325000D03*
D12*
X110630000Y-95675000D03*
D13*
X114010000Y-95675000D03*
%TD*%
D14*
%TO.P,J4,1,Pin_1*%
%TO.N,/SWD*%
X82540000Y-107500000D03*
D15*
%TO.P,J4,2,Pin_2*%
%TO.N,GND*%
X80000000Y-107500000D03*
%TO.P,J4,3,Pin_3*%
%TO.N,/SWC*%
X77460000Y-107500000D03*
%TO.P,J4,4,Pin_4*%
%TO.N,/UTX*%
X74920000Y-107500000D03*
%TO.P,J4,5,Pin_5*%
%TO.N,/URX*%
X72380000Y-107500000D03*
%TO.P,J4,6,Pin_6*%
%TO.N,+3.3V*%
X69840000Y-107500000D03*
%TD*%
D16*
%TO.P,LS1,1,1*%
%TO.N,Net-(LS1-Pad1)*%
X108100000Y-93500000D03*
D17*
%TO.P,LS1,2,2*%
%TO.N,Net-(Q3-C)*%
X104500000Y-93500000D03*
%TD*%
D11*
%TO.P,J1,A1,GND*%
%TO.N,GND*%
X73525000Y-97200000D03*
%TO.P,J1,A4,VBUS*%
%TO.N,+5V*%
X73525000Y-98050000D03*
%TO.P,J1,A5,CC1*%
%TO.N,Net-(J1-CC1)*%
X73525000Y-98900000D03*
%TO.P,J1,A6,D+*%
%TO.N,/USB_D_P*%
X73525000Y-99750000D03*
%TO.P,J1,A7,D-*%
%TO.N,/USB_D_N*%
X73525000Y-100600000D03*
%TO.P,J1,A8,SBU1*%
%TO.N,unconnected-(J1-SBU1-PadA8)*%
X73525000Y-101450000D03*
%TO.P,J1,A9,VBUS*%
%TO.N,+5V*%
X73525000Y-102300000D03*
%TO.P,J1,A12,GND*%
%TO.N,GND*%
X73525000Y-103150000D03*
%TO.P,J1,B1,GND*%
X72175000Y-103150000D03*
%TO.P,J1,B4,VBUS*%
%TO.N,+5V*%
X72175000Y-102300000D03*
%TO.P,J1,B5,CC2*%
%TO.N,Net-(J1-CC2)*%
X72175000Y-101450000D03*
%TO.P,J1,B6,D+*%
%TO.N,/USB_D_P*%
X72175000Y-100600000D03*
%TO.P,J1,B7,D-*%
%TO.N,/USB_D_N*%
X72175000Y-99750000D03*
%TO.P,J1,B8,SBU2*%
%TO.N,unconnected-(J1-SBU2-PadB8)*%
X72175000Y-98900000D03*
%TO.P,J1,B9,VBUS*%
%TO.N,+5V*%
X72175000Y-98050000D03*
%TO.P,J1,B12,GND*%
%TO.N,GND*%
X72175000Y-97200000D03*
D12*
%TO.P,J1,S1,SHIELD*%
X72545000Y-95850000D03*
D13*
X69165000Y-95850000D03*
D12*
X72545000Y-104500000D03*
D13*
X69165000Y-104500000D03*
%TD*%
D18*
%TO.P,Q3,1,B*%
%TO.N,Net-(Q3-B)*%
X99000000Y-95400000D03*
%TO.P,Q3,2,E*%
%TO.N,GND*%
X99000000Y-93500000D03*
%TO.P,Q3,3,C*%
%TO.N,Net-(Q3-C)*%
X100875000Y-94450000D03*
%TD*%
D19*
%TO.P,R21,1*%
%TO.N,+3.3V*%
X93500000Y-103825000D03*
%TO.P,R21,2*%
%TO.N,Net-(U3-RUN)*%
X93500000Y-102175000D03*
%TD*%
D10*
%TO.P,C7,1*%
%TO.N,+3.3V*%
X87225000Y-103000000D03*
%TO.P,C7,2*%
%TO.N,GND*%
X88775000Y-103000000D03*
%TD*%
D20*
%TO.P,R8,1*%
%TO.N,/USB_D_P*%
X75675000Y-99500000D03*
%TO.P,R8,2*%
%TO.N,/USB_RES_D_N*%
X77325000Y-99500000D03*
%TD*%
D21*
%TO.P,R9,1*%
%TO.N,/USB_RES_D_P*%
X77325000Y-101000000D03*
%TO.P,R9,2*%
%TO.N,/USB_D_N*%
X75675000Y-101000000D03*
%TD*%
D22*
%TO.P,R13,1*%
%TO.N,Net-(J2-D--PadA7)*%
X108000000Y-99675000D03*
%TO.P,R13,2*%
%TO.N,Net-(J2-D+-PadA6)*%
X108000000Y-101325000D03*
%TD*%
D23*
%TO.P,C14,1*%
%TO.N,Net-(U3-RUN)*%
X95000000Y-102225000D03*
%TO.P,C14,2*%
%TO.N,GND*%
X95000000Y-103775000D03*
%TD*%
D22*
%TO.P,R11,1*%
%TO.N,/USB_VOUT*%
X113450000Y-97125000D03*
%TO.P,R11,2*%
%TO.N,Net-(J2-CC2)*%
X113450000Y-98775000D03*
%TD*%
D20*
%TO.P,R19,1*%
%TO.N,/BUZZER*%
X95000000Y-94500000D03*
%TO.P,R19,2*%
%TO.N,Net-(Q3-B)*%
X96650000Y-94500000D03*
%TD*%
D19*
%TO.P,R18,1*%
%TO.N,Net-(R17-Pad2)*%
X102500000Y-99650000D03*
%TO.P,R18,2*%
%TO.N,/BTN*%
X102500000Y-98000000D03*
%TD*%
D24*
%TO.P,C15,1*%
%TO.N,/USB_VOUT*%
X105275000Y-107000000D03*
%TO.P,C15,2*%
%TO.N,Net-(Q1-G)*%
X103725000Y-107000000D03*
%TD*%
D25*
%TO.P,C10,1*%
%TO.N,+3.3V*%
X91000000Y-100775000D03*
%TO.P,C10,2*%
%TO.N,GND*%
X91000000Y-99225000D03*
%TD*%
D26*
%TO.P,U4,1,~{CS}*%
%TO.N,/QSPI_SS*%
X81412500Y-100905000D03*
%TO.P,U4,2,DO/IO_{1}*%
%TO.N,/QSPI_SD1*%
X81412500Y-99635000D03*
%TO.P,U4,3,~{WP}/IO_{2}*%
%TO.N,/QSPI_SD2*%
X81412500Y-98365000D03*
%TO.P,U4,4,GND*%
%TO.N,GND*%
X81412500Y-97095000D03*
%TO.P,U4,5,DI/IO_{0}*%
%TO.N,/QSPI_SD0*%
X88587500Y-97095000D03*
%TO.P,U4,6,CLK*%
%TO.N,/QSPI_CLK*%
X88587500Y-98365000D03*
%TO.P,U4,7,~{HOLD}/~{RESET}/IO_{3}*%
%TO.N,/QSPI_SD3*%
X88587500Y-99635000D03*
%TO.P,U4,8,VCC*%
%TO.N,+3.3V*%
X88587500Y-100905000D03*
%TD*%
D10*
%TO.P,C16,1*%
%TO.N,/VCORE*%
X87225000Y-104600000D03*
%TO.P,C16,2*%
%TO.N,GND*%
X88775000Y-104600000D03*
%TD*%
D21*
%TO.P,R1,1*%
%TO.N,Net-(J1-CC2)*%
X70325000Y-101500000D03*
%TO.P,R1,2*%
%TO.N,GND*%
X68675000Y-101500000D03*
%TD*%
D24*
%TO.P,C8,1*%
%TO.N,+3.3V*%
X77275000Y-104500000D03*
%TO.P,C8,2*%
%TO.N,GND*%
X75725000Y-104500000D03*
%TD*%
D20*
%TO.P,R12,1*%
%TO.N,/USB_VOUT*%
X104375000Y-102150000D03*
%TO.P,R12,2*%
%TO.N,Net-(J2-CC1)*%
X106025000Y-102150000D03*
%TD*%
D10*
%TO.P,C13,1*%
%TO.N,/BTN*%
X104450000Y-98000000D03*
%TO.P,C13,2*%
%TO.N,GND*%
X106000000Y-98000000D03*
%TD*%
D20*
%TO.P,R2,1*%
%TO.N,Net-(J1-CC1)*%
X75675000Y-97700000D03*
%TO.P,R2,2*%
%TO.N,GND*%
X77325000Y-97700000D03*
%TD*%
D27*
%TO.N,GND*%
X92250000Y-96350000D03*
%TO.N,+5V*%
X75000000Y-93500000D03*
X103450000Y-107950000D03*
X114200000Y-93500000D03*
X105749997Y-107950000D03*
X73950000Y-94800000D03*
X76999000Y-94450000D03*
X101600000Y-107850000D03*
%TO.N,GND*%
X73000000Y-93500000D03*
X88150122Y-105975000D03*
X82750000Y-95800000D03*
X91250000Y-94000000D03*
X78500000Y-105100000D03*
X86450000Y-101000000D03*
X78350000Y-97700000D03*
X87000000Y-93900000D03*
X97650000Y-93400000D03*
X97950000Y-107700000D03*
X89888167Y-102492598D03*
X107000000Y-102650000D03*
X86500000Y-100000000D03*
X106900000Y-98000000D03*
X93500000Y-93000000D03*
X114550000Y-106500000D03*
X68300000Y-100050000D03*
X93450000Y-108250000D03*
X89750000Y-108500000D03*
X82800000Y-97100000D03*
X85000000Y-93900000D03*
X75150000Y-95650000D03*
X87411725Y-98888275D03*
X108450000Y-96000000D03*
X89399998Y-106900000D03*
X86950000Y-105750000D03*
X80150000Y-102950000D03*
X96150000Y-103800000D03*
X71100000Y-93500000D03*
X75800000Y-103400000D03*
X90000000Y-99250000D03*
%TO.N,+3.3V*%
X93500000Y-104850000D03*
X87843800Y-95587988D03*
X91500000Y-96700000D03*
X85050000Y-101000000D03*
X78500000Y-94400000D03*
X89900000Y-100905000D03*
X79400000Y-104900000D03*
X79950000Y-99950000D03*
X80300000Y-97850000D03*
X77800000Y-103500000D03*
X100137500Y-93500748D03*
X78800000Y-95637500D03*
X90850000Y-96300000D03*
X85013075Y-95641883D03*
X87200000Y-102200000D03*
%TO.N,/VCORE*%
X88000000Y-102250000D03*
X86950000Y-95650000D03*
X89256200Y-95500000D03*
%TO.N,/BTN*%
X101250000Y-98000000D03*
%TO.N,Net-(U3-RUN)*%
X92200000Y-103400000D03*
%TO.N,Net-(D1-K)*%
X93500000Y-97550000D03*
X93500000Y-95000000D03*
%TO.N,Net-(D2-K)*%
X96450000Y-96800000D03*
X95538275Y-97711725D03*
%TO.N,/SWC*%
X89223608Y-102047215D03*
%TO.N,/URX*%
X91975000Y-100776200D03*
%TO.N,/UTX*%
X92002616Y-101575726D03*
%TO.N,/SWD*%
X89100000Y-105799998D03*
%TO.N,Net-(Q1-G)*%
X106100000Y-106050000D03*
%TO.N,/USB_RES_D_N*%
X88718301Y-93145685D03*
%TO.N,/USB_RES_D_P*%
X89470701Y-93145685D03*
%TO.N,Net-(R17-Pad2)*%
X103500000Y-100650000D03*
%TO.N,/BUZZER*%
X85600000Y-102250000D03*
%TO.N,/QSPI_SD1*%
X85253400Y-99350000D03*
%TO.N,/QSPI_SD2*%
X85850000Y-97850000D03*
%TO.N,/QSPI_CLK*%
X89611196Y-97815792D03*
%TO.N,/QSPI_SS*%
X85100000Y-100200000D03*
%TO.N,/USB_VOUT*%
X110550000Y-106850000D03*
X103800000Y-104000000D03*
X107950000Y-107000000D03*
X106450000Y-107950000D03*
%TO.N,/QSPI_SD0*%
X87081022Y-97999998D03*
%TO.N,/QSPI_SD3*%
X86150000Y-95600000D03*
%TD*%
D28*
%TO.N,GND*%
X88150122Y-105224878D02*
X88775000Y-104600000D01*
X88150122Y-105975000D02*
X88150122Y-105224878D01*
%TO.N,/QSPI_SD1*%
X84968400Y-99635000D02*
X81412500Y-99635000D01*
D29*
%TO.N,/UTX*%
X84966744Y-108600000D02*
X76020000Y-108600000D01*
X76020000Y-108600000D02*
X74920000Y-107500000D01*
X85916744Y-107650000D02*
X84966744Y-108600000D01*
X89429230Y-107650000D02*
X85916744Y-107650000D01*
X91139615Y-102438727D02*
X91139615Y-105939615D01*
X91139615Y-105939615D02*
X89429230Y-107650000D01*
X92002616Y-101575726D02*
X91139615Y-102438727D01*
%TO.N,/URX*%
X85050000Y-108801000D02*
X73681000Y-108801000D01*
X73681000Y-108801000D02*
X72380000Y-107500000D01*
X86000000Y-107851000D02*
X85050000Y-108801000D01*
X86000000Y-107851000D02*
X89512487Y-107851000D01*
X92453616Y-101254816D02*
X91975000Y-100776200D01*
X92453616Y-101762537D02*
X92453616Y-101254816D01*
%TO.N,Net-(J2-CC1)*%
X106025000Y-102150000D02*
X108775000Y-102150000D01*
X108775000Y-102150000D02*
X109650000Y-101275000D01*
D30*
%TO.N,/USB_RES_D_N*%
X88932301Y-93359685D02*
X88718301Y-93145685D01*
X88932302Y-93788314D02*
X88932301Y-93359685D01*
X88082816Y-94637800D02*
X88932302Y-93788314D01*
X80682816Y-94637800D02*
X88082816Y-94637800D01*
X79200000Y-96120616D02*
X80682816Y-94637800D01*
X79200000Y-99270616D02*
X79200000Y-96120616D01*
X77400000Y-99500000D02*
X77987800Y-100087800D01*
X77325000Y-99500000D02*
X77400000Y-99500000D01*
X77987800Y-100087800D02*
X78382816Y-100087800D01*
X78382816Y-100087800D02*
X79200000Y-99270616D01*
%TO.N,/USB_RES_D_P*%
X89256701Y-93359685D02*
X89470701Y-93145685D01*
X89256701Y-93368698D02*
X89256701Y-93359685D01*
X89255702Y-93369697D02*
X89256701Y-93368698D01*
X89255702Y-93922270D02*
X89255702Y-93369697D01*
X88216773Y-94961200D02*
X89255702Y-93922270D01*
X79523400Y-99404573D02*
X79523400Y-96254572D01*
X79523400Y-96254572D02*
X80816772Y-94961200D01*
X79061200Y-99866772D02*
X79523400Y-99404573D01*
X78516773Y-100411200D02*
X79061200Y-99866772D01*
X77988800Y-100411200D02*
X78516773Y-100411200D01*
X77400000Y-101000000D02*
X77988800Y-100411200D01*
X80816772Y-94961200D02*
X88216773Y-94961200D01*
X77325000Y-101000000D02*
X77400000Y-101000000D01*
D29*
%TO.N,Net-(U3-RUN)*%
X93550000Y-102225000D02*
X93500000Y-102175000D01*
X95000000Y-102225000D02*
X93550000Y-102225000D01*
D31*
%TO.N,GND*%
X91750000Y-95850000D02*
X92250000Y-96350000D01*
X91750000Y-95450000D02*
X91750000Y-95850000D01*
D28*
%TO.N,/BUZZER*%
X85900000Y-102250000D02*
X85600000Y-102250000D01*
X89400000Y-100250000D02*
X87900000Y-100250000D01*
X89550000Y-100100000D02*
X89400000Y-100250000D01*
X92500000Y-99150000D02*
X91550000Y-100100000D01*
X87900000Y-100250000D02*
X85900000Y-102250000D01*
X92500000Y-98100000D02*
X92500000Y-99150000D01*
X92750000Y-95750000D02*
X92750000Y-97850000D01*
X92500000Y-94500000D02*
X92500000Y-95500000D01*
X92900000Y-94100000D02*
X92500000Y-94500000D01*
X93950000Y-94100000D02*
X92900000Y-94100000D01*
X91550000Y-100100000D02*
X89550000Y-100100000D01*
X94350000Y-94500000D02*
X93950000Y-94100000D01*
X95000000Y-94500000D02*
X94350000Y-94500000D01*
X92500000Y-95500000D02*
X92750000Y-95750000D01*
X92750000Y-97850000D02*
X92500000Y-98100000D01*
D31*
%TO.N,GND*%
X91750000Y-94500000D02*
X91250000Y-94000000D01*
X91750000Y-95450000D02*
X91750000Y-94500000D01*
%TO.N,/VCORE*%
X89306200Y-95450000D02*
X89256200Y-95500000D01*
X90200000Y-95450000D02*
X89306200Y-95450000D01*
D28*
%TO.N,GND*%
X89380765Y-103000000D02*
X89888167Y-102492598D01*
D32*
X81412500Y-97095000D02*
X82795000Y-97095000D01*
D31*
X106000000Y-98000000D02*
X106900000Y-98000000D01*
D32*
X82795000Y-97095000D02*
X82800000Y-97100000D01*
X90025000Y-99225000D02*
X90000000Y-99250000D01*
D28*
X75725000Y-104500000D02*
X75725000Y-103475000D01*
X77325000Y-97700000D02*
X78350000Y-97700000D01*
X98250000Y-93500000D02*
X98150000Y-93400000D01*
X88775000Y-104600000D02*
X88775000Y-103000000D01*
X99000000Y-93500000D02*
X98250000Y-93500000D01*
D32*
X91000000Y-99225000D02*
X90025000Y-99225000D01*
D28*
X68675000Y-100425000D02*
X68300000Y-100050000D01*
X96125000Y-103775000D02*
X96150000Y-103800000D01*
X95000000Y-103775000D02*
X96125000Y-103775000D01*
X98150000Y-93400000D02*
X97650000Y-93400000D01*
X75725000Y-103475000D02*
X75800000Y-103400000D01*
X88775000Y-103000000D02*
X89380765Y-103000000D01*
X68675000Y-101500000D02*
X68675000Y-100425000D01*
D32*
%TO.N,+3.3V*%
X87200000Y-102975000D02*
X87225000Y-103000000D01*
D28*
X77275000Y-104500000D02*
X77275000Y-104025000D01*
D33*
X88587500Y-100905000D02*
X90870000Y-100905000D01*
D28*
X77275000Y-104025000D02*
X77800000Y-103500000D01*
D33*
X90870000Y-100905000D02*
X91000000Y-100775000D01*
D28*
X93500000Y-103825000D02*
X93500000Y-104850000D01*
D32*
X87200000Y-102200000D02*
X87200000Y-102975000D01*
D28*
%TO.N,/VCORE*%
X88000000Y-102250000D02*
X88000000Y-103825000D01*
X88000000Y-103825000D02*
X87225000Y-104600000D01*
%TO.N,/BTN*%
X101250000Y-98000000D02*
X102500000Y-98000000D01*
X104450000Y-98000000D02*
X102500000Y-98000000D01*
D29*
%TO.N,Net-(U3-RUN)*%
X93425000Y-102175000D02*
X92200000Y-103400000D01*
X93500000Y-102175000D02*
X93425000Y-102175000D01*
D28*
%TO.N,Net-(D1-K)*%
X93500000Y-97550000D02*
X93500000Y-95000000D01*
%TO.N,Net-(D2-K)*%
X95538275Y-97711725D02*
X96450000Y-96800000D01*
D29*
%TO.N,Net-(J1-CC2)*%
X72125000Y-101500000D02*
X72175000Y-101450000D01*
D28*
X70325000Y-101500000D02*
X71400000Y-101500000D01*
X71450000Y-101450000D02*
X72175000Y-101450000D01*
X71400000Y-101500000D02*
X71450000Y-101450000D01*
%TO.N,/USB_D_P*%
X75600000Y-99500000D02*
X75002400Y-100097600D01*
X75002400Y-100097600D02*
X73872600Y-100097600D01*
X73872600Y-100097600D02*
X73525000Y-99750000D01*
X73025000Y-99750000D02*
X72175000Y-100600000D01*
X75675000Y-99500000D02*
X75600000Y-99500000D01*
X73525000Y-99750000D02*
X73025000Y-99750000D01*
%TO.N,/USB_D_N*%
X73722600Y-100402400D02*
X73525000Y-100600000D01*
X73525000Y-100600000D02*
X73725000Y-100400000D01*
X75002400Y-100402400D02*
X73722600Y-100402400D01*
X75600000Y-101000000D02*
X75002400Y-100402400D01*
X75675000Y-101000000D02*
X75600000Y-101000000D01*
%TO.N,Net-(J1-CC1)*%
X75675000Y-97700000D02*
X74475000Y-98900000D01*
X74475000Y-98900000D02*
X73525000Y-98900000D01*
%TO.N,Net-(J2-D+-PadA6)*%
X108750000Y-101325000D02*
X109650000Y-100425000D01*
X108000000Y-101325000D02*
X108750000Y-101325000D01*
%TO.N,Net-(J2-D--PadA7)*%
X110150000Y-99575000D02*
X111000000Y-100425000D01*
X108000000Y-99675000D02*
X109550000Y-99675000D01*
X109550000Y-99675000D02*
X109650000Y-99575000D01*
X109650000Y-99575000D02*
X110150000Y-99575000D01*
%TO.N,Net-(J2-CC2)*%
X113450000Y-98775000D02*
X111050000Y-98775000D01*
X111050000Y-98775000D02*
X111000000Y-98725000D01*
D29*
%TO.N,/SWC*%
X85450000Y-105500000D02*
X79460000Y-105500000D01*
X88825393Y-101649000D02*
X86971768Y-101649000D01*
X86971768Y-101649000D02*
X86150000Y-102470768D01*
X86150000Y-102470768D02*
X86150000Y-104800000D01*
X86150000Y-104800000D02*
X85450000Y-105500000D01*
X79460000Y-105500000D02*
X77460000Y-107500000D01*
X89223608Y-102047215D02*
X88825393Y-101649000D01*
%TO.N,/URX*%
X91779521Y-102083077D02*
X92133077Y-102083077D01*
X92133077Y-102083077D02*
X92453616Y-101762537D01*
X89512487Y-107851000D02*
X91350000Y-106013486D01*
X91975000Y-100776200D02*
X91975000Y-100825000D01*
X91975000Y-100825000D02*
X91950000Y-100850000D01*
X91350000Y-102512598D02*
X91779521Y-102083077D01*
X91950000Y-100850000D02*
X92056122Y-100850000D01*
X91350000Y-106013486D02*
X91350000Y-102512598D01*
%TO.N,/SWD*%
X84850000Y-106800000D02*
X84150000Y-107500000D01*
X89100000Y-106150000D02*
X88450000Y-106800000D01*
X84150000Y-107500000D02*
X82540000Y-107500000D01*
X88450000Y-106800000D02*
X84850000Y-106800000D01*
X89100000Y-105799998D02*
X89100000Y-106150000D01*
D28*
%TO.N,Net-(Q1-G)*%
X103725000Y-107000000D02*
X104675000Y-106050000D01*
X104675000Y-106050000D02*
X106100000Y-106050000D01*
D32*
%TO.N,Net-(Q3-C)*%
X100875000Y-94450000D02*
X103550000Y-94450000D01*
X103550000Y-94450000D02*
X104500000Y-93500000D01*
D31*
%TO.N,Net-(Q3-B)*%
X99000000Y-95400000D02*
X98150000Y-95400000D01*
X97250000Y-94500000D02*
X96650000Y-94500000D01*
X98150000Y-95400000D02*
X97250000Y-94500000D01*
X99000000Y-95400000D02*
X98950000Y-95400000D01*
X98950000Y-95400000D02*
X98850000Y-95500000D01*
D28*
%TO.N,Net-(R17-Pad2)*%
X102500000Y-99650000D02*
X103500000Y-100650000D01*
%TO.N,/QSPI_SD1*%
X85253400Y-99350000D02*
X84968400Y-99635000D01*
%TO.N,/QSPI_SD2*%
X85335000Y-98365000D02*
X85850000Y-97850000D01*
X81412500Y-98365000D02*
X85335000Y-98365000D01*
%TO.N,/QSPI_CLK*%
X89061988Y-98365000D02*
X89611196Y-97815792D01*
X88587500Y-98365000D02*
X89061988Y-98365000D01*
%TO.N,/QSPI_SS*%
X84095000Y-100905000D02*
X84395000Y-100905000D01*
X81412500Y-100905000D02*
X84095000Y-100905000D01*
X84395000Y-100905000D02*
X85100000Y-100200000D01*
%TO.N,/USB_VOUT*%
X104375000Y-102150000D02*
X104375000Y-103425000D01*
X106450000Y-107000000D02*
X107950000Y-107000000D01*
X111675000Y-97875000D02*
X112425000Y-97125000D01*
X105275000Y-107000000D02*
X106450000Y-107000000D01*
X106450000Y-107950000D02*
X106450000Y-107000000D01*
X111000000Y-97875000D02*
X111675000Y-97875000D01*
X112425000Y-97125000D02*
X113450000Y-97125000D01*
X104375000Y-103425000D02*
X103800000Y-104000000D01*
%TO.N,/QSPI_SD0*%
X88105000Y-97095000D02*
X88587500Y-97095000D01*
X87081022Y-97999998D02*
X87200002Y-97999998D01*
X88587500Y-97095000D02*
X88582500Y-97100000D01*
X87200002Y-97999998D02*
X88105000Y-97095000D01*
%TO.N,/QSPI_SD3*%
X86811536Y-96261536D02*
X86811536Y-97188464D01*
X87085000Y-99635000D02*
X88587500Y-99635000D01*
X86811536Y-97188464D02*
X86550000Y-97450000D01*
X86550000Y-99100000D02*
X87085000Y-99635000D01*
X86550000Y-97450000D02*
X86550000Y-99100000D01*
X86150000Y-95600000D02*
X86811536Y-96261536D01*
%TD*%
M02*
