M48
; DRILL file {KiCad 9.0.4} date 2025-10-08T21:43:08+0100
; FORMAT={-:-/ absolute / metric / decimal}
; #@! TF.CreationDate,2025-10-08T21:43:08+01:00
; #@! TF.GenerationSoftware,Kicad,Pcbnew,9.0.4
; #@! TF.FileFunction,Plated,1,6,PTH
FMAT,2
METRIC
; #@! TA.AperFunction,Plated,PTH,ViaDrill
T1C0.300
; #@! TA.AperFunction,Plated,PTH,ComponentDrill
T2C0.400
; #@! TA.AperFunction,Plated,PTH,ComponentDrill
T3C0.600
; #@! TA.AperFunction,Plated,PTH,ComponentDrill
T4C1.000
%
G90
G05
T1
X68.3Y-100.05
X71.1Y-93.5
X73.0Y-93.5
X73.95Y-94.8
X75.0Y-93.5
X75.15Y-95.65
X75.8Y-103.4
X76.999Y-94.45
X77.8Y-103.5
X78.35Y-97.7
X78.5Y-94.4
X78.5Y-105.1
X78.8Y-95.637
X79.4Y-104.9
X79.95Y-99.95
X80.15Y-102.95
X80.3Y-97.85
X82.75Y-95.8
X82.8Y-97.1
X85.0Y-93.9
X85.013Y-95.642
X85.05Y-101.0
X85.1Y-100.2
X85.253Y-99.35
X85.6Y-102.25
X85.85Y-97.85
X86.15Y-95.6
X86.45Y-101.0
X86.5Y-100.0
X86.95Y-95.65
X86.95Y-105.75
X87.0Y-93.9
X87.081Y-98.0
X87.2Y-102.2
X87.412Y-98.888
X87.844Y-95.588
X88.0Y-102.25
X88.15Y-105.975
X88.718Y-93.146
X89.1Y-105.8
X89.224Y-102.047
X89.256Y-95.5
X89.4Y-106.9
X89.471Y-93.146
X89.611Y-97.816
X89.75Y-108.5
X89.888Y-102.493
X89.9Y-100.905
X90.0Y-99.25
X90.85Y-96.3
X91.25Y-94.0
X91.5Y-96.7
X91.975Y-100.776
X92.003Y-101.576
X92.2Y-103.4
X92.25Y-96.35
X93.45Y-108.25
X93.5Y-93.0
X93.5Y-95.0
X93.5Y-97.55
X93.5Y-104.85
X95.538Y-97.712
X96.15Y-103.8
X96.45Y-96.8
X97.65Y-93.4
X97.95Y-107.7
X100.137Y-93.501
X101.25Y-98.0
X101.6Y-107.85
X103.45Y-107.95
X103.5Y-100.65
X103.8Y-104.0
X105.75Y-107.95
X106.1Y-106.05
X106.45Y-107.95
X106.9Y-98.0
X107.0Y-102.65
X107.95Y-107.0
X108.45Y-96.0
X110.55Y-106.85
X114.2Y-93.5
X114.55Y-106.5
T2
X72.175Y-97.2
X72.175Y-98.05
X72.175Y-98.9
X72.175Y-99.75
X72.175Y-100.6
X72.175Y-101.45
X72.175Y-102.3
X72.175Y-103.15
X73.525Y-97.2
X73.525Y-98.05
X73.525Y-98.9
X73.525Y-99.75
X73.525Y-100.6
X73.525Y-101.45
X73.525Y-102.3
X73.525Y-103.15
X109.65Y-97.025
X109.65Y-97.875
X109.65Y-98.725
X109.65Y-99.575
X109.65Y-100.425
X109.65Y-101.275
X109.65Y-102.125
X109.65Y-102.975
X111.0Y-97.025
X111.0Y-97.875
X111.0Y-98.725
X111.0Y-99.575
X111.0Y-100.425
X111.0Y-101.275
X111.0Y-102.125
X111.0Y-102.975
T3
X104.5Y-93.5
X108.1Y-93.5
T4
X69.84Y-107.5
X72.38Y-107.5
X74.92Y-107.5
X77.46Y-107.5
X80.0Y-107.5
X82.54Y-107.5
T3
G00X69.565Y-95.85
M15
G01X68.765Y-95.85
M16
G05
G00X69.565Y-104.5
M15
G01X68.765Y-104.5
M16
G05
G00X73.295Y-95.85
M15
G01X71.795Y-95.85
M16
G05
G00X73.295Y-104.5
M15
G01X71.795Y-104.5
M16
G05
G00X109.88Y-95.675
M15
G01X111.38Y-95.675
M16
G05
G00X109.88Y-104.325
M15
G01X111.38Y-104.325
M16
G05
G00X113.61Y-95.675
M15
G01X114.41Y-95.675
M16
G05
G00X113.61Y-104.325
M15
G01X114.41Y-104.325
M16
G05
M30
