%TF.GenerationSoftware,KiCad,Pcbnew,9.0.4*%
%TF.CreationDate,2025-10-09T20:33:17+01:00*%
%TF.ProjectId,DashcamPower,44617368-6361-46d5-906f-7765722e6b69,rev?*%
%TF.SameCoordinates,Original*%
%TF.FileFunction,Copper,L5,Inr*%
%TF.FilePolarity,Positive*%
%FSLAX46Y46*%
G04 Gerber Fmt 4.6, Leading zero omitted, Abs format (unit mm)*
G04 Created by KiCad (PCBNEW 9.0.4) date 2025-10-09 20:33:17*
%MOMM*%
%LPD*%
G01*
G04 APERTURE LIST*
G04 Aperture macros list*
%AMRoundRect*
0 Rectangle with rounded corners*
0 $1 Rounding radius*
0 $2 $3 $4 $5 $6 $7 $8 $9 X,Y pos of 4 corners*
0 Add a 4 corners polygon primitive as box body*
4,1,4,$2,$3,$4,$5,$6,$7,$8,$9,$2,$3,0*
0 Add four circle primitives for the rounded corners*
1,1,$1+$1,$2,$3*
1,1,$1+$1,$4,$5*
1,1,$1+$1,$6,$7*
1,1,$1+$1,$8,$9*
0 Add four rect primitives between the rounded corners*
20,1,$1+$1,$2,$3,$4,$5,0*
20,1,$1+$1,$4,$5,$6,$7,0*
20,1,$1+$1,$6,$7,$8,$9,0*
20,1,$1+$1,$8,$9,$2,$3,0*%
G04 Aperture macros list end*
%TA.AperFunction,ComponentPad*%
%ADD10C,0.700000*%
%TD*%
%TA.AperFunction,ComponentPad*%
%ADD11O,2.400000X0.900000*%
%TD*%
%TA.AperFunction,ComponentPad*%
%ADD12O,1.700000X0.900000*%
%TD*%
%TA.AperFunction,ComponentPad*%
%ADD13R,1.700000X1.700000*%
%TD*%
%TA.AperFunction,ComponentPad*%
%ADD14C,1.700000*%
%TD*%
%TA.AperFunction,ComponentPad*%
%ADD15RoundRect,0.250000X0.550000X0.550000X-0.550000X0.550000X-0.550000X-0.550000X0.550000X-0.550000X0*%
%TD*%
%TA.AperFunction,ComponentPad*%
%ADD16C,1.600000*%
%TD*%
%TA.AperFunction,ViaPad*%
%ADD17C,0.600000*%
%TD*%
G04 APERTURE END LIST*
D10*
%TO.N,GND*%
%TO.C,J2*%
X109650000Y-102975000D03*
%TO.N,/USB_VOUT*%
X109650000Y-102125000D03*
%TO.N,Net-(J2-CC1)*%
X109650000Y-101275000D03*
%TO.N,Net-(J2-D+-PadA6)*%
X109650000Y-100425000D03*
%TO.N,Net-(J2-D--PadA7)*%
X109650000Y-99575000D03*
%TO.N,unconnected-(J2-SBU1-PadA8)*%
X109650000Y-98725000D03*
%TO.N,/USB_VOUT*%
X109650000Y-97875000D03*
%TO.N,GND*%
X109650000Y-97025000D03*
X111000000Y-97025000D03*
%TO.N,/USB_VOUT*%
X111000000Y-97875000D03*
%TO.N,Net-(J2-CC2)*%
X111000000Y-98725000D03*
%TO.N,Net-(J2-D+-PadA6)*%
X111000000Y-99575000D03*
%TO.N,Net-(J2-D--PadA7)*%
X111000000Y-100425000D03*
%TO.N,unconnected-(J2-SBU2-PadB8)*%
X111000000Y-101275000D03*
%TO.N,/USB_VOUT*%
X111000000Y-102125000D03*
%TO.N,GND*%
X111000000Y-102975000D03*
D11*
X110630000Y-104325000D03*
D12*
X114010000Y-104325000D03*
D11*
X110630000Y-95675000D03*
D12*
X114010000Y-95675000D03*
%TD*%
D13*
%TO.N,/SWD*%
%TO.C,J4*%
X82540000Y-107500000D03*
D14*
%TO.N,GND*%
X80000000Y-107500000D03*
%TO.N,/SWC*%
X77460000Y-107500000D03*
%TO.N,/UTX*%
X74920000Y-107500000D03*
%TO.N,/URX*%
X72380000Y-107500000D03*
%TO.N,+3.3V*%
X69840000Y-107500000D03*
%TD*%
D15*
%TO.N,Net-(LS1-Pad1)*%
%TO.C,LS1*%
X108100000Y-93500000D03*
D16*
%TO.N,Net-(Q3-C)*%
X104500000Y-93500000D03*
%TD*%
D10*
%TO.N,GND*%
%TO.C,J1*%
X73525000Y-97200000D03*
%TO.N,+5V*%
X73525000Y-98050000D03*
%TO.N,Net-(J1-CC1)*%
X73525000Y-98900000D03*
%TO.N,/USB_D_P*%
X73525000Y-99750000D03*
%TO.N,/USB_D_N*%
X73525000Y-100600000D03*
%TO.N,unconnected-(J1-SBU1-PadA8)*%
X73525000Y-101450000D03*
%TO.N,+5V*%
X73525000Y-102300000D03*
%TO.N,GND*%
X73525000Y-103150000D03*
X72175000Y-103150000D03*
%TO.N,+5V*%
X72175000Y-102300000D03*
%TO.N,Net-(J1-CC2)*%
X72175000Y-101450000D03*
%TO.N,/USB_D_P*%
X72175000Y-100600000D03*
%TO.N,/USB_D_N*%
X72175000Y-99750000D03*
%TO.N,unconnected-(J1-SBU2-PadB8)*%
X72175000Y-98900000D03*
%TO.N,+5V*%
X72175000Y-98050000D03*
%TO.N,GND*%
X72175000Y-97200000D03*
D11*
X72545000Y-95850000D03*
D12*
X69165000Y-95850000D03*
D11*
X72545000Y-104500000D03*
D12*
X69165000Y-104500000D03*
%TD*%
D17*
%TO.N,GND*%
X92250000Y-96350000D03*
%TO.N,+5V*%
X75000000Y-93500000D03*
X103450000Y-107950000D03*
X114200000Y-93500000D03*
X105749997Y-107950000D03*
X73950000Y-94800000D03*
X76999000Y-94450000D03*
X101600000Y-107850000D03*
%TO.N,GND*%
X73000000Y-93500000D03*
X88150122Y-105975000D03*
X82750000Y-95800000D03*
X91250000Y-94000000D03*
X78500000Y-105100000D03*
X86450000Y-101000000D03*
X78350000Y-97700000D03*
X87000000Y-93900000D03*
X97650000Y-93400000D03*
X97950000Y-107700000D03*
X89888167Y-102492598D03*
X107000000Y-102650000D03*
X86500000Y-100000000D03*
X106900000Y-98000000D03*
X93500000Y-93000000D03*
X114550000Y-106500000D03*
X68300000Y-100050000D03*
X93450000Y-108250000D03*
X89750000Y-108500000D03*
X82800000Y-97100000D03*
X85000000Y-93900000D03*
X75150000Y-95650000D03*
X87411725Y-98888275D03*
X108450000Y-96000000D03*
X89399998Y-106900000D03*
X86950000Y-105750000D03*
X80150000Y-102950000D03*
X96150000Y-103800000D03*
X71100000Y-93500000D03*
X75800000Y-103400000D03*
X90000000Y-99250000D03*
%TO.N,+3.3V*%
X93500000Y-104850000D03*
X87843800Y-95587988D03*
X91500000Y-96700000D03*
X85050000Y-101000000D03*
X78500000Y-94400000D03*
X89900000Y-100905000D03*
X79400000Y-104900000D03*
X79950000Y-99950000D03*
X80300000Y-97850000D03*
X77800000Y-103500000D03*
X100137500Y-93500748D03*
X78800000Y-95637500D03*
X90850000Y-96300000D03*
X85013075Y-95641883D03*
X87200000Y-102200000D03*
%TO.N,/VCORE*%
X88000000Y-102250000D03*
X86950000Y-95650000D03*
X89256200Y-95500000D03*
%TO.N,/BTN*%
X101250000Y-98000000D03*
%TO.N,Net-(U3-RUN)*%
X92200000Y-103400000D03*
%TO.N,Net-(D1-K)*%
X93500000Y-97550000D03*
X93500000Y-95000000D03*
%TO.N,Net-(D2-K)*%
X96450000Y-96800000D03*
X95538275Y-97711725D03*
%TO.N,/SWC*%
X89223608Y-102047215D03*
%TO.N,/URX*%
X91975000Y-100776200D03*
%TO.N,/UTX*%
X92002616Y-101575726D03*
%TO.N,/SWD*%
X89100000Y-105799998D03*
%TO.N,Net-(Q1-G)*%
X106100000Y-106050000D03*
%TO.N,/USB_RES_D_N*%
X88718301Y-93145685D03*
%TO.N,/USB_RES_D_P*%
X89470701Y-93145685D03*
%TO.N,Net-(R17-Pad2)*%
X103500000Y-100650000D03*
%TO.N,/BUZZER*%
X85600000Y-102250000D03*
%TO.N,/QSPI_SD1*%
X85253400Y-99350000D03*
%TO.N,/QSPI_SD2*%
X85850000Y-97850000D03*
%TO.N,/QSPI_CLK*%
X89611196Y-97815792D03*
%TO.N,/QSPI_SS*%
X85100000Y-100200000D03*
%TO.N,/USB_VOUT*%
X110550000Y-106850000D03*
X103800000Y-104000000D03*
X107950000Y-107000000D03*
X106450000Y-107950000D03*
%TO.N,/QSPI_SD0*%
X87081022Y-97999998D03*
%TO.N,/QSPI_SD3*%
X86150000Y-95600000D03*
%TD*%
%TA.AperFunction,Conductor*%
%TO.N,GND*%
G36*
X88575544Y-92518513D02*
G01*
X88593557Y-92562000D01*
X88575544Y-92605487D01*
X88547975Y-92621404D01*
X88505820Y-92632699D01*
X88505816Y-92632701D01*
X88380287Y-92705175D01*
X88380282Y-92705179D01*
X88277795Y-92807666D01*
X88277791Y-92807671D01*
X88205317Y-92933200D01*
X88205315Y-92933204D01*
X88167801Y-93073207D01*
X88167801Y-93218162D01*
X88205315Y-93358165D01*
X88205316Y-93358167D01*
X88205317Y-93358170D01*
X88277792Y-93483700D01*
X88380286Y-93586194D01*
X88505816Y-93658669D01*
X88505820Y-93658670D01*
X88645824Y-93696185D01*
X88645826Y-93696185D01*
X88790777Y-93696185D01*
X88852507Y-93679643D01*
X88930786Y-93658669D01*
X89056316Y-93586194D01*
X89056324Y-93586185D01*
X89057057Y-93585625D01*
X89057511Y-93585503D01*
X89059807Y-93584178D01*
X89060161Y-93584792D01*
X89102522Y-93573437D01*
X89129051Y-93584426D01*
X89129195Y-93584178D01*
X89131082Y-93585267D01*
X89131945Y-93585625D01*
X89132680Y-93586188D01*
X89132686Y-93586194D01*
X89258216Y-93658669D01*
X89258220Y-93658670D01*
X89398224Y-93696185D01*
X89398226Y-93696185D01*
X89543177Y-93696185D01*
X89604907Y-93679643D01*
X89683186Y-93658669D01*
X89808716Y-93586194D01*
X89911210Y-93483700D01*
X89943213Y-93428270D01*
X99587000Y-93428270D01*
X99587000Y-93573225D01*
X99624514Y-93713228D01*
X99624515Y-93713230D01*
X99624516Y-93713233D01*
X99696991Y-93838763D01*
X99799485Y-93941257D01*
X99925015Y-94013732D01*
X99925019Y-94013733D01*
X100065023Y-94051248D01*
X100065025Y-94051248D01*
X100209976Y-94051248D01*
X100271706Y-94034706D01*
X100349985Y-94013732D01*
X100475515Y-93941257D01*
X100578009Y-93838763D01*
X100650484Y-93713233D01*
X100679897Y-93603465D01*
X100688000Y-93573225D01*
X100688000Y-93428270D01*
X100650485Y-93288267D01*
X100650484Y-93288263D01*
X100578009Y-93162733D01*
X100475515Y-93060239D01*
X100349985Y-92987764D01*
X100349982Y-92987763D01*
X100349980Y-92987762D01*
X100209977Y-92950248D01*
X100209975Y-92950248D01*
X100065025Y-92950248D01*
X100065023Y-92950248D01*
X99925019Y-92987762D01*
X99925015Y-92987764D01*
X99799486Y-93060238D01*
X99799481Y-93060242D01*
X99696994Y-93162729D01*
X99696990Y-93162734D01*
X99624516Y-93288263D01*
X99624514Y-93288267D01*
X99587000Y-93428270D01*
X89943213Y-93428270D01*
X89983685Y-93358170D01*
X90002617Y-93287515D01*
X90021201Y-93218162D01*
X90021201Y-93073207D01*
X89983686Y-92933204D01*
X89983685Y-92933200D01*
X89911210Y-92807670D01*
X89808716Y-92705176D01*
X89683186Y-92632701D01*
X89683183Y-92632700D01*
X89683181Y-92632699D01*
X89641027Y-92621404D01*
X89603684Y-92592750D01*
X89597541Y-92546082D01*
X89626195Y-92508739D01*
X89656945Y-92500500D01*
X103902269Y-92500500D01*
X103945756Y-92518513D01*
X103963769Y-92562000D01*
X103945756Y-92605487D01*
X103936436Y-92613136D01*
X103830345Y-92684022D01*
X103684022Y-92830345D01*
X103569060Y-93002400D01*
X103569056Y-93002408D01*
X103489873Y-93193569D01*
X103489868Y-93193585D01*
X103449500Y-93396531D01*
X103449500Y-93603468D01*
X103489868Y-93806414D01*
X103489873Y-93806430D01*
X103569056Y-93997591D01*
X103569059Y-93997598D01*
X103579840Y-94013733D01*
X103684022Y-94169654D01*
X103830345Y-94315977D01*
X103830344Y-94315977D01*
X103865418Y-94339412D01*
X104002402Y-94430941D01*
X104077351Y-94461986D01*
X104193569Y-94510126D01*
X104193574Y-94510127D01*
X104193580Y-94510130D01*
X104396531Y-94550499D01*
X104396532Y-94550500D01*
X104396535Y-94550500D01*
X104603468Y-94550500D01*
X104603468Y-94550499D01*
X104806420Y-94510130D01*
X104997598Y-94430941D01*
X105169655Y-94315977D01*
X105315977Y-94169655D01*
X105430941Y-93997598D01*
X105510130Y-93806420D01*
X105550499Y-93603468D01*
X105550500Y-93603468D01*
X105550500Y-93396532D01*
X105550499Y-93396531D01*
X105542868Y-93358169D01*
X105510130Y-93193580D01*
X105510127Y-93193574D01*
X105510126Y-93193569D01*
X105460271Y-93073210D01*
X105430941Y-93002402D01*
X105315977Y-92830345D01*
X105169655Y-92684023D01*
X105169654Y-92684022D01*
X105169655Y-92684022D01*
X105063564Y-92613136D01*
X105037413Y-92573998D01*
X105046595Y-92527833D01*
X105085733Y-92501682D01*
X105097731Y-92500500D01*
X107138429Y-92500500D01*
X107181916Y-92518513D01*
X107199929Y-92562000D01*
X107187662Y-92598854D01*
X107170782Y-92621404D01*
X107106205Y-92707666D01*
X107106203Y-92707671D01*
X107055910Y-92842512D01*
X107049500Y-92902128D01*
X107049500Y-94097872D01*
X107055908Y-94157481D01*
X107055909Y-94157485D01*
X107085759Y-94237515D01*
X107106204Y-94292331D01*
X107192454Y-94407546D01*
X107307669Y-94493796D01*
X107442517Y-94544091D01*
X107502127Y-94550500D01*
X108697872Y-94550499D01*
X108757483Y-94544091D01*
X108892331Y-94493796D01*
X109007546Y-94407546D01*
X109093796Y-94292331D01*
X109144091Y-94157483D01*
X109150500Y-94097873D01*
X109150499Y-93427522D01*
X113649500Y-93427522D01*
X113649500Y-93572477D01*
X113687014Y-93712480D01*
X113687015Y-93712482D01*
X113687016Y-93712485D01*
X113759491Y-93838015D01*
X113861985Y-93940509D01*
X113987515Y-94012984D01*
X113987519Y-94012985D01*
X114127523Y-94050500D01*
X114127525Y-94050500D01*
X114272476Y-94050500D01*
X114334206Y-94033958D01*
X114412485Y-94012984D01*
X114538015Y-93940509D01*
X114640509Y-93838015D01*
X114712984Y-93712485D01*
X114727540Y-93658158D01*
X114750500Y-93572477D01*
X114750500Y-93427522D01*
X114716061Y-93298999D01*
X114712984Y-93287515D01*
X114640509Y-93161985D01*
X114538015Y-93059491D01*
X114412485Y-92987016D01*
X114412482Y-92987015D01*
X114412480Y-92987014D01*
X114272477Y-92949500D01*
X114272475Y-92949500D01*
X114127525Y-92949500D01*
X114127523Y-92949500D01*
X113987519Y-92987014D01*
X113987515Y-92987016D01*
X113861986Y-93059490D01*
X113861981Y-93059494D01*
X113759494Y-93161981D01*
X113759490Y-93161986D01*
X113687016Y-93287515D01*
X113687014Y-93287519D01*
X113649500Y-93427522D01*
X109150499Y-93427522D01*
X109150499Y-92902128D01*
X109144091Y-92842517D01*
X109093796Y-92707669D01*
X109093253Y-92706944D01*
X109029218Y-92621404D01*
X109012337Y-92598854D01*
X109000697Y-92553248D01*
X109024715Y-92512767D01*
X109061571Y-92500500D01*
X114938000Y-92500500D01*
X114981487Y-92518513D01*
X114999500Y-92562000D01*
X114999500Y-108938000D01*
X114981487Y-108981487D01*
X114938000Y-108999500D01*
X68062000Y-108999500D01*
X68018513Y-108981487D01*
X68000500Y-108938000D01*
X68000500Y-107413385D01*
X68739500Y-107413385D01*
X68739500Y-107586614D01*
X68766598Y-107757703D01*
X68820127Y-107922446D01*
X68898769Y-108076790D01*
X69000584Y-108216926D01*
X69123073Y-108339415D01*
X69193398Y-108390509D01*
X69263212Y-108441232D01*
X69417555Y-108519873D01*
X69582296Y-108573401D01*
X69582299Y-108573402D01*
X69753389Y-108600500D01*
X69753393Y-108600500D01*
X69926607Y-108600500D01*
X69926611Y-108600500D01*
X70097701Y-108573402D01*
X70262445Y-108519873D01*
X70416788Y-108441232D01*
X70556928Y-108339414D01*
X70679414Y-108216928D01*
X70781232Y-108076788D01*
X70859873Y-107922445D01*
X70913402Y-107757701D01*
X70940500Y-107586611D01*
X70940500Y-107413389D01*
X70940499Y-107413385D01*
X71279500Y-107413385D01*
X71279500Y-107586614D01*
X71306598Y-107757703D01*
X71360127Y-107922446D01*
X71438769Y-108076790D01*
X71540584Y-108216926D01*
X71663073Y-108339415D01*
X71733398Y-108390509D01*
X71803212Y-108441232D01*
X71957555Y-108519873D01*
X72122296Y-108573401D01*
X72122299Y-108573402D01*
X72293389Y-108600500D01*
X72293393Y-108600500D01*
X72466607Y-108600500D01*
X72466611Y-108600500D01*
X72637701Y-108573402D01*
X72802445Y-108519873D01*
X72956788Y-108441232D01*
X73096928Y-108339414D01*
X73219414Y-108216928D01*
X73321232Y-108076788D01*
X73399873Y-107922445D01*
X73453402Y-107757701D01*
X73480500Y-107586611D01*
X73480500Y-107413389D01*
X73480499Y-107413385D01*
X73819500Y-107413385D01*
X73819500Y-107586614D01*
X73846598Y-107757703D01*
X73900127Y-107922446D01*
X73978769Y-108076790D01*
X74080584Y-108216926D01*
X74203073Y-108339415D01*
X74273398Y-108390509D01*
X74343212Y-108441232D01*
X74497555Y-108519873D01*
X74662296Y-108573401D01*
X74662299Y-108573402D01*
X74833389Y-108600500D01*
X74833393Y-108600500D01*
X75006607Y-108600500D01*
X75006611Y-108600500D01*
X75177701Y-108573402D01*
X75342445Y-108519873D01*
X75496788Y-108441232D01*
X75636928Y-108339414D01*
X75759414Y-108216928D01*
X75861232Y-108076788D01*
X75939873Y-107922445D01*
X75993402Y-107757701D01*
X76020500Y-107586611D01*
X76020500Y-107413389D01*
X76020499Y-107413385D01*
X76359500Y-107413385D01*
X76359500Y-107586614D01*
X76386598Y-107757703D01*
X76440127Y-107922446D01*
X76518769Y-108076790D01*
X76620584Y-108216926D01*
X76743073Y-108339415D01*
X76813398Y-108390509D01*
X76883212Y-108441232D01*
X77037555Y-108519873D01*
X77202296Y-108573401D01*
X77202299Y-108573402D01*
X77373389Y-108600500D01*
X77373393Y-108600500D01*
X77546607Y-108600500D01*
X77546611Y-108600500D01*
X77717701Y-108573402D01*
X77882445Y-108519873D01*
X78036788Y-108441232D01*
X78176928Y-108339414D01*
X78299414Y-108216928D01*
X78401232Y-108076788D01*
X78479873Y-107922445D01*
X78533402Y-107757701D01*
X78560500Y-107586611D01*
X78560500Y-107413389D01*
X78533402Y-107242299D01*
X78479873Y-107077555D01*
X78401232Y-106923212D01*
X78400697Y-106922475D01*
X78299415Y-106783073D01*
X78176926Y-106660584D01*
X78128392Y-106625322D01*
X81439500Y-106625322D01*
X81439500Y-108374677D01*
X81454032Y-108447738D01*
X81464220Y-108462985D01*
X81509399Y-108530601D01*
X81571615Y-108572172D01*
X81592261Y-108585967D01*
X81650473Y-108597545D01*
X81665322Y-108600499D01*
X81665323Y-108600500D01*
X81665326Y-108600500D01*
X83414677Y-108600500D01*
X83414677Y-108600499D01*
X83443980Y-108594670D01*
X83487738Y-108585967D01*
X83487739Y-108585966D01*
X83487740Y-108585966D01*
X83570601Y-108530601D01*
X83625966Y-108447740D01*
X83625966Y-108447739D01*
X83625967Y-108447738D01*
X83637351Y-108390505D01*
X83640499Y-108374677D01*
X83640500Y-108374677D01*
X83640500Y-107777522D01*
X101049500Y-107777522D01*
X101049500Y-107922477D01*
X101087014Y-108062480D01*
X101087015Y-108062482D01*
X101087016Y-108062485D01*
X101159491Y-108188015D01*
X101261985Y-108290509D01*
X101387515Y-108362984D01*
X101387519Y-108362985D01*
X101527523Y-108400500D01*
X101527525Y-108400500D01*
X101672476Y-108400500D01*
X101754497Y-108378522D01*
X101812485Y-108362984D01*
X101938015Y-108290509D01*
X102040509Y-108188015D01*
X102112984Y-108062485D01*
X102127540Y-108008158D01*
X102150500Y-107922477D01*
X102150500Y-107877522D01*
X102899500Y-107877522D01*
X102899500Y-108022477D01*
X102937014Y-108162480D01*
X102937015Y-108162482D01*
X102937016Y-108162485D01*
X103009491Y-108288015D01*
X103111985Y-108390509D01*
X103237515Y-108462984D01*
X103237519Y-108462985D01*
X103377523Y-108500500D01*
X103377525Y-108500500D01*
X103522476Y-108500500D01*
X103584206Y-108483958D01*
X103662485Y-108462984D01*
X103788015Y-108390509D01*
X103890509Y-108288015D01*
X103962984Y-108162485D01*
X103985947Y-108076788D01*
X104000500Y-108022477D01*
X104000500Y-107877522D01*
X105199497Y-107877522D01*
X105199497Y-108022477D01*
X105237011Y-108162480D01*
X105237012Y-108162482D01*
X105237013Y-108162485D01*
X105309488Y-108288015D01*
X105411982Y-108390509D01*
X105537512Y-108462984D01*
X105537516Y-108462985D01*
X105677520Y-108500500D01*
X105677522Y-108500500D01*
X105822473Y-108500500D01*
X105884203Y-108483958D01*
X105962482Y-108462984D01*
X106069248Y-108401341D01*
X106115915Y-108395197D01*
X106130748Y-108401342D01*
X106237509Y-108462981D01*
X106237511Y-108462982D01*
X106237515Y-108462984D01*
X106237519Y-108462985D01*
X106377523Y-108500500D01*
X106377525Y-108500500D01*
X106522476Y-108500500D01*
X106584206Y-108483958D01*
X106662485Y-108462984D01*
X106788015Y-108390509D01*
X106890509Y-108288015D01*
X106962984Y-108162485D01*
X106985947Y-108076788D01*
X107000500Y-108022477D01*
X107000500Y-107877522D01*
X106962985Y-107737519D01*
X106962984Y-107737515D01*
X106890509Y-107611985D01*
X106788015Y-107509491D01*
X106662485Y-107437016D01*
X106662482Y-107437015D01*
X106662480Y-107437014D01*
X106522477Y-107399500D01*
X106522475Y-107399500D01*
X106377525Y-107399500D01*
X106377523Y-107399500D01*
X106237519Y-107437014D01*
X106237515Y-107437016D01*
X106130748Y-107498658D01*
X106084080Y-107504801D01*
X106069250Y-107498659D01*
X105962482Y-107437016D01*
X105962479Y-107437015D01*
X105962477Y-107437014D01*
X105822474Y-107399500D01*
X105822472Y-107399500D01*
X105677522Y-107399500D01*
X105677520Y-107399500D01*
X105537516Y-107437014D01*
X105537512Y-107437016D01*
X105411983Y-107509490D01*
X105411978Y-107509494D01*
X105309491Y-107611981D01*
X105309487Y-107611986D01*
X105237013Y-107737515D01*
X105237011Y-107737519D01*
X105199497Y-107877522D01*
X104000500Y-107877522D01*
X103962985Y-107737519D01*
X103962984Y-107737515D01*
X103890509Y-107611985D01*
X103788015Y-107509491D01*
X103662485Y-107437016D01*
X103662482Y-107437015D01*
X103662480Y-107437014D01*
X103522477Y-107399500D01*
X103522475Y-107399500D01*
X103377525Y-107399500D01*
X103377523Y-107399500D01*
X103237519Y-107437014D01*
X103237515Y-107437016D01*
X103111986Y-107509490D01*
X103111981Y-107509494D01*
X103009494Y-107611981D01*
X103009490Y-107611986D01*
X102937016Y-107737515D01*
X102937014Y-107737519D01*
X102899500Y-107877522D01*
X102150500Y-107877522D01*
X102150500Y-107777522D01*
X102112985Y-107637519D01*
X102112984Y-107637515D01*
X102040509Y-107511985D01*
X101938015Y-107409491D01*
X101812485Y-107337016D01*
X101812482Y-107337015D01*
X101812480Y-107337014D01*
X101672477Y-107299500D01*
X101672475Y-107299500D01*
X101527525Y-107299500D01*
X101527523Y-107299500D01*
X101387519Y-107337014D01*
X101387515Y-107337016D01*
X101261986Y-107409490D01*
X101261981Y-107409494D01*
X101159494Y-107511981D01*
X101159490Y-107511986D01*
X101087016Y-107637515D01*
X101087014Y-107637519D01*
X101049500Y-107777522D01*
X83640500Y-107777522D01*
X83640500Y-106927522D01*
X107399500Y-106927522D01*
X107399500Y-107072477D01*
X107437014Y-107212480D01*
X107437015Y-107212482D01*
X107437016Y-107212485D01*
X107509491Y-107338015D01*
X107611985Y-107440509D01*
X107737515Y-107512984D01*
X107737519Y-107512985D01*
X107877523Y-107550500D01*
X107877525Y-107550500D01*
X108022476Y-107550500D01*
X108084206Y-107533958D01*
X108162485Y-107512984D01*
X108288015Y-107440509D01*
X108390509Y-107338015D01*
X108462984Y-107212485D01*
X108499139Y-107077555D01*
X108500500Y-107072477D01*
X108500500Y-106927522D01*
X108463492Y-106789412D01*
X108463492Y-106789410D01*
X108463491Y-106789409D01*
X108462984Y-106787515D01*
X108457215Y-106777522D01*
X109999500Y-106777522D01*
X109999500Y-106922477D01*
X110037014Y-107062480D01*
X110037015Y-107062482D01*
X110037016Y-107062485D01*
X110109491Y-107188015D01*
X110211985Y-107290509D01*
X110337515Y-107362984D01*
X110337519Y-107362985D01*
X110477523Y-107400500D01*
X110477525Y-107400500D01*
X110622476Y-107400500D01*
X110684206Y-107383958D01*
X110762485Y-107362984D01*
X110888015Y-107290509D01*
X110990509Y-107188015D01*
X111062984Y-107062485D01*
X111100303Y-106923212D01*
X111100500Y-106922477D01*
X111100500Y-106777522D01*
X111062985Y-106637519D01*
X111062984Y-106637515D01*
X110990509Y-106511985D01*
X110888015Y-106409491D01*
X110762485Y-106337016D01*
X110762482Y-106337015D01*
X110762480Y-106337014D01*
X110622477Y-106299500D01*
X110622475Y-106299500D01*
X110477525Y-106299500D01*
X110477523Y-106299500D01*
X110337519Y-106337014D01*
X110337515Y-106337016D01*
X110211986Y-106409490D01*
X110211981Y-106409494D01*
X110109494Y-106511981D01*
X110109490Y-106511986D01*
X110037016Y-106637515D01*
X110037014Y-106637519D01*
X109999500Y-106777522D01*
X108457215Y-106777522D01*
X108390509Y-106661985D01*
X108288015Y-106559491D01*
X108162485Y-106487016D01*
X108162482Y-106487015D01*
X108162480Y-106487014D01*
X108022477Y-106449500D01*
X108022475Y-106449500D01*
X107877525Y-106449500D01*
X107877523Y-106449500D01*
X107737519Y-106487014D01*
X107737515Y-106487016D01*
X107611986Y-106559490D01*
X107611981Y-106559494D01*
X107509494Y-106661981D01*
X107509490Y-106661986D01*
X107437016Y-106787515D01*
X107437014Y-106787519D01*
X107399500Y-106927522D01*
X83640500Y-106927522D01*
X83640500Y-106625323D01*
X83640499Y-106625322D01*
X83625967Y-106552261D01*
X83599056Y-106511986D01*
X83570601Y-106469399D01*
X83506544Y-106426598D01*
X83487738Y-106414032D01*
X83414677Y-106399500D01*
X83414674Y-106399500D01*
X81665326Y-106399500D01*
X81665323Y-106399500D01*
X81592261Y-106414032D01*
X81509399Y-106469399D01*
X81454032Y-106552261D01*
X81439500Y-106625322D01*
X78128392Y-106625322D01*
X78036790Y-106558769D01*
X77882446Y-106480127D01*
X77717702Y-106426598D01*
X77717704Y-106426598D01*
X77546614Y-106399500D01*
X77546611Y-106399500D01*
X77373389Y-106399500D01*
X77373385Y-106399500D01*
X77202296Y-106426598D01*
X77037553Y-106480127D01*
X76883209Y-106558769D01*
X76743073Y-106660584D01*
X76743073Y-106660585D01*
X76743072Y-106660586D01*
X76620586Y-106783072D01*
X76620585Y-106783073D01*
X76620584Y-106783073D01*
X76518769Y-106923209D01*
X76440127Y-107077553D01*
X76386598Y-107242296D01*
X76359500Y-107413385D01*
X76020499Y-107413385D01*
X75993402Y-107242299D01*
X75939873Y-107077555D01*
X75861232Y-106923212D01*
X75860697Y-106922475D01*
X75759415Y-106783073D01*
X75636926Y-106660584D01*
X75496790Y-106558769D01*
X75342446Y-106480127D01*
X75177702Y-106426598D01*
X75177704Y-106426598D01*
X75006614Y-106399500D01*
X75006611Y-106399500D01*
X74833389Y-106399500D01*
X74833385Y-106399500D01*
X74662296Y-106426598D01*
X74497553Y-106480127D01*
X74343209Y-106558769D01*
X74203073Y-106660584D01*
X74203073Y-106660585D01*
X74203072Y-106660586D01*
X74080586Y-106783072D01*
X74080585Y-106783073D01*
X74080584Y-106783073D01*
X73978769Y-106923209D01*
X73900127Y-107077553D01*
X73846598Y-107242296D01*
X73819500Y-107413385D01*
X73480499Y-107413385D01*
X73453402Y-107242299D01*
X73399873Y-107077555D01*
X73321232Y-106923212D01*
X73320697Y-106922475D01*
X73219415Y-106783073D01*
X73096926Y-106660584D01*
X72956790Y-106558769D01*
X72802446Y-106480127D01*
X72637702Y-106426598D01*
X72637704Y-106426598D01*
X72466614Y-106399500D01*
X72466611Y-106399500D01*
X72293389Y-106399500D01*
X72293385Y-106399500D01*
X72122296Y-106426598D01*
X71957553Y-106480127D01*
X71803209Y-106558769D01*
X71663073Y-106660584D01*
X71663073Y-106660585D01*
X71663072Y-106660586D01*
X71540586Y-106783072D01*
X71540585Y-106783073D01*
X71540584Y-106783073D01*
X71438769Y-106923209D01*
X71360127Y-107077553D01*
X71306598Y-107242296D01*
X71279500Y-107413385D01*
X70940499Y-107413385D01*
X70913402Y-107242299D01*
X70859873Y-107077555D01*
X70781232Y-106923212D01*
X70780697Y-106922475D01*
X70679415Y-106783073D01*
X70556926Y-106660584D01*
X70416790Y-106558769D01*
X70262446Y-106480127D01*
X70097702Y-106426598D01*
X70097704Y-106426598D01*
X69926614Y-106399500D01*
X69926611Y-106399500D01*
X69753389Y-106399500D01*
X69753385Y-106399500D01*
X69582296Y-106426598D01*
X69417553Y-106480127D01*
X69263209Y-106558769D01*
X69123073Y-106660584D01*
X69123073Y-106660585D01*
X69123072Y-106660586D01*
X69000586Y-106783072D01*
X69000585Y-106783073D01*
X69000584Y-106783073D01*
X68898769Y-106923209D01*
X68820127Y-107077553D01*
X68766598Y-107242296D01*
X68739500Y-107413385D01*
X68000500Y-107413385D01*
X68000500Y-105727520D01*
X88549500Y-105727520D01*
X88549500Y-105872475D01*
X88587014Y-106012478D01*
X88587015Y-106012480D01*
X88587016Y-106012483D01*
X88659491Y-106138013D01*
X88761985Y-106240507D01*
X88887515Y-106312982D01*
X88887519Y-106312983D01*
X89027523Y-106350498D01*
X89027525Y-106350498D01*
X89172476Y-106350498D01*
X89234206Y-106333956D01*
X89312485Y-106312982D01*
X89438015Y-106240507D01*
X89540509Y-106138013D01*
X89612984Y-106012483D01*
X89622352Y-105977522D01*
X105549500Y-105977522D01*
X105549500Y-106122477D01*
X105587014Y-106262480D01*
X105587015Y-106262482D01*
X105587016Y-106262485D01*
X105659491Y-106388015D01*
X105761985Y-106490509D01*
X105887515Y-106562984D01*
X105887519Y-106562985D01*
X106027523Y-106600500D01*
X106027525Y-106600500D01*
X106172476Y-106600500D01*
X106234206Y-106583958D01*
X106312485Y-106562984D01*
X106438015Y-106490509D01*
X106540509Y-106388015D01*
X106612984Y-106262485D01*
X106646337Y-106138013D01*
X106650500Y-106122477D01*
X106650500Y-105977522D01*
X106612985Y-105837519D01*
X106612984Y-105837515D01*
X106540509Y-105711985D01*
X106438015Y-105609491D01*
X106312485Y-105537016D01*
X106312482Y-105537015D01*
X106312480Y-105537014D01*
X106172477Y-105499500D01*
X106172475Y-105499500D01*
X106027525Y-105499500D01*
X106027523Y-105499500D01*
X105887519Y-105537014D01*
X105887515Y-105537016D01*
X105761986Y-105609490D01*
X105761981Y-105609494D01*
X105659494Y-105711981D01*
X105659490Y-105711986D01*
X105587016Y-105837515D01*
X105587014Y-105837519D01*
X105549500Y-105977522D01*
X89622352Y-105977522D01*
X89627697Y-105957576D01*
X89650500Y-105872475D01*
X89650500Y-105727520D01*
X89612985Y-105587517D01*
X89612984Y-105587513D01*
X89540509Y-105461983D01*
X89438015Y-105359489D01*
X89312485Y-105287014D01*
X89312482Y-105287013D01*
X89312480Y-105287012D01*
X89172477Y-105249498D01*
X89172475Y-105249498D01*
X89027525Y-105249498D01*
X89027523Y-105249498D01*
X88887519Y-105287012D01*
X88887515Y-105287014D01*
X88761986Y-105359488D01*
X88761981Y-105359492D01*
X88659494Y-105461979D01*
X88659490Y-105461984D01*
X88587016Y-105587513D01*
X88587014Y-105587517D01*
X88549500Y-105727520D01*
X68000500Y-105727520D01*
X68000500Y-104827522D01*
X78849500Y-104827522D01*
X78849500Y-104972477D01*
X78887014Y-105112480D01*
X78887015Y-105112482D01*
X78887016Y-105112485D01*
X78959491Y-105238015D01*
X79061985Y-105340509D01*
X79187515Y-105412984D01*
X79187519Y-105412985D01*
X79327523Y-105450500D01*
X79327525Y-105450500D01*
X79472476Y-105450500D01*
X79534206Y-105433958D01*
X79612485Y-105412984D01*
X79738015Y-105340509D01*
X79840509Y-105238015D01*
X79912984Y-105112485D01*
X79927540Y-105058158D01*
X79950500Y-104972477D01*
X79950500Y-104827522D01*
X79940288Y-104789412D01*
X79937102Y-104777522D01*
X92949500Y-104777522D01*
X92949500Y-104922477D01*
X92987014Y-105062480D01*
X92987015Y-105062482D01*
X92987016Y-105062485D01*
X93059491Y-105188015D01*
X93161985Y-105290509D01*
X93287515Y-105362984D01*
X93287519Y-105362985D01*
X93427523Y-105400500D01*
X93427525Y-105400500D01*
X93572476Y-105400500D01*
X93634206Y-105383958D01*
X93712485Y-105362984D01*
X93838015Y-105290509D01*
X93940509Y-105188015D01*
X94012984Y-105062485D01*
X94037102Y-104972477D01*
X94050500Y-104922477D01*
X94050500Y-104777522D01*
X94012985Y-104637519D01*
X94012984Y-104637515D01*
X93940509Y-104511985D01*
X93838015Y-104409491D01*
X93712485Y-104337016D01*
X93712482Y-104337015D01*
X93712480Y-104337014D01*
X93572477Y-104299500D01*
X93572475Y-104299500D01*
X93427525Y-104299500D01*
X93427523Y-104299500D01*
X93287519Y-104337014D01*
X93287515Y-104337016D01*
X93161986Y-104409490D01*
X93161981Y-104409494D01*
X93059494Y-104511981D01*
X93059490Y-104511986D01*
X92987016Y-104637515D01*
X92987014Y-104637519D01*
X92949500Y-104777522D01*
X79937102Y-104777522D01*
X79912985Y-104687519D01*
X79912984Y-104687515D01*
X79840509Y-104561985D01*
X79738015Y-104459491D01*
X79612485Y-104387016D01*
X79612482Y-104387015D01*
X79612480Y-104387014D01*
X79472477Y-104349500D01*
X79472475Y-104349500D01*
X79327525Y-104349500D01*
X79327523Y-104349500D01*
X79187519Y-104387014D01*
X79187515Y-104387016D01*
X79061986Y-104459490D01*
X79061981Y-104459494D01*
X78959494Y-104561981D01*
X78959490Y-104561986D01*
X78887016Y-104687515D01*
X78887014Y-104687519D01*
X78849500Y-104827522D01*
X68000500Y-104827522D01*
X68000500Y-103427522D01*
X77249500Y-103427522D01*
X77249500Y-103572477D01*
X77287014Y-103712480D01*
X77287015Y-103712482D01*
X77287016Y-103712485D01*
X77359491Y-103838015D01*
X77461985Y-103940509D01*
X77587515Y-104012984D01*
X77587519Y-104012985D01*
X77727523Y-104050500D01*
X77727525Y-104050500D01*
X77872476Y-104050500D01*
X77934206Y-104033958D01*
X78012485Y-104012984D01*
X78138015Y-103940509D01*
X78240509Y-103838015D01*
X78312984Y-103712485D01*
X78327540Y-103658158D01*
X78350500Y-103572477D01*
X78350500Y-103427522D01*
X78326890Y-103339412D01*
X78326890Y-103339411D01*
X78323704Y-103327522D01*
X91649500Y-103327522D01*
X91649500Y-103472477D01*
X91687014Y-103612480D01*
X91687015Y-103612482D01*
X91687016Y-103612485D01*
X91759491Y-103738015D01*
X91861985Y-103840509D01*
X91987515Y-103912984D01*
X91987519Y-103912985D01*
X92127523Y-103950500D01*
X92127525Y-103950500D01*
X92272476Y-103950500D01*
X92334206Y-103933958D01*
X92358226Y-103927522D01*
X103249500Y-103927522D01*
X103249500Y-104072477D01*
X103287014Y-104212480D01*
X103287015Y-104212482D01*
X103287016Y-104212485D01*
X103359491Y-104338015D01*
X103461985Y-104440509D01*
X103587515Y-104512984D01*
X103587519Y-104512985D01*
X103727523Y-104550500D01*
X103727525Y-104550500D01*
X103872476Y-104550500D01*
X103934206Y-104533958D01*
X104012485Y-104512984D01*
X104138015Y-104440509D01*
X104240509Y-104338015D01*
X104312984Y-104212485D01*
X104327540Y-104158158D01*
X104350500Y-104072477D01*
X104350500Y-103927522D01*
X104312985Y-103787519D01*
X104312984Y-103787515D01*
X104240509Y-103661985D01*
X104138015Y-103559491D01*
X104012485Y-103487016D01*
X104012482Y-103487015D01*
X104012480Y-103487014D01*
X103872477Y-103449500D01*
X103872475Y-103449500D01*
X103727525Y-103449500D01*
X103727523Y-103449500D01*
X103587519Y-103487014D01*
X103587515Y-103487016D01*
X103461986Y-103559490D01*
X103461981Y-103559494D01*
X103359494Y-103661981D01*
X103359490Y-103661986D01*
X103287016Y-103787515D01*
X103287014Y-103787519D01*
X103249500Y-103927522D01*
X92358226Y-103927522D01*
X92412485Y-103912984D01*
X92486532Y-103870232D01*
X92486534Y-103870232D01*
X92538008Y-103840513D01*
X92538007Y-103840513D01*
X92538015Y-103840509D01*
X92640509Y-103738015D01*
X92712984Y-103612485D01*
X92746604Y-103487016D01*
X92750500Y-103472477D01*
X92750500Y-103327522D01*
X92712985Y-103187519D01*
X92712984Y-103187515D01*
X92640509Y-103061985D01*
X92538015Y-102959491D01*
X92412485Y-102887016D01*
X92412482Y-102887015D01*
X92412480Y-102887014D01*
X92272477Y-102849500D01*
X92272475Y-102849500D01*
X92127525Y-102849500D01*
X92127523Y-102849500D01*
X91987519Y-102887014D01*
X91987515Y-102887016D01*
X91861986Y-102959490D01*
X91861981Y-102959494D01*
X91759494Y-103061981D01*
X91759490Y-103061986D01*
X91687016Y-103187515D01*
X91687014Y-103187519D01*
X91649500Y-103327522D01*
X78323704Y-103327522D01*
X78312986Y-103287521D01*
X78312985Y-103287519D01*
X78312984Y-103287515D01*
X78240509Y-103161985D01*
X78138015Y-103059491D01*
X78012485Y-102987016D01*
X78012482Y-102987015D01*
X78012480Y-102987014D01*
X77872477Y-102949500D01*
X77872475Y-102949500D01*
X77727525Y-102949500D01*
X77727523Y-102949500D01*
X77587519Y-102987014D01*
X77587515Y-102987016D01*
X77461986Y-103059490D01*
X77461981Y-103059494D01*
X77359494Y-103161981D01*
X77359490Y-103161986D01*
X77287016Y-103287515D01*
X77287014Y-103287519D01*
X77249500Y-103427522D01*
X68000500Y-103427522D01*
X68000500Y-97970940D01*
X71574500Y-97970940D01*
X71574500Y-98129059D01*
X71615421Y-98281779D01*
X71615422Y-98281781D01*
X71615423Y-98281784D01*
X71694480Y-98418716D01*
X71694483Y-98418719D01*
X71707277Y-98431513D01*
X71725290Y-98475000D01*
X71707277Y-98518487D01*
X71694483Y-98531280D01*
X71694479Y-98531285D01*
X71615423Y-98668216D01*
X71615421Y-98668220D01*
X71574500Y-98820940D01*
X71574500Y-98979059D01*
X71615421Y-99131779D01*
X71615422Y-99131781D01*
X71615423Y-99131784D01*
X71694480Y-99268716D01*
X71694483Y-99268719D01*
X71707277Y-99281513D01*
X71725290Y-99325000D01*
X71707277Y-99368487D01*
X71694483Y-99381280D01*
X71694479Y-99381285D01*
X71615423Y-99518216D01*
X71615421Y-99518220D01*
X71574500Y-99670940D01*
X71574500Y-99829059D01*
X71615421Y-99981779D01*
X71615422Y-99981781D01*
X71615423Y-99981784D01*
X71694480Y-100118716D01*
X71694483Y-100118719D01*
X71707277Y-100131513D01*
X71725290Y-100175000D01*
X71707277Y-100218487D01*
X71694483Y-100231280D01*
X71694479Y-100231285D01*
X71615423Y-100368216D01*
X71615421Y-100368220D01*
X71574500Y-100520940D01*
X71574500Y-100679059D01*
X71615421Y-100831779D01*
X71615422Y-100831781D01*
X71615423Y-100831784D01*
X71694480Y-100968716D01*
X71694483Y-100968719D01*
X71707277Y-100981513D01*
X71725290Y-101025000D01*
X71707277Y-101068487D01*
X71694483Y-101081280D01*
X71694479Y-101081285D01*
X71615423Y-101218216D01*
X71615421Y-101218220D01*
X71574500Y-101370940D01*
X71574500Y-101529059D01*
X71615421Y-101681779D01*
X71615422Y-101681781D01*
X71615423Y-101681784D01*
X71694480Y-101818716D01*
X71694483Y-101818719D01*
X71707277Y-101831513D01*
X71725290Y-101875000D01*
X71707277Y-101918487D01*
X71694483Y-101931280D01*
X71694479Y-101931285D01*
X71615423Y-102068216D01*
X71615421Y-102068220D01*
X71574500Y-102220940D01*
X71574500Y-102379059D01*
X71615421Y-102531779D01*
X71615422Y-102531781D01*
X71615423Y-102531784D01*
X71694480Y-102668716D01*
X71806284Y-102780520D01*
X71943216Y-102859577D01*
X71943220Y-102859578D01*
X72095941Y-102900500D01*
X72095943Y-102900500D01*
X72254058Y-102900500D01*
X72321397Y-102882456D01*
X72406784Y-102859577D01*
X72543716Y-102780520D01*
X72655520Y-102668716D01*
X72734577Y-102531784D01*
X72766543Y-102412485D01*
X72775500Y-102379059D01*
X72775500Y-102220940D01*
X72734578Y-102068220D01*
X72734577Y-102068216D01*
X72655520Y-101931284D01*
X72642723Y-101918487D01*
X72624710Y-101875000D01*
X72642723Y-101831513D01*
X72655520Y-101818716D01*
X72734577Y-101681784D01*
X72754694Y-101606705D01*
X72775500Y-101529059D01*
X72775500Y-101370940D01*
X72734578Y-101218220D01*
X72734577Y-101218216D01*
X72655520Y-101081284D01*
X72642723Y-101068487D01*
X72624710Y-101025000D01*
X72642723Y-100981513D01*
X72646761Y-100977475D01*
X72655520Y-100968716D01*
X72734577Y-100831784D01*
X72765705Y-100715612D01*
X72775500Y-100679059D01*
X72775500Y-100520940D01*
X72734578Y-100368220D01*
X72734577Y-100368216D01*
X72655520Y-100231284D01*
X72642723Y-100218487D01*
X72624710Y-100175000D01*
X72642723Y-100131513D01*
X72646714Y-100127522D01*
X72655520Y-100118716D01*
X72734577Y-99981784D01*
X72766678Y-99861981D01*
X72775500Y-99829059D01*
X72775500Y-99670940D01*
X72734578Y-99518220D01*
X72734577Y-99518216D01*
X72655520Y-99381284D01*
X72642723Y-99368487D01*
X72624710Y-99325000D01*
X72642723Y-99281513D01*
X72646714Y-99277522D01*
X72655520Y-99268716D01*
X72734577Y-99131784D01*
X72766678Y-99011981D01*
X72775500Y-98979059D01*
X72775500Y-98820940D01*
X72734578Y-98668220D01*
X72734577Y-98668216D01*
X72655520Y-98531284D01*
X72642723Y-98518487D01*
X72624710Y-98475000D01*
X72642723Y-98431513D01*
X72655520Y-98418716D01*
X72734577Y-98281784D01*
X72753147Y-98212480D01*
X72775500Y-98129059D01*
X72775500Y-97970940D01*
X72924500Y-97970940D01*
X72924500Y-98129059D01*
X72965421Y-98281779D01*
X72965422Y-98281781D01*
X72965423Y-98281784D01*
X73044480Y-98418716D01*
X73044483Y-98418719D01*
X73057277Y-98431513D01*
X73075290Y-98475000D01*
X73057277Y-98518487D01*
X73044483Y-98531280D01*
X73044479Y-98531285D01*
X72965423Y-98668216D01*
X72965421Y-98668220D01*
X72924500Y-98820940D01*
X72924500Y-98979059D01*
X72965421Y-99131779D01*
X72965422Y-99131781D01*
X72965423Y-99131784D01*
X73044480Y-99268716D01*
X73044483Y-99268719D01*
X73057277Y-99281513D01*
X73075290Y-99325000D01*
X73057277Y-99368487D01*
X73044483Y-99381280D01*
X73044479Y-99381285D01*
X72965423Y-99518216D01*
X72965421Y-99518220D01*
X72924500Y-99670940D01*
X72924500Y-99829059D01*
X72965421Y-99981779D01*
X72965422Y-99981781D01*
X72965423Y-99981784D01*
X73044480Y-100118716D01*
X73044483Y-100118719D01*
X73057277Y-100131513D01*
X73075290Y-100175000D01*
X73057277Y-100218487D01*
X73044483Y-100231280D01*
X73044479Y-100231285D01*
X72965423Y-100368216D01*
X72965421Y-100368220D01*
X72924500Y-100520940D01*
X72924500Y-100679059D01*
X72965421Y-100831779D01*
X72965422Y-100831781D01*
X72965423Y-100831784D01*
X73044480Y-100968716D01*
X73044483Y-100968719D01*
X73057277Y-100981513D01*
X73075290Y-101025000D01*
X73057277Y-101068487D01*
X73044483Y-101081280D01*
X73044479Y-101081285D01*
X72965423Y-101218216D01*
X72965421Y-101218220D01*
X72924500Y-101370940D01*
X72924500Y-101529059D01*
X72965421Y-101681779D01*
X72965422Y-101681781D01*
X72965423Y-101681784D01*
X73044480Y-101818716D01*
X73044483Y-101818719D01*
X73057277Y-101831513D01*
X73075290Y-101875000D01*
X73057277Y-101918487D01*
X73044483Y-101931280D01*
X73044479Y-101931285D01*
X72965423Y-102068216D01*
X72965421Y-102068220D01*
X72924500Y-102220940D01*
X72924500Y-102379059D01*
X72965421Y-102531779D01*
X72965422Y-102531781D01*
X72965423Y-102531784D01*
X73044480Y-102668716D01*
X73156284Y-102780520D01*
X73293216Y-102859577D01*
X73293220Y-102859578D01*
X73445941Y-102900500D01*
X73445943Y-102900500D01*
X73604058Y-102900500D01*
X73671397Y-102882456D01*
X73756784Y-102859577D01*
X73893716Y-102780520D01*
X74005520Y-102668716D01*
X74084577Y-102531784D01*
X74116543Y-102412485D01*
X74125500Y-102379059D01*
X74125500Y-102220940D01*
X74125499Y-102220938D01*
X74117052Y-102189411D01*
X74113866Y-102177522D01*
X85049500Y-102177522D01*
X85049500Y-102322477D01*
X85087014Y-102462480D01*
X85087015Y-102462482D01*
X85087016Y-102462485D01*
X85159491Y-102588015D01*
X85261985Y-102690509D01*
X85387515Y-102762984D01*
X85387519Y-102762985D01*
X85527523Y-102800500D01*
X85527525Y-102800500D01*
X85672476Y-102800500D01*
X85734206Y-102783958D01*
X85812485Y-102762984D01*
X85938015Y-102690509D01*
X86040509Y-102588015D01*
X86112984Y-102462485D01*
X86141308Y-102356779D01*
X86150500Y-102322477D01*
X86150500Y-102177522D01*
X86140288Y-102139412D01*
X86137102Y-102127522D01*
X86649500Y-102127522D01*
X86649500Y-102272477D01*
X86687014Y-102412480D01*
X86687015Y-102412482D01*
X86687016Y-102412485D01*
X86759491Y-102538015D01*
X86861985Y-102640509D01*
X86987515Y-102712984D01*
X86987519Y-102712985D01*
X87127523Y-102750500D01*
X87127525Y-102750500D01*
X87272476Y-102750500D01*
X87365775Y-102725500D01*
X87412485Y-102712984D01*
X87538015Y-102640509D01*
X87538016Y-102640507D01*
X87541506Y-102638493D01*
X87542280Y-102639834D01*
X87582537Y-102629042D01*
X87618006Y-102646530D01*
X87661985Y-102690509D01*
X87787515Y-102762984D01*
X87787519Y-102762985D01*
X87927523Y-102800500D01*
X87927525Y-102800500D01*
X88072476Y-102800500D01*
X88134206Y-102783958D01*
X88212485Y-102762984D01*
X88338015Y-102690509D01*
X88440509Y-102588015D01*
X88512984Y-102462485D01*
X88541308Y-102356779D01*
X88550500Y-102322477D01*
X88550500Y-102177522D01*
X88512985Y-102037519D01*
X88512984Y-102037515D01*
X88476739Y-101974737D01*
X88673108Y-101974737D01*
X88673108Y-102119692D01*
X88710622Y-102259695D01*
X88710623Y-102259697D01*
X88710624Y-102259700D01*
X88783099Y-102385230D01*
X88885593Y-102487724D01*
X89011123Y-102560199D01*
X89011127Y-102560200D01*
X89151131Y-102597715D01*
X89151133Y-102597715D01*
X89296084Y-102597715D01*
X89357814Y-102581173D01*
X89436093Y-102560199D01*
X89561623Y-102487724D01*
X89664117Y-102385230D01*
X89736592Y-102259700D01*
X89758612Y-102177522D01*
X89774108Y-102119692D01*
X89774108Y-101974737D01*
X89736593Y-101834734D01*
X89736592Y-101834730D01*
X89664117Y-101709200D01*
X89561623Y-101606706D01*
X89436093Y-101534231D01*
X89436090Y-101534230D01*
X89436088Y-101534229D01*
X89296085Y-101496715D01*
X89296083Y-101496715D01*
X89151133Y-101496715D01*
X89151131Y-101496715D01*
X89011127Y-101534229D01*
X89011123Y-101534231D01*
X88885594Y-101606705D01*
X88885589Y-101606709D01*
X88783102Y-101709196D01*
X88783098Y-101709201D01*
X88710624Y-101834730D01*
X88710622Y-101834734D01*
X88673108Y-101974737D01*
X88476739Y-101974737D01*
X88440509Y-101911985D01*
X88338015Y-101809491D01*
X88212485Y-101737016D01*
X88212482Y-101737015D01*
X88212480Y-101737014D01*
X88072477Y-101699500D01*
X88072475Y-101699500D01*
X87927525Y-101699500D01*
X87927523Y-101699500D01*
X87787519Y-101737014D01*
X87787515Y-101737016D01*
X87661985Y-101809491D01*
X87661983Y-101809492D01*
X87658494Y-101811507D01*
X87657723Y-101810171D01*
X87617432Y-101820953D01*
X87581993Y-101803469D01*
X87538018Y-101759494D01*
X87538015Y-101759491D01*
X87412485Y-101687016D01*
X87412482Y-101687015D01*
X87412480Y-101687014D01*
X87272477Y-101649500D01*
X87272475Y-101649500D01*
X87127525Y-101649500D01*
X87127523Y-101649500D01*
X86987519Y-101687014D01*
X86987515Y-101687016D01*
X86861986Y-101759490D01*
X86861981Y-101759494D01*
X86759494Y-101861981D01*
X86759490Y-101861986D01*
X86687016Y-101987515D01*
X86687014Y-101987519D01*
X86649500Y-102127522D01*
X86137102Y-102127522D01*
X86112985Y-102037519D01*
X86112984Y-102037515D01*
X86040509Y-101911985D01*
X85938015Y-101809491D01*
X85812485Y-101737016D01*
X85812482Y-101737015D01*
X85812480Y-101737014D01*
X85672477Y-101699500D01*
X85672475Y-101699500D01*
X85527525Y-101699500D01*
X85527523Y-101699500D01*
X85387519Y-101737014D01*
X85387515Y-101737016D01*
X85261986Y-101809490D01*
X85261981Y-101809494D01*
X85159494Y-101911981D01*
X85159490Y-101911986D01*
X85087016Y-102037515D01*
X85087014Y-102037519D01*
X85049500Y-102177522D01*
X74113866Y-102177522D01*
X74084578Y-102068220D01*
X74084577Y-102068216D01*
X74005520Y-101931284D01*
X73992723Y-101918487D01*
X73974710Y-101875000D01*
X73992723Y-101831513D01*
X74005520Y-101818716D01*
X74084577Y-101681784D01*
X74104694Y-101606705D01*
X74125500Y-101529059D01*
X74125500Y-101370940D01*
X74084578Y-101218220D01*
X74084577Y-101218216D01*
X74005520Y-101081284D01*
X73992723Y-101068487D01*
X73974710Y-101025000D01*
X73984751Y-100991322D01*
X73988230Y-100986005D01*
X74005520Y-100968716D01*
X74029303Y-100927522D01*
X84499500Y-100927522D01*
X84499500Y-101072477D01*
X84537014Y-101212480D01*
X84537015Y-101212482D01*
X84537016Y-101212485D01*
X84609491Y-101338015D01*
X84711985Y-101440509D01*
X84837515Y-101512984D01*
X84837519Y-101512985D01*
X84977523Y-101550500D01*
X84977525Y-101550500D01*
X85122476Y-101550500D01*
X85202500Y-101529057D01*
X85262485Y-101512984D01*
X85388015Y-101440509D01*
X85490509Y-101338015D01*
X85562984Y-101212485D01*
X85580723Y-101146284D01*
X85600500Y-101072477D01*
X85600500Y-100927522D01*
X85578230Y-100844412D01*
X85575044Y-100832522D01*
X89349500Y-100832522D01*
X89349500Y-100977477D01*
X89387014Y-101117480D01*
X89387015Y-101117482D01*
X89387016Y-101117485D01*
X89459491Y-101243015D01*
X89561985Y-101345509D01*
X89687515Y-101417984D01*
X89687519Y-101417985D01*
X89827523Y-101455500D01*
X89827525Y-101455500D01*
X89972476Y-101455500D01*
X90034206Y-101438958D01*
X90112485Y-101417984D01*
X90238015Y-101345509D01*
X90340509Y-101243015D01*
X90412984Y-101117485D01*
X90427540Y-101063158D01*
X90450500Y-100977477D01*
X90450500Y-100832522D01*
X90419173Y-100715612D01*
X90419173Y-100715611D01*
X90415987Y-100703722D01*
X91424500Y-100703722D01*
X91424500Y-100848677D01*
X91462014Y-100988680D01*
X91462015Y-100988682D01*
X91462016Y-100988685D01*
X91534491Y-101114215D01*
X91534494Y-101114218D01*
X91566560Y-101146284D01*
X91584573Y-101189771D01*
X91566560Y-101233258D01*
X91562110Y-101237707D01*
X91562106Y-101237712D01*
X91489632Y-101363241D01*
X91489630Y-101363245D01*
X91452116Y-101503248D01*
X91452116Y-101648203D01*
X91489630Y-101788206D01*
X91489631Y-101788208D01*
X91489632Y-101788211D01*
X91562107Y-101913741D01*
X91664601Y-102016235D01*
X91790131Y-102088710D01*
X91790135Y-102088711D01*
X91930139Y-102126226D01*
X91930141Y-102126226D01*
X92075092Y-102126226D01*
X92136822Y-102109684D01*
X92215101Y-102088710D01*
X92340631Y-102016235D01*
X92443125Y-101913741D01*
X92515600Y-101788211D01*
X92536772Y-101709196D01*
X92553116Y-101648203D01*
X92553116Y-101503248D01*
X92515601Y-101363245D01*
X92515600Y-101363241D01*
X92443125Y-101237711D01*
X92411056Y-101205642D01*
X92393043Y-101162155D01*
X92411056Y-101118668D01*
X92412244Y-101117480D01*
X92415509Y-101114215D01*
X92487984Y-100988685D01*
X92525145Y-100850000D01*
X92525500Y-100848677D01*
X92525500Y-100703722D01*
X92494870Y-100589412D01*
X92491684Y-100577522D01*
X102949500Y-100577522D01*
X102949500Y-100722477D01*
X102987014Y-100862480D01*
X102987015Y-100862482D01*
X102987016Y-100862485D01*
X103059491Y-100988015D01*
X103161985Y-101090509D01*
X103287515Y-101162984D01*
X103287519Y-101162985D01*
X103427523Y-101200500D01*
X103427525Y-101200500D01*
X103572476Y-101200500D01*
X103634206Y-101183958D01*
X103712485Y-101162984D01*
X103838015Y-101090509D01*
X103940509Y-100988015D01*
X104012984Y-100862485D01*
X104033071Y-100787519D01*
X104050500Y-100722477D01*
X104050500Y-100577522D01*
X104013164Y-100438186D01*
X104012984Y-100437515D01*
X103940509Y-100311985D01*
X103838015Y-100209491D01*
X103712485Y-100137016D01*
X103712482Y-100137015D01*
X103712480Y-100137014D01*
X103572477Y-100099500D01*
X103572475Y-100099500D01*
X103427525Y-100099500D01*
X103427523Y-100099500D01*
X103287519Y-100137014D01*
X103287515Y-100137016D01*
X103161986Y-100209490D01*
X103161981Y-100209494D01*
X103059494Y-100311981D01*
X103059490Y-100311986D01*
X102987016Y-100437515D01*
X102987014Y-100437519D01*
X102949500Y-100577522D01*
X92491684Y-100577522D01*
X92487985Y-100563719D01*
X92487984Y-100563715D01*
X92415509Y-100438185D01*
X92313015Y-100335691D01*
X92187485Y-100263216D01*
X92187482Y-100263215D01*
X92187480Y-100263214D01*
X92047477Y-100225700D01*
X92047475Y-100225700D01*
X91902525Y-100225700D01*
X91902523Y-100225700D01*
X91762519Y-100263214D01*
X91762515Y-100263216D01*
X91636986Y-100335690D01*
X91636981Y-100335694D01*
X91534494Y-100438181D01*
X91534490Y-100438186D01*
X91462016Y-100563715D01*
X91462014Y-100563719D01*
X91424500Y-100703722D01*
X90415987Y-100703722D01*
X90412986Y-100692521D01*
X90412985Y-100692519D01*
X90412984Y-100692515D01*
X90340509Y-100566985D01*
X90238015Y-100464491D01*
X90112485Y-100392016D01*
X90112482Y-100392015D01*
X90112480Y-100392014D01*
X89972477Y-100354500D01*
X89972475Y-100354500D01*
X89827525Y-100354500D01*
X89827523Y-100354500D01*
X89687519Y-100392014D01*
X89687515Y-100392016D01*
X89561986Y-100464490D01*
X89561981Y-100464494D01*
X89459494Y-100566981D01*
X89459490Y-100566986D01*
X89387016Y-100692515D01*
X89387014Y-100692519D01*
X89349500Y-100832522D01*
X85575044Y-100832522D01*
X85562985Y-100787519D01*
X85562984Y-100787515D01*
X85490509Y-100661985D01*
X85490507Y-100661983D01*
X85488493Y-100658494D01*
X85489831Y-100657721D01*
X85479044Y-100617449D01*
X85496528Y-100581995D01*
X85540509Y-100538015D01*
X85612984Y-100412485D01*
X85633561Y-100335691D01*
X85650500Y-100272477D01*
X85650500Y-100127522D01*
X85612985Y-99987519D01*
X85612984Y-99987515D01*
X85553034Y-99883680D01*
X85546892Y-99837014D01*
X85575544Y-99799671D01*
X85591415Y-99790509D01*
X85693909Y-99688015D01*
X85766384Y-99562485D01*
X85800004Y-99437016D01*
X85803900Y-99422477D01*
X85803900Y-99277522D01*
X85766385Y-99137519D01*
X85766384Y-99137515D01*
X85693909Y-99011985D01*
X85591415Y-98909491D01*
X85465885Y-98837016D01*
X85465882Y-98837015D01*
X85465880Y-98837014D01*
X85325877Y-98799500D01*
X85325875Y-98799500D01*
X85180925Y-98799500D01*
X85180923Y-98799500D01*
X85040919Y-98837014D01*
X85040915Y-98837016D01*
X84915386Y-98909490D01*
X84915381Y-98909494D01*
X84812894Y-99011981D01*
X84812890Y-99011986D01*
X84740416Y-99137515D01*
X84740414Y-99137519D01*
X84702900Y-99277522D01*
X84702900Y-99422477D01*
X84740414Y-99562480D01*
X84740415Y-99562482D01*
X84740416Y-99562485D01*
X84800364Y-99666317D01*
X84806507Y-99712984D01*
X84777856Y-99750326D01*
X84761986Y-99759489D01*
X84659494Y-99861981D01*
X84659490Y-99861986D01*
X84587016Y-99987515D01*
X84587014Y-99987519D01*
X84549500Y-100127522D01*
X84549500Y-100272477D01*
X84587014Y-100412480D01*
X84587015Y-100412482D01*
X84587016Y-100412485D01*
X84659490Y-100538013D01*
X84661507Y-100541506D01*
X84660168Y-100542278D01*
X84670955Y-100582554D01*
X84653470Y-100618006D01*
X84609490Y-100661986D01*
X84537016Y-100787515D01*
X84537014Y-100787519D01*
X84499500Y-100927522D01*
X74029303Y-100927522D01*
X74084577Y-100831784D01*
X74115705Y-100715612D01*
X74125500Y-100679059D01*
X74125500Y-100520940D01*
X74084578Y-100368220D01*
X74084577Y-100368216D01*
X74005520Y-100231284D01*
X73992723Y-100218487D01*
X73974710Y-100175000D01*
X73992723Y-100131513D01*
X73996714Y-100127522D01*
X74005520Y-100118716D01*
X74084577Y-99981784D01*
X74110864Y-99883681D01*
X74112514Y-99877522D01*
X79399500Y-99877522D01*
X79399500Y-100022477D01*
X79437014Y-100162480D01*
X79437015Y-100162482D01*
X79437016Y-100162485D01*
X79509491Y-100288015D01*
X79611985Y-100390509D01*
X79737515Y-100462984D01*
X79754062Y-100467417D01*
X79877523Y-100500500D01*
X79877525Y-100500500D01*
X80022476Y-100500500D01*
X80084206Y-100483958D01*
X80162485Y-100462984D01*
X80288015Y-100390509D01*
X80390509Y-100288015D01*
X80462984Y-100162485D01*
X80494870Y-100043487D01*
X80500500Y-100022477D01*
X80500500Y-99877522D01*
X80462985Y-99737519D01*
X80462984Y-99737515D01*
X80390509Y-99611985D01*
X80288015Y-99509491D01*
X80162485Y-99437016D01*
X80162482Y-99437015D01*
X80162480Y-99437014D01*
X80022477Y-99399500D01*
X80022475Y-99399500D01*
X79877525Y-99399500D01*
X79877523Y-99399500D01*
X79737519Y-99437014D01*
X79737515Y-99437016D01*
X79611986Y-99509490D01*
X79611981Y-99509494D01*
X79509494Y-99611981D01*
X79509490Y-99611986D01*
X79437016Y-99737515D01*
X79437014Y-99737519D01*
X79399500Y-99877522D01*
X74112514Y-99877522D01*
X74117859Y-99857576D01*
X74117859Y-99857575D01*
X74125499Y-99829061D01*
X74125500Y-99829059D01*
X74125500Y-99670940D01*
X74084578Y-99518220D01*
X74084577Y-99518216D01*
X74005520Y-99381284D01*
X73992723Y-99368487D01*
X73974710Y-99325000D01*
X73992723Y-99281513D01*
X73996714Y-99277522D01*
X74005520Y-99268716D01*
X74084577Y-99131784D01*
X74116678Y-99011981D01*
X74125500Y-98979059D01*
X74125500Y-98820940D01*
X74084578Y-98668220D01*
X74084577Y-98668216D01*
X74005520Y-98531284D01*
X73992723Y-98518487D01*
X73974710Y-98475000D01*
X73992723Y-98431513D01*
X74005520Y-98418716D01*
X74084577Y-98281784D01*
X74103147Y-98212480D01*
X74125500Y-98129059D01*
X74125500Y-97970940D01*
X74084578Y-97818220D01*
X74084577Y-97818216D01*
X74061083Y-97777522D01*
X79749500Y-97777522D01*
X79749500Y-97922477D01*
X79787014Y-98062480D01*
X79787015Y-98062482D01*
X79787016Y-98062485D01*
X79859491Y-98188015D01*
X79961985Y-98290509D01*
X80087515Y-98362984D01*
X80104062Y-98367417D01*
X80227523Y-98400500D01*
X80227525Y-98400500D01*
X80372476Y-98400500D01*
X80434206Y-98383958D01*
X80512485Y-98362984D01*
X80638015Y-98290509D01*
X80740509Y-98188015D01*
X80812984Y-98062485D01*
X80849147Y-97927525D01*
X80850500Y-97922477D01*
X80850500Y-97777522D01*
X85299500Y-97777522D01*
X85299500Y-97922477D01*
X85337014Y-98062480D01*
X85337015Y-98062482D01*
X85337016Y-98062485D01*
X85409491Y-98188015D01*
X85511985Y-98290509D01*
X85637515Y-98362984D01*
X85654062Y-98367417D01*
X85777523Y-98400500D01*
X85777525Y-98400500D01*
X85922476Y-98400500D01*
X85984206Y-98383958D01*
X86062485Y-98362984D01*
X86188015Y-98290509D01*
X86290509Y-98188015D01*
X86362984Y-98062485D01*
X86399147Y-97927525D01*
X86399148Y-97927520D01*
X86530522Y-97927520D01*
X86530522Y-98072475D01*
X86568036Y-98212478D01*
X86568037Y-98212480D01*
X86568038Y-98212483D01*
X86640513Y-98338013D01*
X86743007Y-98440507D01*
X86868537Y-98512982D01*
X86868548Y-98512985D01*
X87008545Y-98550498D01*
X87008547Y-98550498D01*
X87153498Y-98550498D01*
X87225219Y-98531280D01*
X87293507Y-98512982D01*
X87419037Y-98440507D01*
X87521531Y-98338013D01*
X87594006Y-98212483D01*
X87616360Y-98129057D01*
X87631522Y-98072475D01*
X87631522Y-97927520D01*
X87594007Y-97787517D01*
X87594006Y-97787513D01*
X87594003Y-97787507D01*
X87583919Y-97770041D01*
X87583917Y-97770038D01*
X87568488Y-97743314D01*
X89060696Y-97743314D01*
X89060696Y-97888269D01*
X89098210Y-98028272D01*
X89098211Y-98028274D01*
X89098212Y-98028277D01*
X89170687Y-98153807D01*
X89273181Y-98256301D01*
X89398711Y-98328776D01*
X89398715Y-98328777D01*
X89538719Y-98366292D01*
X89538721Y-98366292D01*
X89683672Y-98366292D01*
X89768779Y-98343487D01*
X89823681Y-98328776D01*
X89949211Y-98256301D01*
X90051705Y-98153807D01*
X90124180Y-98028277D01*
X90144067Y-97954059D01*
X90161696Y-97888269D01*
X90161696Y-97743314D01*
X90124181Y-97603311D01*
X90124180Y-97603307D01*
X90104649Y-97569479D01*
X90066989Y-97504249D01*
X90066987Y-97504247D01*
X90051705Y-97477777D01*
X90051450Y-97477522D01*
X92949500Y-97477522D01*
X92949500Y-97622477D01*
X92987014Y-97762480D01*
X92987015Y-97762482D01*
X92987016Y-97762485D01*
X93059491Y-97888015D01*
X93161985Y-97990509D01*
X93287515Y-98062984D01*
X93287519Y-98062985D01*
X93427523Y-98100500D01*
X93427525Y-98100500D01*
X93572476Y-98100500D01*
X93634206Y-98083958D01*
X93712485Y-98062984D01*
X93838015Y-97990509D01*
X93940509Y-97888015D01*
X94012984Y-97762485D01*
X94039913Y-97661985D01*
X94046006Y-97639247D01*
X94987775Y-97639247D01*
X94987775Y-97784202D01*
X95025289Y-97924205D01*
X95025290Y-97924207D01*
X95025291Y-97924210D01*
X95097766Y-98049740D01*
X95200260Y-98152234D01*
X95325790Y-98224709D01*
X95325794Y-98224710D01*
X95465798Y-98262225D01*
X95465800Y-98262225D01*
X95610751Y-98262225D01*
X95672481Y-98245683D01*
X95750760Y-98224709D01*
X95876290Y-98152234D01*
X95978784Y-98049740D01*
X96049347Y-97927522D01*
X100699500Y-97927522D01*
X100699500Y-98072477D01*
X100737014Y-98212480D01*
X100737015Y-98212482D01*
X100737016Y-98212485D01*
X100809491Y-98338015D01*
X100911985Y-98440509D01*
X101037515Y-98512984D01*
X101037519Y-98512985D01*
X101177523Y-98550500D01*
X101177525Y-98550500D01*
X101322476Y-98550500D01*
X101384206Y-98533958D01*
X101462485Y-98512984D01*
X101588015Y-98440509D01*
X101690509Y-98338015D01*
X101762984Y-98212485D01*
X101779128Y-98152234D01*
X101800500Y-98072477D01*
X101800500Y-97927522D01*
X101768428Y-97807830D01*
X101765242Y-97795940D01*
X109049500Y-97795940D01*
X109049500Y-97954059D01*
X109090421Y-98106779D01*
X109090422Y-98106781D01*
X109090423Y-98106784D01*
X109169480Y-98243716D01*
X109169483Y-98243719D01*
X109182277Y-98256513D01*
X109200290Y-98300000D01*
X109182277Y-98343487D01*
X109169483Y-98356280D01*
X109169479Y-98356285D01*
X109090423Y-98493216D01*
X109090421Y-98493220D01*
X109049500Y-98645940D01*
X109049500Y-98804059D01*
X109090421Y-98956779D01*
X109090422Y-98956781D01*
X109090423Y-98956784D01*
X109169480Y-99093716D01*
X109169483Y-99093719D01*
X109182277Y-99106513D01*
X109200290Y-99150000D01*
X109182277Y-99193487D01*
X109169483Y-99206280D01*
X109169479Y-99206285D01*
X109090423Y-99343216D01*
X109090421Y-99343220D01*
X109049500Y-99495940D01*
X109049500Y-99654059D01*
X109090421Y-99806779D01*
X109090422Y-99806781D01*
X109090423Y-99806784D01*
X109169480Y-99943716D01*
X109169483Y-99943719D01*
X109182277Y-99956513D01*
X109200290Y-100000000D01*
X109182277Y-100043487D01*
X109169483Y-100056280D01*
X109169479Y-100056285D01*
X109090423Y-100193216D01*
X109090421Y-100193220D01*
X109049500Y-100345940D01*
X109049500Y-100504059D01*
X109090421Y-100656779D01*
X109090422Y-100656781D01*
X109090423Y-100656784D01*
X109169480Y-100793716D01*
X109169483Y-100793719D01*
X109182277Y-100806513D01*
X109200290Y-100850000D01*
X109182277Y-100893487D01*
X109169483Y-100906280D01*
X109169479Y-100906285D01*
X109090423Y-101043216D01*
X109090421Y-101043220D01*
X109049500Y-101195940D01*
X109049500Y-101354059D01*
X109090421Y-101506779D01*
X109090422Y-101506781D01*
X109090423Y-101506784D01*
X109169480Y-101643716D01*
X109169483Y-101643719D01*
X109182277Y-101656513D01*
X109200290Y-101700000D01*
X109182277Y-101743487D01*
X109169483Y-101756280D01*
X109169479Y-101756285D01*
X109090423Y-101893216D01*
X109090421Y-101893220D01*
X109049500Y-102045940D01*
X109049500Y-102204059D01*
X109090421Y-102356779D01*
X109090422Y-102356781D01*
X109090423Y-102356784D01*
X109169480Y-102493716D01*
X109281284Y-102605520D01*
X109418216Y-102684577D01*
X109418220Y-102684578D01*
X109570941Y-102725500D01*
X109570943Y-102725500D01*
X109729058Y-102725500D01*
X109796397Y-102707456D01*
X109881784Y-102684577D01*
X110018716Y-102605520D01*
X110130520Y-102493716D01*
X110209577Y-102356784D01*
X110232167Y-102272477D01*
X110250500Y-102204059D01*
X110250500Y-102045940D01*
X110209578Y-101893220D01*
X110209577Y-101893216D01*
X110130520Y-101756284D01*
X110117723Y-101743487D01*
X110099710Y-101700000D01*
X110117723Y-101656513D01*
X110130520Y-101643716D01*
X110209577Y-101506784D01*
X110233371Y-101417983D01*
X110250500Y-101354059D01*
X110250500Y-101195940D01*
X110209578Y-101043220D01*
X110209577Y-101043216D01*
X110130520Y-100906284D01*
X110117723Y-100893487D01*
X110099710Y-100850000D01*
X110117723Y-100806513D01*
X110130520Y-100793716D01*
X110209577Y-100656784D01*
X110229467Y-100582554D01*
X110250500Y-100504059D01*
X110250500Y-100345940D01*
X110209578Y-100193220D01*
X110209577Y-100193216D01*
X110130520Y-100056284D01*
X110117723Y-100043487D01*
X110099710Y-100000000D01*
X110117723Y-99956513D01*
X110130520Y-99943716D01*
X110209577Y-99806784D01*
X110225455Y-99747524D01*
X110250500Y-99654059D01*
X110250500Y-99495940D01*
X110209578Y-99343220D01*
X110209577Y-99343216D01*
X110130520Y-99206284D01*
X110117723Y-99193487D01*
X110099710Y-99150000D01*
X110117723Y-99106513D01*
X110130520Y-99093716D01*
X110209577Y-98956784D01*
X110241669Y-98837016D01*
X110250500Y-98804059D01*
X110250500Y-98645940D01*
X110209578Y-98493220D01*
X110209577Y-98493216D01*
X110130520Y-98356284D01*
X110117723Y-98343487D01*
X110099710Y-98300000D01*
X110117723Y-98256513D01*
X110117939Y-98256297D01*
X110130520Y-98243716D01*
X110209577Y-98106784D01*
X110240734Y-97990505D01*
X110250500Y-97954059D01*
X110250500Y-97795940D01*
X110399500Y-97795940D01*
X110399500Y-97954059D01*
X110440421Y-98106779D01*
X110440422Y-98106781D01*
X110440423Y-98106784D01*
X110519480Y-98243716D01*
X110519483Y-98243719D01*
X110532277Y-98256513D01*
X110550290Y-98300000D01*
X110532277Y-98343487D01*
X110519483Y-98356280D01*
X110519479Y-98356285D01*
X110440423Y-98493216D01*
X110440421Y-98493220D01*
X110399500Y-98645940D01*
X110399500Y-98804059D01*
X110440421Y-98956779D01*
X110440422Y-98956781D01*
X110440423Y-98956784D01*
X110519480Y-99093716D01*
X110519483Y-99093719D01*
X110532277Y-99106513D01*
X110550290Y-99150000D01*
X110532277Y-99193487D01*
X110519483Y-99206280D01*
X110519479Y-99206285D01*
X110440423Y-99343216D01*
X110440421Y-99343220D01*
X110399500Y-99495940D01*
X110399500Y-99654059D01*
X110440421Y-99806779D01*
X110440422Y-99806781D01*
X110440423Y-99806784D01*
X110519480Y-99943716D01*
X110519483Y-99943719D01*
X110532277Y-99956513D01*
X110550290Y-100000000D01*
X110532277Y-100043487D01*
X110519483Y-100056280D01*
X110519479Y-100056285D01*
X110440423Y-100193216D01*
X110440421Y-100193220D01*
X110399500Y-100345940D01*
X110399500Y-100504059D01*
X110440421Y-100656779D01*
X110440422Y-100656781D01*
X110440423Y-100656784D01*
X110519480Y-100793716D01*
X110519483Y-100793719D01*
X110532277Y-100806513D01*
X110550290Y-100850000D01*
X110532277Y-100893487D01*
X110519483Y-100906280D01*
X110519479Y-100906285D01*
X110440423Y-101043216D01*
X110440421Y-101043220D01*
X110399500Y-101195940D01*
X110399500Y-101354059D01*
X110440421Y-101506779D01*
X110440422Y-101506781D01*
X110440423Y-101506784D01*
X110519480Y-101643716D01*
X110519483Y-101643719D01*
X110532277Y-101656513D01*
X110550290Y-101700000D01*
X110532277Y-101743487D01*
X110519483Y-101756280D01*
X110519479Y-101756285D01*
X110440423Y-101893216D01*
X110440421Y-101893220D01*
X110399500Y-102045940D01*
X110399500Y-102204059D01*
X110440421Y-102356779D01*
X110440422Y-102356781D01*
X110440423Y-102356784D01*
X110519480Y-102493716D01*
X110631284Y-102605520D01*
X110768216Y-102684577D01*
X110768220Y-102684578D01*
X110920941Y-102725500D01*
X110920943Y-102725500D01*
X111079058Y-102725500D01*
X111146397Y-102707456D01*
X111231784Y-102684577D01*
X111368716Y-102605520D01*
X111480520Y-102493716D01*
X111559577Y-102356784D01*
X111582167Y-102272477D01*
X111600500Y-102204059D01*
X111600500Y-102045940D01*
X111559578Y-101893220D01*
X111559577Y-101893216D01*
X111480520Y-101756284D01*
X111467723Y-101743487D01*
X111449710Y-101700000D01*
X111467723Y-101656513D01*
X111480520Y-101643716D01*
X111559577Y-101506784D01*
X111583371Y-101417983D01*
X111600500Y-101354059D01*
X111600500Y-101195940D01*
X111559578Y-101043220D01*
X111559577Y-101043216D01*
X111480520Y-100906284D01*
X111467723Y-100893487D01*
X111449710Y-100850000D01*
X111467723Y-100806513D01*
X111480520Y-100793716D01*
X111559577Y-100656784D01*
X111579467Y-100582554D01*
X111600500Y-100504059D01*
X111600500Y-100345940D01*
X111559578Y-100193220D01*
X111559577Y-100193216D01*
X111480520Y-100056284D01*
X111467723Y-100043487D01*
X111449710Y-100000000D01*
X111467723Y-99956513D01*
X111480520Y-99943716D01*
X111559577Y-99806784D01*
X111575455Y-99747524D01*
X111600500Y-99654059D01*
X111600500Y-99495940D01*
X111559578Y-99343220D01*
X111559577Y-99343216D01*
X111480520Y-99206284D01*
X111467723Y-99193487D01*
X111449710Y-99150000D01*
X111467723Y-99106513D01*
X111480520Y-99093716D01*
X111559577Y-98956784D01*
X111591669Y-98837016D01*
X111600500Y-98804059D01*
X111600500Y-98645940D01*
X111559578Y-98493220D01*
X111559577Y-98493216D01*
X111480520Y-98356284D01*
X111467723Y-98343487D01*
X111449710Y-98300000D01*
X111467723Y-98256513D01*
X111467939Y-98256297D01*
X111480520Y-98243716D01*
X111559577Y-98106784D01*
X111590734Y-97990505D01*
X111600500Y-97954059D01*
X111600500Y-97795940D01*
X111559578Y-97643220D01*
X111559577Y-97643216D01*
X111480520Y-97506284D01*
X111368716Y-97394480D01*
X111231784Y-97315423D01*
X111231781Y-97315422D01*
X111231779Y-97315421D01*
X111079059Y-97274500D01*
X111079057Y-97274500D01*
X110920943Y-97274500D01*
X110920941Y-97274500D01*
X110768220Y-97315421D01*
X110768216Y-97315423D01*
X110631285Y-97394479D01*
X110631280Y-97394483D01*
X110519483Y-97506280D01*
X110519479Y-97506285D01*
X110440423Y-97643216D01*
X110440421Y-97643220D01*
X110399500Y-97795940D01*
X110250500Y-97795940D01*
X110209578Y-97643220D01*
X110209577Y-97643216D01*
X110130520Y-97506284D01*
X110018716Y-97394480D01*
X109881784Y-97315423D01*
X109881781Y-97315422D01*
X109881779Y-97315421D01*
X109729059Y-97274500D01*
X109729057Y-97274500D01*
X109570943Y-97274500D01*
X109570941Y-97274500D01*
X109418220Y-97315421D01*
X109418216Y-97315423D01*
X109281285Y-97394479D01*
X109281280Y-97394483D01*
X109169483Y-97506280D01*
X109169479Y-97506285D01*
X109090423Y-97643216D01*
X109090421Y-97643220D01*
X109049500Y-97795940D01*
X101765242Y-97795940D01*
X101762985Y-97787519D01*
X101762984Y-97787515D01*
X101690509Y-97661985D01*
X101588015Y-97559491D01*
X101462485Y-97487016D01*
X101462482Y-97487015D01*
X101462480Y-97487014D01*
X101322477Y-97449500D01*
X101322475Y-97449500D01*
X101177525Y-97449500D01*
X101177523Y-97449500D01*
X101037519Y-97487014D01*
X101037515Y-97487016D01*
X100911986Y-97559490D01*
X100911981Y-97559494D01*
X100809494Y-97661981D01*
X100809490Y-97661986D01*
X100737016Y-97787515D01*
X100737014Y-97787519D01*
X100699500Y-97927522D01*
X96049347Y-97927522D01*
X96051259Y-97924210D01*
X96069564Y-97855893D01*
X96088775Y-97784202D01*
X96088775Y-97639247D01*
X96051260Y-97499244D01*
X96051259Y-97499240D01*
X95978784Y-97373710D01*
X95876290Y-97271216D01*
X95750760Y-97198741D01*
X95750757Y-97198740D01*
X95750755Y-97198739D01*
X95610752Y-97161225D01*
X95610750Y-97161225D01*
X95465800Y-97161225D01*
X95465798Y-97161225D01*
X95325794Y-97198739D01*
X95325790Y-97198741D01*
X95200261Y-97271215D01*
X95200256Y-97271219D01*
X95097769Y-97373706D01*
X95097765Y-97373711D01*
X95025291Y-97499240D01*
X95025289Y-97499244D01*
X94987775Y-97639247D01*
X94046006Y-97639247D01*
X94050500Y-97622476D01*
X94050500Y-97477522D01*
X94012985Y-97337519D01*
X94012984Y-97337515D01*
X93940509Y-97211985D01*
X93838015Y-97109491D01*
X93712485Y-97037016D01*
X93712482Y-97037015D01*
X93712480Y-97037014D01*
X93572477Y-96999500D01*
X93572475Y-96999500D01*
X93427525Y-96999500D01*
X93427523Y-96999500D01*
X93287519Y-97037014D01*
X93287515Y-97037016D01*
X93161986Y-97109490D01*
X93161981Y-97109494D01*
X93059494Y-97211981D01*
X93059490Y-97211986D01*
X92987016Y-97337515D01*
X92987014Y-97337519D01*
X92949500Y-97477522D01*
X90051450Y-97477522D01*
X89949211Y-97375283D01*
X89823681Y-97302808D01*
X89823678Y-97302807D01*
X89823676Y-97302806D01*
X89683673Y-97265292D01*
X89683671Y-97265292D01*
X89538721Y-97265292D01*
X89538719Y-97265292D01*
X89398715Y-97302806D01*
X89398711Y-97302808D01*
X89273182Y-97375282D01*
X89273177Y-97375286D01*
X89170690Y-97477773D01*
X89170686Y-97477778D01*
X89098212Y-97603307D01*
X89098210Y-97603311D01*
X89060696Y-97743314D01*
X87568488Y-97743314D01*
X87521531Y-97661983D01*
X87419037Y-97559489D01*
X87293507Y-97487014D01*
X87293504Y-97487013D01*
X87293502Y-97487012D01*
X87153499Y-97449498D01*
X87153497Y-97449498D01*
X87008547Y-97449498D01*
X87008545Y-97449498D01*
X86868541Y-97487012D01*
X86868537Y-97487014D01*
X86743008Y-97559488D01*
X86743003Y-97559492D01*
X86640516Y-97661979D01*
X86640512Y-97661984D01*
X86568038Y-97787513D01*
X86568036Y-97787517D01*
X86530522Y-97927520D01*
X86399148Y-97927520D01*
X86400500Y-97922477D01*
X86400500Y-97777522D01*
X86362985Y-97637519D01*
X86362984Y-97637515D01*
X86290509Y-97511985D01*
X86188015Y-97409491D01*
X86062485Y-97337016D01*
X86062482Y-97337015D01*
X86062480Y-97337014D01*
X85922477Y-97299500D01*
X85922475Y-97299500D01*
X85777525Y-97299500D01*
X85777523Y-97299500D01*
X85637519Y-97337014D01*
X85637515Y-97337016D01*
X85511986Y-97409490D01*
X85511981Y-97409494D01*
X85409494Y-97511981D01*
X85409490Y-97511986D01*
X85337016Y-97637515D01*
X85337014Y-97637519D01*
X85299500Y-97777522D01*
X80850500Y-97777522D01*
X80812985Y-97637519D01*
X80812984Y-97637515D01*
X80740509Y-97511985D01*
X80638015Y-97409491D01*
X80512485Y-97337016D01*
X80512482Y-97337015D01*
X80512480Y-97337014D01*
X80372477Y-97299500D01*
X80372475Y-97299500D01*
X80227525Y-97299500D01*
X80227523Y-97299500D01*
X80087519Y-97337014D01*
X80087515Y-97337016D01*
X79961986Y-97409490D01*
X79961981Y-97409494D01*
X79859494Y-97511981D01*
X79859490Y-97511986D01*
X79787016Y-97637515D01*
X79787014Y-97637519D01*
X79749500Y-97777522D01*
X74061083Y-97777522D01*
X74005520Y-97681284D01*
X73893716Y-97569480D01*
X73756784Y-97490423D01*
X73756781Y-97490422D01*
X73756779Y-97490421D01*
X73604059Y-97449500D01*
X73604057Y-97449500D01*
X73445943Y-97449500D01*
X73445941Y-97449500D01*
X73293220Y-97490421D01*
X73293216Y-97490423D01*
X73156285Y-97569479D01*
X73156280Y-97569483D01*
X73044483Y-97681280D01*
X73044479Y-97681285D01*
X72965423Y-97818216D01*
X72965421Y-97818220D01*
X72924500Y-97970940D01*
X72775500Y-97970940D01*
X72734578Y-97818220D01*
X72734577Y-97818216D01*
X72655520Y-97681284D01*
X72543716Y-97569480D01*
X72406784Y-97490423D01*
X72406781Y-97490422D01*
X72406779Y-97490421D01*
X72254059Y-97449500D01*
X72254057Y-97449500D01*
X72095943Y-97449500D01*
X72095941Y-97449500D01*
X71943220Y-97490421D01*
X71943216Y-97490423D01*
X71806285Y-97569479D01*
X71806280Y-97569483D01*
X71694483Y-97681280D01*
X71694479Y-97681285D01*
X71615423Y-97818216D01*
X71615421Y-97818220D01*
X71574500Y-97970940D01*
X68000500Y-97970940D01*
X68000500Y-96227522D01*
X90299500Y-96227522D01*
X90299500Y-96372477D01*
X90337014Y-96512480D01*
X90337015Y-96512482D01*
X90337016Y-96512485D01*
X90409491Y-96638015D01*
X90511985Y-96740509D01*
X90637515Y-96812984D01*
X90637519Y-96812985D01*
X90777523Y-96850500D01*
X90923217Y-96850500D01*
X90966704Y-96868513D01*
X90982620Y-96896080D01*
X90987016Y-96912485D01*
X91059491Y-97038015D01*
X91161985Y-97140509D01*
X91287515Y-97212984D01*
X91287519Y-97212985D01*
X91427523Y-97250500D01*
X91427525Y-97250500D01*
X91572476Y-97250500D01*
X91634206Y-97233958D01*
X91712485Y-97212984D01*
X91838015Y-97140509D01*
X91940509Y-97038015D01*
X92012984Y-96912485D01*
X92032804Y-96838516D01*
X92050500Y-96772477D01*
X92050500Y-96727522D01*
X95899500Y-96727522D01*
X95899500Y-96872477D01*
X95937014Y-97012480D01*
X95937015Y-97012482D01*
X95937016Y-97012485D01*
X96009491Y-97138015D01*
X96111985Y-97240509D01*
X96237515Y-97312984D01*
X96237519Y-97312985D01*
X96377523Y-97350500D01*
X96377525Y-97350500D01*
X96522476Y-97350500D01*
X96584206Y-97333958D01*
X96662485Y-97312984D01*
X96788015Y-97240509D01*
X96890509Y-97138015D01*
X96962984Y-97012485D01*
X96977540Y-96958158D01*
X97000500Y-96872477D01*
X97000500Y-96727522D01*
X96962985Y-96587519D01*
X96962984Y-96587515D01*
X96890509Y-96461985D01*
X96788015Y-96359491D01*
X96662485Y-96287016D01*
X96662482Y-96287015D01*
X96662480Y-96287014D01*
X96522477Y-96249500D01*
X96522475Y-96249500D01*
X96377525Y-96249500D01*
X96377523Y-96249500D01*
X96237519Y-96287014D01*
X96237515Y-96287016D01*
X96111986Y-96359490D01*
X96111981Y-96359494D01*
X96009494Y-96461981D01*
X96009490Y-96461986D01*
X95937016Y-96587515D01*
X95937014Y-96587519D01*
X95899500Y-96727522D01*
X92050500Y-96727522D01*
X92050500Y-96627522D01*
X92012985Y-96487519D01*
X92012984Y-96487515D01*
X91940509Y-96361985D01*
X91838015Y-96259491D01*
X91712485Y-96187016D01*
X91712482Y-96187015D01*
X91712480Y-96187014D01*
X91572477Y-96149500D01*
X91572475Y-96149500D01*
X91427525Y-96149500D01*
X91426783Y-96149500D01*
X91383296Y-96131487D01*
X91367379Y-96103919D01*
X91362984Y-96087515D01*
X91290509Y-95961985D01*
X91188015Y-95859491D01*
X91062485Y-95787016D01*
X91062482Y-95787015D01*
X91062480Y-95787014D01*
X90922477Y-95749500D01*
X90922475Y-95749500D01*
X90777525Y-95749500D01*
X90777523Y-95749500D01*
X90637519Y-95787014D01*
X90637515Y-95787016D01*
X90511986Y-95859490D01*
X90511981Y-95859494D01*
X90409494Y-95961981D01*
X90409490Y-95961986D01*
X90337016Y-96087515D01*
X90337014Y-96087519D01*
X90299500Y-96227522D01*
X68000500Y-96227522D01*
X68000500Y-95565022D01*
X78249500Y-95565022D01*
X78249500Y-95709977D01*
X78287014Y-95849980D01*
X78287015Y-95849982D01*
X78287016Y-95849985D01*
X78359491Y-95975515D01*
X78461985Y-96078009D01*
X78587515Y-96150484D01*
X78587519Y-96150485D01*
X78727523Y-96188000D01*
X78727525Y-96188000D01*
X78872476Y-96188000D01*
X78965831Y-96162985D01*
X79012485Y-96150484D01*
X79138015Y-96078009D01*
X79240509Y-95975515D01*
X79312984Y-95849985D01*
X79339909Y-95749500D01*
X79350500Y-95709977D01*
X79350500Y-95569405D01*
X84462575Y-95569405D01*
X84462575Y-95714360D01*
X84500089Y-95854363D01*
X84500090Y-95854365D01*
X84500091Y-95854368D01*
X84572566Y-95979898D01*
X84675060Y-96082392D01*
X84800590Y-96154867D01*
X84800594Y-96154868D01*
X84940598Y-96192383D01*
X84940600Y-96192383D01*
X85085551Y-96192383D01*
X85147281Y-96175841D01*
X85225560Y-96154867D01*
X85351090Y-96082392D01*
X85453584Y-95979898D01*
X85526059Y-95854368D01*
X85530468Y-95837912D01*
X85559121Y-95800570D01*
X85605788Y-95794425D01*
X85643132Y-95823079D01*
X85643132Y-95823080D01*
X85709486Y-95938008D01*
X85709489Y-95938012D01*
X85709491Y-95938015D01*
X85811985Y-96040509D01*
X85937515Y-96112984D01*
X85937519Y-96112985D01*
X86077523Y-96150500D01*
X86077525Y-96150500D01*
X86222476Y-96150500D01*
X86293432Y-96131487D01*
X86362485Y-96112984D01*
X86488015Y-96040509D01*
X86488016Y-96040507D01*
X86491506Y-96038493D01*
X86492280Y-96039834D01*
X86532537Y-96029042D01*
X86568006Y-96046530D01*
X86611985Y-96090509D01*
X86737515Y-96162984D01*
X86737519Y-96162985D01*
X86877523Y-96200500D01*
X86877525Y-96200500D01*
X87022476Y-96200500D01*
X87158358Y-96164090D01*
X87159682Y-96163734D01*
X87162485Y-96162984D01*
X87288015Y-96090509D01*
X87384419Y-95994105D01*
X87427906Y-95976092D01*
X87471393Y-95994105D01*
X87505785Y-96028497D01*
X87631315Y-96100972D01*
X87631319Y-96100973D01*
X87771323Y-96138488D01*
X87771325Y-96138488D01*
X87916276Y-96138488D01*
X88011456Y-96112984D01*
X88056285Y-96100972D01*
X88181815Y-96028497D01*
X88284309Y-95926003D01*
X88356784Y-95800473D01*
X88381033Y-95709975D01*
X88394300Y-95660465D01*
X88394300Y-95515510D01*
X88373909Y-95439412D01*
X88370723Y-95427522D01*
X88705700Y-95427522D01*
X88705700Y-95572477D01*
X88743214Y-95712480D01*
X88743215Y-95712482D01*
X88743216Y-95712485D01*
X88815691Y-95838015D01*
X88918185Y-95940509D01*
X89043715Y-96012984D01*
X89043719Y-96012985D01*
X89183723Y-96050500D01*
X89183725Y-96050500D01*
X89328676Y-96050500D01*
X89410805Y-96028493D01*
X89468685Y-96012984D01*
X89594215Y-95940509D01*
X89696709Y-95838015D01*
X89769184Y-95712485D01*
X89783740Y-95658158D01*
X89806700Y-95572477D01*
X89806700Y-95427522D01*
X89769185Y-95287519D01*
X89769184Y-95287515D01*
X89696709Y-95161985D01*
X89594215Y-95059491D01*
X89468685Y-94987016D01*
X89468682Y-94987015D01*
X89468678Y-94987013D01*
X89453318Y-94982898D01*
X89453317Y-94982898D01*
X89328677Y-94949500D01*
X89328675Y-94949500D01*
X89183725Y-94949500D01*
X89183723Y-94949500D01*
X89043719Y-94987014D01*
X89043715Y-94987016D01*
X88918186Y-95059490D01*
X88918181Y-95059494D01*
X88815694Y-95161981D01*
X88815690Y-95161986D01*
X88743216Y-95287515D01*
X88743214Y-95287519D01*
X88705700Y-95427522D01*
X88370723Y-95427522D01*
X88356785Y-95375507D01*
X88356784Y-95375503D01*
X88284309Y-95249973D01*
X88181815Y-95147479D01*
X88056285Y-95075004D01*
X88056282Y-95075003D01*
X88056280Y-95075002D01*
X87916277Y-95037488D01*
X87916275Y-95037488D01*
X87771325Y-95037488D01*
X87771323Y-95037488D01*
X87631319Y-95075002D01*
X87631315Y-95075004D01*
X87505786Y-95147478D01*
X87505781Y-95147482D01*
X87409381Y-95243883D01*
X87365894Y-95261896D01*
X87322407Y-95243883D01*
X87288018Y-95209494D01*
X87288015Y-95209491D01*
X87162485Y-95137016D01*
X87162482Y-95137015D01*
X87162480Y-95137014D01*
X87022477Y-95099500D01*
X87022475Y-95099500D01*
X86877525Y-95099500D01*
X86877523Y-95099500D01*
X86737519Y-95137014D01*
X86737515Y-95137016D01*
X86611985Y-95209491D01*
X86611983Y-95209492D01*
X86608494Y-95211507D01*
X86607723Y-95210171D01*
X86567432Y-95220953D01*
X86531993Y-95203469D01*
X86488018Y-95159494D01*
X86488015Y-95159491D01*
X86362485Y-95087016D01*
X86362482Y-95087015D01*
X86362480Y-95087014D01*
X86222477Y-95049500D01*
X86222475Y-95049500D01*
X86077525Y-95049500D01*
X86077523Y-95049500D01*
X85937519Y-95087014D01*
X85937515Y-95087016D01*
X85811986Y-95159490D01*
X85811981Y-95159494D01*
X85709494Y-95261981D01*
X85709490Y-95261986D01*
X85637016Y-95387515D01*
X85637015Y-95387518D01*
X85632606Y-95403971D01*
X85603950Y-95441314D01*
X85557283Y-95447456D01*
X85519941Y-95418802D01*
X85453584Y-95303868D01*
X85351090Y-95201374D01*
X85225560Y-95128899D01*
X85225557Y-95128898D01*
X85225555Y-95128897D01*
X85085552Y-95091383D01*
X85085550Y-95091383D01*
X84940600Y-95091383D01*
X84940598Y-95091383D01*
X84800594Y-95128897D01*
X84800590Y-95128899D01*
X84675061Y-95201373D01*
X84675056Y-95201377D01*
X84572569Y-95303864D01*
X84572565Y-95303869D01*
X84500091Y-95429398D01*
X84500089Y-95429402D01*
X84462575Y-95569405D01*
X79350500Y-95569405D01*
X79350500Y-95565022D01*
X79316061Y-95436499D01*
X79312984Y-95425015D01*
X79240509Y-95299485D01*
X79138015Y-95196991D01*
X79012485Y-95124516D01*
X79012482Y-95124515D01*
X79012480Y-95124514D01*
X78872477Y-95087000D01*
X78872475Y-95087000D01*
X78727525Y-95087000D01*
X78727523Y-95087000D01*
X78587519Y-95124514D01*
X78587515Y-95124516D01*
X78461986Y-95196990D01*
X78461981Y-95196994D01*
X78359494Y-95299481D01*
X78359490Y-95299486D01*
X78287016Y-95425015D01*
X78287014Y-95425019D01*
X78249500Y-95565022D01*
X68000500Y-95565022D01*
X68000500Y-94727522D01*
X73399500Y-94727522D01*
X73399500Y-94872477D01*
X73437014Y-95012480D01*
X73437015Y-95012482D01*
X73437016Y-95012485D01*
X73509491Y-95138015D01*
X73611985Y-95240509D01*
X73737515Y-95312984D01*
X73737519Y-95312985D01*
X73877523Y-95350500D01*
X73877525Y-95350500D01*
X74022476Y-95350500D01*
X74084206Y-95333958D01*
X74162485Y-95312984D01*
X74288015Y-95240509D01*
X74390509Y-95138015D01*
X74462984Y-95012485D01*
X74485750Y-94927522D01*
X74500500Y-94872477D01*
X74500500Y-94727522D01*
X74462985Y-94587519D01*
X74462984Y-94587515D01*
X74390509Y-94461985D01*
X74306046Y-94377522D01*
X76448500Y-94377522D01*
X76448500Y-94522477D01*
X76486014Y-94662480D01*
X76486015Y-94662482D01*
X76486016Y-94662485D01*
X76558491Y-94788015D01*
X76660985Y-94890509D01*
X76786515Y-94962984D01*
X76786519Y-94962985D01*
X76926523Y-95000500D01*
X76926525Y-95000500D01*
X77071476Y-95000500D01*
X77137166Y-94982898D01*
X77211485Y-94962984D01*
X77337015Y-94890509D01*
X77439509Y-94788015D01*
X77511984Y-94662485D01*
X77532071Y-94587519D01*
X77549500Y-94522477D01*
X77549500Y-94377522D01*
X77539288Y-94339412D01*
X77536102Y-94327522D01*
X77949500Y-94327522D01*
X77949500Y-94472477D01*
X77987014Y-94612480D01*
X77987015Y-94612482D01*
X77987016Y-94612485D01*
X78059491Y-94738015D01*
X78161985Y-94840509D01*
X78287515Y-94912984D01*
X78287519Y-94912985D01*
X78427523Y-94950500D01*
X78427525Y-94950500D01*
X78572476Y-94950500D01*
X78634206Y-94933958D01*
X78658226Y-94927522D01*
X92949500Y-94927522D01*
X92949500Y-95072477D01*
X92987014Y-95212480D01*
X92987015Y-95212482D01*
X92987016Y-95212485D01*
X93059491Y-95338015D01*
X93161985Y-95440509D01*
X93287515Y-95512984D01*
X93287519Y-95512985D01*
X93427523Y-95550500D01*
X93427525Y-95550500D01*
X93572476Y-95550500D01*
X93634206Y-95533958D01*
X93712485Y-95512984D01*
X93838015Y-95440509D01*
X93940509Y-95338015D01*
X94012984Y-95212485D01*
X94032938Y-95138018D01*
X94050500Y-95072477D01*
X94050500Y-94927522D01*
X94012985Y-94787519D01*
X94012984Y-94787515D01*
X93940509Y-94661985D01*
X93838015Y-94559491D01*
X93712485Y-94487016D01*
X93712482Y-94487015D01*
X93712480Y-94487014D01*
X93572477Y-94449500D01*
X93572475Y-94449500D01*
X93427525Y-94449500D01*
X93427523Y-94449500D01*
X93287519Y-94487014D01*
X93287515Y-94487016D01*
X93161986Y-94559490D01*
X93161981Y-94559494D01*
X93059494Y-94661981D01*
X93059490Y-94661986D01*
X92987016Y-94787515D01*
X92987014Y-94787519D01*
X92949500Y-94927522D01*
X78658226Y-94927522D01*
X78712485Y-94912984D01*
X78838015Y-94840509D01*
X78940509Y-94738015D01*
X79012984Y-94612485D01*
X79037102Y-94522477D01*
X79050500Y-94472477D01*
X79050500Y-94327522D01*
X79012985Y-94187519D01*
X79012984Y-94187515D01*
X78940509Y-94061985D01*
X78838015Y-93959491D01*
X78712485Y-93887016D01*
X78712482Y-93887015D01*
X78712480Y-93887014D01*
X78572477Y-93849500D01*
X78572475Y-93849500D01*
X78427525Y-93849500D01*
X78427523Y-93849500D01*
X78287519Y-93887014D01*
X78287515Y-93887016D01*
X78161986Y-93959490D01*
X78161981Y-93959494D01*
X78059494Y-94061981D01*
X78059490Y-94061986D01*
X77987016Y-94187515D01*
X77987014Y-94187519D01*
X77949500Y-94327522D01*
X77536102Y-94327522D01*
X77511985Y-94237519D01*
X77511984Y-94237515D01*
X77439509Y-94111985D01*
X77337015Y-94009491D01*
X77211485Y-93937016D01*
X77211482Y-93937015D01*
X77211480Y-93937014D01*
X77071477Y-93899500D01*
X77071475Y-93899500D01*
X76926525Y-93899500D01*
X76926523Y-93899500D01*
X76786519Y-93937014D01*
X76786515Y-93937016D01*
X76660986Y-94009490D01*
X76660981Y-94009494D01*
X76558494Y-94111981D01*
X76558490Y-94111986D01*
X76486016Y-94237515D01*
X76486014Y-94237519D01*
X76448500Y-94377522D01*
X74306046Y-94377522D01*
X74288015Y-94359491D01*
X74162485Y-94287016D01*
X74162482Y-94287015D01*
X74162480Y-94287014D01*
X74022477Y-94249500D01*
X74022475Y-94249500D01*
X73877525Y-94249500D01*
X73877523Y-94249500D01*
X73737519Y-94287014D01*
X73737515Y-94287016D01*
X73611986Y-94359490D01*
X73611981Y-94359494D01*
X73509494Y-94461981D01*
X73509490Y-94461986D01*
X73437016Y-94587515D01*
X73437014Y-94587519D01*
X73399500Y-94727522D01*
X68000500Y-94727522D01*
X68000500Y-93427522D01*
X74449500Y-93427522D01*
X74449500Y-93572477D01*
X74487014Y-93712480D01*
X74487015Y-93712482D01*
X74487016Y-93712485D01*
X74559491Y-93838015D01*
X74661985Y-93940509D01*
X74787515Y-94012984D01*
X74787519Y-94012985D01*
X74927523Y-94050500D01*
X74927525Y-94050500D01*
X75072476Y-94050500D01*
X75134206Y-94033958D01*
X75212485Y-94012984D01*
X75338015Y-93940509D01*
X75440509Y-93838015D01*
X75512984Y-93712485D01*
X75527540Y-93658158D01*
X75550500Y-93572477D01*
X75550500Y-93427522D01*
X75516061Y-93298999D01*
X75512984Y-93287515D01*
X75440509Y-93161985D01*
X75338015Y-93059491D01*
X75212485Y-92987016D01*
X75212482Y-92987015D01*
X75212480Y-92987014D01*
X75072477Y-92949500D01*
X75072475Y-92949500D01*
X74927525Y-92949500D01*
X74927523Y-92949500D01*
X74787519Y-92987014D01*
X74787515Y-92987016D01*
X74661986Y-93059490D01*
X74661981Y-93059494D01*
X74559494Y-93161981D01*
X74559490Y-93161986D01*
X74487016Y-93287515D01*
X74487014Y-93287519D01*
X74449500Y-93427522D01*
X68000500Y-93427522D01*
X68000500Y-92562000D01*
X68018513Y-92518513D01*
X68062000Y-92500500D01*
X88532057Y-92500500D01*
X88575544Y-92518513D01*
G37*
%TD.AperFunction*%
%TD*%
M02*
