%TF.GenerationSoftware,KiCad,Pcbnew,9.0.4*%
%TF.CreationDate,2025-10-09T20:33:17+01:00*%
%TF.ProjectId,DashcamPower,44617368-6361-46d5-906f-7765722e6b69,rev?*%
%TF.SameCoordinates,Original*%
%TF.FileFunction,Soldermask,Top*%
%TF.FilePolarity,Negative*%
%FSLAX46Y46*%
G04 Gerber Fmt 4.6, Leading zero omitted, Abs format (unit mm)*
G04 Created by KiCad (PCBNEW 9.0.4) date 2025-10-09 20:33:17*
%MOMM*%
%LPD*%
G01*
G04 APERTURE LIST*
G04 Aperture macros list*
%AMRoundRect*
0 Rectangle with rounded corners*
0 $1 Rounding radius*
0 $2 $3 $4 $5 $6 $7 $8 $9 X,Y pos of 4 corners*
0 Add a 4 corners polygon primitive as box body*
4,1,4,$2,$3,$4,$5,$6,$7,$8,$9,$2,$3,0*
0 Add four circle primitives for the rounded corners*
1,1,$1+$1,$2,$3*
1,1,$1+$1,$4,$5*
1,1,$1+$1,$6,$7*
1,1,$1+$1,$8,$9*
0 Add four rect primitives between the rounded corners*
20,1,$1+$1,$2,$3,$4,$5,0*
20,1,$1+$1,$4,$5,$6,$7,0*
20,1,$1+$1,$6,$7,$8,$9,0*
20,1,$1+$1,$8,$9,$2,$3,0*%
G04 Aperture macros list end*
%ADD10RoundRect,0.200000X-0.200000X-0.275000X0.200000X-0.275000X0.200000X0.275000X-0.200000X0.275000X0*%
%ADD11RoundRect,0.200000X-0.275000X0.200000X-0.275000X-0.200000X0.275000X-0.200000X0.275000X0.200000X0*%
%ADD12RoundRect,0.225000X0.250000X-0.225000X0.250000X0.225000X-0.250000X0.225000X-0.250000X-0.225000X0*%
%ADD13C,0.700000*%
%ADD14O,2.400000X0.900000*%
%ADD15O,1.700000X0.900000*%
%ADD16RoundRect,0.200000X0.275000X-0.200000X0.275000X0.200000X-0.275000X0.200000X-0.275000X-0.200000X0*%
%ADD17R,1.700000X1.700000*%
%ADD18C,1.700000*%
%ADD19RoundRect,0.150000X-0.587500X-0.150000X0.587500X-0.150000X0.587500X0.150000X-0.587500X0.150000X0*%
%ADD20RoundRect,0.250000X0.550000X0.550000X-0.550000X0.550000X-0.550000X-0.550000X0.550000X-0.550000X0*%
%ADD21C,1.600000*%
%ADD22RoundRect,0.250000X0.250000X0.475000X-0.250000X0.475000X-0.250000X-0.475000X0.250000X-0.475000X0*%
%ADD23R,1.400000X1.600000*%
%ADD24RoundRect,0.087500X-0.225000X-0.087500X0.225000X-0.087500X0.225000X0.087500X-0.225000X0.087500X0*%
%ADD25RoundRect,0.087500X-0.087500X-0.225000X0.087500X-0.225000X0.087500X0.225000X-0.087500X0.225000X0*%
%ADD26RoundRect,0.050000X-0.387500X-0.050000X0.387500X-0.050000X0.387500X0.050000X-0.387500X0.050000X0*%
%ADD27RoundRect,0.050000X-0.050000X-0.387500X0.050000X-0.387500X0.050000X0.387500X-0.050000X0.387500X0*%
%ADD28R,3.200000X3.200000*%
%ADD29RoundRect,0.250000X0.475000X-0.250000X0.475000X0.250000X-0.475000X0.250000X-0.475000X-0.250000X0*%
%ADD30RoundRect,0.243750X-0.456250X0.243750X-0.456250X-0.243750X0.456250X-0.243750X0.456250X0.243750X0*%
%ADD31RoundRect,0.150000X0.150000X-0.512500X0.150000X0.512500X-0.150000X0.512500X-0.150000X-0.512500X0*%
%ADD32R,1.400000X1.200000*%
%ADD33RoundRect,0.200000X0.200000X0.275000X-0.200000X0.275000X-0.200000X-0.275000X0.200000X-0.275000X0*%
%ADD34RoundRect,0.225000X-0.250000X0.225000X-0.250000X-0.225000X0.250000X-0.225000X0.250000X0.225000X0*%
%ADD35RoundRect,0.250000X0.262500X0.450000X-0.262500X0.450000X-0.262500X-0.450000X0.262500X-0.450000X0*%
%ADD36RoundRect,0.250000X-0.250000X-0.475000X0.250000X-0.475000X0.250000X0.475000X-0.250000X0.475000X0*%
G04 APERTURE END LIST*
D10*
%TO.C,R4*%
X97675000Y-105000000D03*
X99325000Y-105000000D03*
%TD*%
D11*
%TO.C,R5*%
X79000000Y-99675000D03*
X79000000Y-101325000D03*
%TD*%
D12*
%TO.C,C4*%
X87000000Y-94775000D03*
X87000000Y-93225000D03*
%TD*%
D13*
%TO.C,J2*%
X109650000Y-102975000D03*
X109650000Y-102125000D03*
X109650000Y-101275000D03*
X109650000Y-100425000D03*
X109650000Y-99575000D03*
X109650000Y-98725000D03*
X109650000Y-97875000D03*
X109650000Y-97025000D03*
X111000000Y-97025000D03*
X111000000Y-97875000D03*
X111000000Y-98725000D03*
X111000000Y-99575000D03*
X111000000Y-100425000D03*
X111000000Y-101275000D03*
X111000000Y-102125000D03*
X111000000Y-102975000D03*
D14*
X110630000Y-104325000D03*
D15*
X114010000Y-104325000D03*
D14*
X110630000Y-95675000D03*
D15*
X114010000Y-95675000D03*
%TD*%
D16*
%TO.C,R15*%
X96000000Y-95825000D03*
X96000000Y-94175000D03*
%TD*%
%TO.C,R3*%
X102500000Y-107825000D03*
X102500000Y-106175000D03*
%TD*%
D17*
%TO.C,J4*%
X82540000Y-107500000D03*
D18*
X80000000Y-107500000D03*
X77460000Y-107500000D03*
X74920000Y-107500000D03*
X72380000Y-107500000D03*
X69840000Y-107500000D03*
%TD*%
D19*
%TO.C,Q2*%
X98062500Y-106550000D03*
X98062500Y-108450000D03*
X99937500Y-107500000D03*
%TD*%
D12*
%TO.C,C5*%
X81000000Y-104500000D03*
X81000000Y-102950000D03*
%TD*%
D20*
%TO.C,LS1*%
X108100000Y-93500000D03*
D21*
X104500000Y-93500000D03*
%TD*%
D22*
%TO.C,C1*%
X73950000Y-93500000D03*
X72050000Y-93500000D03*
%TD*%
D23*
%TO.C,SW1*%
X102500000Y-104000000D03*
X102500000Y-96000000D03*
X107000000Y-104000000D03*
X107000000Y-96000000D03*
%TD*%
D24*
%TO.C,U2*%
X76837500Y-102750000D03*
X76837500Y-103250000D03*
X76837500Y-103750000D03*
X76837500Y-104250000D03*
D25*
X77500000Y-104412500D03*
X78000000Y-104412500D03*
X78500000Y-104412500D03*
D24*
X79162500Y-104250000D03*
X79162500Y-103750000D03*
X79162500Y-103250000D03*
X79162500Y-102750000D03*
D25*
X78500000Y-102587500D03*
X78000000Y-102587500D03*
X77500000Y-102587500D03*
%TD*%
D10*
%TO.C,R17*%
X100850000Y-93500000D03*
X102500000Y-93500000D03*
%TD*%
D13*
%TO.C,J1*%
X73525000Y-97200000D03*
X73525000Y-98050000D03*
X73525000Y-98900000D03*
X73525000Y-99750000D03*
X73525000Y-100600000D03*
X73525000Y-101450000D03*
X73525000Y-102300000D03*
X73525000Y-103150000D03*
X72175000Y-103150000D03*
X72175000Y-102300000D03*
X72175000Y-101450000D03*
X72175000Y-100600000D03*
X72175000Y-99750000D03*
X72175000Y-98900000D03*
X72175000Y-98050000D03*
X72175000Y-97200000D03*
D14*
X72545000Y-95850000D03*
D15*
X69165000Y-95850000D03*
D14*
X72545000Y-104500000D03*
D15*
X69165000Y-104500000D03*
%TD*%
D10*
%TO.C,R6*%
X80725000Y-100200000D03*
X82375000Y-100200000D03*
%TD*%
D26*
%TO.C,U3*%
X83962500Y-97400000D03*
X83962500Y-97800000D03*
X83962500Y-98200000D03*
X83962500Y-98600000D03*
X83962500Y-99000000D03*
X83962500Y-99400000D03*
X83962500Y-99800000D03*
X83962500Y-100200000D03*
X83962500Y-100600000D03*
X83962500Y-101000000D03*
X83962500Y-101400000D03*
X83962500Y-101800000D03*
X83962500Y-102200000D03*
X83962500Y-102600000D03*
D27*
X84800000Y-103437500D03*
X85200000Y-103437500D03*
X85600000Y-103437500D03*
X86000000Y-103437500D03*
X86400000Y-103437500D03*
X86800000Y-103437500D03*
X87200000Y-103437500D03*
X87600000Y-103437500D03*
X88000000Y-103437500D03*
X88400000Y-103437500D03*
X88800000Y-103437500D03*
X89200000Y-103437500D03*
X89600000Y-103437500D03*
X90000000Y-103437500D03*
D26*
X90837500Y-102600000D03*
X90837500Y-102200000D03*
X90837500Y-101800000D03*
X90837500Y-101400000D03*
X90837500Y-101000000D03*
X90837500Y-100600000D03*
X90837500Y-100200000D03*
X90837500Y-99800000D03*
X90837500Y-99400000D03*
X90837500Y-99000000D03*
X90837500Y-98600000D03*
X90837500Y-98200000D03*
X90837500Y-97800000D03*
X90837500Y-97400000D03*
D27*
X90000000Y-96562500D03*
X89600000Y-96562500D03*
X89200000Y-96562500D03*
X88800000Y-96562500D03*
X88400000Y-96562500D03*
X88000000Y-96562500D03*
X87600000Y-96562500D03*
X87200000Y-96562500D03*
X86800000Y-96562500D03*
X86400000Y-96562500D03*
X86000000Y-96562500D03*
X85600000Y-96562500D03*
X85200000Y-96562500D03*
X84800000Y-96562500D03*
D28*
X87400000Y-100000000D03*
%TD*%
D29*
%TO.C,C9*%
X85000000Y-94950000D03*
X85000000Y-93050000D03*
%TD*%
D30*
%TO.C,D3*%
X98500000Y-99062500D03*
X98500000Y-100937500D03*
%TD*%
D16*
%TO.C,R16*%
X98500000Y-95825000D03*
X98500000Y-94175000D03*
%TD*%
D31*
%TO.C,U1*%
X76050000Y-95637500D03*
X77950000Y-95637500D03*
X77000000Y-93362500D03*
%TD*%
D16*
%TO.C,R22*%
X109500000Y-107825000D03*
X109500000Y-106175000D03*
%TD*%
D19*
%TO.C,Q1*%
X104562500Y-106050000D03*
X104562500Y-107950000D03*
X106437500Y-107000000D03*
%TD*%
D32*
%TO.C,Y1*%
X90600000Y-106800000D03*
X88400000Y-106800000D03*
X88400000Y-108400000D03*
X90600000Y-108400000D03*
%TD*%
D33*
%TO.C,R10*%
X89825000Y-105000000D03*
X88175000Y-105000000D03*
%TD*%
D30*
%TO.C,D2*%
X96000000Y-99062500D03*
X96000000Y-100937500D03*
%TD*%
%TO.C,D1*%
X93500000Y-99062500D03*
X93500000Y-100937500D03*
%TD*%
D34*
%TO.C,C11*%
X92500000Y-106725000D03*
X92500000Y-108275000D03*
%TD*%
D35*
%TO.C,R20*%
X112912500Y-93500000D03*
X111087500Y-93500000D03*
%TD*%
D10*
%TO.C,R7*%
X80750000Y-98300000D03*
X82400000Y-98300000D03*
%TD*%
D29*
%TO.C,C6*%
X91250000Y-95000000D03*
X91250000Y-93100000D03*
%TD*%
D12*
%TO.C,C12*%
X86500000Y-108400000D03*
X86500000Y-106850000D03*
%TD*%
D16*
%TO.C,R14*%
X93500000Y-95825000D03*
X93500000Y-94175000D03*
%TD*%
D36*
%TO.C,C3*%
X111550000Y-106500000D03*
X113450000Y-106500000D03*
%TD*%
%TO.C,C2*%
X79850000Y-95450000D03*
X81750000Y-95450000D03*
%TD*%
M02*
