%TF.GenerationSoftware,KiCad,Pcbnew,9.0.4*%
%TF.CreationDate,2025-10-09T20:33:17+01:00*%
%TF.ProjectId,DashcamPower,44617368-6361-46d5-906f-7765722e6b69,rev?*%
%TF.SameCoordinates,Original*%
%TF.FileFunction,Copper,L1,Top*%
%TF.FilePolarity,Positive*%
%FSLAX46Y46*%
G04 Gerber Fmt 4.6, Leading zero omitted, Abs format (unit mm)*
G04 Created by KiCad (PCBNEW 9.0.4) date 2025-10-09 20:33:17*
%MOMM*%
%LPD*%
G01*
G04 APERTURE LIST*
G04 Aperture macros list*
%AMRoundRect*
0 Rectangle with rounded corners*
0 $1 Rounding radius*
0 $2 $3 $4 $5 $6 $7 $8 $9 X,Y pos of 4 corners*
0 Add a 4 corners polygon primitive as box body*
4,1,4,$2,$3,$4,$5,$6,$7,$8,$9,$2,$3,0*
0 Add four circle primitives for the rounded corners*
1,1,$1+$1,$2,$3*
1,1,$1+$1,$4,$5*
1,1,$1+$1,$6,$7*
1,1,$1+$1,$8,$9*
0 Add four rect primitives between the rounded corners*
20,1,$1+$1,$2,$3,$4,$5,0*
20,1,$1+$1,$4,$5,$6,$7,0*
20,1,$1+$1,$6,$7,$8,$9,0*
20,1,$1+$1,$8,$9,$2,$3,0*%
G04 Aperture macros list end*
%TA.AperFunction,SMDPad,CuDef*%
%ADD10RoundRect,0.200000X-0.200000X-0.275000X0.200000X-0.275000X0.200000X0.275000X-0.200000X0.275000X0*%
%TD*%
%TA.AperFunction,SMDPad,CuDef*%
%ADD11RoundRect,0.200000X-0.275000X0.200000X-0.275000X-0.200000X0.275000X-0.200000X0.275000X0.200000X0*%
%TD*%
%TA.AperFunction,SMDPad,CuDef*%
%ADD12RoundRect,0.225000X0.250000X-0.225000X0.250000X0.225000X-0.250000X0.225000X-0.250000X-0.225000X0*%
%TD*%
%TA.AperFunction,ComponentPad*%
%ADD13C,0.700000*%
%TD*%
%TA.AperFunction,ComponentPad*%
%ADD14O,2.400000X0.900000*%
%TD*%
%TA.AperFunction,ComponentPad*%
%ADD15O,1.700000X0.900000*%
%TD*%
%TA.AperFunction,SMDPad,CuDef*%
%ADD16RoundRect,0.200000X0.275000X-0.200000X0.275000X0.200000X-0.275000X0.200000X-0.275000X-0.200000X0*%
%TD*%
%TA.AperFunction,ComponentPad*%
%ADD17R,1.700000X1.700000*%
%TD*%
%TA.AperFunction,ComponentPad*%
%ADD18C,1.700000*%
%TD*%
%TA.AperFunction,SMDPad,CuDef*%
%ADD19RoundRect,0.150000X-0.587500X-0.150000X0.587500X-0.150000X0.587500X0.150000X-0.587500X0.150000X0*%
%TD*%
%TA.AperFunction,ComponentPad*%
%ADD20RoundRect,0.250000X0.550000X0.550000X-0.550000X0.550000X-0.550000X-0.550000X0.550000X-0.550000X0*%
%TD*%
%TA.AperFunction,ComponentPad*%
%ADD21C,1.600000*%
%TD*%
%TA.AperFunction,SMDPad,CuDef*%
%ADD22RoundRect,0.250000X0.250000X0.475000X-0.250000X0.475000X-0.250000X-0.475000X0.250000X-0.475000X0*%
%TD*%
%TA.AperFunction,SMDPad,CuDef*%
%ADD23R,1.400000X1.600000*%
%TD*%
%TA.AperFunction,SMDPad,CuDef*%
%ADD24RoundRect,0.087500X-0.225000X-0.087500X0.225000X-0.087500X0.225000X0.087500X-0.225000X0.087500X0*%
%TD*%
%TA.AperFunction,SMDPad,CuDef*%
%ADD25RoundRect,0.087500X-0.087500X-0.225000X0.087500X-0.225000X0.087500X0.225000X-0.087500X0.225000X0*%
%TD*%
%TA.AperFunction,SMDPad,CuDef*%
%ADD26RoundRect,0.050000X-0.387500X-0.050000X0.387500X-0.050000X0.387500X0.050000X-0.387500X0.050000X0*%
%TD*%
%TA.AperFunction,SMDPad,CuDef*%
%ADD27RoundRect,0.050000X-0.050000X-0.387500X0.050000X-0.387500X0.050000X0.387500X-0.050000X0.387500X0*%
%TD*%
%TA.AperFunction,HeatsinkPad*%
%ADD28R,3.200000X3.200000*%
%TD*%
%TA.AperFunction,SMDPad,CuDef*%
%ADD29RoundRect,0.250000X0.475000X-0.250000X0.475000X0.250000X-0.475000X0.250000X-0.475000X-0.250000X0*%
%TD*%
%TA.AperFunction,SMDPad,CuDef*%
%ADD30RoundRect,0.243750X-0.456250X0.243750X-0.456250X-0.243750X0.456250X-0.243750X0.456250X0.243750X0*%
%TD*%
%TA.AperFunction,SMDPad,CuDef*%
%ADD31RoundRect,0.150000X0.150000X-0.512500X0.150000X0.512500X-0.150000X0.512500X-0.150000X-0.512500X0*%
%TD*%
%TA.AperFunction,SMDPad,CuDef*%
%ADD32R,1.400000X1.200000*%
%TD*%
%TA.AperFunction,SMDPad,CuDef*%
%ADD33RoundRect,0.200000X0.200000X0.275000X-0.200000X0.275000X-0.200000X-0.275000X0.200000X-0.275000X0*%
%TD*%
%TA.AperFunction,SMDPad,CuDef*%
%ADD34RoundRect,0.225000X-0.250000X0.225000X-0.250000X-0.225000X0.250000X-0.225000X0.250000X0.225000X0*%
%TD*%
%TA.AperFunction,SMDPad,CuDef*%
%ADD35RoundRect,0.250000X0.262500X0.450000X-0.262500X0.450000X-0.262500X-0.450000X0.262500X-0.450000X0*%
%TD*%
%TA.AperFunction,SMDPad,CuDef*%
%ADD36RoundRect,0.250000X-0.250000X-0.475000X0.250000X-0.475000X0.250000X0.475000X-0.250000X0.475000X0*%
%TD*%
%TA.AperFunction,ViaPad*%
%ADD37C,0.600000*%
%TD*%
%TA.AperFunction,Conductor*%
%ADD38C,0.152400*%
%TD*%
%TA.AperFunction,Conductor*%
%ADD39C,0.100000*%
%TD*%
%TA.AperFunction,Conductor*%
%ADD40C,0.350000*%
%TD*%
%TA.AperFunction,Conductor*%
%ADD41C,0.200000*%
%TD*%
%TA.AperFunction,Conductor*%
%ADD42C,0.750000*%
%TD*%
%TA.AperFunction,Conductor*%
%ADD43C,0.180000*%
%TD*%
G04 APERTURE END LIST*
D10*
%TO.P,R4,1*%
%TO.N,/USB_OUT_ON*%
X97675000Y-105000000D03*
%TO.P,R4,2*%
%TO.N,Net-(Q2-B)*%
X99325000Y-105000000D03*
%TD*%
D11*
%TO.P,R5,1*%
%TO.N,+3.3V*%
X79000000Y-99675000D03*
%TO.P,R5,2*%
%TO.N,Net-(U2-CS)*%
X79000000Y-101325000D03*
%TD*%
D12*
%TO.P,C4,1*%
%TO.N,+3.3V*%
X87000000Y-94775000D03*
%TO.P,C4,2*%
%TO.N,GND*%
X87000000Y-93225000D03*
%TD*%
D13*
%TO.P,J2,A1,GND*%
%TO.N,GND*%
X109650000Y-102975000D03*
%TO.P,J2,A4,VBUS*%
%TO.N,/USB_VOUT*%
X109650000Y-102125000D03*
%TO.P,J2,A5,CC1*%
%TO.N,Net-(J2-CC1)*%
X109650000Y-101275000D03*
%TO.P,J2,A6,D+*%
%TO.N,Net-(J2-D+-PadA6)*%
X109650000Y-100425000D03*
%TO.P,J2,A7,D-*%
%TO.N,Net-(J2-D--PadA7)*%
X109650000Y-99575000D03*
%TO.P,J2,A8,SBU1*%
%TO.N,unconnected-(J2-SBU1-PadA8)*%
X109650000Y-98725000D03*
%TO.P,J2,A9,VBUS*%
%TO.N,/USB_VOUT*%
X109650000Y-97875000D03*
%TO.P,J2,A12,GND*%
%TO.N,GND*%
X109650000Y-97025000D03*
%TO.P,J2,B1,GND*%
X111000000Y-97025000D03*
%TO.P,J2,B4,VBUS*%
%TO.N,/USB_VOUT*%
X111000000Y-97875000D03*
%TO.P,J2,B5,CC2*%
%TO.N,Net-(J2-CC2)*%
X111000000Y-98725000D03*
%TO.P,J2,B6,D+*%
%TO.N,Net-(J2-D+-PadA6)*%
X111000000Y-99575000D03*
%TO.P,J2,B7,D-*%
%TO.N,Net-(J2-D--PadA7)*%
X111000000Y-100425000D03*
%TO.P,J2,B8,SBU2*%
%TO.N,unconnected-(J2-SBU2-PadB8)*%
X111000000Y-101275000D03*
%TO.P,J2,B9,VBUS*%
%TO.N,/USB_VOUT*%
X111000000Y-102125000D03*
%TO.P,J2,B12,GND*%
%TO.N,GND*%
X111000000Y-102975000D03*
D14*
%TO.P,J2,S1,SHIELD*%
X110630000Y-104325000D03*
D15*
X114010000Y-104325000D03*
D14*
X110630000Y-95675000D03*
D15*
X114010000Y-95675000D03*
%TD*%
D16*
%TO.P,R15,1*%
%TO.N,Net-(D2-K)*%
X96000000Y-95825000D03*
%TO.P,R15,2*%
%TO.N,GND*%
X96000000Y-94175000D03*
%TD*%
%TO.P,R3,1*%
%TO.N,+5V*%
X102500000Y-107825000D03*
%TO.P,R3,2*%
%TO.N,Net-(Q1-G)*%
X102500000Y-106175000D03*
%TD*%
D17*
%TO.P,J4,1,Pin_1*%
%TO.N,/SWD*%
X82540000Y-107500000D03*
D18*
%TO.P,J4,2,Pin_2*%
%TO.N,GND*%
X80000000Y-107500000D03*
%TO.P,J4,3,Pin_3*%
%TO.N,/SWC*%
X77460000Y-107500000D03*
%TO.P,J4,4,Pin_4*%
%TO.N,/UTX*%
X74920000Y-107500000D03*
%TO.P,J4,5,Pin_5*%
%TO.N,/URX*%
X72380000Y-107500000D03*
%TO.P,J4,6,Pin_6*%
%TO.N,+3.3V*%
X69840000Y-107500000D03*
%TD*%
D19*
%TO.P,Q2,1,B*%
%TO.N,Net-(Q2-B)*%
X98062500Y-106550000D03*
%TO.P,Q2,2,E*%
%TO.N,GND*%
X98062500Y-108450000D03*
%TO.P,Q2,3,C*%
%TO.N,Net-(Q2-C)*%
X99937500Y-107500000D03*
%TD*%
D12*
%TO.P,C5,1*%
%TO.N,+3.3V*%
X81000000Y-104500000D03*
%TO.P,C5,2*%
%TO.N,GND*%
X81000000Y-102950000D03*
%TD*%
D20*
%TO.P,LS1,1,1*%
%TO.N,Net-(LS1-Pad1)*%
X108100000Y-93500000D03*
D21*
%TO.P,LS1,2,2*%
%TO.N,Net-(Q3-C)*%
X104500000Y-93500000D03*
%TD*%
D22*
%TO.P,C1,1*%
%TO.N,+5V*%
X73950000Y-93500000D03*
%TO.P,C1,2*%
%TO.N,GND*%
X72050000Y-93500000D03*
%TD*%
D23*
%TO.P,SW1,1,1*%
%TO.N,Net-(R17-Pad2)*%
X102500000Y-104000000D03*
X102500000Y-96000000D03*
%TO.P,SW1,2,2*%
%TO.N,GND*%
X107000000Y-104000000D03*
X107000000Y-96000000D03*
%TD*%
D24*
%TO.P,U2,1,SDO/SA0*%
%TO.N,GND*%
X76837500Y-102750000D03*
%TO.P,U2,2,SDX*%
X76837500Y-103250000D03*
%TO.P,U2,3,SCX*%
X76837500Y-103750000D03*
%TO.P,U2,4,INT1*%
%TO.N,/IMU_INT1*%
X76837500Y-104250000D03*
D25*
%TO.P,U2,5,VDDIO*%
%TO.N,+3.3V*%
X77500000Y-104412500D03*
%TO.P,U2,6,GND*%
%TO.N,GND*%
X78000000Y-104412500D03*
%TO.P,U2,7,GND*%
X78500000Y-104412500D03*
D24*
%TO.P,U2,8,VDD*%
%TO.N,+3.3V*%
X79162500Y-104250000D03*
%TO.P,U2,9,INT2*%
%TO.N,/IMU_INT2*%
X79162500Y-103750000D03*
%TO.P,U2,10,NC*%
%TO.N,unconnected-(U2-NC-Pad10)*%
X79162500Y-103250000D03*
%TO.P,U2,11,NC*%
%TO.N,unconnected-(U2-NC-Pad11)*%
X79162500Y-102750000D03*
D25*
%TO.P,U2,12,CS*%
%TO.N,Net-(U2-CS)*%
X78500000Y-102587500D03*
%TO.P,U2,13,SCL*%
%TO.N,/I2C_SCL*%
X78000000Y-102587500D03*
%TO.P,U2,14,SDA*%
%TO.N,/I2C_SDA*%
X77500000Y-102587500D03*
%TD*%
D10*
%TO.P,R17,1*%
%TO.N,+3.3V*%
X100850000Y-93500000D03*
%TO.P,R17,2*%
%TO.N,Net-(R17-Pad2)*%
X102500000Y-93500000D03*
%TD*%
D13*
%TO.P,J1,A1,GND*%
%TO.N,GND*%
X73525000Y-97200000D03*
%TO.P,J1,A4,VBUS*%
%TO.N,+5V*%
X73525000Y-98050000D03*
%TO.P,J1,A5,CC1*%
%TO.N,Net-(J1-CC1)*%
X73525000Y-98900000D03*
%TO.P,J1,A6,D+*%
%TO.N,/USB_D_P*%
X73525000Y-99750000D03*
%TO.P,J1,A7,D-*%
%TO.N,/USB_D_N*%
X73525000Y-100600000D03*
%TO.P,J1,A8,SBU1*%
%TO.N,unconnected-(J1-SBU1-PadA8)*%
X73525000Y-101450000D03*
%TO.P,J1,A9,VBUS*%
%TO.N,+5V*%
X73525000Y-102300000D03*
%TO.P,J1,A12,GND*%
%TO.N,GND*%
X73525000Y-103150000D03*
%TO.P,J1,B1,GND*%
X72175000Y-103150000D03*
%TO.P,J1,B4,VBUS*%
%TO.N,+5V*%
X72175000Y-102300000D03*
%TO.P,J1,B5,CC2*%
%TO.N,Net-(J1-CC2)*%
X72175000Y-101450000D03*
%TO.P,J1,B6,D+*%
%TO.N,/USB_D_P*%
X72175000Y-100600000D03*
%TO.P,J1,B7,D-*%
%TO.N,/USB_D_N*%
X72175000Y-99750000D03*
%TO.P,J1,B8,SBU2*%
%TO.N,unconnected-(J1-SBU2-PadB8)*%
X72175000Y-98900000D03*
%TO.P,J1,B9,VBUS*%
%TO.N,+5V*%
X72175000Y-98050000D03*
%TO.P,J1,B12,GND*%
%TO.N,GND*%
X72175000Y-97200000D03*
D14*
%TO.P,J1,S1,SHIELD*%
X72545000Y-95850000D03*
D15*
X69165000Y-95850000D03*
D14*
X72545000Y-104500000D03*
D15*
X69165000Y-104500000D03*
%TD*%
D10*
%TO.P,R6,1*%
%TO.N,+3.3V*%
X80725000Y-100200000D03*
%TO.P,R6,2*%
%TO.N,/I2C_SCL*%
X82375000Y-100200000D03*
%TD*%
D26*
%TO.P,U3,1,IOVDD*%
%TO.N,+3.3V*%
X83962500Y-97400000D03*
%TO.P,U3,2,GPIO0*%
%TO.N,unconnected-(U3-GPIO0-Pad2)*%
X83962500Y-97800000D03*
%TO.P,U3,3,GPIO1*%
%TO.N,unconnected-(U3-GPIO1-Pad3)*%
X83962500Y-98200000D03*
%TO.P,U3,4,GPIO2*%
%TO.N,/I2C_SDA*%
X83962500Y-98600000D03*
%TO.P,U3,5,GPIO3*%
%TO.N,/I2C_SCL*%
X83962500Y-99000000D03*
%TO.P,U3,6,GPIO4*%
%TO.N,unconnected-(U3-GPIO4-Pad6)*%
X83962500Y-99400000D03*
%TO.P,U3,7,GPIO5*%
%TO.N,/IMU_INT2*%
X83962500Y-99800000D03*
%TO.P,U3,8,GPIO6*%
%TO.N,/IMU_INT1*%
X83962500Y-100200000D03*
%TO.P,U3,9,GPIO7*%
%TO.N,unconnected-(U3-GPIO7-Pad9)*%
X83962500Y-100600000D03*
%TO.P,U3,10,IOVDD*%
%TO.N,+3.3V*%
X83962500Y-101000000D03*
%TO.P,U3,11,GPIO8*%
%TO.N,unconnected-(U3-GPIO8-Pad11)*%
X83962500Y-101400000D03*
%TO.P,U3,12,GPIO9*%
%TO.N,unconnected-(U3-GPIO9-Pad12)*%
X83962500Y-101800000D03*
%TO.P,U3,13,GPIO10*%
%TO.N,unconnected-(U3-GPIO10-Pad13)*%
X83962500Y-102200000D03*
%TO.P,U3,14,GPIO11*%
%TO.N,unconnected-(U3-GPIO11-Pad14)*%
X83962500Y-102600000D03*
D27*
%TO.P,U3,15,GPIO12*%
%TO.N,unconnected-(U3-GPIO12-Pad15)*%
X84800000Y-103437500D03*
%TO.P,U3,16,GPIO13*%
%TO.N,unconnected-(U3-GPIO13-Pad16)*%
X85200000Y-103437500D03*
%TO.P,U3,17,GPIO14*%
%TO.N,/BUZZER*%
X85600000Y-103437500D03*
%TO.P,U3,18,GPIO15*%
%TO.N,unconnected-(U3-GPIO15-Pad18)*%
X86000000Y-103437500D03*
%TO.P,U3,19,TESTEN*%
%TO.N,unconnected-(U3-TESTEN-Pad19)*%
X86400000Y-103437500D03*
%TO.P,U3,20,XIN*%
%TO.N,Net-(U3-XIN)*%
X86800000Y-103437500D03*
%TO.P,U3,21,XOUT*%
%TO.N,Net-(U3-XOUT)*%
X87200000Y-103437500D03*
%TO.P,U3,22,IOVDD*%
%TO.N,+3.3V*%
X87600000Y-103437500D03*
%TO.P,U3,23,DVDD*%
%TO.N,/VCORE*%
X88000000Y-103437500D03*
%TO.P,U3,24,SWCLK*%
%TO.N,/SWC*%
X88400000Y-103437500D03*
%TO.P,U3,25,SWD*%
%TO.N,/SWD*%
X88800000Y-103437500D03*
%TO.P,U3,26,RUN*%
%TO.N,Net-(U3-RUN)*%
X89200000Y-103437500D03*
%TO.P,U3,27,GPIO16*%
%TO.N,unconnected-(U3-GPIO16-Pad27)*%
X89600000Y-103437500D03*
%TO.P,U3,28,GPIO17*%
%TO.N,/USB_OUT_ON*%
X90000000Y-103437500D03*
D26*
%TO.P,U3,29,GPIO18*%
%TO.N,/BTN*%
X90837500Y-102600000D03*
%TO.P,U3,30,GPIO19*%
%TO.N,/LED_G*%
X90837500Y-102200000D03*
%TO.P,U3,31,GPIO20*%
%TO.N,/UTX*%
X90837500Y-101800000D03*
%TO.P,U3,32,GPIO21*%
%TO.N,/URX*%
X90837500Y-101400000D03*
%TO.P,U3,33,IOVDD*%
%TO.N,+3.3V*%
X90837500Y-101000000D03*
%TO.P,U3,34,GPIO22*%
%TO.N,unconnected-(U3-GPIO22-Pad34)*%
X90837500Y-100600000D03*
%TO.P,U3,35,GPIO23*%
%TO.N,/LED_R*%
X90837500Y-100200000D03*
%TO.P,U3,36,GPIO24*%
%TO.N,unconnected-(U3-GPIO24-Pad36)*%
X90837500Y-99800000D03*
%TO.P,U3,37,GPIO25*%
%TO.N,/LED_Y*%
X90837500Y-99400000D03*
%TO.P,U3,38,GPIO26_ADC0*%
%TO.N,unconnected-(U3-GPIO26_ADC0-Pad38)*%
X90837500Y-99000000D03*
%TO.P,U3,39,GPIO27_ADC1*%
%TO.N,unconnected-(U3-GPIO27_ADC1-Pad39)*%
X90837500Y-98600000D03*
%TO.P,U3,40,GPIO28_ADC2*%
%TO.N,unconnected-(U3-GPIO28_ADC2-Pad40)*%
X90837500Y-98200000D03*
%TO.P,U3,41,GPIO29_ADC3*%
%TO.N,unconnected-(U3-GPIO29_ADC3-Pad41)*%
X90837500Y-97800000D03*
%TO.P,U3,42,IOVDD*%
%TO.N,+3.3V*%
X90837500Y-97400000D03*
D27*
%TO.P,U3,43,ADC_AVDD*%
X90000000Y-96562500D03*
%TO.P,U3,44,VREG_IN*%
X89600000Y-96562500D03*
%TO.P,U3,45,VREG_VOUT*%
%TO.N,/VCORE*%
X89200000Y-96562500D03*
%TO.P,U3,46,USB_DM*%
%TO.N,/USB_RES_D_P*%
X88800000Y-96562500D03*
%TO.P,U3,47,USB_DP*%
%TO.N,/USB_RES_D_N*%
X88400000Y-96562500D03*
%TO.P,U3,48,USB_VDD*%
%TO.N,+3.3V*%
X88000000Y-96562500D03*
%TO.P,U3,49,IOVDD*%
X87600000Y-96562500D03*
%TO.P,U3,50,DVDD*%
%TO.N,/VCORE*%
X87200000Y-96562500D03*
%TO.P,U3,51,QSPI_SD3*%
%TO.N,/QSPI_SD3*%
X86800000Y-96562500D03*
%TO.P,U3,52,QSPI_SCLK*%
%TO.N,/QSPI_CLK*%
X86400000Y-96562500D03*
%TO.P,U3,53,QSPI_SD0*%
%TO.N,/QSPI_SD0*%
X86000000Y-96562500D03*
%TO.P,U3,54,QSPI_SD2*%
%TO.N,/QSPI_SD2*%
X85600000Y-96562500D03*
%TO.P,U3,55,QSPI_SD1*%
%TO.N,/QSPI_SD1*%
X85200000Y-96562500D03*
%TO.P,U3,56,QSPI_SS*%
%TO.N,/QSPI_SS*%
X84800000Y-96562500D03*
D28*
%TO.P,U3,57,GND*%
%TO.N,GND*%
X87400000Y-100000000D03*
%TD*%
D29*
%TO.P,C9,1*%
%TO.N,+3.3V*%
X85000000Y-94950000D03*
%TO.P,C9,2*%
%TO.N,GND*%
X85000000Y-93050000D03*
%TD*%
D30*
%TO.P,D3,1,K*%
%TO.N,Net-(D3-K)*%
X98500000Y-99062500D03*
%TO.P,D3,2,A*%
%TO.N,/LED_Y*%
X98500000Y-100937500D03*
%TD*%
D16*
%TO.P,R16,1*%
%TO.N,Net-(D3-K)*%
X98500000Y-95825000D03*
%TO.P,R16,2*%
%TO.N,GND*%
X98500000Y-94175000D03*
%TD*%
D31*
%TO.P,U1,1,GND*%
%TO.N,GND*%
X76050000Y-95637500D03*
%TO.P,U1,2,VO*%
%TO.N,+3.3V*%
X77950000Y-95637500D03*
%TO.P,U1,3,VI*%
%TO.N,+5V*%
X77000000Y-93362500D03*
%TD*%
D16*
%TO.P,R22,1*%
%TO.N,Net-(Q2-C)*%
X109500000Y-107825000D03*
%TO.P,R22,2*%
%TO.N,Net-(Q1-G)*%
X109500000Y-106175000D03*
%TD*%
D19*
%TO.P,Q1,1,G*%
%TO.N,Net-(Q1-G)*%
X104562500Y-106050000D03*
%TO.P,Q1,2,S*%
%TO.N,+5V*%
X104562500Y-107950000D03*
%TO.P,Q1,3,D*%
%TO.N,/USB_VOUT*%
X106437500Y-107000000D03*
%TD*%
D32*
%TO.P,Y1,1,1*%
%TO.N,Net-(C11-Pad1)*%
X90600000Y-106800000D03*
%TO.P,Y1,2,2*%
%TO.N,GND*%
X88400000Y-106800000D03*
%TO.P,Y1,3,3*%
%TO.N,Net-(U3-XIN)*%
X88400000Y-108400000D03*
%TO.P,Y1,4,4*%
%TO.N,GND*%
X90600000Y-108400000D03*
%TD*%
D33*
%TO.P,R10,1*%
%TO.N,Net-(C11-Pad1)*%
X89825000Y-105000000D03*
%TO.P,R10,2*%
%TO.N,Net-(U3-XOUT)*%
X88175000Y-105000000D03*
%TD*%
D30*
%TO.P,D2,1,K*%
%TO.N,Net-(D2-K)*%
X96000000Y-99062500D03*
%TO.P,D2,2,A*%
%TO.N,/LED_R*%
X96000000Y-100937500D03*
%TD*%
%TO.P,D1,1,K*%
%TO.N,Net-(D1-K)*%
X93500000Y-99062500D03*
%TO.P,D1,2,A*%
%TO.N,/LED_G*%
X93500000Y-100937500D03*
%TD*%
D34*
%TO.P,C11,1*%
%TO.N,Net-(C11-Pad1)*%
X92500000Y-106725000D03*
%TO.P,C11,2*%
%TO.N,GND*%
X92500000Y-108275000D03*
%TD*%
D35*
%TO.P,R20,1*%
%TO.N,+5V*%
X112912500Y-93500000D03*
%TO.P,R20,2*%
%TO.N,Net-(LS1-Pad1)*%
X111087500Y-93500000D03*
%TD*%
D10*
%TO.P,R7,1*%
%TO.N,+3.3V*%
X80750000Y-98300000D03*
%TO.P,R7,2*%
%TO.N,/I2C_SDA*%
X82400000Y-98300000D03*
%TD*%
D29*
%TO.P,C6,1*%
%TO.N,/VCORE*%
X91250000Y-95000000D03*
%TO.P,C6,2*%
%TO.N,GND*%
X91250000Y-93100000D03*
%TD*%
D12*
%TO.P,C12,1*%
%TO.N,Net-(U3-XIN)*%
X86500000Y-108400000D03*
%TO.P,C12,2*%
%TO.N,GND*%
X86500000Y-106850000D03*
%TD*%
D16*
%TO.P,R14,1*%
%TO.N,Net-(D1-K)*%
X93500000Y-95825000D03*
%TO.P,R14,2*%
%TO.N,GND*%
X93500000Y-94175000D03*
%TD*%
D36*
%TO.P,C3,1*%
%TO.N,/USB_VOUT*%
X111550000Y-106500000D03*
%TO.P,C3,2*%
%TO.N,GND*%
X113450000Y-106500000D03*
%TD*%
%TO.P,C2,1*%
%TO.N,+3.3V*%
X79850000Y-95450000D03*
%TO.P,C2,2*%
%TO.N,GND*%
X81750000Y-95450000D03*
%TD*%
D37*
%TO.N,GND*%
X92250000Y-96350000D03*
%TO.N,+5V*%
X75000000Y-93500000D03*
X103450000Y-107950000D03*
X114200000Y-93500000D03*
X105749997Y-107950000D03*
X73950000Y-94800000D03*
X76999000Y-94450000D03*
X101600000Y-107850000D03*
%TO.N,GND*%
X73000000Y-93500000D03*
X88150122Y-105975000D03*
X82750000Y-95800000D03*
X91250000Y-94000000D03*
X78500000Y-105100000D03*
X86450000Y-101000000D03*
X78350000Y-97700000D03*
X87000000Y-93900000D03*
X97650000Y-93400000D03*
X97950000Y-107700000D03*
X89888167Y-102492598D03*
X107000000Y-102650000D03*
X86500000Y-100000000D03*
X106900000Y-98000000D03*
X93500000Y-93000000D03*
X114550000Y-106500000D03*
X68300000Y-100050000D03*
X93450000Y-108250000D03*
X89750000Y-108500000D03*
X82800000Y-97100000D03*
X85000000Y-93900000D03*
X75150000Y-95650000D03*
X87411725Y-98888275D03*
X108450000Y-96000000D03*
X89399998Y-106900000D03*
X86950000Y-105750000D03*
X80150000Y-102950000D03*
X96150000Y-103800000D03*
X71100000Y-93500000D03*
X75800000Y-103400000D03*
X90000000Y-99250000D03*
%TO.N,+3.3V*%
X93500000Y-104850000D03*
X87843800Y-95587988D03*
X91500000Y-96700000D03*
X85050000Y-101000000D03*
X78500000Y-94400000D03*
X89900000Y-100905000D03*
X79400000Y-104900000D03*
X79950000Y-99950000D03*
X80300000Y-97850000D03*
X77800000Y-103500000D03*
X100137500Y-93500748D03*
X78800000Y-95637500D03*
X90850000Y-96300000D03*
X85013075Y-95641883D03*
X87200000Y-102200000D03*
%TO.N,/VCORE*%
X88000000Y-102250000D03*
X86950000Y-95650000D03*
X89256200Y-95500000D03*
%TO.N,/BTN*%
X101250000Y-98000000D03*
%TO.N,Net-(U3-RUN)*%
X92200000Y-103400000D03*
%TO.N,Net-(D1-K)*%
X93500000Y-97550000D03*
X93500000Y-95000000D03*
%TO.N,Net-(D2-K)*%
X96450000Y-96800000D03*
X95538275Y-97711725D03*
%TO.N,/SWC*%
X89223608Y-102047215D03*
%TO.N,/URX*%
X91975000Y-100776200D03*
%TO.N,/UTX*%
X92002616Y-101575726D03*
%TO.N,/SWD*%
X89100000Y-105799998D03*
%TO.N,Net-(Q1-G)*%
X106100000Y-106050000D03*
%TO.N,/USB_RES_D_N*%
X88718301Y-93145685D03*
%TO.N,/USB_RES_D_P*%
X89470701Y-93145685D03*
%TO.N,Net-(R17-Pad2)*%
X103500000Y-100650000D03*
%TO.N,/BUZZER*%
X85600000Y-102250000D03*
%TO.N,/QSPI_SD1*%
X85253400Y-99350000D03*
%TO.N,/QSPI_SD2*%
X85850000Y-97850000D03*
%TO.N,/QSPI_CLK*%
X89611196Y-97815792D03*
%TO.N,/QSPI_SS*%
X85100000Y-100200000D03*
%TO.N,/USB_VOUT*%
X110550000Y-106850000D03*
X103800000Y-104000000D03*
X107950000Y-107000000D03*
X106450000Y-107950000D03*
%TO.N,/QSPI_SD0*%
X87081022Y-97999998D03*
%TO.N,/QSPI_SD3*%
X86150000Y-95600000D03*
%TD*%
D38*
%TO.N,GND*%
X88150122Y-106650122D02*
X88400000Y-106900000D01*
X88150122Y-105975000D02*
X88150122Y-106650122D01*
D39*
%TO.N,+3.3V*%
X79950000Y-99950000D02*
X80200000Y-100200000D01*
X79675000Y-99675000D02*
X79000000Y-99675000D01*
X79950000Y-99950000D02*
X79675000Y-99675000D01*
X80200000Y-100200000D02*
X80725000Y-100200000D01*
%TO.N,Net-(U2-CS)*%
X78500000Y-102587500D02*
X78500000Y-101825000D01*
X78500000Y-101825000D02*
X79000000Y-101325000D01*
D40*
%TO.N,+3.3V*%
X90362500Y-96200000D02*
X90000000Y-96562500D01*
X90750000Y-96200000D02*
X90362500Y-96200000D01*
X90850000Y-96300000D02*
X90750000Y-96200000D01*
D41*
X91300000Y-97400000D02*
X90837500Y-97400000D01*
X91500000Y-97200000D02*
X91300000Y-97400000D01*
X91500000Y-96700000D02*
X91500000Y-97200000D01*
D40*
%TO.N,+5V*%
X101625000Y-107825000D02*
X101600000Y-107850000D01*
D42*
X77000000Y-93362500D02*
X77000000Y-93700000D01*
D40*
X102500000Y-107825000D02*
X101625000Y-107825000D01*
X112912500Y-93500000D02*
X114200000Y-93500000D01*
D42*
X77000000Y-93700000D02*
X76999000Y-93701000D01*
D40*
X102625000Y-107950000D02*
X102500000Y-107825000D01*
X73950000Y-93500000D02*
X73950000Y-94800000D01*
X104562500Y-107950000D02*
X103450000Y-107950000D01*
D42*
X76100000Y-93500000D02*
X75000000Y-93500000D01*
D40*
X73950000Y-93500000D02*
X75000000Y-93500000D01*
D42*
X76999000Y-93701000D02*
X76999000Y-94450000D01*
D40*
X105550000Y-107950000D02*
X105800000Y-107950000D01*
X104562500Y-107950000D02*
X105550000Y-107950000D01*
D42*
X76237500Y-93362500D02*
X76100000Y-93500000D01*
D40*
X105800000Y-107950000D02*
X105749997Y-107950000D01*
D42*
X77000000Y-93362500D02*
X76237500Y-93362500D01*
D40*
X103450000Y-107950000D02*
X102625000Y-107950000D01*
D38*
%TO.N,GND*%
X72050000Y-93650000D02*
X72100000Y-93700000D01*
X78500000Y-104412500D02*
X78500000Y-105100000D01*
X88400000Y-106900000D02*
X89399998Y-106900000D01*
X96000000Y-94175000D02*
X96025000Y-94175000D01*
X113450000Y-106500000D02*
X114550000Y-106500000D01*
D42*
X81750000Y-95450000D02*
X82400000Y-95450000D01*
D38*
X76837500Y-103250000D02*
X76837500Y-102750000D01*
X98062500Y-108450000D02*
X98062500Y-107812500D01*
D40*
X72050000Y-93500000D02*
X73000000Y-93500000D01*
D38*
X76837500Y-103750000D02*
X76150000Y-103750000D01*
X98062500Y-107812500D02*
X97950000Y-107700000D01*
X106950000Y-104000000D02*
X106900000Y-104050000D01*
X98500000Y-94175000D02*
X98425000Y-94175000D01*
X86200000Y-93050000D02*
X85000000Y-93050000D01*
X107000000Y-104000000D02*
X107000000Y-102650000D01*
X76837500Y-103750000D02*
X76837500Y-103250000D01*
X85000000Y-93050000D02*
X85000000Y-93900000D01*
X92500000Y-108275000D02*
X93425000Y-108275000D01*
X87400000Y-100000000D02*
X87400000Y-98900000D01*
X86500000Y-106850000D02*
X86500000Y-106200000D01*
X86375000Y-93225000D02*
X86200000Y-93050000D01*
X93425000Y-108275000D02*
X93450000Y-108250000D01*
D42*
X76050000Y-95637500D02*
X75162500Y-95637500D01*
D38*
X88250000Y-106900000D02*
X88200000Y-106850000D01*
X87000000Y-93225000D02*
X87000000Y-93900000D01*
X88400000Y-106900000D02*
X88250000Y-106900000D01*
X81000000Y-102950000D02*
X80150000Y-102950000D01*
X96800000Y-93400000D02*
X97650000Y-93400000D01*
D42*
X82400000Y-95450000D02*
X82750000Y-95800000D01*
D38*
X76150000Y-103750000D02*
X75800000Y-103400000D01*
X96025000Y-94175000D02*
X96800000Y-93400000D01*
X98425000Y-94175000D02*
X97650000Y-93400000D01*
X87400000Y-100050000D02*
X86450000Y-101000000D01*
X90600000Y-108500000D02*
X89750000Y-108500000D01*
X87400000Y-100000000D02*
X87400000Y-100050000D01*
X88200000Y-106850000D02*
X86500000Y-106850000D01*
D42*
X75162500Y-95637500D02*
X75150000Y-95650000D01*
D38*
X87000000Y-93225000D02*
X86375000Y-93225000D01*
X90600000Y-108500000D02*
X92275000Y-108500000D01*
X93500000Y-94175000D02*
X93500000Y-93000000D01*
D40*
X91250000Y-93100000D02*
X91250000Y-94000000D01*
D38*
X87400000Y-98900000D02*
X87411725Y-98888275D01*
X92275000Y-108500000D02*
X92500000Y-108275000D01*
X86500000Y-106200000D02*
X86950000Y-105750000D01*
X87400000Y-100000000D02*
X86500000Y-100000000D01*
D40*
X71100000Y-93500000D02*
X72050000Y-93500000D01*
D38*
X107000000Y-96000000D02*
X108450000Y-96000000D01*
X78000000Y-104412500D02*
X78500000Y-104412500D01*
D40*
%TO.N,+3.3V*%
X88000000Y-95650000D02*
X87600000Y-95650000D01*
D38*
X87600000Y-102675909D02*
X87600000Y-103437500D01*
D39*
X80750000Y-98300000D02*
X80300000Y-97850000D01*
D40*
X86125000Y-94775000D02*
X87000000Y-94775000D01*
X90000000Y-96562500D02*
X90000000Y-97250000D01*
X85000000Y-94950000D02*
X85000000Y-95628808D01*
D38*
X87200000Y-102275909D02*
X87600000Y-102675909D01*
D41*
X90150000Y-97400000D02*
X90100000Y-97350000D01*
D42*
X78800000Y-95637500D02*
X79662500Y-95637500D01*
D38*
X79162500Y-104662500D02*
X79400000Y-104900000D01*
D42*
X77950000Y-95637500D02*
X77950000Y-94950000D01*
D38*
X87600000Y-96562500D02*
X87600000Y-95650000D01*
X100138248Y-93500000D02*
X100137500Y-93500748D01*
X88000000Y-95744188D02*
X87843800Y-95587988D01*
D40*
X85000000Y-95628808D02*
X85013075Y-95641883D01*
D38*
X79400000Y-104900000D02*
X79850000Y-104900000D01*
D42*
X77950000Y-94950000D02*
X78500000Y-94400000D01*
D40*
X87600000Y-95375000D02*
X87600000Y-95650000D01*
D42*
X77950000Y-95637500D02*
X78800000Y-95637500D01*
D38*
X87200000Y-102200000D02*
X87200000Y-102275909D01*
X83962500Y-97400000D02*
X83962500Y-95987500D01*
X88000000Y-96100000D02*
X88000000Y-95744188D01*
X77500000Y-104412500D02*
X77500000Y-103800000D01*
X77500000Y-103800000D02*
X77700000Y-103600000D01*
X77700000Y-103600000D02*
X77800000Y-103500000D01*
X88000000Y-96100000D02*
X88000000Y-95650000D01*
X79850000Y-104900000D02*
X80250000Y-104500000D01*
X88000000Y-96562500D02*
X88000000Y-96100000D01*
D41*
X90837500Y-97400000D02*
X90150000Y-97400000D01*
D38*
X79162500Y-104250000D02*
X79162500Y-104662500D01*
X90837500Y-101000000D02*
X89995000Y-101000000D01*
D40*
X87000000Y-94775000D02*
X87600000Y-95375000D01*
D38*
X100150000Y-93500000D02*
X100138248Y-93500000D01*
X83962500Y-101000000D02*
X85050000Y-101000000D01*
D42*
X79662500Y-95637500D02*
X79850000Y-95450000D01*
D40*
X90000000Y-97250000D02*
X90100000Y-97350000D01*
D38*
X80250000Y-104500000D02*
X81000000Y-104500000D01*
D40*
X85000000Y-94950000D02*
X85950000Y-94950000D01*
D38*
X89995000Y-101000000D02*
X89900000Y-100905000D01*
X89600000Y-96562500D02*
X90000000Y-96562500D01*
X83962500Y-95987500D02*
X85000000Y-94950000D01*
X100850000Y-93500000D02*
X100150000Y-93500000D01*
D40*
X85950000Y-94950000D02*
X86125000Y-94775000D01*
%TO.N,/VCORE*%
X91250000Y-95000000D02*
X89732200Y-95000000D01*
D38*
X89200000Y-95532200D02*
X89200000Y-96562500D01*
X88000000Y-103437500D02*
X88000000Y-102250000D01*
X87200000Y-96562500D02*
X87200000Y-97000000D01*
X87200000Y-97000000D02*
X87400000Y-97200000D01*
X89000000Y-97200000D02*
X89200000Y-97000000D01*
D40*
X89366100Y-95366100D02*
X89232200Y-95500000D01*
D38*
X89200000Y-97000000D02*
X89200000Y-96562500D01*
X89232200Y-95500000D02*
X89200000Y-95532200D01*
X87400000Y-97200000D02*
X89000000Y-97200000D01*
D40*
X89366100Y-95366100D02*
X89256200Y-95476000D01*
X89732200Y-95000000D02*
X89366100Y-95366100D01*
D38*
X87200000Y-95900000D02*
X86950000Y-95650000D01*
X87200000Y-96562500D02*
X87200000Y-95900000D01*
D39*
X88000000Y-103550000D02*
X87950000Y-103600000D01*
D40*
X89256200Y-95476000D02*
X89256200Y-95500000D01*
D38*
%TO.N,Net-(C11-Pad1)*%
X90600000Y-106900000D02*
X92325000Y-106900000D01*
X90600000Y-105775000D02*
X89825000Y-105000000D01*
X90600000Y-106900000D02*
X90600000Y-105775000D01*
X92325000Y-106900000D02*
X92500000Y-106725000D01*
%TO.N,Net-(U3-XIN)*%
X85450000Y-106200000D02*
X86800000Y-104850000D01*
X85850000Y-108400000D02*
X85450000Y-108000000D01*
X88400000Y-108500000D02*
X86600000Y-108500000D01*
X86800000Y-104850000D02*
X86800000Y-103437500D01*
X86500000Y-108400000D02*
X85850000Y-108400000D01*
X86600000Y-108500000D02*
X86500000Y-108400000D01*
X85450000Y-108000000D02*
X85450000Y-106200000D01*
%TO.N,/BTN*%
X100500000Y-101800000D02*
X99700000Y-102600000D01*
X99700000Y-102600000D02*
X90837500Y-102600000D01*
X101250000Y-98000000D02*
X100500000Y-98750000D01*
X100500000Y-98750000D02*
X100500000Y-101800000D01*
D39*
%TO.N,Net-(U3-RUN)*%
X91474000Y-104126000D02*
X92200000Y-103400000D01*
X89423936Y-104126000D02*
X90050000Y-104126000D01*
X90050000Y-104126000D02*
X91474000Y-104126000D01*
X89200000Y-103437500D02*
X89200000Y-103902064D01*
X89200000Y-103902064D02*
X89423936Y-104126000D01*
D38*
%TO.N,Net-(D1-K)*%
X93500000Y-99062500D02*
X93500000Y-97550000D01*
X93500000Y-95825000D02*
X93500000Y-95000000D01*
X93500000Y-99062500D02*
X92937500Y-99062500D01*
%TO.N,/LED_G*%
X93162500Y-100937500D02*
X93500000Y-100937500D01*
X90837500Y-102200000D02*
X92450000Y-102200000D01*
X92700000Y-101950000D02*
X92700000Y-101400000D01*
X92700000Y-101400000D02*
X93162500Y-100937500D01*
X92450000Y-102200000D02*
X92700000Y-101950000D01*
%TO.N,/LED_R*%
X95062500Y-100000000D02*
X96000000Y-100937500D01*
X92500000Y-100000000D02*
X95062500Y-100000000D01*
X92300000Y-100200000D02*
X92500000Y-100000000D01*
X90837500Y-100200000D02*
X92300000Y-100200000D01*
%TO.N,Net-(D2-K)*%
X96450000Y-96800000D02*
X96450000Y-96275000D01*
X96450000Y-96275000D02*
X96000000Y-95825000D01*
X96000000Y-98173450D02*
X95538275Y-97711725D01*
X96000000Y-99062500D02*
X96000000Y-98173450D01*
%TO.N,Net-(D3-K)*%
X98500000Y-99062500D02*
X98500000Y-95825000D01*
%TO.N,/LED_Y*%
X97000000Y-99437500D02*
X98500000Y-100937500D01*
X92500000Y-97000000D02*
X95750000Y-97000000D01*
X92000000Y-99000000D02*
X92000000Y-97500000D01*
X92000000Y-97500000D02*
X92500000Y-97000000D01*
X97000000Y-98250000D02*
X97000000Y-99437500D01*
X91600000Y-99400000D02*
X92000000Y-99000000D01*
X95750000Y-97000000D02*
X97000000Y-98250000D01*
X90837500Y-99400000D02*
X91600000Y-99400000D01*
%TO.N,/USB_D_N*%
X73525000Y-100600000D02*
X73025000Y-100600000D01*
X72245654Y-99750000D02*
X72175000Y-99750000D01*
X73025000Y-100600000D02*
X72175000Y-99750000D01*
%TO.N,Net-(J2-D+-PadA6)*%
X111000000Y-99575000D02*
X110500000Y-99575000D01*
X110500000Y-99575000D02*
X109650000Y-100425000D01*
D39*
%TO.N,/SWC*%
X88400000Y-103437500D02*
X88400000Y-102870823D01*
X88400000Y-102870823D02*
X89223608Y-102047215D01*
%TO.N,/URX*%
X91351200Y-101400000D02*
X91975000Y-100776200D01*
X90837500Y-101400000D02*
X91351200Y-101400000D01*
%TO.N,/UTX*%
X91778342Y-101800000D02*
X92002616Y-101575726D01*
X90837500Y-101800000D02*
X91778342Y-101800000D01*
%TO.N,/SWD*%
X89100000Y-104450000D02*
X89100000Y-105799998D01*
X88800000Y-104150000D02*
X89100000Y-104450000D01*
X88800000Y-103437500D02*
X88800000Y-104150000D01*
D41*
%TO.N,Net-(Q1-G)*%
X104437500Y-106175000D02*
X104562500Y-106050000D01*
X102500000Y-106175000D02*
X104437500Y-106175000D01*
X104562500Y-106050000D02*
X109375000Y-106050000D01*
X109375000Y-106050000D02*
X109500000Y-106175000D01*
%TO.N,Net-(Q2-B)*%
X98062500Y-106550000D02*
X99325000Y-105287500D01*
X99325000Y-105287500D02*
X99325000Y-105000000D01*
D38*
%TO.N,/USB_OUT_ON*%
X97675000Y-103328400D02*
X97200000Y-102853400D01*
X97200000Y-102853400D02*
X91696600Y-102853400D01*
X91696600Y-102853400D02*
X91112500Y-103437500D01*
X91112500Y-103437500D02*
X90000000Y-103437500D01*
X97675000Y-105000000D02*
X97675000Y-103328400D01*
D39*
%TO.N,/I2C_SCL*%
X78000000Y-102587500D02*
X78000000Y-100950000D01*
X82375000Y-99325000D02*
X82375000Y-100200000D01*
X81675000Y-100900000D02*
X82375000Y-100200000D01*
X78000000Y-100950000D02*
X78500000Y-100450000D01*
X82700000Y-99000000D02*
X82375000Y-99325000D01*
X78500000Y-100450000D02*
X79700000Y-100450000D01*
X79700000Y-100450000D02*
X80150000Y-100900000D01*
X83962500Y-99000000D02*
X82700000Y-99000000D01*
X80150000Y-100900000D02*
X81675000Y-100900000D01*
%TO.N,/I2C_SDA*%
X82400000Y-98300000D02*
X81650000Y-99050000D01*
X81650000Y-99050000D02*
X78000000Y-99050000D01*
X78000000Y-99050000D02*
X77500000Y-99550000D01*
X77500000Y-99550000D02*
X77500000Y-102587500D01*
X82700000Y-98600000D02*
X82400000Y-98300000D01*
X83962500Y-98600000D02*
X82700000Y-98600000D01*
D43*
%TO.N,/USB_RES_D_N*%
X88928301Y-94386657D02*
X88433800Y-94881158D01*
X88433800Y-95872449D02*
X88400000Y-95906249D01*
X88400000Y-95906249D02*
X88400000Y-96562500D01*
X88718301Y-93145685D02*
X88928301Y-93355685D01*
X88928301Y-93355685D02*
X88928301Y-94386657D01*
X88433800Y-94881158D02*
X88433800Y-95872449D01*
%TO.N,/USB_RES_D_P*%
X88766200Y-95018842D02*
X88766200Y-95872449D01*
X89260701Y-93355685D02*
X89260701Y-94524341D01*
X89260701Y-94524341D02*
X88766200Y-95018842D01*
X88766200Y-95872449D02*
X88800000Y-95906249D01*
X89470701Y-93145685D02*
X89260701Y-93355685D01*
X88800000Y-95906249D02*
X88800000Y-96562500D01*
D38*
%TO.N,Net-(U3-XOUT)*%
X87200000Y-103437500D02*
X87200000Y-104025000D01*
X87200000Y-104025000D02*
X88175000Y-105000000D01*
%TO.N,Net-(R17-Pad2)*%
X103500000Y-103000000D02*
X102500000Y-104000000D01*
X102500000Y-96000000D02*
X103500000Y-97000000D01*
X102500000Y-96000000D02*
X102500000Y-93500000D01*
X103500000Y-97000000D02*
X103500000Y-100650000D01*
X103500000Y-100650000D02*
X103500000Y-103000000D01*
%TO.N,/BUZZER*%
X85600000Y-103437500D02*
X85600000Y-102250000D01*
D40*
%TO.N,Net-(LS1-Pad1)*%
X111087500Y-93500000D02*
X108100000Y-93500000D01*
D39*
%TO.N,/IMU_INT2*%
X82000000Y-103600000D02*
X82800000Y-102800000D01*
X80200000Y-103750000D02*
X80350000Y-103600000D01*
X83525000Y-99800000D02*
X83962500Y-99800000D01*
X82800000Y-101600000D02*
X83100000Y-101300000D01*
X83100000Y-101300000D02*
X83100000Y-100225000D01*
X83100000Y-100225000D02*
X83525000Y-99800000D01*
X80350000Y-103600000D02*
X82000000Y-103600000D01*
X79162500Y-103750000D02*
X80200000Y-103750000D01*
X82800000Y-102800000D02*
X82800000Y-101600000D01*
%TO.N,/IMU_INT1*%
X76837500Y-105087500D02*
X77300000Y-105550000D01*
X83001000Y-101683256D02*
X83301000Y-101383257D01*
X81900000Y-105200000D02*
X81900000Y-103984256D01*
X76837500Y-104250000D02*
X76837500Y-105087500D01*
X81550000Y-105550000D02*
X81900000Y-105200000D01*
X81900000Y-103984256D02*
X83001000Y-102883256D01*
X83301000Y-101383257D02*
X83301000Y-100424000D01*
X83301000Y-100424000D02*
X83525000Y-100200000D01*
X83525000Y-100200000D02*
X83962500Y-100200000D01*
X83001000Y-102883256D02*
X83001000Y-101683256D01*
X77300000Y-105550000D02*
X81550000Y-105550000D01*
D38*
%TO.N,/QSPI_SD1*%
X85200000Y-96562500D02*
X85200000Y-99296600D01*
X85200000Y-99296600D02*
X85253400Y-99350000D01*
%TO.N,/QSPI_SD2*%
X85600000Y-96562500D02*
X85600000Y-97600000D01*
X85600000Y-97600000D02*
X85850000Y-97850000D01*
%TO.N,/QSPI_CLK*%
X87571679Y-97815792D02*
X89611196Y-97815792D01*
X86400000Y-97225354D02*
X86650000Y-97475354D01*
X86400000Y-96562500D02*
X86400000Y-97225354D01*
X86650000Y-97475354D02*
X87231241Y-97475354D01*
X87231241Y-97475354D02*
X87571679Y-97815792D01*
%TO.N,/QSPI_SS*%
X84677200Y-99777200D02*
X84677200Y-97372800D01*
X85100000Y-100200000D02*
X84677200Y-99777200D01*
X84800000Y-97250000D02*
X84800000Y-96562500D01*
X84677200Y-97372800D02*
X84800000Y-97250000D01*
D41*
%TO.N,/USB_VOUT*%
X106437500Y-107712500D02*
X106400000Y-107750000D01*
D40*
X111550000Y-106500000D02*
X110900000Y-106500000D01*
X106437500Y-107937500D02*
X106450000Y-107950000D01*
X106437500Y-107000000D02*
X106437500Y-107937500D01*
X110900000Y-106500000D02*
X110550000Y-106850000D01*
X106437500Y-107000000D02*
X107950000Y-107000000D01*
D38*
%TO.N,/QSPI_SD0*%
X87081022Y-97999998D02*
X86981024Y-97900000D01*
X86000000Y-96562500D02*
X86000000Y-97183715D01*
X86000000Y-97183715D02*
X86158142Y-97341858D01*
X86158142Y-97341858D02*
X86233142Y-97416858D01*
X86816282Y-97999998D02*
X87081022Y-97999998D01*
X86716284Y-97900000D02*
X86233142Y-97416858D01*
X86233142Y-97416858D02*
X86816282Y-97999998D01*
%TO.N,/QSPI_SD3*%
X86200000Y-95600000D02*
X86800000Y-96200000D01*
X86800000Y-96200000D02*
X86800000Y-96562500D01*
X86150000Y-95600000D02*
X86200000Y-95600000D01*
D41*
%TO.N,Net-(Q2-C)*%
X109500000Y-107825000D02*
X107875000Y-107825000D01*
X107875000Y-107825000D02*
X106800000Y-108900000D01*
X106800000Y-108900000D02*
X101337500Y-108900000D01*
X101337500Y-108900000D02*
X99937500Y-107500000D01*
%TD*%
M02*
