M48
; DRILL file {KiCad 9.0.4} date 2025-10-09T20:33:17+0100
; FORMAT={-:-/ absolute / inch / decimal}
; #@! TF.CreationDate,2025-10-09T20:33:17+01:00
; #@! TF.GenerationSoftware,Kicad,Pcbnew,9.0.4
; #@! TF.FileFunction,Plated,1,6,PTH
FMAT,2
INCH
; #@! TA.AperFunction,Plated,PTH,ViaDrill
T1C0.0118
; #@! TA.AperFunction,Plated,PTH,ComponentDrill
T2C0.0157
; #@! TA.AperFunction,Plated,PTH,ComponentDrill
T3C0.0236
; #@! TA.AperFunction,Plated,PTH,ComponentDrill
T4C0.0394
%
G90
G05
T1
X2.689Y-3.939
X2.7992Y-3.6811
X2.874Y-3.6811
X2.9114Y-3.7323
X2.9528Y-3.6811
X2.9587Y-3.7657
X2.9843Y-4.0709
X3.0315Y-3.7185
X3.063Y-4.0748
X3.0846Y-3.8465
X3.0906Y-3.7165
X3.0906Y-4.1378
X3.1024Y-3.7653
X3.126Y-4.1299
X3.1476Y-3.935
X3.1555Y-4.0531
X3.1614Y-3.8524
X3.2579Y-3.7717
X3.2598Y-3.8228
X3.3465Y-3.6969
X3.347Y-3.7654
X3.3484Y-3.9764
X3.3504Y-3.9449
X3.3564Y-3.9114
X3.3701Y-4.0256
X3.3799Y-3.8524
X3.3917Y-3.7638
X3.4035Y-3.9764
X3.4055Y-3.937
X3.4232Y-3.7657
X3.4232Y-4.1634
X3.4252Y-3.6969
X3.4284Y-3.8583
X3.4331Y-4.0236
X3.4414Y-3.8932
X3.4584Y-3.7633
X3.4646Y-4.0256
X3.4705Y-4.1722
X3.4928Y-3.6672
X3.5079Y-4.1654
X3.5127Y-4.0176
X3.514Y-3.7598
X3.5197Y-4.2087
X3.5225Y-3.6672
X3.528Y-3.851
X3.5335Y-4.2717
X3.5389Y-4.0351
X3.5394Y-3.9726
X3.5433Y-3.9075
X3.5768Y-3.7913
X3.5925Y-3.7008
X3.6024Y-3.8071
X3.6211Y-3.9676
X3.6222Y-3.999
X3.6299Y-4.0709
X3.6319Y-3.7933
X3.6791Y-4.2618
X3.6811Y-3.6614
X3.6811Y-3.7402
X3.6811Y-3.8406
X3.6811Y-4.128
X3.7613Y-3.8469
X3.7854Y-4.0866
X3.7972Y-3.811
X3.8445Y-3.6772
X3.8563Y-4.2402
X3.9424Y-3.6811
X3.9862Y-3.8583
X4.0Y-4.2461
X4.0728Y-4.25
X4.0748Y-3.9626
X4.0866Y-4.0945
X4.1634Y-4.25
X4.1772Y-4.1752
X4.1909Y-4.25
X4.2087Y-3.8583
X4.2126Y-4.0413
X4.25Y-4.2126
X4.2697Y-3.7795
X4.3524Y-4.2067
X4.4961Y-3.6811
X4.5098Y-4.1929
T2
X2.8415Y-3.8268
X2.8415Y-3.8602
X2.8415Y-3.8937
X2.8415Y-3.9272
X2.8415Y-3.9606
X2.8415Y-3.9941
X2.8415Y-4.0276
X2.8415Y-4.061
X2.8947Y-3.8268
X2.8947Y-3.8602
X2.8947Y-3.8937
X2.8947Y-3.9272
X2.8947Y-3.9606
X2.8947Y-3.9941
X2.8947Y-4.0276
X2.8947Y-4.061
X4.3169Y-3.8199
X4.3169Y-3.8533
X4.3169Y-3.8868
X4.3169Y-3.9203
X4.3169Y-3.9537
X4.3169Y-3.9872
X4.3169Y-4.0207
X4.3169Y-4.0541
X4.3701Y-3.8199
X4.3701Y-3.8533
X4.3701Y-3.8868
X4.3701Y-3.9203
X4.3701Y-3.9537
X4.3701Y-3.9872
X4.3701Y-4.0207
X4.3701Y-4.0541
T3
X4.1142Y-3.6811
X4.2559Y-3.6811
T4
X2.7496Y-4.2323
X2.8496Y-4.2323
X2.9496Y-4.2323
X3.0496Y-4.2323
X3.1496Y-4.2323
X3.2496Y-4.2323
T3
G00X2.7388Y-3.7736
M15
G01X2.7073Y-3.7736
M16
G05
G00X2.7388Y-4.1142
M15
G01X2.7073Y-4.1142
M16
G05
G00X2.8856Y-3.7736
M15
G01X2.8266Y-3.7736
M16
G05
G00X2.8856Y-4.1142
M15
G01X2.8266Y-4.1142
M16
G05
G00X4.326Y-3.7667
M15
G01X4.385Y-3.7667
M16
G05
G00X4.326Y-4.1073
M15
G01X4.385Y-4.1073
M16
G05
G00X4.4728Y-3.7667
M15
G01X4.5043Y-3.7667
M16
G05
G00X4.4728Y-4.1073
M15
G01X4.5043Y-4.1073
M16
G05
M30
