%TF.GenerationSoftware,KiCad,Pcbnew,9.0.4*%
%TF.CreationDate,2025-10-08T22:54:58+01:00*%
%TF.ProjectId,DashcamPower,44617368-6361-46d5-906f-7765722e6b69,rev?*%
%TF.SameCoordinates,Original*%
%TF.FileFunction,Legend,Top*%
%TF.FilePolarity,Positive*%
%FSLAX46Y46*%
G04 Gerber Fmt 4.6, Leading zero omitted, Abs format (unit mm)*
G04 Created by KiCad (PCBNEW 9.0.4) date 2025-10-08 22:54:58*
%MOMM*%
%LPD*%
G01*
G04 APERTURE LIST*
G04 Aperture macros list*
%AMRoundRect*
0 Rectangle with rounded corners*
0 $1 Rounding radius*
0 $2 $3 $4 $5 $6 $7 $8 $9 X,Y pos of 4 corners*
0 Add a 4 corners polygon primitive as box body*
4,1,4,$2,$3,$4,$5,$6,$7,$8,$9,$2,$3,0*
0 Add four circle primitives for the rounded corners*
1,1,$1+$1,$2,$3*
1,1,$1+$1,$4,$5*
1,1,$1+$1,$6,$7*
1,1,$1+$1,$8,$9*
0 Add four rect primitives between the rounded corners*
20,1,$1+$1,$2,$3,$4,$5,0*
20,1,$1+$1,$4,$5,$6,$7,0*
20,1,$1+$1,$6,$7,$8,$9,0*
20,1,$1+$1,$8,$9,$2,$3,0*%
G04 Aperture macros list end*
%ADD10C,0.150000*%
%ADD11C,0.120000*%
%ADD12RoundRect,0.200000X-0.200000X-0.275000X0.200000X-0.275000X0.200000X0.275000X-0.200000X0.275000X0*%
%ADD13RoundRect,0.200000X-0.275000X0.200000X-0.275000X-0.200000X0.275000X-0.200000X0.275000X0.200000X0*%
%ADD14RoundRect,0.225000X0.250000X-0.225000X0.250000X0.225000X-0.250000X0.225000X-0.250000X-0.225000X0*%
%ADD15C,0.700000*%
%ADD16O,2.400000X0.900000*%
%ADD17O,1.700000X0.900000*%
%ADD18RoundRect,0.200000X0.275000X-0.200000X0.275000X0.200000X-0.275000X0.200000X-0.275000X-0.200000X0*%
%ADD19R,1.700000X1.700000*%
%ADD20C,1.700000*%
%ADD21RoundRect,0.150000X-0.587500X-0.150000X0.587500X-0.150000X0.587500X0.150000X-0.587500X0.150000X0*%
%ADD22RoundRect,0.250000X0.550000X0.550000X-0.550000X0.550000X-0.550000X-0.550000X0.550000X-0.550000X0*%
%ADD23C,1.600000*%
%ADD24RoundRect,0.250000X0.250000X0.475000X-0.250000X0.475000X-0.250000X-0.475000X0.250000X-0.475000X0*%
%ADD25R,1.400000X1.600000*%
%ADD26RoundRect,0.087500X-0.225000X-0.087500X0.225000X-0.087500X0.225000X0.087500X-0.225000X0.087500X0*%
%ADD27RoundRect,0.087500X-0.087500X-0.225000X0.087500X-0.225000X0.087500X0.225000X-0.087500X0.225000X0*%
%ADD28RoundRect,0.050000X-0.387500X-0.050000X0.387500X-0.050000X0.387500X0.050000X-0.387500X0.050000X0*%
%ADD29RoundRect,0.050000X-0.050000X-0.387500X0.050000X-0.387500X0.050000X0.387500X-0.050000X0.387500X0*%
%ADD30R,3.200000X3.200000*%
%ADD31RoundRect,0.250000X0.475000X-0.250000X0.475000X0.250000X-0.475000X0.250000X-0.475000X-0.250000X0*%
%ADD32RoundRect,0.243750X-0.456250X0.243750X-0.456250X-0.243750X0.456250X-0.243750X0.456250X0.243750X0*%
%ADD33RoundRect,0.150000X0.150000X-0.512500X0.150000X0.512500X-0.150000X0.512500X-0.150000X-0.512500X0*%
%ADD34R,1.400000X1.200000*%
%ADD35RoundRect,0.200000X0.200000X0.275000X-0.200000X0.275000X-0.200000X-0.275000X0.200000X-0.275000X0*%
%ADD36RoundRect,0.225000X-0.250000X0.225000X-0.250000X-0.225000X0.250000X-0.225000X0.250000X0.225000X0*%
%ADD37RoundRect,0.250000X0.262500X0.450000X-0.262500X0.450000X-0.262500X-0.450000X0.262500X-0.450000X0*%
%ADD38RoundRect,0.250000X-0.250000X-0.475000X0.250000X-0.475000X0.250000X0.475000X-0.250000X0.475000X0*%
G04 APERTURE END LIST*
D10*
X95783333Y-105504819D02*
X95450000Y-105028628D01*
X95211905Y-105504819D02*
X95211905Y-104504819D01*
X95211905Y-104504819D02*
X95592857Y-104504819D01*
X95592857Y-104504819D02*
X95688095Y-104552438D01*
X95688095Y-104552438D02*
X95735714Y-104600057D01*
X95735714Y-104600057D02*
X95783333Y-104695295D01*
X95783333Y-104695295D02*
X95783333Y-104838152D01*
X95783333Y-104838152D02*
X95735714Y-104933390D01*
X95735714Y-104933390D02*
X95688095Y-104981009D01*
X95688095Y-104981009D02*
X95592857Y-105028628D01*
X95592857Y-105028628D02*
X95211905Y-105028628D01*
X96640476Y-104838152D02*
X96640476Y-105504819D01*
X96402381Y-104457200D02*
X96164286Y-105171485D01*
X96164286Y-105171485D02*
X96783333Y-105171485D01*
X78054819Y-100816666D02*
X77578628Y-101149999D01*
X78054819Y-101388094D02*
X77054819Y-101388094D01*
X77054819Y-101388094D02*
X77054819Y-101007142D01*
X77054819Y-101007142D02*
X77102438Y-100911904D01*
X77102438Y-100911904D02*
X77150057Y-100864285D01*
X77150057Y-100864285D02*
X77245295Y-100816666D01*
X77245295Y-100816666D02*
X77388152Y-100816666D01*
X77388152Y-100816666D02*
X77483390Y-100864285D01*
X77483390Y-100864285D02*
X77531009Y-100911904D01*
X77531009Y-100911904D02*
X77578628Y-101007142D01*
X77578628Y-101007142D02*
X77578628Y-101388094D01*
X77054819Y-99911904D02*
X77054819Y-100388094D01*
X77054819Y-100388094D02*
X77531009Y-100435713D01*
X77531009Y-100435713D02*
X77483390Y-100388094D01*
X77483390Y-100388094D02*
X77435771Y-100292856D01*
X77435771Y-100292856D02*
X77435771Y-100054761D01*
X77435771Y-100054761D02*
X77483390Y-99959523D01*
X77483390Y-99959523D02*
X77531009Y-99911904D01*
X77531009Y-99911904D02*
X77626247Y-99864285D01*
X77626247Y-99864285D02*
X77864342Y-99864285D01*
X77864342Y-99864285D02*
X77959580Y-99911904D01*
X77959580Y-99911904D02*
X78007200Y-99959523D01*
X78007200Y-99959523D02*
X78054819Y-100054761D01*
X78054819Y-100054761D02*
X78054819Y-100292856D01*
X78054819Y-100292856D02*
X78007200Y-100388094D01*
X78007200Y-100388094D02*
X77959580Y-100435713D01*
X88759580Y-94166666D02*
X88807200Y-94214285D01*
X88807200Y-94214285D02*
X88854819Y-94357142D01*
X88854819Y-94357142D02*
X88854819Y-94452380D01*
X88854819Y-94452380D02*
X88807200Y-94595237D01*
X88807200Y-94595237D02*
X88711961Y-94690475D01*
X88711961Y-94690475D02*
X88616723Y-94738094D01*
X88616723Y-94738094D02*
X88426247Y-94785713D01*
X88426247Y-94785713D02*
X88283390Y-94785713D01*
X88283390Y-94785713D02*
X88092914Y-94738094D01*
X88092914Y-94738094D02*
X87997676Y-94690475D01*
X87997676Y-94690475D02*
X87902438Y-94595237D01*
X87902438Y-94595237D02*
X87854819Y-94452380D01*
X87854819Y-94452380D02*
X87854819Y-94357142D01*
X87854819Y-94357142D02*
X87902438Y-94214285D01*
X87902438Y-94214285D02*
X87950057Y-94166666D01*
X88188152Y-93309523D02*
X88854819Y-93309523D01*
X87807200Y-93547618D02*
X88521485Y-93785713D01*
X88521485Y-93785713D02*
X88521485Y-93166666D01*
X113129819Y-100333333D02*
X113844104Y-100333333D01*
X113844104Y-100333333D02*
X113986961Y-100380952D01*
X113986961Y-100380952D02*
X114082200Y-100476190D01*
X114082200Y-100476190D02*
X114129819Y-100619047D01*
X114129819Y-100619047D02*
X114129819Y-100714285D01*
X113225057Y-99904761D02*
X113177438Y-99857142D01*
X113177438Y-99857142D02*
X113129819Y-99761904D01*
X113129819Y-99761904D02*
X113129819Y-99523809D01*
X113129819Y-99523809D02*
X113177438Y-99428571D01*
X113177438Y-99428571D02*
X113225057Y-99380952D01*
X113225057Y-99380952D02*
X113320295Y-99333333D01*
X113320295Y-99333333D02*
X113415533Y-99333333D01*
X113415533Y-99333333D02*
X113558390Y-99380952D01*
X113558390Y-99380952D02*
X114129819Y-99952380D01*
X114129819Y-99952380D02*
X114129819Y-99333333D01*
X95407142Y-97654819D02*
X95073809Y-97178628D01*
X94835714Y-97654819D02*
X94835714Y-96654819D01*
X94835714Y-96654819D02*
X95216666Y-96654819D01*
X95216666Y-96654819D02*
X95311904Y-96702438D01*
X95311904Y-96702438D02*
X95359523Y-96750057D01*
X95359523Y-96750057D02*
X95407142Y-96845295D01*
X95407142Y-96845295D02*
X95407142Y-96988152D01*
X95407142Y-96988152D02*
X95359523Y-97083390D01*
X95359523Y-97083390D02*
X95311904Y-97131009D01*
X95311904Y-97131009D02*
X95216666Y-97178628D01*
X95216666Y-97178628D02*
X94835714Y-97178628D01*
X96359523Y-97654819D02*
X95788095Y-97654819D01*
X96073809Y-97654819D02*
X96073809Y-96654819D01*
X96073809Y-96654819D02*
X95978571Y-96797676D01*
X95978571Y-96797676D02*
X95883333Y-96892914D01*
X95883333Y-96892914D02*
X95788095Y-96940533D01*
X97264285Y-96654819D02*
X96788095Y-96654819D01*
X96788095Y-96654819D02*
X96740476Y-97131009D01*
X96740476Y-97131009D02*
X96788095Y-97083390D01*
X96788095Y-97083390D02*
X96883333Y-97035771D01*
X96883333Y-97035771D02*
X97121428Y-97035771D01*
X97121428Y-97035771D02*
X97216666Y-97083390D01*
X97216666Y-97083390D02*
X97264285Y-97131009D01*
X97264285Y-97131009D02*
X97311904Y-97226247D01*
X97311904Y-97226247D02*
X97311904Y-97464342D01*
X97311904Y-97464342D02*
X97264285Y-97559580D01*
X97264285Y-97559580D02*
X97216666Y-97607200D01*
X97216666Y-97607200D02*
X97121428Y-97654819D01*
X97121428Y-97654819D02*
X96883333Y-97654819D01*
X96883333Y-97654819D02*
X96788095Y-97607200D01*
X96788095Y-97607200D02*
X96740476Y-97559580D01*
X101454819Y-106166666D02*
X100978628Y-106499999D01*
X101454819Y-106738094D02*
X100454819Y-106738094D01*
X100454819Y-106738094D02*
X100454819Y-106357142D01*
X100454819Y-106357142D02*
X100502438Y-106261904D01*
X100502438Y-106261904D02*
X100550057Y-106214285D01*
X100550057Y-106214285D02*
X100645295Y-106166666D01*
X100645295Y-106166666D02*
X100788152Y-106166666D01*
X100788152Y-106166666D02*
X100883390Y-106214285D01*
X100883390Y-106214285D02*
X100931009Y-106261904D01*
X100931009Y-106261904D02*
X100978628Y-106357142D01*
X100978628Y-106357142D02*
X100978628Y-106738094D01*
X100454819Y-105833332D02*
X100454819Y-105214285D01*
X100454819Y-105214285D02*
X100835771Y-105547618D01*
X100835771Y-105547618D02*
X100835771Y-105404761D01*
X100835771Y-105404761D02*
X100883390Y-105309523D01*
X100883390Y-105309523D02*
X100931009Y-105261904D01*
X100931009Y-105261904D02*
X101026247Y-105214285D01*
X101026247Y-105214285D02*
X101264342Y-105214285D01*
X101264342Y-105214285D02*
X101359580Y-105261904D01*
X101359580Y-105261904D02*
X101407200Y-105309523D01*
X101407200Y-105309523D02*
X101454819Y-105404761D01*
X101454819Y-105404761D02*
X101454819Y-105690475D01*
X101454819Y-105690475D02*
X101407200Y-105785713D01*
X101407200Y-105785713D02*
X101359580Y-105833332D01*
X74954819Y-105183333D02*
X75669104Y-105183333D01*
X75669104Y-105183333D02*
X75811961Y-105230952D01*
X75811961Y-105230952D02*
X75907200Y-105326190D01*
X75907200Y-105326190D02*
X75954819Y-105469047D01*
X75954819Y-105469047D02*
X75954819Y-105564285D01*
X75288152Y-104278571D02*
X75954819Y-104278571D01*
X74907200Y-104516666D02*
X75621485Y-104754761D01*
X75621485Y-104754761D02*
X75621485Y-104135714D01*
X97050057Y-107595238D02*
X97002438Y-107690476D01*
X97002438Y-107690476D02*
X96907200Y-107785714D01*
X96907200Y-107785714D02*
X96764342Y-107928571D01*
X96764342Y-107928571D02*
X96716723Y-108023809D01*
X96716723Y-108023809D02*
X96716723Y-108119047D01*
X96954819Y-108071428D02*
X96907200Y-108166666D01*
X96907200Y-108166666D02*
X96811961Y-108261904D01*
X96811961Y-108261904D02*
X96621485Y-108309523D01*
X96621485Y-108309523D02*
X96288152Y-108309523D01*
X96288152Y-108309523D02*
X96097676Y-108261904D01*
X96097676Y-108261904D02*
X96002438Y-108166666D01*
X96002438Y-108166666D02*
X95954819Y-108071428D01*
X95954819Y-108071428D02*
X95954819Y-107880952D01*
X95954819Y-107880952D02*
X96002438Y-107785714D01*
X96002438Y-107785714D02*
X96097676Y-107690476D01*
X96097676Y-107690476D02*
X96288152Y-107642857D01*
X96288152Y-107642857D02*
X96621485Y-107642857D01*
X96621485Y-107642857D02*
X96811961Y-107690476D01*
X96811961Y-107690476D02*
X96907200Y-107785714D01*
X96907200Y-107785714D02*
X96954819Y-107880952D01*
X96954819Y-107880952D02*
X96954819Y-108071428D01*
X96050057Y-107261904D02*
X96002438Y-107214285D01*
X96002438Y-107214285D02*
X95954819Y-107119047D01*
X95954819Y-107119047D02*
X95954819Y-106880952D01*
X95954819Y-106880952D02*
X96002438Y-106785714D01*
X96002438Y-106785714D02*
X96050057Y-106738095D01*
X96050057Y-106738095D02*
X96145295Y-106690476D01*
X96145295Y-106690476D02*
X96240533Y-106690476D01*
X96240533Y-106690476D02*
X96383390Y-106738095D01*
X96383390Y-106738095D02*
X96954819Y-107309523D01*
X96954819Y-107309523D02*
X96954819Y-106690476D01*
X82859580Y-103891666D02*
X82907200Y-103939285D01*
X82907200Y-103939285D02*
X82954819Y-104082142D01*
X82954819Y-104082142D02*
X82954819Y-104177380D01*
X82954819Y-104177380D02*
X82907200Y-104320237D01*
X82907200Y-104320237D02*
X82811961Y-104415475D01*
X82811961Y-104415475D02*
X82716723Y-104463094D01*
X82716723Y-104463094D02*
X82526247Y-104510713D01*
X82526247Y-104510713D02*
X82383390Y-104510713D01*
X82383390Y-104510713D02*
X82192914Y-104463094D01*
X82192914Y-104463094D02*
X82097676Y-104415475D01*
X82097676Y-104415475D02*
X82002438Y-104320237D01*
X82002438Y-104320237D02*
X81954819Y-104177380D01*
X81954819Y-104177380D02*
X81954819Y-104082142D01*
X81954819Y-104082142D02*
X82002438Y-103939285D01*
X82002438Y-103939285D02*
X82050057Y-103891666D01*
X81954819Y-102986904D02*
X81954819Y-103463094D01*
X81954819Y-103463094D02*
X82431009Y-103510713D01*
X82431009Y-103510713D02*
X82383390Y-103463094D01*
X82383390Y-103463094D02*
X82335771Y-103367856D01*
X82335771Y-103367856D02*
X82335771Y-103129761D01*
X82335771Y-103129761D02*
X82383390Y-103034523D01*
X82383390Y-103034523D02*
X82431009Y-102986904D01*
X82431009Y-102986904D02*
X82526247Y-102939285D01*
X82526247Y-102939285D02*
X82764342Y-102939285D01*
X82764342Y-102939285D02*
X82859580Y-102986904D01*
X82859580Y-102986904D02*
X82907200Y-103034523D01*
X82907200Y-103034523D02*
X82954819Y-103129761D01*
X82954819Y-103129761D02*
X82954819Y-103367856D01*
X82954819Y-103367856D02*
X82907200Y-103463094D01*
X82907200Y-103463094D02*
X82859580Y-103510713D01*
X69833333Y-93859580D02*
X69785714Y-93907200D01*
X69785714Y-93907200D02*
X69642857Y-93954819D01*
X69642857Y-93954819D02*
X69547619Y-93954819D01*
X69547619Y-93954819D02*
X69404762Y-93907200D01*
X69404762Y-93907200D02*
X69309524Y-93811961D01*
X69309524Y-93811961D02*
X69261905Y-93716723D01*
X69261905Y-93716723D02*
X69214286Y-93526247D01*
X69214286Y-93526247D02*
X69214286Y-93383390D01*
X69214286Y-93383390D02*
X69261905Y-93192914D01*
X69261905Y-93192914D02*
X69309524Y-93097676D01*
X69309524Y-93097676D02*
X69404762Y-93002438D01*
X69404762Y-93002438D02*
X69547619Y-92954819D01*
X69547619Y-92954819D02*
X69642857Y-92954819D01*
X69642857Y-92954819D02*
X69785714Y-93002438D01*
X69785714Y-93002438D02*
X69833333Y-93050057D01*
X70785714Y-93954819D02*
X70214286Y-93954819D01*
X70500000Y-93954819D02*
X70500000Y-92954819D01*
X70500000Y-92954819D02*
X70404762Y-93097676D01*
X70404762Y-93097676D02*
X70309524Y-93192914D01*
X70309524Y-93192914D02*
X70214286Y-93240533D01*
X100907200Y-101533332D02*
X100954819Y-101390475D01*
X100954819Y-101390475D02*
X100954819Y-101152380D01*
X100954819Y-101152380D02*
X100907200Y-101057142D01*
X100907200Y-101057142D02*
X100859580Y-101009523D01*
X100859580Y-101009523D02*
X100764342Y-100961904D01*
X100764342Y-100961904D02*
X100669104Y-100961904D01*
X100669104Y-100961904D02*
X100573866Y-101009523D01*
X100573866Y-101009523D02*
X100526247Y-101057142D01*
X100526247Y-101057142D02*
X100478628Y-101152380D01*
X100478628Y-101152380D02*
X100431009Y-101342856D01*
X100431009Y-101342856D02*
X100383390Y-101438094D01*
X100383390Y-101438094D02*
X100335771Y-101485713D01*
X100335771Y-101485713D02*
X100240533Y-101533332D01*
X100240533Y-101533332D02*
X100145295Y-101533332D01*
X100145295Y-101533332D02*
X100050057Y-101485713D01*
X100050057Y-101485713D02*
X100002438Y-101438094D01*
X100002438Y-101438094D02*
X99954819Y-101342856D01*
X99954819Y-101342856D02*
X99954819Y-101104761D01*
X99954819Y-101104761D02*
X100002438Y-100961904D01*
X99954819Y-100628570D02*
X100954819Y-100390475D01*
X100954819Y-100390475D02*
X100240533Y-100199999D01*
X100240533Y-100199999D02*
X100954819Y-100009523D01*
X100954819Y-100009523D02*
X99954819Y-99771428D01*
X100954819Y-98866666D02*
X100954819Y-99438094D01*
X100954819Y-99152380D02*
X99954819Y-99152380D01*
X99954819Y-99152380D02*
X100097676Y-99247618D01*
X100097676Y-99247618D02*
X100192914Y-99342856D01*
X100192914Y-99342856D02*
X100240533Y-99438094D01*
X74954819Y-103261904D02*
X75764342Y-103261904D01*
X75764342Y-103261904D02*
X75859580Y-103214285D01*
X75859580Y-103214285D02*
X75907200Y-103166666D01*
X75907200Y-103166666D02*
X75954819Y-103071428D01*
X75954819Y-103071428D02*
X75954819Y-102880952D01*
X75954819Y-102880952D02*
X75907200Y-102785714D01*
X75907200Y-102785714D02*
X75859580Y-102738095D01*
X75859580Y-102738095D02*
X75764342Y-102690476D01*
X75764342Y-102690476D02*
X74954819Y-102690476D01*
X75050057Y-102261904D02*
X75002438Y-102214285D01*
X75002438Y-102214285D02*
X74954819Y-102119047D01*
X74954819Y-102119047D02*
X74954819Y-101880952D01*
X74954819Y-101880952D02*
X75002438Y-101785714D01*
X75002438Y-101785714D02*
X75050057Y-101738095D01*
X75050057Y-101738095D02*
X75145295Y-101690476D01*
X75145295Y-101690476D02*
X75240533Y-101690476D01*
X75240533Y-101690476D02*
X75383390Y-101738095D01*
X75383390Y-101738095D02*
X75954819Y-102309523D01*
X75954819Y-102309523D02*
X75954819Y-101690476D01*
X101004819Y-96342857D02*
X100528628Y-96676190D01*
X101004819Y-96914285D02*
X100004819Y-96914285D01*
X100004819Y-96914285D02*
X100004819Y-96533333D01*
X100004819Y-96533333D02*
X100052438Y-96438095D01*
X100052438Y-96438095D02*
X100100057Y-96390476D01*
X100100057Y-96390476D02*
X100195295Y-96342857D01*
X100195295Y-96342857D02*
X100338152Y-96342857D01*
X100338152Y-96342857D02*
X100433390Y-96390476D01*
X100433390Y-96390476D02*
X100481009Y-96438095D01*
X100481009Y-96438095D02*
X100528628Y-96533333D01*
X100528628Y-96533333D02*
X100528628Y-96914285D01*
X101004819Y-95390476D02*
X101004819Y-95961904D01*
X101004819Y-95676190D02*
X100004819Y-95676190D01*
X100004819Y-95676190D02*
X100147676Y-95771428D01*
X100147676Y-95771428D02*
X100242914Y-95866666D01*
X100242914Y-95866666D02*
X100290533Y-95961904D01*
X100004819Y-95057142D02*
X100004819Y-94390476D01*
X100004819Y-94390476D02*
X101004819Y-94819047D01*
X68954819Y-100508333D02*
X69669104Y-100508333D01*
X69669104Y-100508333D02*
X69811961Y-100555952D01*
X69811961Y-100555952D02*
X69907200Y-100651190D01*
X69907200Y-100651190D02*
X69954819Y-100794047D01*
X69954819Y-100794047D02*
X69954819Y-100889285D01*
X69954819Y-99508333D02*
X69954819Y-100079761D01*
X69954819Y-99794047D02*
X68954819Y-99794047D01*
X68954819Y-99794047D02*
X69097676Y-99889285D01*
X69097676Y-99889285D02*
X69192914Y-99984523D01*
X69192914Y-99984523D02*
X69240533Y-100079761D01*
X81383333Y-102104819D02*
X81050000Y-101628628D01*
X80811905Y-102104819D02*
X80811905Y-101104819D01*
X80811905Y-101104819D02*
X81192857Y-101104819D01*
X81192857Y-101104819D02*
X81288095Y-101152438D01*
X81288095Y-101152438D02*
X81335714Y-101200057D01*
X81335714Y-101200057D02*
X81383333Y-101295295D01*
X81383333Y-101295295D02*
X81383333Y-101438152D01*
X81383333Y-101438152D02*
X81335714Y-101533390D01*
X81335714Y-101533390D02*
X81288095Y-101581009D01*
X81288095Y-101581009D02*
X81192857Y-101628628D01*
X81192857Y-101628628D02*
X80811905Y-101628628D01*
X82240476Y-101104819D02*
X82050000Y-101104819D01*
X82050000Y-101104819D02*
X81954762Y-101152438D01*
X81954762Y-101152438D02*
X81907143Y-101200057D01*
X81907143Y-101200057D02*
X81811905Y-101342914D01*
X81811905Y-101342914D02*
X81764286Y-101533390D01*
X81764286Y-101533390D02*
X81764286Y-101914342D01*
X81764286Y-101914342D02*
X81811905Y-102009580D01*
X81811905Y-102009580D02*
X81859524Y-102057200D01*
X81859524Y-102057200D02*
X81954762Y-102104819D01*
X81954762Y-102104819D02*
X82145238Y-102104819D01*
X82145238Y-102104819D02*
X82240476Y-102057200D01*
X82240476Y-102057200D02*
X82288095Y-102009580D01*
X82288095Y-102009580D02*
X82335714Y-101914342D01*
X82335714Y-101914342D02*
X82335714Y-101676247D01*
X82335714Y-101676247D02*
X82288095Y-101581009D01*
X82288095Y-101581009D02*
X82240476Y-101533390D01*
X82240476Y-101533390D02*
X82145238Y-101485771D01*
X82145238Y-101485771D02*
X81954762Y-101485771D01*
X81954762Y-101485771D02*
X81859524Y-101533390D01*
X81859524Y-101533390D02*
X81811905Y-101581009D01*
X81811905Y-101581009D02*
X81764286Y-101676247D01*
X91938095Y-96654819D02*
X91938095Y-97464342D01*
X91938095Y-97464342D02*
X91985714Y-97559580D01*
X91985714Y-97559580D02*
X92033333Y-97607200D01*
X92033333Y-97607200D02*
X92128571Y-97654819D01*
X92128571Y-97654819D02*
X92319047Y-97654819D01*
X92319047Y-97654819D02*
X92414285Y-97607200D01*
X92414285Y-97607200D02*
X92461904Y-97559580D01*
X92461904Y-97559580D02*
X92509523Y-97464342D01*
X92509523Y-97464342D02*
X92509523Y-96654819D01*
X92890476Y-96654819D02*
X93509523Y-96654819D01*
X93509523Y-96654819D02*
X93176190Y-97035771D01*
X93176190Y-97035771D02*
X93319047Y-97035771D01*
X93319047Y-97035771D02*
X93414285Y-97083390D01*
X93414285Y-97083390D02*
X93461904Y-97131009D01*
X93461904Y-97131009D02*
X93509523Y-97226247D01*
X93509523Y-97226247D02*
X93509523Y-97464342D01*
X93509523Y-97464342D02*
X93461904Y-97559580D01*
X93461904Y-97559580D02*
X93414285Y-97607200D01*
X93414285Y-97607200D02*
X93319047Y-97654819D01*
X93319047Y-97654819D02*
X93033333Y-97654819D01*
X93033333Y-97654819D02*
X92938095Y-97607200D01*
X92938095Y-97607200D02*
X92890476Y-97559580D01*
X83809580Y-93666666D02*
X83857200Y-93714285D01*
X83857200Y-93714285D02*
X83904819Y-93857142D01*
X83904819Y-93857142D02*
X83904819Y-93952380D01*
X83904819Y-93952380D02*
X83857200Y-94095237D01*
X83857200Y-94095237D02*
X83761961Y-94190475D01*
X83761961Y-94190475D02*
X83666723Y-94238094D01*
X83666723Y-94238094D02*
X83476247Y-94285713D01*
X83476247Y-94285713D02*
X83333390Y-94285713D01*
X83333390Y-94285713D02*
X83142914Y-94238094D01*
X83142914Y-94238094D02*
X83047676Y-94190475D01*
X83047676Y-94190475D02*
X82952438Y-94095237D01*
X82952438Y-94095237D02*
X82904819Y-93952380D01*
X82904819Y-93952380D02*
X82904819Y-93857142D01*
X82904819Y-93857142D02*
X82952438Y-93714285D01*
X82952438Y-93714285D02*
X83000057Y-93666666D01*
X83904819Y-93190475D02*
X83904819Y-92999999D01*
X83904819Y-92999999D02*
X83857200Y-92904761D01*
X83857200Y-92904761D02*
X83809580Y-92857142D01*
X83809580Y-92857142D02*
X83666723Y-92761904D01*
X83666723Y-92761904D02*
X83476247Y-92714285D01*
X83476247Y-92714285D02*
X83095295Y-92714285D01*
X83095295Y-92714285D02*
X83000057Y-92761904D01*
X83000057Y-92761904D02*
X82952438Y-92809523D01*
X82952438Y-92809523D02*
X82904819Y-92904761D01*
X82904819Y-92904761D02*
X82904819Y-93095237D01*
X82904819Y-93095237D02*
X82952438Y-93190475D01*
X82952438Y-93190475D02*
X83000057Y-93238094D01*
X83000057Y-93238094D02*
X83095295Y-93285713D01*
X83095295Y-93285713D02*
X83333390Y-93285713D01*
X83333390Y-93285713D02*
X83428628Y-93238094D01*
X83428628Y-93238094D02*
X83476247Y-93190475D01*
X83476247Y-93190475D02*
X83523866Y-93095237D01*
X83523866Y-93095237D02*
X83523866Y-92904761D01*
X83523866Y-92904761D02*
X83476247Y-92809523D01*
X83476247Y-92809523D02*
X83428628Y-92761904D01*
X83428628Y-92761904D02*
X83333390Y-92714285D01*
X97761905Y-102954819D02*
X97761905Y-101954819D01*
X97761905Y-101954819D02*
X98000000Y-101954819D01*
X98000000Y-101954819D02*
X98142857Y-102002438D01*
X98142857Y-102002438D02*
X98238095Y-102097676D01*
X98238095Y-102097676D02*
X98285714Y-102192914D01*
X98285714Y-102192914D02*
X98333333Y-102383390D01*
X98333333Y-102383390D02*
X98333333Y-102526247D01*
X98333333Y-102526247D02*
X98285714Y-102716723D01*
X98285714Y-102716723D02*
X98238095Y-102811961D01*
X98238095Y-102811961D02*
X98142857Y-102907200D01*
X98142857Y-102907200D02*
X98000000Y-102954819D01*
X98000000Y-102954819D02*
X97761905Y-102954819D01*
X98666667Y-101954819D02*
X99285714Y-101954819D01*
X99285714Y-101954819D02*
X98952381Y-102335771D01*
X98952381Y-102335771D02*
X99095238Y-102335771D01*
X99095238Y-102335771D02*
X99190476Y-102383390D01*
X99190476Y-102383390D02*
X99238095Y-102431009D01*
X99238095Y-102431009D02*
X99285714Y-102526247D01*
X99285714Y-102526247D02*
X99285714Y-102764342D01*
X99285714Y-102764342D02*
X99238095Y-102859580D01*
X99238095Y-102859580D02*
X99190476Y-102907200D01*
X99190476Y-102907200D02*
X99095238Y-102954819D01*
X99095238Y-102954819D02*
X98809524Y-102954819D01*
X98809524Y-102954819D02*
X98714286Y-102907200D01*
X98714286Y-102907200D02*
X98666667Y-102859580D01*
X97757142Y-93354819D02*
X97423809Y-92878628D01*
X97185714Y-93354819D02*
X97185714Y-92354819D01*
X97185714Y-92354819D02*
X97566666Y-92354819D01*
X97566666Y-92354819D02*
X97661904Y-92402438D01*
X97661904Y-92402438D02*
X97709523Y-92450057D01*
X97709523Y-92450057D02*
X97757142Y-92545295D01*
X97757142Y-92545295D02*
X97757142Y-92688152D01*
X97757142Y-92688152D02*
X97709523Y-92783390D01*
X97709523Y-92783390D02*
X97661904Y-92831009D01*
X97661904Y-92831009D02*
X97566666Y-92878628D01*
X97566666Y-92878628D02*
X97185714Y-92878628D01*
X98709523Y-93354819D02*
X98138095Y-93354819D01*
X98423809Y-93354819D02*
X98423809Y-92354819D01*
X98423809Y-92354819D02*
X98328571Y-92497676D01*
X98328571Y-92497676D02*
X98233333Y-92592914D01*
X98233333Y-92592914D02*
X98138095Y-92640533D01*
X99566666Y-92354819D02*
X99376190Y-92354819D01*
X99376190Y-92354819D02*
X99280952Y-92402438D01*
X99280952Y-92402438D02*
X99233333Y-92450057D01*
X99233333Y-92450057D02*
X99138095Y-92592914D01*
X99138095Y-92592914D02*
X99090476Y-92783390D01*
X99090476Y-92783390D02*
X99090476Y-93164342D01*
X99090476Y-93164342D02*
X99138095Y-93259580D01*
X99138095Y-93259580D02*
X99185714Y-93307200D01*
X99185714Y-93307200D02*
X99280952Y-93354819D01*
X99280952Y-93354819D02*
X99471428Y-93354819D01*
X99471428Y-93354819D02*
X99566666Y-93307200D01*
X99566666Y-93307200D02*
X99614285Y-93259580D01*
X99614285Y-93259580D02*
X99661904Y-93164342D01*
X99661904Y-93164342D02*
X99661904Y-92926247D01*
X99661904Y-92926247D02*
X99614285Y-92831009D01*
X99614285Y-92831009D02*
X99566666Y-92783390D01*
X99566666Y-92783390D02*
X99471428Y-92735771D01*
X99471428Y-92735771D02*
X99280952Y-92735771D01*
X99280952Y-92735771D02*
X99185714Y-92783390D01*
X99185714Y-92783390D02*
X99138095Y-92831009D01*
X99138095Y-92831009D02*
X99090476Y-92926247D01*
X79188095Y-93054819D02*
X79188095Y-93864342D01*
X79188095Y-93864342D02*
X79235714Y-93959580D01*
X79235714Y-93959580D02*
X79283333Y-94007200D01*
X79283333Y-94007200D02*
X79378571Y-94054819D01*
X79378571Y-94054819D02*
X79569047Y-94054819D01*
X79569047Y-94054819D02*
X79664285Y-94007200D01*
X79664285Y-94007200D02*
X79711904Y-93959580D01*
X79711904Y-93959580D02*
X79759523Y-93864342D01*
X79759523Y-93864342D02*
X79759523Y-93054819D01*
X80759523Y-94054819D02*
X80188095Y-94054819D01*
X80473809Y-94054819D02*
X80473809Y-93054819D01*
X80473809Y-93054819D02*
X80378571Y-93197676D01*
X80378571Y-93197676D02*
X80283333Y-93292914D01*
X80283333Y-93292914D02*
X80188095Y-93340533D01*
X108524819Y-107642857D02*
X108048628Y-107976190D01*
X108524819Y-108214285D02*
X107524819Y-108214285D01*
X107524819Y-108214285D02*
X107524819Y-107833333D01*
X107524819Y-107833333D02*
X107572438Y-107738095D01*
X107572438Y-107738095D02*
X107620057Y-107690476D01*
X107620057Y-107690476D02*
X107715295Y-107642857D01*
X107715295Y-107642857D02*
X107858152Y-107642857D01*
X107858152Y-107642857D02*
X107953390Y-107690476D01*
X107953390Y-107690476D02*
X108001009Y-107738095D01*
X108001009Y-107738095D02*
X108048628Y-107833333D01*
X108048628Y-107833333D02*
X108048628Y-108214285D01*
X107620057Y-107261904D02*
X107572438Y-107214285D01*
X107572438Y-107214285D02*
X107524819Y-107119047D01*
X107524819Y-107119047D02*
X107524819Y-106880952D01*
X107524819Y-106880952D02*
X107572438Y-106785714D01*
X107572438Y-106785714D02*
X107620057Y-106738095D01*
X107620057Y-106738095D02*
X107715295Y-106690476D01*
X107715295Y-106690476D02*
X107810533Y-106690476D01*
X107810533Y-106690476D02*
X107953390Y-106738095D01*
X107953390Y-106738095D02*
X108524819Y-107309523D01*
X108524819Y-107309523D02*
X108524819Y-106690476D01*
X107620057Y-106309523D02*
X107572438Y-106261904D01*
X107572438Y-106261904D02*
X107524819Y-106166666D01*
X107524819Y-106166666D02*
X107524819Y-105928571D01*
X107524819Y-105928571D02*
X107572438Y-105833333D01*
X107572438Y-105833333D02*
X107620057Y-105785714D01*
X107620057Y-105785714D02*
X107715295Y-105738095D01*
X107715295Y-105738095D02*
X107810533Y-105738095D01*
X107810533Y-105738095D02*
X107953390Y-105785714D01*
X107953390Y-105785714D02*
X108524819Y-106357142D01*
X108524819Y-106357142D02*
X108524819Y-105738095D01*
X104904761Y-104550057D02*
X104809523Y-104502438D01*
X104809523Y-104502438D02*
X104714285Y-104407200D01*
X104714285Y-104407200D02*
X104571428Y-104264342D01*
X104571428Y-104264342D02*
X104476190Y-104216723D01*
X104476190Y-104216723D02*
X104380952Y-104216723D01*
X104428571Y-104454819D02*
X104333333Y-104407200D01*
X104333333Y-104407200D02*
X104238095Y-104311961D01*
X104238095Y-104311961D02*
X104190476Y-104121485D01*
X104190476Y-104121485D02*
X104190476Y-103788152D01*
X104190476Y-103788152D02*
X104238095Y-103597676D01*
X104238095Y-103597676D02*
X104333333Y-103502438D01*
X104333333Y-103502438D02*
X104428571Y-103454819D01*
X104428571Y-103454819D02*
X104619047Y-103454819D01*
X104619047Y-103454819D02*
X104714285Y-103502438D01*
X104714285Y-103502438D02*
X104809523Y-103597676D01*
X104809523Y-103597676D02*
X104857142Y-103788152D01*
X104857142Y-103788152D02*
X104857142Y-104121485D01*
X104857142Y-104121485D02*
X104809523Y-104311961D01*
X104809523Y-104311961D02*
X104714285Y-104407200D01*
X104714285Y-104407200D02*
X104619047Y-104454819D01*
X104619047Y-104454819D02*
X104428571Y-104454819D01*
X105809523Y-104454819D02*
X105238095Y-104454819D01*
X105523809Y-104454819D02*
X105523809Y-103454819D01*
X105523809Y-103454819D02*
X105428571Y-103597676D01*
X105428571Y-103597676D02*
X105333333Y-103692914D01*
X105333333Y-103692914D02*
X105238095Y-103740533D01*
X91073809Y-104928628D02*
X91073809Y-105404819D01*
X90740476Y-104404819D02*
X91073809Y-104928628D01*
X91073809Y-104928628D02*
X91407142Y-104404819D01*
X92264285Y-105404819D02*
X91692857Y-105404819D01*
X91978571Y-105404819D02*
X91978571Y-104404819D01*
X91978571Y-104404819D02*
X91883333Y-104547676D01*
X91883333Y-104547676D02*
X91788095Y-104642914D01*
X91788095Y-104642914D02*
X91692857Y-104690533D01*
X85257142Y-105404819D02*
X84923809Y-104928628D01*
X84685714Y-105404819D02*
X84685714Y-104404819D01*
X84685714Y-104404819D02*
X85066666Y-104404819D01*
X85066666Y-104404819D02*
X85161904Y-104452438D01*
X85161904Y-104452438D02*
X85209523Y-104500057D01*
X85209523Y-104500057D02*
X85257142Y-104595295D01*
X85257142Y-104595295D02*
X85257142Y-104738152D01*
X85257142Y-104738152D02*
X85209523Y-104833390D01*
X85209523Y-104833390D02*
X85161904Y-104881009D01*
X85161904Y-104881009D02*
X85066666Y-104928628D01*
X85066666Y-104928628D02*
X84685714Y-104928628D01*
X86209523Y-105404819D02*
X85638095Y-105404819D01*
X85923809Y-105404819D02*
X85923809Y-104404819D01*
X85923809Y-104404819D02*
X85828571Y-104547676D01*
X85828571Y-104547676D02*
X85733333Y-104642914D01*
X85733333Y-104642914D02*
X85638095Y-104690533D01*
X86828571Y-104404819D02*
X86923809Y-104404819D01*
X86923809Y-104404819D02*
X87019047Y-104452438D01*
X87019047Y-104452438D02*
X87066666Y-104500057D01*
X87066666Y-104500057D02*
X87114285Y-104595295D01*
X87114285Y-104595295D02*
X87161904Y-104785771D01*
X87161904Y-104785771D02*
X87161904Y-105023866D01*
X87161904Y-105023866D02*
X87114285Y-105214342D01*
X87114285Y-105214342D02*
X87066666Y-105309580D01*
X87066666Y-105309580D02*
X87019047Y-105357200D01*
X87019047Y-105357200D02*
X86923809Y-105404819D01*
X86923809Y-105404819D02*
X86828571Y-105404819D01*
X86828571Y-105404819D02*
X86733333Y-105357200D01*
X86733333Y-105357200D02*
X86685714Y-105309580D01*
X86685714Y-105309580D02*
X86638095Y-105214342D01*
X86638095Y-105214342D02*
X86590476Y-105023866D01*
X86590476Y-105023866D02*
X86590476Y-104785771D01*
X86590476Y-104785771D02*
X86638095Y-104595295D01*
X86638095Y-104595295D02*
X86685714Y-104500057D01*
X86685714Y-104500057D02*
X86733333Y-104452438D01*
X86733333Y-104452438D02*
X86828571Y-104404819D01*
X95261905Y-102954819D02*
X95261905Y-101954819D01*
X95261905Y-101954819D02*
X95500000Y-101954819D01*
X95500000Y-101954819D02*
X95642857Y-102002438D01*
X95642857Y-102002438D02*
X95738095Y-102097676D01*
X95738095Y-102097676D02*
X95785714Y-102192914D01*
X95785714Y-102192914D02*
X95833333Y-102383390D01*
X95833333Y-102383390D02*
X95833333Y-102526247D01*
X95833333Y-102526247D02*
X95785714Y-102716723D01*
X95785714Y-102716723D02*
X95738095Y-102811961D01*
X95738095Y-102811961D02*
X95642857Y-102907200D01*
X95642857Y-102907200D02*
X95500000Y-102954819D01*
X95500000Y-102954819D02*
X95261905Y-102954819D01*
X96214286Y-102050057D02*
X96261905Y-102002438D01*
X96261905Y-102002438D02*
X96357143Y-101954819D01*
X96357143Y-101954819D02*
X96595238Y-101954819D01*
X96595238Y-101954819D02*
X96690476Y-102002438D01*
X96690476Y-102002438D02*
X96738095Y-102050057D01*
X96738095Y-102050057D02*
X96785714Y-102145295D01*
X96785714Y-102145295D02*
X96785714Y-102240533D01*
X96785714Y-102240533D02*
X96738095Y-102383390D01*
X96738095Y-102383390D02*
X96166667Y-102954819D01*
X96166667Y-102954819D02*
X96785714Y-102954819D01*
X92861905Y-103004819D02*
X92861905Y-102004819D01*
X92861905Y-102004819D02*
X93100000Y-102004819D01*
X93100000Y-102004819D02*
X93242857Y-102052438D01*
X93242857Y-102052438D02*
X93338095Y-102147676D01*
X93338095Y-102147676D02*
X93385714Y-102242914D01*
X93385714Y-102242914D02*
X93433333Y-102433390D01*
X93433333Y-102433390D02*
X93433333Y-102576247D01*
X93433333Y-102576247D02*
X93385714Y-102766723D01*
X93385714Y-102766723D02*
X93338095Y-102861961D01*
X93338095Y-102861961D02*
X93242857Y-102957200D01*
X93242857Y-102957200D02*
X93100000Y-103004819D01*
X93100000Y-103004819D02*
X92861905Y-103004819D01*
X94385714Y-103004819D02*
X93814286Y-103004819D01*
X94100000Y-103004819D02*
X94100000Y-102004819D01*
X94100000Y-102004819D02*
X94004762Y-102147676D01*
X94004762Y-102147676D02*
X93909524Y-102242914D01*
X93909524Y-102242914D02*
X93814286Y-102290533D01*
X94289580Y-108142857D02*
X94337200Y-108190476D01*
X94337200Y-108190476D02*
X94384819Y-108333333D01*
X94384819Y-108333333D02*
X94384819Y-108428571D01*
X94384819Y-108428571D02*
X94337200Y-108571428D01*
X94337200Y-108571428D02*
X94241961Y-108666666D01*
X94241961Y-108666666D02*
X94146723Y-108714285D01*
X94146723Y-108714285D02*
X93956247Y-108761904D01*
X93956247Y-108761904D02*
X93813390Y-108761904D01*
X93813390Y-108761904D02*
X93622914Y-108714285D01*
X93622914Y-108714285D02*
X93527676Y-108666666D01*
X93527676Y-108666666D02*
X93432438Y-108571428D01*
X93432438Y-108571428D02*
X93384819Y-108428571D01*
X93384819Y-108428571D02*
X93384819Y-108333333D01*
X93384819Y-108333333D02*
X93432438Y-108190476D01*
X93432438Y-108190476D02*
X93480057Y-108142857D01*
X94384819Y-107190476D02*
X94384819Y-107761904D01*
X94384819Y-107476190D02*
X93384819Y-107476190D01*
X93384819Y-107476190D02*
X93527676Y-107571428D01*
X93527676Y-107571428D02*
X93622914Y-107666666D01*
X93622914Y-107666666D02*
X93670533Y-107761904D01*
X94384819Y-106238095D02*
X94384819Y-106809523D01*
X94384819Y-106523809D02*
X93384819Y-106523809D01*
X93384819Y-106523809D02*
X93527676Y-106619047D01*
X93527676Y-106619047D02*
X93622914Y-106714285D01*
X93622914Y-106714285D02*
X93670533Y-106809523D01*
X115054819Y-94142857D02*
X114578628Y-94476190D01*
X115054819Y-94714285D02*
X114054819Y-94714285D01*
X114054819Y-94714285D02*
X114054819Y-94333333D01*
X114054819Y-94333333D02*
X114102438Y-94238095D01*
X114102438Y-94238095D02*
X114150057Y-94190476D01*
X114150057Y-94190476D02*
X114245295Y-94142857D01*
X114245295Y-94142857D02*
X114388152Y-94142857D01*
X114388152Y-94142857D02*
X114483390Y-94190476D01*
X114483390Y-94190476D02*
X114531009Y-94238095D01*
X114531009Y-94238095D02*
X114578628Y-94333333D01*
X114578628Y-94333333D02*
X114578628Y-94714285D01*
X114150057Y-93761904D02*
X114102438Y-93714285D01*
X114102438Y-93714285D02*
X114054819Y-93619047D01*
X114054819Y-93619047D02*
X114054819Y-93380952D01*
X114054819Y-93380952D02*
X114102438Y-93285714D01*
X114102438Y-93285714D02*
X114150057Y-93238095D01*
X114150057Y-93238095D02*
X114245295Y-93190476D01*
X114245295Y-93190476D02*
X114340533Y-93190476D01*
X114340533Y-93190476D02*
X114483390Y-93238095D01*
X114483390Y-93238095D02*
X115054819Y-93809523D01*
X115054819Y-93809523D02*
X115054819Y-93190476D01*
X114054819Y-92571428D02*
X114054819Y-92476190D01*
X114054819Y-92476190D02*
X114102438Y-92380952D01*
X114102438Y-92380952D02*
X114150057Y-92333333D01*
X114150057Y-92333333D02*
X114245295Y-92285714D01*
X114245295Y-92285714D02*
X114435771Y-92238095D01*
X114435771Y-92238095D02*
X114673866Y-92238095D01*
X114673866Y-92238095D02*
X114864342Y-92285714D01*
X114864342Y-92285714D02*
X114959580Y-92333333D01*
X114959580Y-92333333D02*
X115007200Y-92380952D01*
X115007200Y-92380952D02*
X115054819Y-92476190D01*
X115054819Y-92476190D02*
X115054819Y-92571428D01*
X115054819Y-92571428D02*
X115007200Y-92666666D01*
X115007200Y-92666666D02*
X114959580Y-92714285D01*
X114959580Y-92714285D02*
X114864342Y-92761904D01*
X114864342Y-92761904D02*
X114673866Y-92809523D01*
X114673866Y-92809523D02*
X114435771Y-92809523D01*
X114435771Y-92809523D02*
X114245295Y-92761904D01*
X114245295Y-92761904D02*
X114150057Y-92714285D01*
X114150057Y-92714285D02*
X114102438Y-92666666D01*
X114102438Y-92666666D02*
X114054819Y-92571428D01*
X78833333Y-98554819D02*
X78500000Y-98078628D01*
X78261905Y-98554819D02*
X78261905Y-97554819D01*
X78261905Y-97554819D02*
X78642857Y-97554819D01*
X78642857Y-97554819D02*
X78738095Y-97602438D01*
X78738095Y-97602438D02*
X78785714Y-97650057D01*
X78785714Y-97650057D02*
X78833333Y-97745295D01*
X78833333Y-97745295D02*
X78833333Y-97888152D01*
X78833333Y-97888152D02*
X78785714Y-97983390D01*
X78785714Y-97983390D02*
X78738095Y-98031009D01*
X78738095Y-98031009D02*
X78642857Y-98078628D01*
X78642857Y-98078628D02*
X78261905Y-98078628D01*
X79166667Y-97554819D02*
X79833333Y-97554819D01*
X79833333Y-97554819D02*
X79404762Y-98554819D01*
X90059580Y-94166666D02*
X90107200Y-94214285D01*
X90107200Y-94214285D02*
X90154819Y-94357142D01*
X90154819Y-94357142D02*
X90154819Y-94452380D01*
X90154819Y-94452380D02*
X90107200Y-94595237D01*
X90107200Y-94595237D02*
X90011961Y-94690475D01*
X90011961Y-94690475D02*
X89916723Y-94738094D01*
X89916723Y-94738094D02*
X89726247Y-94785713D01*
X89726247Y-94785713D02*
X89583390Y-94785713D01*
X89583390Y-94785713D02*
X89392914Y-94738094D01*
X89392914Y-94738094D02*
X89297676Y-94690475D01*
X89297676Y-94690475D02*
X89202438Y-94595237D01*
X89202438Y-94595237D02*
X89154819Y-94452380D01*
X89154819Y-94452380D02*
X89154819Y-94357142D01*
X89154819Y-94357142D02*
X89202438Y-94214285D01*
X89202438Y-94214285D02*
X89250057Y-94166666D01*
X89154819Y-93309523D02*
X89154819Y-93499999D01*
X89154819Y-93499999D02*
X89202438Y-93595237D01*
X89202438Y-93595237D02*
X89250057Y-93642856D01*
X89250057Y-93642856D02*
X89392914Y-93738094D01*
X89392914Y-93738094D02*
X89583390Y-93785713D01*
X89583390Y-93785713D02*
X89964342Y-93785713D01*
X89964342Y-93785713D02*
X90059580Y-93738094D01*
X90059580Y-93738094D02*
X90107200Y-93690475D01*
X90107200Y-93690475D02*
X90154819Y-93595237D01*
X90154819Y-93595237D02*
X90154819Y-93404761D01*
X90154819Y-93404761D02*
X90107200Y-93309523D01*
X90107200Y-93309523D02*
X90059580Y-93261904D01*
X90059580Y-93261904D02*
X89964342Y-93214285D01*
X89964342Y-93214285D02*
X89726247Y-93214285D01*
X89726247Y-93214285D02*
X89631009Y-93261904D01*
X89631009Y-93261904D02*
X89583390Y-93309523D01*
X89583390Y-93309523D02*
X89535771Y-93404761D01*
X89535771Y-93404761D02*
X89535771Y-93595237D01*
X89535771Y-93595237D02*
X89583390Y-93690475D01*
X89583390Y-93690475D02*
X89631009Y-93738094D01*
X89631009Y-93738094D02*
X89726247Y-93785713D01*
X85359580Y-108142857D02*
X85407200Y-108190476D01*
X85407200Y-108190476D02*
X85454819Y-108333333D01*
X85454819Y-108333333D02*
X85454819Y-108428571D01*
X85454819Y-108428571D02*
X85407200Y-108571428D01*
X85407200Y-108571428D02*
X85311961Y-108666666D01*
X85311961Y-108666666D02*
X85216723Y-108714285D01*
X85216723Y-108714285D02*
X85026247Y-108761904D01*
X85026247Y-108761904D02*
X84883390Y-108761904D01*
X84883390Y-108761904D02*
X84692914Y-108714285D01*
X84692914Y-108714285D02*
X84597676Y-108666666D01*
X84597676Y-108666666D02*
X84502438Y-108571428D01*
X84502438Y-108571428D02*
X84454819Y-108428571D01*
X84454819Y-108428571D02*
X84454819Y-108333333D01*
X84454819Y-108333333D02*
X84502438Y-108190476D01*
X84502438Y-108190476D02*
X84550057Y-108142857D01*
X85454819Y-107190476D02*
X85454819Y-107761904D01*
X85454819Y-107476190D02*
X84454819Y-107476190D01*
X84454819Y-107476190D02*
X84597676Y-107571428D01*
X84597676Y-107571428D02*
X84692914Y-107666666D01*
X84692914Y-107666666D02*
X84740533Y-107761904D01*
X84550057Y-106809523D02*
X84502438Y-106761904D01*
X84502438Y-106761904D02*
X84454819Y-106666666D01*
X84454819Y-106666666D02*
X84454819Y-106428571D01*
X84454819Y-106428571D02*
X84502438Y-106333333D01*
X84502438Y-106333333D02*
X84550057Y-106285714D01*
X84550057Y-106285714D02*
X84645295Y-106238095D01*
X84645295Y-106238095D02*
X84740533Y-106238095D01*
X84740533Y-106238095D02*
X84883390Y-106285714D01*
X84883390Y-106285714D02*
X85454819Y-106857142D01*
X85454819Y-106857142D02*
X85454819Y-106238095D01*
X93157142Y-93304819D02*
X92823809Y-92828628D01*
X92585714Y-93304819D02*
X92585714Y-92304819D01*
X92585714Y-92304819D02*
X92966666Y-92304819D01*
X92966666Y-92304819D02*
X93061904Y-92352438D01*
X93061904Y-92352438D02*
X93109523Y-92400057D01*
X93109523Y-92400057D02*
X93157142Y-92495295D01*
X93157142Y-92495295D02*
X93157142Y-92638152D01*
X93157142Y-92638152D02*
X93109523Y-92733390D01*
X93109523Y-92733390D02*
X93061904Y-92781009D01*
X93061904Y-92781009D02*
X92966666Y-92828628D01*
X92966666Y-92828628D02*
X92585714Y-92828628D01*
X94109523Y-93304819D02*
X93538095Y-93304819D01*
X93823809Y-93304819D02*
X93823809Y-92304819D01*
X93823809Y-92304819D02*
X93728571Y-92447676D01*
X93728571Y-92447676D02*
X93633333Y-92542914D01*
X93633333Y-92542914D02*
X93538095Y-92590533D01*
X94966666Y-92638152D02*
X94966666Y-93304819D01*
X94728571Y-92257200D02*
X94490476Y-92971485D01*
X94490476Y-92971485D02*
X95109523Y-92971485D01*
X112333333Y-108859580D02*
X112285714Y-108907200D01*
X112285714Y-108907200D02*
X112142857Y-108954819D01*
X112142857Y-108954819D02*
X112047619Y-108954819D01*
X112047619Y-108954819D02*
X111904762Y-108907200D01*
X111904762Y-108907200D02*
X111809524Y-108811961D01*
X111809524Y-108811961D02*
X111761905Y-108716723D01*
X111761905Y-108716723D02*
X111714286Y-108526247D01*
X111714286Y-108526247D02*
X111714286Y-108383390D01*
X111714286Y-108383390D02*
X111761905Y-108192914D01*
X111761905Y-108192914D02*
X111809524Y-108097676D01*
X111809524Y-108097676D02*
X111904762Y-108002438D01*
X111904762Y-108002438D02*
X112047619Y-107954819D01*
X112047619Y-107954819D02*
X112142857Y-107954819D01*
X112142857Y-107954819D02*
X112285714Y-108002438D01*
X112285714Y-108002438D02*
X112333333Y-108050057D01*
X112666667Y-107954819D02*
X113285714Y-107954819D01*
X113285714Y-107954819D02*
X112952381Y-108335771D01*
X112952381Y-108335771D02*
X113095238Y-108335771D01*
X113095238Y-108335771D02*
X113190476Y-108383390D01*
X113190476Y-108383390D02*
X113238095Y-108431009D01*
X113238095Y-108431009D02*
X113285714Y-108526247D01*
X113285714Y-108526247D02*
X113285714Y-108764342D01*
X113285714Y-108764342D02*
X113238095Y-108859580D01*
X113238095Y-108859580D02*
X113190476Y-108907200D01*
X113190476Y-108907200D02*
X113095238Y-108954819D01*
X113095238Y-108954819D02*
X112809524Y-108954819D01*
X112809524Y-108954819D02*
X112714286Y-108907200D01*
X112714286Y-108907200D02*
X112666667Y-108859580D01*
X81633333Y-93959580D02*
X81585714Y-94007200D01*
X81585714Y-94007200D02*
X81442857Y-94054819D01*
X81442857Y-94054819D02*
X81347619Y-94054819D01*
X81347619Y-94054819D02*
X81204762Y-94007200D01*
X81204762Y-94007200D02*
X81109524Y-93911961D01*
X81109524Y-93911961D02*
X81061905Y-93816723D01*
X81061905Y-93816723D02*
X81014286Y-93626247D01*
X81014286Y-93626247D02*
X81014286Y-93483390D01*
X81014286Y-93483390D02*
X81061905Y-93292914D01*
X81061905Y-93292914D02*
X81109524Y-93197676D01*
X81109524Y-93197676D02*
X81204762Y-93102438D01*
X81204762Y-93102438D02*
X81347619Y-93054819D01*
X81347619Y-93054819D02*
X81442857Y-93054819D01*
X81442857Y-93054819D02*
X81585714Y-93102438D01*
X81585714Y-93102438D02*
X81633333Y-93150057D01*
X82014286Y-93150057D02*
X82061905Y-93102438D01*
X82061905Y-93102438D02*
X82157143Y-93054819D01*
X82157143Y-93054819D02*
X82395238Y-93054819D01*
X82395238Y-93054819D02*
X82490476Y-93102438D01*
X82490476Y-93102438D02*
X82538095Y-93150057D01*
X82538095Y-93150057D02*
X82585714Y-93245295D01*
X82585714Y-93245295D02*
X82585714Y-93340533D01*
X82585714Y-93340533D02*
X82538095Y-93483390D01*
X82538095Y-93483390D02*
X81966667Y-94054819D01*
X81966667Y-94054819D02*
X82585714Y-94054819D01*
D11*
%TO.C,R4*%
X98262742Y-104477500D02*
X98737258Y-104477500D01*
X98262742Y-105522500D02*
X98737258Y-105522500D01*
%TO.C,R5*%
X78477500Y-100262742D02*
X78477500Y-100737258D01*
X79522500Y-100262742D02*
X79522500Y-100737258D01*
%TO.C,C4*%
X86490000Y-94140580D02*
X86490000Y-93859420D01*
X87510000Y-94140580D02*
X87510000Y-93859420D01*
%TO.C,J2*%
X108970000Y-104475000D02*
X108970000Y-95525000D01*
X112050000Y-95405000D02*
X112950000Y-95405000D01*
X112050000Y-104595000D02*
X112950000Y-104595000D01*
X115650000Y-95405000D02*
X118380000Y-95405000D01*
X115650000Y-104595000D02*
X118380000Y-104595000D01*
X118380000Y-104595000D02*
X118380000Y-95405000D01*
%TO.C,R15*%
X95477500Y-95237258D02*
X95477500Y-94762742D01*
X96522500Y-95237258D02*
X96522500Y-94762742D01*
%TO.C,R3*%
X101977500Y-107237258D02*
X101977500Y-106762742D01*
X103022500Y-107237258D02*
X103022500Y-106762742D01*
%TO.C,J4*%
X68460000Y-106120000D02*
X68460000Y-108880000D01*
X81270000Y-106120000D02*
X68460000Y-106120000D01*
X81270000Y-106120000D02*
X81270000Y-108880000D01*
X81270000Y-108880000D02*
X68460000Y-108880000D01*
X82540000Y-106120000D02*
X83920000Y-106120000D01*
X83920000Y-106120000D02*
X83920000Y-107500000D01*
%TO.C,Q2*%
X99000000Y-105940000D02*
X98350000Y-105940000D01*
X99000000Y-105940000D02*
X99650000Y-105940000D01*
X99000000Y-109060000D02*
X98350000Y-109060000D01*
X99000000Y-109060000D02*
X99650000Y-109060000D01*
X97837500Y-105990000D02*
X97597500Y-105660000D01*
X98077500Y-105660000D01*
X97837500Y-105990000D01*
G36*
X97837500Y-105990000D02*
G01*
X97597500Y-105660000D01*
X98077500Y-105660000D01*
X97837500Y-105990000D01*
G37*
%TO.C,C5*%
X80490000Y-103865580D02*
X80490000Y-103584420D01*
X81510000Y-103865580D02*
X81510000Y-103584420D01*
%TO.C,C1*%
X73261252Y-92765000D02*
X72738748Y-92765000D01*
X73261252Y-94235000D02*
X72738748Y-94235000D01*
%TO.C,SW1*%
X101450000Y-105100000D02*
X101450000Y-104100000D01*
X101500000Y-97100000D02*
X101500000Y-102900000D01*
X102450000Y-105100000D02*
X101450000Y-105100000D01*
X103450000Y-96900000D02*
X106050000Y-96900000D01*
X103450000Y-103100000D02*
X106050000Y-103100000D01*
X108000000Y-97000000D02*
X108000000Y-103000000D01*
%TO.C,U2*%
X76390000Y-104860000D02*
X76390000Y-104685000D01*
X77065000Y-102140000D02*
X76690000Y-102140000D01*
X77065000Y-104860000D02*
X76390000Y-104860000D01*
X78935000Y-102140000D02*
X79610000Y-102140000D01*
X78935000Y-104860000D02*
X79610000Y-104860000D01*
X79610000Y-102140000D02*
X79610000Y-102315000D01*
X79610000Y-104860000D02*
X79610000Y-104685000D01*
X76390000Y-102140000D02*
X76250000Y-101950000D01*
X76530000Y-101950000D01*
X76390000Y-102140000D01*
G36*
X76390000Y-102140000D02*
G01*
X76250000Y-101950000D01*
X76530000Y-101950000D01*
X76390000Y-102140000D01*
G37*
%TO.C,R17*%
X101437742Y-92977500D02*
X101912258Y-92977500D01*
X101437742Y-94022500D02*
X101912258Y-94022500D01*
%TO.C,J1*%
X64795000Y-95580000D02*
X64795000Y-104770000D01*
X67525000Y-95580000D02*
X64795000Y-95580000D01*
X67525000Y-104770000D02*
X64795000Y-104770000D01*
X71125000Y-95580000D02*
X70225000Y-95580000D01*
X71125000Y-104770000D02*
X70225000Y-104770000D01*
X74205000Y-95700000D02*
X74205000Y-104650000D01*
%TO.C,R6*%
X81312742Y-99677500D02*
X81787258Y-99677500D01*
X81312742Y-100722500D02*
X81787258Y-100722500D01*
%TO.C,U3*%
X83790000Y-97040000D02*
X83790000Y-96630000D01*
X83790000Y-103610000D02*
X83790000Y-102960000D01*
X84440000Y-96390000D02*
X84090000Y-96390000D01*
X84440000Y-103610000D02*
X83790000Y-103610000D01*
X90360000Y-96390000D02*
X91010000Y-96390000D01*
X90360000Y-103610000D02*
X91010000Y-103610000D01*
X91010000Y-96390000D02*
X91010000Y-97040000D01*
X91010000Y-103610000D02*
X91010000Y-102960000D01*
X83790000Y-96390000D02*
X83550000Y-96060000D01*
X84030000Y-96060000D01*
X83790000Y-96390000D01*
G36*
X83790000Y-96390000D02*
G01*
X83550000Y-96060000D01*
X84030000Y-96060000D01*
X83790000Y-96390000D01*
G37*
%TO.C,C9*%
X84265000Y-94261252D02*
X84265000Y-93738748D01*
X85735000Y-94261252D02*
X85735000Y-93738748D01*
%TO.C,D3*%
X97540000Y-98315000D02*
X97540000Y-101000000D01*
X99460000Y-98315000D02*
X97540000Y-98315000D01*
X99460000Y-101000000D02*
X99460000Y-98315000D01*
%TO.C,R16*%
X97977500Y-95237258D02*
X97977500Y-94762742D01*
X99022500Y-95237258D02*
X99022500Y-94762742D01*
%TO.C,U1*%
X75440000Y-94500000D02*
X75440000Y-93700000D01*
X75440000Y-94500000D02*
X75440000Y-95300000D01*
X78560000Y-94500000D02*
X78560000Y-93700000D01*
X78560000Y-94500000D02*
X78560000Y-95300000D01*
X75490000Y-95800000D02*
X75160000Y-96040000D01*
X75160000Y-95560000D01*
X75490000Y-95800000D01*
G36*
X75490000Y-95800000D02*
G01*
X75160000Y-96040000D01*
X75160000Y-95560000D01*
X75490000Y-95800000D01*
G37*
%TO.C,R22*%
X108977500Y-107237258D02*
X108977500Y-106762742D01*
X110022500Y-107237258D02*
X110022500Y-106762742D01*
%TO.C,Q1*%
X105500000Y-105440000D02*
X104850000Y-105440000D01*
X105500000Y-105440000D02*
X106150000Y-105440000D01*
X105500000Y-108560000D02*
X104850000Y-108560000D01*
X105500000Y-108560000D02*
X106150000Y-108560000D01*
X104337500Y-105490000D02*
X104097500Y-105160000D01*
X104577500Y-105160000D01*
X104337500Y-105490000D01*
G36*
X104337500Y-105490000D02*
G01*
X104097500Y-105160000D01*
X104577500Y-105160000D01*
X104337500Y-105490000D01*
G37*
%TO.C,Y1*%
X91500000Y-105950000D02*
X87500000Y-105950000D01*
X91500000Y-109250000D02*
X91500000Y-105950000D01*
%TO.C,R10*%
X89237258Y-104477500D02*
X88762742Y-104477500D01*
X89237258Y-105522500D02*
X88762742Y-105522500D01*
%TO.C,D2*%
X95040000Y-98315000D02*
X95040000Y-101000000D01*
X96960000Y-98315000D02*
X95040000Y-98315000D01*
X96960000Y-101000000D02*
X96960000Y-98315000D01*
%TO.C,D1*%
X92540000Y-98315000D02*
X92540000Y-101000000D01*
X94460000Y-98315000D02*
X92540000Y-98315000D01*
X94460000Y-101000000D02*
X94460000Y-98315000D01*
%TO.C,C11*%
X91990000Y-107359420D02*
X91990000Y-107640580D01*
X93010000Y-107359420D02*
X93010000Y-107640580D01*
%TO.C,R20*%
X112227064Y-92765000D02*
X111772936Y-92765000D01*
X112227064Y-94235000D02*
X111772936Y-94235000D01*
%TO.C,R7*%
X81337742Y-97777500D02*
X81812258Y-97777500D01*
X81337742Y-98822500D02*
X81812258Y-98822500D01*
%TO.C,C6*%
X90515000Y-94311252D02*
X90515000Y-93788748D01*
X91985000Y-94311252D02*
X91985000Y-93788748D01*
%TO.C,C12*%
X85990000Y-107765580D02*
X85990000Y-107484420D01*
X87010000Y-107765580D02*
X87010000Y-107484420D01*
%TO.C,R14*%
X92977500Y-95237258D02*
X92977500Y-94762742D01*
X94022500Y-95237258D02*
X94022500Y-94762742D01*
%TO.C,C3*%
X112238748Y-105765000D02*
X112761252Y-105765000D01*
X112238748Y-107235000D02*
X112761252Y-107235000D01*
%TO.C,C2*%
X80538748Y-94715000D02*
X81061252Y-94715000D01*
X80538748Y-96185000D02*
X81061252Y-96185000D01*
%TD*%
%LPC*%
D12*
%TO.C,R4*%
X97675000Y-105000000D03*
X99325000Y-105000000D03*
%TD*%
D13*
%TO.C,R5*%
X79000000Y-99675000D03*
X79000000Y-101325000D03*
%TD*%
D14*
%TO.C,C4*%
X87000000Y-94775000D03*
X87000000Y-93225000D03*
%TD*%
D15*
%TO.C,J2*%
X109650000Y-102975000D03*
X109650000Y-102125000D03*
X109650000Y-101275000D03*
X109650000Y-100425000D03*
X109650000Y-99575000D03*
X109650000Y-98725000D03*
X109650000Y-97875000D03*
X109650000Y-97025000D03*
X111000000Y-97025000D03*
X111000000Y-97875000D03*
X111000000Y-98725000D03*
X111000000Y-99575000D03*
X111000000Y-100425000D03*
X111000000Y-101275000D03*
X111000000Y-102125000D03*
X111000000Y-102975000D03*
D16*
X110630000Y-104325000D03*
D17*
X114010000Y-104325000D03*
D16*
X110630000Y-95675000D03*
D17*
X114010000Y-95675000D03*
%TD*%
D18*
%TO.C,R15*%
X96000000Y-95825000D03*
X96000000Y-94175000D03*
%TD*%
%TO.C,R3*%
X102500000Y-107825000D03*
X102500000Y-106175000D03*
%TD*%
D19*
%TO.C,J4*%
X82540000Y-107500000D03*
D20*
X80000000Y-107500000D03*
X77460000Y-107500000D03*
X74920000Y-107500000D03*
X72380000Y-107500000D03*
X69840000Y-107500000D03*
%TD*%
D21*
%TO.C,Q2*%
X98062500Y-106550000D03*
X98062500Y-108450000D03*
X99937500Y-107500000D03*
%TD*%
D14*
%TO.C,C5*%
X81000000Y-104500000D03*
X81000000Y-102950000D03*
%TD*%
D22*
%TO.C,LS1*%
X108100000Y-93500000D03*
D23*
X104500000Y-93500000D03*
%TD*%
D24*
%TO.C,C1*%
X73950000Y-93500000D03*
X72050000Y-93500000D03*
%TD*%
D25*
%TO.C,SW1*%
X102500000Y-104000000D03*
X102500000Y-96000000D03*
X107000000Y-104000000D03*
X107000000Y-96000000D03*
%TD*%
D26*
%TO.C,U2*%
X76837500Y-102750000D03*
X76837500Y-103250000D03*
X76837500Y-103750000D03*
X76837500Y-104250000D03*
D27*
X77500000Y-104412500D03*
X78000000Y-104412500D03*
X78500000Y-104412500D03*
D26*
X79162500Y-104250000D03*
X79162500Y-103750000D03*
X79162500Y-103250000D03*
X79162500Y-102750000D03*
D27*
X78500000Y-102587500D03*
X78000000Y-102587500D03*
X77500000Y-102587500D03*
%TD*%
D12*
%TO.C,R17*%
X100850000Y-93500000D03*
X102500000Y-93500000D03*
%TD*%
D15*
%TO.C,J1*%
X73525000Y-97200000D03*
X73525000Y-98050000D03*
X73525000Y-98900000D03*
X73525000Y-99750000D03*
X73525000Y-100600000D03*
X73525000Y-101450000D03*
X73525000Y-102300000D03*
X73525000Y-103150000D03*
X72175000Y-103150000D03*
X72175000Y-102300000D03*
X72175000Y-101450000D03*
X72175000Y-100600000D03*
X72175000Y-99750000D03*
X72175000Y-98900000D03*
X72175000Y-98050000D03*
X72175000Y-97200000D03*
D16*
X72545000Y-95850000D03*
D17*
X69165000Y-95850000D03*
D16*
X72545000Y-104500000D03*
D17*
X69165000Y-104500000D03*
%TD*%
D12*
%TO.C,R6*%
X80725000Y-100200000D03*
X82375000Y-100200000D03*
%TD*%
D28*
%TO.C,U3*%
X83962500Y-97400000D03*
X83962500Y-97800000D03*
X83962500Y-98200000D03*
X83962500Y-98600000D03*
X83962500Y-99000000D03*
X83962500Y-99400000D03*
X83962500Y-99800000D03*
X83962500Y-100200000D03*
X83962500Y-100600000D03*
X83962500Y-101000000D03*
X83962500Y-101400000D03*
X83962500Y-101800000D03*
X83962500Y-102200000D03*
X83962500Y-102600000D03*
D29*
X84800000Y-103437500D03*
X85200000Y-103437500D03*
X85600000Y-103437500D03*
X86000000Y-103437500D03*
X86400000Y-103437500D03*
X86800000Y-103437500D03*
X87200000Y-103437500D03*
X87600000Y-103437500D03*
X88000000Y-103437500D03*
X88400000Y-103437500D03*
X88800000Y-103437500D03*
X89200000Y-103437500D03*
X89600000Y-103437500D03*
X90000000Y-103437500D03*
D28*
X90837500Y-102600000D03*
X90837500Y-102200000D03*
X90837500Y-101800000D03*
X90837500Y-101400000D03*
X90837500Y-101000000D03*
X90837500Y-100600000D03*
X90837500Y-100200000D03*
X90837500Y-99800000D03*
X90837500Y-99400000D03*
X90837500Y-99000000D03*
X90837500Y-98600000D03*
X90837500Y-98200000D03*
X90837500Y-97800000D03*
X90837500Y-97400000D03*
D29*
X90000000Y-96562500D03*
X89600000Y-96562500D03*
X89200000Y-96562500D03*
X88800000Y-96562500D03*
X88400000Y-96562500D03*
X88000000Y-96562500D03*
X87600000Y-96562500D03*
X87200000Y-96562500D03*
X86800000Y-96562500D03*
X86400000Y-96562500D03*
X86000000Y-96562500D03*
X85600000Y-96562500D03*
X85200000Y-96562500D03*
X84800000Y-96562500D03*
D30*
X87400000Y-100000000D03*
%TD*%
D31*
%TO.C,C9*%
X85000000Y-94950000D03*
X85000000Y-93050000D03*
%TD*%
D32*
%TO.C,D3*%
X98500000Y-99062500D03*
X98500000Y-100937500D03*
%TD*%
D18*
%TO.C,R16*%
X98500000Y-95825000D03*
X98500000Y-94175000D03*
%TD*%
D33*
%TO.C,U1*%
X76050000Y-95637500D03*
X77950000Y-95637500D03*
X77000000Y-93362500D03*
%TD*%
D18*
%TO.C,R22*%
X109500000Y-107825000D03*
X109500000Y-106175000D03*
%TD*%
D21*
%TO.C,Q1*%
X104562500Y-106050000D03*
X104562500Y-107950000D03*
X106437500Y-107000000D03*
%TD*%
D34*
%TO.C,Y1*%
X90600000Y-106800000D03*
X88400000Y-106800000D03*
X88400000Y-108400000D03*
X90600000Y-108400000D03*
%TD*%
D35*
%TO.C,R10*%
X89825000Y-105000000D03*
X88175000Y-105000000D03*
%TD*%
D32*
%TO.C,D2*%
X96000000Y-99062500D03*
X96000000Y-100937500D03*
%TD*%
%TO.C,D1*%
X93500000Y-99062500D03*
X93500000Y-100937500D03*
%TD*%
D36*
%TO.C,C11*%
X92500000Y-106725000D03*
X92500000Y-108275000D03*
%TD*%
D37*
%TO.C,R20*%
X112912500Y-93500000D03*
X111087500Y-93500000D03*
%TD*%
D12*
%TO.C,R7*%
X80750000Y-98300000D03*
X82400000Y-98300000D03*
%TD*%
D31*
%TO.C,C6*%
X91250000Y-95000000D03*
X91250000Y-93100000D03*
%TD*%
D14*
%TO.C,C12*%
X86500000Y-108400000D03*
X86500000Y-106850000D03*
%TD*%
D18*
%TO.C,R14*%
X93500000Y-95825000D03*
X93500000Y-94175000D03*
%TD*%
D38*
%TO.C,C3*%
X111550000Y-106500000D03*
X113450000Y-106500000D03*
%TD*%
%TO.C,C2*%
X79850000Y-95450000D03*
X81750000Y-95450000D03*
%TD*%
%LPD*%
M02*
