%TF.GenerationSoftware,KiCad,Pcbnew,9.0.4*%
%TF.CreationDate,2025-10-08T22:54:58+01:00*%
%TF.ProjectId,DashcamPower,44617368-6361-46d5-906f-7765722e6b69,rev?*%
%TF.SameCoordinates,Original*%
%TF.FileFunction,Soldermask,Bot*%
%TF.FilePolarity,Negative*%
%FSLAX46Y46*%
G04 Gerber Fmt 4.6, Leading zero omitted, Abs format (unit mm)*
G04 Created by KiCad (PCBNEW 9.0.4) date 2025-10-08 22:54:58*
%MOMM*%
%LPD*%
G01*
G04 APERTURE LIST*
G04 Aperture macros list*
%AMRoundRect*
0 Rectangle with rounded corners*
0 $1 Rounding radius*
0 $2 $3 $4 $5 $6 $7 $8 $9 X,Y pos of 4 corners*
0 Add a 4 corners polygon primitive as box body*
4,1,4,$2,$3,$4,$5,$6,$7,$8,$9,$2,$3,0*
0 Add four circle primitives for the rounded corners*
1,1,$1+$1,$2,$3*
1,1,$1+$1,$4,$5*
1,1,$1+$1,$6,$7*
1,1,$1+$1,$8,$9*
0 Add four rect primitives between the rounded corners*
20,1,$1+$1,$2,$3,$4,$5,0*
20,1,$1+$1,$4,$5,$6,$7,0*
20,1,$1+$1,$6,$7,$8,$9,0*
20,1,$1+$1,$8,$9,$2,$3,0*%
G04 Aperture macros list end*
%ADD10RoundRect,0.225000X-0.225000X-0.250000X0.225000X-0.250000X0.225000X0.250000X-0.225000X0.250000X0*%
%ADD11C,0.700000*%
%ADD12O,2.400000X0.900000*%
%ADD13O,1.700000X0.900000*%
%ADD14R,1.700000X1.700000*%
%ADD15C,1.700000*%
%ADD16RoundRect,0.250000X0.550000X0.550000X-0.550000X0.550000X-0.550000X-0.550000X0.550000X-0.550000X0*%
%ADD17C,1.600000*%
%ADD18RoundRect,0.150000X-0.587500X-0.150000X0.587500X-0.150000X0.587500X0.150000X-0.587500X0.150000X0*%
%ADD19RoundRect,0.200000X0.275000X-0.200000X0.275000X0.200000X-0.275000X0.200000X-0.275000X-0.200000X0*%
%ADD20RoundRect,0.200000X-0.200000X-0.275000X0.200000X-0.275000X0.200000X0.275000X-0.200000X0.275000X0*%
%ADD21RoundRect,0.200000X0.200000X0.275000X-0.200000X0.275000X-0.200000X-0.275000X0.200000X-0.275000X0*%
%ADD22RoundRect,0.200000X-0.275000X0.200000X-0.275000X-0.200000X0.275000X-0.200000X0.275000X0.200000X0*%
%ADD23RoundRect,0.225000X-0.250000X0.225000X-0.250000X-0.225000X0.250000X-0.225000X0.250000X0.225000X0*%
%ADD24RoundRect,0.225000X0.225000X0.250000X-0.225000X0.250000X-0.225000X-0.250000X0.225000X-0.250000X0*%
%ADD25RoundRect,0.225000X0.250000X-0.225000X0.250000X0.225000X-0.250000X0.225000X-0.250000X-0.225000X0*%
%ADD26RoundRect,0.162500X-0.650000X-0.162500X0.650000X-0.162500X0.650000X0.162500X-0.650000X0.162500X0*%
G04 APERTURE END LIST*
D10*
%TO.C,C17*%
X90200000Y-95450000D03*
X91750000Y-95450000D03*
%TD*%
D11*
%TO.C,J2*%
X109650000Y-102975000D03*
X109650000Y-102125000D03*
X109650000Y-101275000D03*
X109650000Y-100425000D03*
X109650000Y-99575000D03*
X109650000Y-98725000D03*
X109650000Y-97875000D03*
X109650000Y-97025000D03*
X111000000Y-97025000D03*
X111000000Y-97875000D03*
X111000000Y-98725000D03*
X111000000Y-99575000D03*
X111000000Y-100425000D03*
X111000000Y-101275000D03*
X111000000Y-102125000D03*
X111000000Y-102975000D03*
D12*
X110630000Y-104325000D03*
D13*
X114010000Y-104325000D03*
D12*
X110630000Y-95675000D03*
D13*
X114010000Y-95675000D03*
%TD*%
D14*
%TO.C,J4*%
X82540000Y-107500000D03*
D15*
X80000000Y-107500000D03*
X77460000Y-107500000D03*
X74920000Y-107500000D03*
X72380000Y-107500000D03*
X69840000Y-107500000D03*
%TD*%
D16*
%TO.C,LS1*%
X108100000Y-93500000D03*
D17*
X104500000Y-93500000D03*
%TD*%
D11*
%TO.C,J1*%
X73525000Y-97200000D03*
X73525000Y-98050000D03*
X73525000Y-98900000D03*
X73525000Y-99750000D03*
X73525000Y-100600000D03*
X73525000Y-101450000D03*
X73525000Y-102300000D03*
X73525000Y-103150000D03*
X72175000Y-103150000D03*
X72175000Y-102300000D03*
X72175000Y-101450000D03*
X72175000Y-100600000D03*
X72175000Y-99750000D03*
X72175000Y-98900000D03*
X72175000Y-98050000D03*
X72175000Y-97200000D03*
D12*
X72545000Y-95850000D03*
D13*
X69165000Y-95850000D03*
D12*
X72545000Y-104500000D03*
D13*
X69165000Y-104500000D03*
%TD*%
D18*
%TO.C,Q3*%
X99000000Y-95400000D03*
X99000000Y-93500000D03*
X100875000Y-94450000D03*
%TD*%
D19*
%TO.C,R21*%
X93500000Y-103825000D03*
X93500000Y-102175000D03*
%TD*%
D10*
%TO.C,C7*%
X87225000Y-103000000D03*
X88775000Y-103000000D03*
%TD*%
D20*
%TO.C,R8*%
X75675000Y-99500000D03*
X77325000Y-99500000D03*
%TD*%
D21*
%TO.C,R9*%
X77325000Y-101000000D03*
X75675000Y-101000000D03*
%TD*%
D22*
%TO.C,R13*%
X108000000Y-99675000D03*
X108000000Y-101325000D03*
%TD*%
D23*
%TO.C,C14*%
X95000000Y-102225000D03*
X95000000Y-103775000D03*
%TD*%
D22*
%TO.C,R11*%
X113450000Y-97125000D03*
X113450000Y-98775000D03*
%TD*%
D20*
%TO.C,R19*%
X95000000Y-94500000D03*
X96650000Y-94500000D03*
%TD*%
D19*
%TO.C,R18*%
X102500000Y-99650000D03*
X102500000Y-98000000D03*
%TD*%
D24*
%TO.C,C15*%
X105275000Y-107000000D03*
X103725000Y-107000000D03*
%TD*%
D25*
%TO.C,C10*%
X91000000Y-100775000D03*
X91000000Y-99225000D03*
%TD*%
D26*
%TO.C,U4*%
X81412500Y-100905000D03*
X81412500Y-99635000D03*
X81412500Y-98365000D03*
X81412500Y-97095000D03*
X88587500Y-97095000D03*
X88587500Y-98365000D03*
X88587500Y-99635000D03*
X88587500Y-100905000D03*
%TD*%
D10*
%TO.C,C16*%
X87225000Y-104600000D03*
X88775000Y-104600000D03*
%TD*%
D21*
%TO.C,R1*%
X70325000Y-101500000D03*
X68675000Y-101500000D03*
%TD*%
D24*
%TO.C,C8*%
X77275000Y-104500000D03*
X75725000Y-104500000D03*
%TD*%
D20*
%TO.C,R12*%
X104375000Y-102150000D03*
X106025000Y-102150000D03*
%TD*%
D10*
%TO.C,C13*%
X104450000Y-98000000D03*
X106000000Y-98000000D03*
%TD*%
D20*
%TO.C,R2*%
X75675000Y-97700000D03*
X77325000Y-97700000D03*
%TD*%
M02*
